<svg width="77" height="72" viewBox="0 0 77 72" fill="none" xmlns="http://www.w3.org/2000/svg">
<path d="M70.151 7.39973C70.2779 7.5186 70.373 7.96436 70.4364 8.73702C70.5633 9.45024 70.6267 10.2229 70.6267 11.055C70.5633 11.8277 70.4681 12.2734 70.3413 12.3923L16.023 63.2987L19.2573 67.9347L16.4035 70.6092C16.4035 70.6092 16.1498 70.4309 15.6425 70.0743C15.0083 69.7177 14.2472 69.2422 13.3594 68.6479C12.4081 68.113 11.4885 67.5483 10.6007 66.954C9.71279 66.3596 8.95176 65.8247 8.31757 65.3492C7.61996 64.9332 7.17603 64.636 6.98578 64.4577C6.79552 64.2794 6.66868 63.8039 6.60526 63.0312C6.54184 62.2586 6.51013 61.5156 6.51014 60.8024C6.51013 60.0892 6.63697 59.6137 6.89064 59.376L61.0187 8.64787L57.9746 4.01191L60.9236 1.24817C60.9236 1.24817 61.3675 1.54535 62.2554 2.1397C63.0798 2.67462 64.0628 3.29869 65.2044 4.01192C66.3459 4.72514 67.424 5.43837 68.4387 6.15159C69.39 6.80538 69.9608 7.22143 70.151 7.39973Z" fill="#B5897C"/>
<path d="M6.84945 7.4532C6.72261 7.57207 6.62747 8.01783 6.56405 8.79049C6.43721 9.50371 6.37379 10.2764 6.37379 11.1085C6.43721 11.8811 6.53235 12.3269 6.65919 12.4458L60.9775 63.3522L57.7432 67.9881L60.597 70.6627C60.597 70.6627 60.8507 70.4844 61.358 70.1278C61.9922 69.7712 62.7532 69.2957 63.6411 68.7013C64.5924 68.1664 65.512 67.6018 66.3998 67.0074C67.2877 66.4131 68.0487 65.8782 68.6829 65.4027C69.3805 64.9866 69.8245 64.6895 70.0147 64.5111C70.205 64.3328 70.3318 63.8574 70.3952 63.0847C70.4586 62.312 70.4904 61.5691 70.4904 60.8559C70.4904 60.1426 70.3635 59.6672 70.1098 59.4294L15.9818 8.70134L19.0259 4.06538L16.0769 1.30164C16.0769 1.30164 15.633 1.59882 14.7451 2.19317C13.9207 2.72809 12.9377 3.35216 11.7961 4.06538C10.6546 4.77861 9.57646 5.49183 8.56176 6.20506C7.61047 6.85885 7.03971 7.2749 6.84945 7.4532Z" fill="#B5897C"/>
</svg>
