<svg width="1252" height="241" viewBox="0 0 1252 241" fill="none" xmlns="http://www.w3.org/2000/svg">
<mask id="mask0_113_542" style="mask-type:alpha" maskUnits="userSpaceOnUse" x="0" y="0" width="1252" height="241">
<path d="M1199.16 31.6065C1211 28.4773 1221.87 29.1961 1231.76 33.7631C1238.44 36.9769 1243.64 41.417 1247.37 47.0835C1251.09 52.7499 1252.57 59.093 1251.81 66.1126C1251.04 73.1322 1248.72 78.3335 1244.83 81.7164C1241.02 85.0994 1237.89 87.7212 1235.44 89.5818C1232.99 91.4424 1230.66 93.3876 1228.46 95.4174C1224.15 99.4769 1223.81 103.114 1227.45 106.327C1238.87 116.223 1245.42 124.553 1247.11 131.319C1248.89 138.085 1247.7 144.047 1243.56 149.206C1237.81 156.311 1231.68 163.076 1225.17 169.504C1218.74 175.847 1212.35 182.275 1206.01 188.787C1202.88 191.832 1200.98 191.662 1200.3 188.279C1199.2 183.628 1194.21 179.568 1185.33 176.101C1176.54 172.549 1167.23 169.166 1157.42 165.952C1155.65 165.275 1155.52 164.007 1157.04 162.146C1159.32 159.778 1161.69 157.41 1164.15 155.042C1166.6 152.674 1169.05 150.348 1171.5 148.065C1175.31 144.512 1176.58 141.383 1175.31 138.677C1174.13 135.886 1171.88 132.757 1168.59 129.289C1160.3 120.663 1156.28 112.586 1156.53 105.059C1156.87 97.5317 1159.62 90.8927 1164.78 85.1417C1169.6 79.8135 1175.01 74.9505 1181.02 70.5527C1187.11 66.0703 1192.86 61.0804 1198.27 55.5832C1198.95 54.9911 1199.84 55.2026 1200.94 56.2175C1212.27 66.2817 1221.7 71.3562 1229.22 71.4407C1236.84 71.5253 1241.78 69.2841 1244.07 64.7171C1246.35 60.0656 1246.14 55.2449 1243.43 50.255C1240.73 45.1806 1236.33 40.9942 1230.24 37.6958C1221.02 33.1288 1210.91 32.7059 1199.92 36.4272C1197.72 37.2729 1196.41 36.8078 1195.99 35.0317C1195.56 33.2557 1196.62 32.1139 1199.16 31.6065ZM1178.86 145.527C1178.02 146.965 1178.27 148.065 1179.62 148.826C1185.63 151.617 1191.63 154.365 1197.64 157.072C1203.64 159.778 1209.69 162.4 1215.78 164.937C1220.01 166.798 1224.24 164.387 1228.46 157.706C1233.71 149.333 1226.77 138.339 1207.66 124.722C1204.7 122.946 1201.06 123.792 1196.75 127.259L1178.86 145.527ZM1196.37 119.14C1197.38 119.902 1198.31 119.859 1199.16 119.013L1222.76 95.9248C1223.52 95.0791 1223.73 94.3179 1223.39 93.6413C1223.14 92.8802 1222.5 92.4573 1221.49 92.3727C1216.67 91.8653 1211.34 90.0047 1205.5 86.7909C1196.11 81.4627 1189.98 77.8683 1187.11 76.0077C1184.23 74.1471 1180.55 75.8386 1176.07 81.0821C1170.4 87.7635 1170.36 94.1488 1175.94 100.238C1181.61 106.327 1188.42 112.628 1196.37 119.14Z" fill="white"/>
<path d="M1096.85 173.183C1090.76 175.974 1083.45 179.103 1074.91 182.57C1066.36 185.953 1059.68 189.421 1054.86 192.973C1053.09 194.157 1051.82 194.622 1051.06 194.369C1050.3 194.115 1050 193.396 1050.17 192.212C1050.25 190.69 1049.58 188.11 1048.14 184.473C1046.79 180.837 1045.14 177.581 1043.19 174.705C1037.78 166.84 1034.27 159.651 1032.66 153.139C1031.05 146.627 1029.74 138.888 1028.73 129.923C1027.8 121.297 1029.7 113.135 1034.44 105.439C1039.26 97.743 1045.56 90.8925 1053.34 84.8878C1058.25 81.1665 1062.85 77.2338 1067.17 73.0897C1071.48 68.9456 1075.24 63.9135 1078.46 57.9933C1079.9 55.3715 1081.8 55.2869 1084.17 57.7396C1096.85 72.1171 1110.39 80.7859 1124.76 83.746C1128.48 84.6763 1129.29 86.0295 1127.17 87.8056C1119.39 99.223 1115.92 110.894 1116.77 122.819C1117.62 134.659 1120.36 146.669 1125.02 158.848V158.974L1125.14 159.101C1132.75 186.926 1130.18 207.097 1117.4 219.614C1104.72 232.215 1092.12 239.15 1079.6 240.419C1057.95 242.533 1043.61 236.951 1036.59 223.673C1034.99 220.629 1034.95 217.753 1036.47 215.047C1038.07 212.34 1040.4 210.734 1043.44 210.226C1049.45 209.211 1054.74 213.102 1059.3 221.897C1065.56 234.499 1074.69 238.347 1086.7 233.442C1097.02 229.128 1102.94 221.686 1104.46 211.114C1105.99 200.542 1104.46 188.406 1099.9 174.705C1099.9 174.536 1099.86 174.409 1099.77 174.325L1099.64 174.198C1099.14 172.929 1098.21 172.591 1096.85 173.183ZM1104.21 102.395C1099.48 100.449 1093.85 97.447 1087.34 93.3874C1080.83 89.3279 1076.05 85.9027 1073 83.1117L1072.75 82.9849C1072.75 82.9003 1072.75 82.8157 1072.75 82.7311C1069.71 78.2487 1067 77.8681 1064.63 81.5894C1055.67 94.9521 1052.11 109.71 1053.97 125.864C1055.24 136.605 1057.57 146.5 1060.95 155.549C1064.33 164.599 1069.58 170.519 1076.68 173.31L1076.81 173.437H1076.94C1081.67 174.705 1087.8 172.929 1095.33 168.108C1096.18 167.685 1096.47 166.882 1096.22 165.698C1092.67 155.972 1091.31 146.119 1092.16 136.139C1093.09 126.075 1097.4 115.842 1105.1 105.439C1105.86 104.086 1105.56 103.071 1104.21 102.395Z" fill="white"/>
<path d="M933.274 142.989C933.19 156.606 935.727 164.471 940.886 166.585C941.478 167.008 941.774 167.6 941.774 168.362C941.774 169.038 941.478 169.546 940.886 169.884C933.274 175.635 927.101 183.289 922.364 192.846C921.857 193.522 921.223 193.861 920.462 193.861C919.7 193.861 919.066 193.522 918.559 192.846C913.823 183.289 907.395 175.677 899.276 170.011C898.768 169.672 898.515 169.123 898.515 168.362C898.515 167.6 898.811 167.008 899.403 166.585C904.9 164.471 907.649 156.606 907.649 142.989V100.872C907.649 92.2451 906.042 86.9593 902.828 85.0141C899.107 82.5614 896.062 83.4494 893.694 87.6781C892.764 89.4542 891.706 89.8771 890.522 88.9467C889.338 88.0164 889.381 86.5364 890.649 84.5066C893.102 80.6162 895.428 76.6413 897.627 72.5817C899.91 68.5222 902.236 64.4626 904.604 60.4031C905.957 57.9505 907.86 57.443 910.313 58.8808L910.44 59.0076C922.872 65.2661 930.314 72.92 932.767 81.9694C932.936 82.8997 933.359 83.4494 934.036 83.6186C934.712 83.7877 935.389 83.6186 936.065 83.1112C940.717 79.2208 945.495 75.1189 950.401 70.8057C955.306 66.4924 958.647 62.5174 960.423 58.8808C961.353 56.6818 962.875 56.7241 964.99 59.0076C970.064 64.3358 974.377 68.5645 977.929 71.6937C981.566 74.8229 987.698 77.1487 996.324 78.671C997.847 79.0093 998.608 79.6859 998.608 80.7008C998.692 81.6311 998.185 82.2654 997.085 82.6037C994.886 83.4494 992.941 84.9295 991.25 87.0438C989.558 89.0736 988.713 92.4988 988.713 97.3195V150.982C988.713 159.608 990.319 164.894 993.533 166.839C997.255 169.123 1000.26 168.192 1002.54 164.048C1003.47 162.441 1004.53 162.103 1005.71 163.033C1006.98 163.879 1006.98 165.317 1005.71 167.347C1003.17 171.322 1000.76 175.339 998.481 179.398C996.282 183.373 994.041 187.348 991.757 191.323C990.235 193.691 988.332 194.241 986.049 192.972C970.656 185.53 962.96 174.493 962.96 159.862L963.087 94.9092C963.087 92.372 962.452 90.7228 961.184 89.9616H961.057V89.7079L950.274 80.8277C949.344 80.1511 948.371 80.1088 947.356 80.7008L934.163 90.9765C933.57 91.3994 933.274 91.9068 933.274 92.4988V142.989Z" fill="white"/>
<path d="M824.753 158.975L823.865 89.4551C823.865 87.8482 823.611 86.5373 823.103 85.5224C821.074 82.224 819.34 81.4206 817.902 83.112L812.828 88.3133C811.475 89.8357 810.164 90.0048 808.895 88.8208C807.711 87.6367 807.922 85.9876 809.529 83.8732C813.251 79.2217 816.591 74.5701 819.551 69.9185C822.511 65.267 825.556 60.6577 828.685 56.0907C830.039 54.4838 831.603 54.5261 833.379 56.2176C836.931 60.5308 840.399 64.3367 843.782 67.635C847.165 70.8488 851.985 74.2741 858.244 77.9108C860.02 78.5873 860.781 79.3908 860.527 80.3211C860.358 81.2514 859.808 81.7589 858.878 81.8434C856.679 82.6892 854.734 84.1692 853.043 86.2836C851.351 88.3133 850.505 91.7386 850.505 96.5593V150.221C850.505 158.848 852.112 164.134 855.326 166.079C859.047 168.278 862.092 167.348 864.46 163.288C865.306 161.681 866.321 161.343 867.505 162.273C868.773 163.119 868.773 164.557 867.505 166.586C864.967 170.561 862.599 174.579 860.401 178.638C858.202 182.613 855.96 186.588 853.677 190.563C852.07 192.931 850.083 193.439 847.714 192.085C840.103 188.449 834.352 184.009 830.461 178.765C826.656 173.521 824.753 166.925 824.753 158.975ZM843.147 8.39111C852.535 8.39111 856.806 12.9158 855.96 21.9652C855.453 26.5322 852.577 31.1415 847.334 35.793C842.175 40.36 838.073 42.6012 835.028 42.5166C831.984 42.5166 829.658 40.1063 828.051 35.2856C826.444 30.4649 825.81 26.0247 826.148 21.9652C826.402 18.0748 828.262 14.861 831.73 12.3238C835.282 9.70201 839.088 8.39111 843.147 8.39111Z" fill="white"/>
<path d="M694.284 175.593C692.678 176.185 691.789 175.931 691.62 174.831C691.451 173.647 692.085 172.379 693.523 171.026C703.249 158.086 708.112 145.907 708.112 134.49C708.197 123.072 704.18 113.219 696.06 104.931C682.444 90.9765 676.608 80.0242 678.554 72.0742C680.499 64.0397 687.053 54.4406 698.217 43.2769C699.317 42.0928 700.289 41.8814 701.135 42.6426C702.065 43.4037 702.023 44.3763 701.008 45.5604C695.088 52.6646 694.665 58.7962 699.739 63.9552C705.913 70.2136 710.734 75.7955 714.202 80.7008C714.878 81.7157 715.808 81.9271 716.992 81.3351C724.435 77.2755 731.497 72.9623 738.178 68.3953C744.944 63.7437 751.625 58.8384 758.222 53.6794C758.899 53.0874 759.618 52.9183 760.379 53.172C761.14 53.4257 761.563 54.0177 761.647 54.9481C762.409 59.5996 764.1 63.5746 766.722 66.873C769.344 70.1713 772.05 73.3851 774.841 76.5144C785.074 88.693 789.684 102.225 788.669 117.11C787.316 135.631 781.057 149.628 769.893 159.101C764.311 163.921 758.603 169.334 752.767 175.339C746.932 181.259 742.111 186.883 738.305 192.211C737.375 193.226 736.444 193.395 735.514 192.719C730.778 189.674 724.435 185.488 716.485 180.16C708.535 174.831 701.135 173.309 694.284 175.593ZM717.246 154.661C721.813 156.352 726.761 158.805 732.089 162.018C737.924 165.486 743.126 168.573 747.693 171.279C748.792 171.956 749.723 171.702 750.484 170.518C752.936 166.374 755.77 160.792 758.983 153.773C762.197 146.753 763.931 138.761 764.185 129.796C764.269 120.577 762.493 112.289 758.856 104.931C755.22 97.5732 751.203 90.5536 746.805 83.8723C741.899 76.7681 732.765 77.0641 719.403 84.7603C718.219 85.3523 717.965 86.2826 718.642 87.5512C725.83 100.153 728.452 111.866 726.507 122.692C724.731 133.01 721.263 142.609 716.104 151.489C715.851 151.912 715.808 152.504 715.978 153.265C716.147 154.026 716.57 154.491 717.246 154.661Z" fill="white"/>
<path d="M618.746 170.9C614.432 174.198 609.696 177.835 604.537 181.81C599.378 185.7 594.6 189.295 590.202 192.593C588.68 193.777 587.453 194.284 586.523 194.115C585.677 193.946 585.339 193.185 585.508 191.832C585.508 190.056 582.886 186.673 577.643 181.683C563.857 168.743 557.218 151.913 557.726 131.192C558.233 113.432 566.479 98.42 582.464 86.1568C587.369 82.4356 591.936 78.5029 596.165 74.3588C600.478 70.2147 604.284 65.1825 607.582 59.2624C608.935 56.6406 610.796 56.556 613.164 59.0086C626.019 73.5553 638.874 82.1396 651.73 84.7613C655.789 85.5225 656.212 87.1294 652.998 89.5821C649.023 92.4576 646.867 96.0097 646.528 100.238V100.492L646.909 158.467C646.909 162.358 648.304 165.022 651.095 166.46C653.971 167.897 657.058 166.798 660.356 163.161C661.625 161.723 662.809 161.385 663.908 162.146C665.092 162.823 665.134 164.092 664.035 165.952C660.99 170.519 658.03 175.002 655.155 179.399C652.364 183.797 649.996 188.364 648.051 193.1L647.924 193.227C646.74 195.172 645.302 195.172 643.61 193.227C642.68 192.212 641.581 191.536 640.312 191.197C630.671 189.083 624.581 182.698 622.044 172.041C621.875 171.534 621.452 171.027 620.776 170.519C620.014 170.435 619.338 170.561 618.746 170.9ZM620.141 96.1788C614.898 94.7411 608.766 90.6815 601.746 84.0002C598.363 79.9406 595.657 79.5601 593.627 82.8584C584.663 96.2211 581.153 110.979 583.098 127.133C585.804 150.221 593.923 164.472 607.455 169.885C607.54 169.885 607.624 169.927 607.709 170.012C611.176 171.111 615.363 169.039 620.268 163.796C620.606 163.288 620.776 162.823 620.776 162.4C620.691 161.131 620.649 159.144 620.649 156.438L621.79 98.2086C621.79 97.1937 621.241 96.5171 620.141 96.1788Z" fill="white"/>
<path d="M498.553 93.6411L498.426 155.169C498.426 157.875 499.103 159.609 500.456 160.37L509.59 165.698C511.535 166.882 514.495 164.81 518.47 159.482C519.316 158.382 520.373 158.171 521.641 158.847C522.91 159.439 522.91 160.497 521.641 162.019C512.761 171.914 505.953 181.64 501.217 191.197C499.779 193.142 498.215 193.142 496.523 191.197C491.787 185.7 487.347 181.513 483.203 178.638C479.143 175.762 473.138 173.394 465.188 171.534C463.666 171.111 462.905 170.434 462.905 169.504C462.905 168.573 463.455 167.897 464.554 167.474C470.221 166.544 473.012 161.681 472.927 152.885V99.223C472.927 90.5964 471.32 85.3106 468.106 83.3654C464.385 80.9127 461.34 81.8008 458.972 86.0294C458.042 87.8055 456.985 88.2284 455.801 87.2981C454.617 86.3677 454.659 84.8877 455.928 82.8579C458.38 78.9675 460.706 74.9926 462.905 70.933C465.188 66.8735 467.514 62.814 469.882 58.7544C471.32 56.2172 473.223 55.752 475.591 57.3589C488.023 63.3637 495.466 70.9753 497.919 80.1939C498.172 81.0396 498.68 81.5893 499.441 81.843C500.202 82.0122 500.879 81.7162 501.471 80.955L521.007 58.5007C521.515 57.9932 522.107 57.7818 522.783 57.8664C523.46 57.8664 524.01 58.2047 524.432 58.8813L537.753 84.3803C538.091 85.1414 538.007 85.8603 537.499 86.5369L522.276 104.805C521.684 105.397 521.007 105.651 520.246 105.566C519.569 105.481 519.104 105.101 518.851 104.424L508.575 85.3951C508.237 84.8877 507.687 84.5917 506.926 84.5071C506.249 84.338 505.615 84.5494 505.023 85.1414L499.06 92.3725C498.722 92.7108 498.553 93.1336 498.553 93.6411Z" fill="white"/>
<path d="M395.74 173.183C389.65 175.974 382.335 179.103 373.793 182.57C365.251 185.953 358.569 189.421 353.749 192.973C351.973 194.157 350.704 194.622 349.943 194.369C349.182 194.115 348.886 193.396 349.055 192.212C349.139 190.69 348.463 188.11 347.025 184.473C345.672 180.837 344.023 177.581 342.077 174.705C336.665 166.84 333.155 159.651 331.548 153.139C329.941 146.627 328.63 138.888 327.615 129.923C326.685 121.297 328.588 113.135 333.324 105.439C338.145 97.743 344.446 90.8925 352.226 84.8878C357.132 81.1665 361.741 77.2338 366.054 73.0897C370.367 68.9456 374.131 63.9135 377.345 57.9933C378.782 55.3715 380.685 55.2869 383.053 57.7396C395.74 72.1171 409.271 80.7859 423.649 83.746C427.37 84.6763 428.174 86.0295 426.059 87.8056C418.278 99.223 414.811 110.894 415.657 122.819C416.502 134.659 419.251 146.669 423.903 158.848V158.974L424.029 159.101C431.641 186.926 429.062 207.097 416.291 219.614C403.605 232.215 391.003 239.15 378.486 240.419C356.836 242.533 342.5 236.951 335.481 223.673C333.874 220.629 333.832 217.753 335.354 215.047C336.961 212.34 339.287 210.734 342.331 210.226C348.336 209.211 353.622 213.102 358.189 221.897C364.447 234.499 373.581 238.347 385.591 233.442C395.909 229.128 401.829 221.686 403.351 211.114C404.873 200.542 403.351 188.406 398.784 174.705C398.784 174.536 398.742 174.409 398.657 174.325L398.53 174.198C398.023 172.929 397.093 172.591 395.74 173.183ZM403.097 102.395C398.361 100.449 392.737 97.447 386.225 93.3874C379.713 89.3279 374.934 85.9027 371.89 83.1117L371.636 82.9849C371.636 82.9003 371.636 82.8157 371.636 82.7311C368.591 78.2487 365.885 77.8681 363.517 81.5894C354.552 94.9521 351 109.71 352.861 125.864C354.129 136.605 356.455 146.5 359.838 155.549C363.221 164.599 368.464 170.519 375.569 173.31L375.696 173.437H375.822C380.559 174.705 386.69 172.929 394.217 168.108C395.063 167.685 395.359 166.882 395.105 165.698C391.553 155.972 390.2 146.119 391.046 136.139C391.976 126.075 396.289 115.842 403.985 105.439C404.747 104.086 404.451 103.071 403.097 102.395Z" fill="white"/>
<path d="M232.161 142.989C232.076 156.606 234.613 164.471 239.772 166.585C240.364 167.008 240.66 167.6 240.66 168.362C240.66 169.038 240.364 169.546 239.772 169.884C232.161 175.635 225.987 183.289 221.251 192.846C220.743 193.522 220.109 193.861 219.348 193.861C218.587 193.861 217.952 193.522 217.445 192.846C212.709 183.289 206.281 175.677 198.162 170.011C197.655 169.672 197.401 169.123 197.401 168.362C197.401 167.6 197.697 167.008 198.289 166.585C203.786 164.471 206.535 156.606 206.535 142.989V100.872C206.535 92.2451 204.928 86.9593 201.714 85.0141C197.993 82.5614 194.948 83.4494 192.58 87.6781C191.65 89.4542 190.593 89.8771 189.409 88.9467C188.225 88.0164 188.267 86.5364 189.536 84.5066C191.988 80.6162 194.314 76.6413 196.513 72.5817C198.796 68.5222 201.122 64.4626 203.49 60.4031C204.843 57.9505 206.746 57.443 209.199 58.8808L209.326 59.0076C221.758 65.2661 229.201 72.92 231.653 81.9694C231.822 82.8997 232.245 83.4494 232.922 83.6186C233.598 83.7877 234.275 83.6186 234.952 83.1112C239.603 79.2208 244.382 75.1189 249.287 70.8057C254.192 66.4924 257.533 62.5174 259.309 58.8808C260.239 56.6818 261.762 56.7241 263.876 59.0076C268.95 64.3358 273.264 68.5645 276.816 71.6937C280.452 74.8229 286.584 77.1487 295.21 78.671C296.733 79.0093 297.494 79.6859 297.494 80.7008C297.579 81.6311 297.071 82.2654 295.972 82.6037C293.773 83.4494 291.828 84.9295 290.136 87.0438C288.445 89.0736 287.599 92.4988 287.599 97.3195V150.982C287.599 159.608 289.206 164.894 292.42 166.839C296.141 169.123 299.143 168.192 301.427 164.048C302.357 162.441 303.414 162.103 304.598 163.033C305.867 163.879 305.867 165.317 304.598 167.347C302.061 171.322 299.651 175.339 297.367 179.398C295.168 183.373 292.927 187.348 290.643 191.323C289.121 193.691 287.218 194.241 284.935 192.972C269.542 185.53 261.846 174.493 261.846 159.862L261.973 94.9092C261.973 92.372 261.339 90.7228 260.07 89.9616H259.943V89.7079L249.16 80.8277C248.23 80.1511 247.257 80.1088 246.242 80.7008L233.049 90.9765C232.457 91.3994 232.161 91.9068 232.161 92.4988V142.989Z" fill="white"/>
<path d="M94.7154 29.4498C93.1085 30.2956 91.5016 31.3527 89.8947 32.6213C82.9596 38.0341 79.4498 43.3622 79.3652 48.6058C79.1115 55.2025 84.3128 63.1102 94.9691 72.3287C99.3669 76.2191 102.919 79.4329 105.625 81.9701C106.217 82.4776 106.767 82.689 107.275 82.6044C107.782 82.5199 108.247 82.2239 108.67 81.7164C110.7 79.1792 113.406 75.9231 116.789 71.9481C121.525 66.3663 126.135 63.8714 130.617 64.4634C135.099 65.0554 139.539 67.0006 143.937 70.299C151.549 76.3037 157.427 77.9952 161.571 75.3734C163.77 73.9356 165.504 73.8511 166.772 75.1197C168.125 76.3037 168.041 78.0375 166.519 80.3209C164.404 83.1965 162.248 86.072 160.049 88.9475C157.934 91.823 155.439 94.4871 152.564 96.9397C146.644 102.099 140.174 101.634 133.154 95.5442C125.543 89.3703 119.707 86.7063 115.647 87.552C114.886 87.7212 114.379 88.1863 114.125 88.9475C113.871 89.7086 114.04 90.3852 114.633 90.9772C124.105 101.38 129.221 110.471 129.983 118.252C130.828 129.078 116.874 142.356 88.1186 158.087C86.0889 159.186 84.5665 159.101 83.5516 157.833C82.6213 156.564 83.0019 155.169 84.6934 153.646C94.504 146.373 99.5361 140.157 99.7898 134.998C100.044 131.53 98.4366 127.429 94.9691 122.692C91.5862 117.956 85.5814 111.656 76.9549 103.79C59.4481 87.8903 50.7793 74.6968 50.9484 64.2096C50.9484 54.5682 58.2218 45.2228 72.7685 36.1734C73.2759 35.9197 75.348 34.7357 78.9847 32.6213C82.6213 30.4224 85.2431 28.731 86.85 27.5469C87.6112 26.8703 87.9072 26.1092 87.738 25.2634C85.2854 13.6768 78.0121 7.88352 65.918 7.88352C53.824 7.88352 44.4786 15.4106 37.8818 30.4647C31.285 45.5188 29.4667 65.2245 32.4268 89.5818C35.4714 113.854 45.4512 133.772 62.3659 149.333C79.2807 164.81 98.6058 172.549 120.341 172.549C132.351 172.549 144.952 169.335 158.146 162.907C160.26 161.977 161.74 162.188 162.586 163.542C163.516 164.895 163.051 166.375 161.19 167.982C140.977 183.966 117.889 191.958 91.9245 191.958C65.9603 191.958 44.5208 181.767 27.6061 161.385C10.6913 140.918 1.59965 120.916 0.331039 101.38C-1.44501 73.1322 3.92542 49.1978 16.4423 29.5767C28.9593 9.95558 44.7746 0.14502 63.8882 0.14502C71.669 0.14502 77.8852 2.1325 82.5368 6.10747C87.2729 9.99786 90.529 14.6917 92.305 20.189C92.5588 20.9502 92.9816 21.373 93.5736 21.4576C93.9965 21.6268 94.4617 21.669 94.9691 21.5845L95.4766 21.3307C102.919 15.8335 109.812 9.78643 116.155 3.18968C118.946 1.07533 122.117 0.990757 125.669 2.93595C129.306 4.79658 132.647 6.48805 135.691 8.01038C138.482 9.61728 141.992 11.5202 146.221 13.7191C150.45 15.918 154.678 16.0449 158.907 14.0997C160.852 12.8311 162.332 12.7465 163.347 13.846C164.362 14.8609 164.235 16.0872 162.966 17.5249C158.653 21.7536 154.636 25.5594 150.915 28.9424C147.193 32.2408 143.557 35.4969 140.005 38.7107C139.159 39.3872 138.144 39.7255 136.96 39.7255C135.861 39.641 134.38 39.0912 132.52 38.0764C117.889 30.9722 107.782 27.4201 102.2 27.4201C99.7475 27.5046 97.2526 28.1812 94.7154 29.4498Z" fill="white"/>
</mask>
<g mask="url(#mask0_113_542)">
<rect x="-22" y="-41" width="1280" height="317" fill="url(#paint0_radial_113_542)"/>
</g>
<defs>
<radialGradient id="paint0_radial_113_542" cx="0" cy="0" r="1" gradientUnits="userSpaceOnUse" gradientTransform="translate(618 117.5) scale(640 543.894)">
<stop stop-color="#D9D9D9"/>
<stop offset="1" stop-color="#B5897C"/>
</radialGradient>
</defs>
</svg>
