<svg width="84" height="76" viewBox="0 0 84 76" fill="none" xmlns="http://www.w3.org/2000/svg">
<path d="M83.949 12.5134C83.949 12.7803 83.6128 13.2475 82.9406 13.9149C82.2683 14.5823 81.554 15.2163 80.7977 15.8169C79.9574 16.4176 79.3692 16.7179 79.033 16.7179L10.8403 16.7179L9.07557 20.7222H2.39494C2.39494 20.7222 2.31091 20.3217 2.14284 19.5209C1.97477 18.72 1.76469 17.719 1.5126 16.5177C1.2605 15.2496 1.05041 13.9816 0.88235 12.7136C0.630249 11.4456 0.420165 10.3444 0.252096 9.41008C0.0840319 8.40901 0 7.74163 0 7.40794C0 7.20773 0.336133 6.84066 1.0084 6.30676C1.68066 5.70612 2.39494 5.13885 3.15123 4.60495C3.90753 4.07104 4.45375 3.80409 4.78988 3.80409L72.9826 3.80409L74.8734 2.46793e-05H81.428C81.428 2.46793e-05 81.554 0.567294 81.8061 1.70184C82.0582 2.83638 82.3103 4.20451 82.5624 5.80623C82.8985 7.3412 83.1927 8.77606 83.4448 10.1108C83.7809 11.4456 83.949 12.2464 83.949 12.5134Z" fill="#DEFF9C"/>
<path d="M83.949 40.1523C83.949 40.4193 83.6128 40.8864 82.9406 41.5538C82.2683 42.2212 81.554 42.8552 80.7977 43.4558C79.9574 44.0565 79.3692 44.3568 79.033 44.3568H10.8403L9.07557 48.3611H2.39494C2.39494 48.3611 2.31091 47.9607 2.14284 47.1598C1.97477 46.3589 1.76469 45.3579 1.5126 44.1566C1.2605 42.8886 1.05041 41.6205 0.88235 40.3525C0.630249 39.0845 0.420165 37.9833 0.252096 37.049C0.0840319 36.0479 0 35.3805 0 35.0469C0 34.8466 0.336133 34.4796 1.0084 33.9457C1.68066 33.345 2.39494 32.7778 3.15123 32.2439C3.90753 31.71 4.45375 31.443 4.78988 31.443L72.9826 31.443L74.8734 27.6389H81.428C81.428 27.6389 81.554 28.2062 81.8061 29.3408C82.0582 30.4753 82.3103 31.8434 82.5624 33.4451C82.8985 34.9801 83.1927 36.415 83.4448 37.7497C83.7809 39.0845 83.949 39.8854 83.949 40.1523Z" fill="#DEFF9C"/>
<path d="M83.949 67.7912C83.949 68.0582 83.6128 68.5253 82.9406 69.1927C82.2683 69.8601 81.554 70.4941 80.7977 71.0948C79.9574 71.6954 79.3692 71.9957 79.033 71.9957H10.8403L9.07557 76H2.39494C2.39494 76 2.31091 75.5996 2.14284 74.7987C1.97477 73.9979 1.76469 72.9968 1.5126 71.7955C1.2605 70.5275 1.05041 69.2595 0.88235 67.9914C0.630249 66.7234 0.420165 65.6222 0.252096 64.6879C0.0840319 63.6868 0 63.0195 0 62.6858C0 62.4856 0.336133 62.1185 1.0084 61.5846C1.68066 60.984 2.39494 60.4167 3.15123 59.8828C3.90753 59.3489 4.45375 59.0819 4.78988 59.0819H72.9826L74.8734 55.2779H81.428C81.428 55.2779 81.554 55.8451 81.8061 56.9797C82.0582 58.1142 82.3103 59.4824 82.5624 61.0841C82.8985 62.619 83.1927 64.0539 83.4448 65.3887C83.7809 66.7234 83.949 67.5243 83.949 67.7912Z" fill="#DEFF9C"/>
</svg>
