<svg width="83" height="76" viewBox="0 0 83 76" fill="none" xmlns="http://www.w3.org/2000/svg">
<path d="M82.5437 10.5078C82.5437 10.6766 82.2905 11.0564 81.7841 11.6472C81.3621 12.238 80.8557 12.8288 80.2649 13.4196C79.6741 13.926 79.2943 14.1792 79.1255 14.1792L6.83643 14.1792L5.69703 19.623H1.89901C1.89901 19.623 1.85681 19.3276 1.77241 18.7368C1.60361 18.0616 1.4348 17.2176 1.26601 16.2048C1.0128 15.192 0.801802 14.1792 0.633003 13.1664C0.464199 12.1536 0.337598 11.2674 0.253198 10.5078C0.0843994 9.74819 0 9.24179 0 8.98859C0 8.73539 0.253201 8.31338 0.759602 7.72258C1.266 7.13178 1.77241 6.58317 2.27881 6.07677C2.78522 5.57037 3.20722 5.31716 3.54482 5.31716L75.5806 5.31716L76.8466 -6.91552e-05H80.7713C80.7713 -6.91552e-05 80.8557 0.506337 81.0245 1.51914C81.1933 2.44755 81.4043 3.54476 81.6575 4.81076C81.9107 6.07677 82.1217 7.30058 82.2905 8.48218C82.4593 9.57939 82.5437 10.2546 82.5437 10.5078Z" fill="#DEFF9C"/>
<path d="M82.5437 38.6963C82.5437 38.8651 82.2905 39.2449 81.7841 39.8357C81.3621 40.4265 80.8557 41.0173 80.2649 41.6081C79.6741 42.1145 79.2943 42.3677 79.1255 42.3677L6.83643 42.3677L5.69703 47.8115H1.89901C1.89901 47.8115 1.85681 47.5161 1.77241 46.9253C1.60361 46.2501 1.4348 45.4061 1.26601 44.3933C1.0128 43.3805 0.801802 42.3677 0.633003 41.3549C0.464199 40.3421 0.337598 39.4559 0.253198 38.6963C0.0843994 37.9367 0 37.4303 0 37.1771C0 36.9239 0.253201 36.5019 0.759602 35.9111C1.266 35.3203 1.77241 34.7716 2.27881 34.2652C2.78522 33.7588 3.20722 33.5056 3.54482 33.5056L75.5806 33.5056L76.8466 28.1884H80.7713C80.7713 28.1884 80.8557 28.6948 81.0245 29.7076C81.1933 30.636 81.4043 31.7332 81.6575 32.9992C81.9107 34.2652 82.1217 35.4891 82.2905 36.6707C82.4593 37.7679 82.5437 38.4431 82.5437 38.6963Z" fill="#DEFF9C"/>
<path d="M82.5437 66.8847C82.5437 67.0535 82.2905 67.4334 81.7841 68.0242C81.3621 68.615 80.8557 69.2058 80.2649 69.7966C79.6741 70.303 79.2943 70.5562 79.1255 70.5562H6.83643L5.69703 76H1.89901C1.89901 76 1.85681 75.7046 1.77241 75.1138C1.60361 74.4386 1.4348 73.5946 1.26601 72.5818C1.0128 71.569 0.801802 70.5562 0.633003 69.5434C0.464199 68.5306 0.337598 67.6444 0.253198 66.8847C0.0843994 66.1251 0 65.6187 0 65.3655C0 65.1123 0.253201 64.6903 0.759602 64.0995C1.266 63.5087 1.77241 62.9601 2.27881 62.4537C2.78522 61.9473 3.20722 61.6941 3.54482 61.6941L75.5806 61.6941L76.8466 56.3769H80.7713C80.7713 56.3769 80.8557 56.8833 81.0245 57.8961C81.1933 58.8245 81.4043 59.9217 81.6575 61.1877C81.9107 62.4537 82.1217 63.6775 82.2905 64.8591C82.4593 65.9563 82.5437 66.6315 82.5437 66.8847Z" fill="#DEFF9C"/>
</svg>
