<svg width="1252" height="766" viewBox="0 0 1252 766" fill="none" xmlns="http://www.w3.org/2000/svg">
<mask id="mask0_70_1377" style="mask-type:alpha" maskUnits="userSpaceOnUse" x="0" y="0" width="1252" height="766">
<path d="M1140.61 630.789C1140.49 651.455 1144.34 663.393 1152.17 666.602C1153.07 667.243 1153.52 668.142 1153.52 669.297C1153.52 670.324 1153.07 671.094 1152.17 671.608C1140.61 680.336 1131.24 691.953 1124.06 706.458C1123.29 707.485 1122.32 707.998 1121.17 707.998C1120.01 707.998 1119.05 707.485 1118.28 706.458C1111.09 691.953 1101.34 680.4 1089.01 671.8C1088.24 671.287 1087.86 670.452 1087.86 669.297C1087.86 668.142 1088.31 667.243 1089.21 666.602C1097.55 663.393 1101.72 651.455 1101.72 630.789V566.865C1101.72 553.772 1099.28 545.75 1094.41 542.798C1088.76 539.075 1084.14 540.423 1080.54 546.841C1079.13 549.536 1077.53 550.178 1075.73 548.766C1073.93 547.354 1074 545.108 1075.92 542.027C1079.64 536.123 1083.17 530.09 1086.51 523.928C1089.98 517.767 1093.51 511.606 1097.1 505.445C1099.15 501.722 1102.04 500.952 1105.77 503.134L1105.96 503.327C1124.83 512.825 1136.12 524.442 1139.84 538.177C1140.1 539.589 1140.74 540.423 1141.77 540.68C1142.8 540.936 1143.82 540.68 1144.85 539.909C1151.91 534.005 1159.16 527.779 1166.61 521.233C1174.05 514.687 1179.12 508.654 1181.82 503.134C1183.23 499.797 1185.54 499.861 1188.75 503.327C1196.45 511.413 1203 517.831 1208.39 522.581C1213.91 527.33 1223.22 530.86 1236.31 533.17C1238.62 533.684 1239.77 534.711 1239.77 536.251C1239.9 537.663 1239.13 538.626 1237.46 539.139C1234.13 540.423 1231.17 542.669 1228.61 545.878C1226.04 548.959 1224.76 554.157 1224.76 561.474V642.919C1224.76 656.012 1227.19 664.034 1232.07 666.987C1237.72 670.452 1242.28 669.04 1245.74 662.751C1247.15 660.312 1248.76 659.798 1250.56 661.21C1252.48 662.494 1252.48 664.676 1250.56 667.757C1246.71 673.79 1243.05 679.887 1239.58 686.048C1236.24 692.081 1232.84 698.114 1229.38 704.147C1227.07 707.741 1224.18 708.576 1220.71 706.65C1197.35 695.354 1185.67 678.603 1185.67 656.397L1185.86 557.816C1185.86 553.965 1184.9 551.462 1182.97 550.307H1182.78V549.922L1166.42 536.444C1165 535.417 1163.53 535.353 1161.99 536.251L1141.96 551.847C1141.06 552.489 1140.61 553.259 1140.61 554.157V630.789Z" fill="#DEFF9C"/>
<path d="M987.737 655.049L986.389 549.537C986.389 547.098 986.004 545.108 985.234 543.568C982.153 538.562 979.522 537.343 977.339 539.91L969.638 547.804C967.584 550.114 965.594 550.371 963.669 548.574C961.872 546.777 962.193 544.274 964.632 541.065C970.28 534.005 975.35 526.945 979.842 519.885C984.335 512.826 988.956 505.83 993.705 498.898C995.759 496.46 998.134 496.524 1000.83 499.091C1006.22 505.637 1011.48 511.414 1016.62 516.42C1021.75 521.297 1029.07 526.496 1038.57 532.016C1041.26 533.042 1042.42 534.262 1042.03 535.674C1041.78 537.086 1040.94 537.856 1039.53 537.984C1036.19 539.268 1033.24 541.514 1030.67 544.723C1028.11 547.804 1026.82 553.003 1026.82 560.319V641.764C1026.82 654.857 1029.26 662.88 1034.14 665.832C1039.79 669.169 1044.41 667.757 1048 661.596C1049.29 659.157 1050.83 658.644 1052.62 660.056C1054.55 661.339 1054.55 663.521 1052.62 666.602C1048.77 672.635 1045.18 678.732 1041.84 684.893C1038.5 690.926 1035.1 696.959 1031.64 702.992C1029.2 706.586 1026.18 707.357 1022.59 705.303C1011.03 699.783 1002.31 693.044 996.401 685.086C990.625 677.128 987.737 667.115 987.737 655.049ZM1015.66 426.503C1029.9 426.503 1036.39 433.37 1035.1 447.105C1034.33 454.036 1029.97 461.032 1022.01 468.092C1014.18 475.023 1007.95 478.425 1003.33 478.297C998.711 478.297 995.182 474.638 992.743 467.322C990.304 460.005 989.341 453.266 989.855 447.105C990.24 441.2 993.064 436.323 998.326 432.472C1003.72 428.493 1009.49 426.503 1015.66 426.503Z" fill="#DEFF9C"/>
<path d="M907.64 543.376L907.447 651.199C907.447 655.178 908.41 657.81 910.335 659.093L924.198 666.988C926.894 669.298 931.386 666.217 937.676 657.746C938.831 656.077 940.372 655.82 942.297 656.975C944.351 658.131 944.479 659.671 942.682 661.596C928.948 676.615 918.615 691.376 911.683 705.881C909.501 708.577 907.126 708.577 904.559 705.881C897.371 697.409 890.696 691.055 884.535 686.819C878.373 682.583 869.196 678.989 857.001 676.037C854.948 675.652 853.856 674.689 853.728 673.149C853.6 671.609 854.37 670.518 856.039 669.876C864.639 667.822 868.875 660.441 868.746 647.733L868.554 543.569C868.682 541.258 867.719 540.103 865.666 540.103H842.946C841.149 540.103 839.993 539.397 839.48 537.985C838.967 536.573 839.544 535.354 841.213 534.327C856.616 523.416 872.276 510.259 888.193 494.856C904.238 479.452 918.807 464.819 931.9 450.956C933.569 449.159 935.173 448.838 936.713 449.994C938.382 451.02 938.446 452.561 936.906 454.615C931.001 461.931 925.033 471.43 919 483.111C913.095 494.791 909.501 505.445 908.217 515.072C907.961 516.356 908.025 517.319 908.41 517.961C909.18 518.731 910.079 519.116 911.105 519.116H944.415C945.314 519.116 946.084 519.437 946.726 520.079C947.367 520.977 947.688 521.811 947.688 522.582L946.918 537.022C946.661 539.076 945.57 540.103 943.645 540.103H910.335C908.538 540.103 907.64 541.194 907.64 543.376Z" fill="#DEFF9C"/>
<path d="M712.018 630.789C711.889 651.455 715.74 663.393 723.57 666.602C724.469 667.243 724.918 668.142 724.918 669.297C724.918 670.324 724.469 671.094 723.57 671.608C712.018 680.336 702.647 691.953 695.459 706.458C694.689 707.485 693.726 707.998 692.571 707.998C691.416 707.998 690.453 707.485 689.683 706.458C682.495 691.953 672.739 680.4 660.417 671.8C659.647 671.287 659.261 670.452 659.261 669.297C659.261 668.142 659.711 667.243 660.609 666.602C668.953 663.393 673.124 651.455 673.124 630.789V566.865C673.124 553.772 670.686 545.75 665.808 542.798C660.16 539.075 655.539 540.423 651.945 546.841C650.533 549.536 648.928 550.178 647.131 548.766C645.334 547.354 645.399 545.108 647.324 542.027C651.046 536.123 654.576 530.09 657.914 523.928C661.379 517.767 664.909 511.606 668.503 505.445C670.557 501.722 673.445 500.952 677.168 503.134L677.36 503.327C696.229 512.825 707.525 524.442 711.248 538.177C711.504 539.589 712.146 540.423 713.173 540.68C714.2 540.936 715.227 540.68 716.254 539.909C723.314 534.005 730.566 527.779 738.011 521.233C745.456 514.687 750.526 508.654 753.222 503.134C754.634 499.797 756.944 499.861 760.153 503.327C767.855 511.413 774.401 517.831 779.792 522.581C785.312 527.33 794.618 530.86 807.711 533.17C810.021 533.684 811.177 534.711 811.177 536.251C811.305 537.663 810.535 538.626 808.866 539.139C805.529 540.423 802.576 542.669 800.009 545.878C797.442 548.959 796.158 554.157 796.158 561.474V642.919C796.158 656.012 798.597 664.034 803.475 666.987C809.123 670.452 813.68 669.04 817.145 662.751C818.557 660.312 820.162 659.798 821.959 661.21C823.884 662.494 823.884 664.676 821.959 667.757C818.108 673.79 814.45 679.887 810.984 686.048C807.647 692.081 804.245 698.114 800.779 704.147C798.469 707.741 795.581 708.576 792.115 706.65C768.753 695.354 757.072 678.603 757.072 656.397L757.265 557.816C757.265 553.965 756.302 551.462 754.377 550.307H754.184V549.922L737.818 536.444C736.406 535.417 734.93 535.353 733.39 536.251L713.366 551.847C712.467 552.489 712.018 553.259 712.018 554.157V630.789Z" fill="#DEFF9C"/>
<path d="M556.252 673.149C549.706 678.155 542.517 683.674 534.687 689.707C526.857 695.612 519.605 701.067 512.93 706.073C510.62 707.87 508.758 708.64 507.347 708.384C506.063 708.127 505.549 706.972 505.806 704.918C505.806 702.222 501.827 697.088 493.869 689.515C472.946 669.875 462.869 644.332 463.64 612.883C464.41 585.927 476.925 563.143 501.185 544.531C508.63 538.883 515.562 532.914 521.98 526.625C528.526 520.335 534.302 512.698 539.308 503.712C541.362 499.733 544.186 499.605 547.78 503.327C567.291 525.405 586.802 538.434 606.313 542.413C612.474 543.568 613.116 546.007 608.238 549.73C602.205 554.094 598.932 559.485 598.419 565.903V566.288L598.996 654.28C598.996 660.184 601.114 664.228 605.35 666.41C609.714 668.592 614.4 666.923 619.406 661.404C621.331 659.221 623.128 658.708 624.797 659.863C626.594 660.89 626.658 662.816 624.989 665.64C620.368 672.571 615.876 679.374 611.511 686.049C607.275 692.724 603.681 699.655 600.729 706.843L600.537 707.036C598.739 709.988 596.557 709.988 593.99 707.036C592.578 705.496 590.909 704.469 588.984 703.955C574.351 700.746 565.109 691.055 561.258 674.882C561.001 674.111 560.36 673.341 559.333 672.571C558.177 672.443 557.151 672.635 556.252 673.149ZM558.37 559.742C550.412 557.56 541.105 551.398 530.451 541.258C525.317 535.097 521.21 534.519 518.129 539.525C504.523 559.806 499.196 582.205 502.148 606.722C506.255 641.764 518.578 663.393 539.116 671.608C539.244 671.608 539.373 671.673 539.501 671.801C544.764 673.47 551.118 670.325 558.563 662.366C559.076 661.596 559.333 660.89 559.333 660.248C559.204 658.323 559.14 655.306 559.14 651.199L560.873 562.822C560.873 561.282 560.039 560.255 558.37 559.742Z" fill="#DEFF9C"/>
<path d="M355.624 447.297C353.955 445.5 353.891 443.767 355.431 442.098C357.1 440.43 359.154 440.751 361.593 443.061C364.545 446.655 367.561 450.506 370.642 454.614C373.851 458.721 376.547 462.957 378.729 467.321C379.371 468.605 380.269 469.247 381.424 469.247C382.708 469.247 383.671 468.733 384.313 467.706C391.886 454.87 402.411 444.537 415.889 436.707C429.367 428.749 443.936 425.026 459.596 425.54C462.548 425.668 464.089 426.952 464.217 429.391C464.346 431.701 462.805 432.856 459.596 432.856C446.888 432.856 436.684 436.515 428.982 443.831C421.409 451.148 417.622 464.497 417.622 483.88L417.43 650.621C417.43 654.728 418.392 657.36 420.318 658.515L434.181 666.409C437.39 667.564 441.818 664.484 447.466 657.167C448.878 655.242 450.611 654.857 452.665 656.012C454.718 657.039 454.654 658.707 452.472 661.018C438.994 676.036 428.661 690.798 421.473 705.302C419.933 707.998 417.622 707.998 414.541 705.302C408.252 697.216 401.77 690.862 395.095 686.241C388.42 681.491 379.05 677.897 366.984 675.458C364.93 675.202 363.839 674.303 363.711 672.763C363.711 671.094 364.417 669.939 365.829 669.297C369.038 668.142 371.926 666.024 374.493 662.943C377.188 659.734 378.536 654.471 378.536 647.155L378.344 517.767C378.344 499.283 376.354 484.714 372.375 474.06C368.396 463.406 362.812 454.485 355.624 447.297Z" fill="#DEFF9C"/>
<path d="M104.742 555.698C107.438 553.516 109.749 553.388 111.674 555.313C113.599 557.239 112.893 559.934 109.556 563.4C104.422 568.021 98.517 571.102 91.8422 572.642C85.1674 574.054 78.4285 574.824 71.6254 574.952C51.0876 575.466 34.0156 569.369 20.4094 556.661C6.80313 543.825 0 526.432 0 504.482C0 482.404 8.536 463.471 25.608 447.683C42.68 431.894 65.8491 424 95.1154 424C112.829 424.385 127.719 428.814 139.785 437.285C151.851 445.757 161.285 455.769 168.089 467.322C168.987 469.119 170.335 469.504 172.132 468.477L255.502 425.155C259.225 423.487 261.92 423.743 263.589 425.925C265.258 427.979 264.808 430.033 262.241 432.087C253.128 438.633 251.908 447.747 258.583 459.428C265.386 470.98 276.425 482.918 291.7 495.24C322.122 520.399 336.498 546.007 334.829 572.064C333.289 598.122 323.854 623.088 306.526 646.963C286.758 673.79 267.247 691.568 247.993 700.297C228.739 709.154 205.827 706.201 179.256 691.44C178.229 690.798 177.202 690.734 176.175 691.247C175.277 691.761 174.763 692.531 174.635 693.558C172.71 709.731 169.372 723.273 164.623 734.184C160.002 745.095 152.878 755.107 143.251 764.221C141.454 765.889 139.785 766.146 138.245 764.991C136.704 763.835 136.576 762.167 137.86 759.985C147.743 739.319 151.017 711.657 147.679 676.999C147.679 675.844 147.037 675.01 145.754 674.496C120.082 664.484 100.892 665.639 88.1839 677.962C86.0018 680.144 83.8838 680.529 81.8301 679.117C79.9046 677.577 79.8405 675.587 81.6375 673.148C101.662 647.091 121.173 633.292 140.17 631.752C141.197 631.624 141.903 631.303 142.288 630.789C142.801 630.276 143.058 629.442 143.058 628.286C141.518 611.728 139.913 595.233 138.245 578.803C136.704 562.245 135.164 545.686 133.624 529.128C131.698 510.387 125.344 494.213 114.562 480.607C103.78 466.873 90.3661 459.877 74.3209 459.62C57.1206 458.722 42.6158 462.958 30.8066 472.328C18.9974 481.57 13.0928 494.598 13.0928 511.414C13.0928 528.229 18.484 541.514 29.2663 551.27C40.177 561.025 54.6817 565.903 72.7806 565.903C85.7451 566.16 96.399 562.758 104.742 555.698ZM174.635 481.377C176.817 487.282 178.293 493.187 179.063 499.091C179.962 504.996 180.54 510.579 180.796 515.842C181.566 543.183 181.374 566.352 180.219 585.35C179.192 604.347 178.486 621.74 178.101 637.528C178.101 639.069 178.678 640.031 179.834 640.416C186.123 643.24 192.991 646.834 200.436 651.199C226.493 666.217 247.159 672.186 262.434 669.105C277.837 666.024 290.16 657.168 299.402 642.534C319.683 610.444 307.039 575.979 261.471 539.14C245.939 526.817 232.847 514.944 222.193 503.52C211.667 492.095 206.019 480.094 205.249 467.514C205.249 465.974 204.736 465.011 203.709 464.626C202.682 464.241 201.655 464.305 200.628 464.819L176.175 477.526C174.378 478.425 173.865 479.709 174.635 481.377Z" fill="#DEFF9C"/>
<path d="M1183.71 221.546C1183.51 219.204 1182.24 217.448 1179.9 216.278C1177.66 215.107 1175.75 213.937 1174.19 212.766C1162.97 205.157 1155.02 195.889 1150.34 184.963C1145.76 173.939 1143.17 162.282 1142.59 149.99C1141.42 122.187 1148.93 101.017 1165.12 86.4819C1170.88 81.3115 1177.51 77.1167 1185.02 73.8974C1192.53 70.5805 1200.24 67.8978 1208.14 65.8492C1210.58 65.3614 1212.39 66.5808 1213.56 69.5074L1234.63 118.967C1235.6 121.601 1235.26 123.26 1233.6 123.943H1233.31L1173.32 147.209C1172.15 147.795 1171.66 148.722 1171.85 149.99C1176.63 171.647 1184.63 185.548 1195.85 191.694C1207.07 197.743 1218.24 198.621 1229.36 194.328C1231.31 193.45 1232.53 193.596 1233.02 194.767C1233.6 195.938 1233.26 196.816 1231.99 197.401C1224.09 201.401 1216.53 205.498 1209.31 209.693C1202.19 213.888 1195.8 218.278 1190.14 222.863C1189.27 223.448 1187.95 223.643 1186.19 223.448C1184.53 223.253 1183.71 222.619 1183.71 221.546ZM1170.1 138.869C1170.19 139.649 1170.54 140.283 1171.12 140.771C1171.71 141.161 1172.44 141.161 1173.32 140.771L1204.48 129.064C1205.95 128.479 1206.39 127.455 1205.8 125.991L1187.95 82.2383C1187.07 80.0921 1185.31 79.7994 1182.68 81.3603C1177.02 84.6771 1173.17 92.2376 1171.12 104.042C1169.07 115.846 1168.73 127.455 1170.1 138.869Z" fill="#DEFF9C"/>
<path d="M1009.13 25.0227C1007.86 23.1691 1007.96 21.7546 1009.42 20.7791C1010.89 19.706 1012.35 20.0474 1013.81 21.8034C1018.11 27.1689 1021.57 32.9246 1024.2 39.0705C1024.5 40.046 1025.18 40.5338 1026.25 40.5338C1027.13 40.7289 1027.91 40.3387 1028.59 39.3632C1034.25 29.2175 1043.13 21.4132 1055.23 15.9501C1067.42 10.3895 1079.76 8.14578 1092.25 9.21888C1094.78 9.31643 1096.05 10.3408 1096.05 12.2918C1096.05 14.2429 1094.83 15.1209 1092.39 14.9258C1082.15 14.2429 1073.23 16.5842 1065.62 21.9497C1058.01 27.3152 1054.25 37.656 1054.35 52.972L1054.64 85.7502C1054.64 86.7258 1055.03 87.4574 1055.81 87.9452C1056.59 88.3354 1057.37 88.2866 1058.15 87.7989C1063.52 84.8722 1068.88 81.6529 1074.25 78.141C1079.71 74.629 1084.74 70.6781 1089.32 66.2881C1092.93 62.6786 1094.98 63.3127 1095.47 68.1904C1095.86 71.7999 1097.37 75.0192 1100 77.8483C1102.64 80.6774 1105.08 83.4577 1107.32 86.1892C1120.49 102.969 1127.27 121.114 1127.66 140.624C1128.34 169.305 1118.25 194.67 1097.37 216.717C1076.49 238.667 1057.52 255.446 1040.45 267.055C1038.11 268.713 1036.35 268.957 1035.18 267.786C1034.11 266.713 1034.45 265.445 1036.2 263.982C1049.96 251.788 1063.81 238.471 1077.76 224.033C1091.81 209.595 1098.2 186.719 1096.93 155.404C1096.35 143.112 1094.44 131.552 1091.22 120.723C1088.1 109.797 1082.35 100.725 1073.96 93.5058C1069.66 89.8963 1063.71 89.945 1056.1 93.6521C1055.23 93.9448 1054.79 94.6764 1054.79 95.8471L1055.37 184.231C1055.37 192.133 1058.54 195.401 1064.88 194.035C1066.25 193.645 1067.47 192.914 1068.54 191.84C1069.62 190.767 1070.79 189.841 1072.05 189.06C1073.42 188.182 1074.64 188.231 1075.71 189.207C1076.79 190.182 1076.79 191.206 1075.71 192.279C1070.93 197.547 1066.1 202.425 1061.23 206.913C1056.35 211.4 1052.59 216.327 1049.96 221.692C1048.79 224.033 1047.03 224.033 1044.69 221.692C1036.01 212.327 1026.55 205.303 1016.3 200.62C1012.99 198.864 1012.74 197.255 1015.57 195.791C1021.81 193.645 1024.89 187.207 1024.79 176.476L1024.5 78.7263C1024.4 65.5565 1022.89 54.7767 1019.96 46.3871C1017.13 37.9974 1013.52 30.8759 1009.13 25.0227Z" fill="#DEFF9C"/>
<path d="M891.335 44.193C887.043 48.6805 885.141 53.0704 885.628 57.3628C886.116 61.5576 889.628 64.6306 896.164 66.5817C904.554 69.1181 910.114 72.4349 912.846 76.5322C915.578 80.5319 917.236 85.2146 917.821 90.58C917.919 91.5556 918.309 92.1897 918.992 92.4823C919.772 92.775 920.553 92.775 921.333 92.4823C933.723 85.2633 946.453 76.6298 959.526 66.5817C960.306 65.9964 961.087 65.8988 961.867 66.289C962.647 66.6792 963.135 67.2646 963.33 68.045C964.306 73.3129 966.257 77.8004 969.184 81.5075C972.208 85.2145 975.33 88.8728 978.549 92.4823C990.548 106.042 995.865 121.212 994.499 137.991C993.133 158.575 985.963 174.33 972.988 185.256C958.648 197.353 947.624 208.718 939.917 219.352C938.942 220.62 937.82 220.815 936.552 219.937C934.113 218.474 931.674 217.059 929.235 215.693C926.796 214.328 924.357 212.913 921.919 211.45C921.138 211.06 920.358 211.06 919.577 211.45C918.894 211.742 918.553 212.377 918.553 213.352C917.382 223.888 915.87 234.229 914.017 244.374C912.261 254.52 910.358 264.714 908.31 274.958C907.92 276.323 907.09 276.957 905.822 276.86C904.554 276.86 903.773 276.226 903.481 274.958C901.432 263.154 899.481 250.52 897.628 237.058C895.872 223.693 894.506 210.816 893.53 198.426C893.335 197.353 892.799 196.67 891.921 196.378C882.068 192.768 875.093 193.207 870.995 197.695C870.117 198.573 869.19 198.865 868.215 198.573C867.337 198.182 866.898 197.304 866.898 195.939C866.996 180.037 874.605 171.599 889.726 170.623C891.189 170.623 891.921 169.843 891.921 168.282V163.746C891.921 149.21 891.677 138.772 891.189 132.431C890.799 126.09 890.457 118.383 890.165 109.31C889.97 104.921 888.848 101.555 886.799 99.2136C884.75 96.8723 882.702 94.8236 880.653 93.0677C871.776 85.7511 868.069 77.7029 869.532 68.923C871.093 60.0455 876.897 51.0218 886.945 41.8517C888.701 39.9981 890.213 39.6079 891.482 40.681C892.75 41.6566 892.701 42.8272 891.335 44.193ZM920.309 176.769C920.309 177.94 920.748 178.672 921.626 178.964C926.601 181.501 931.43 184.183 936.113 187.012C940.893 189.841 945.722 192.622 950.6 195.353C952.063 196.036 953.185 195.744 953.965 194.475C956.892 189.89 959.623 184.232 962.16 177.501C964.696 170.77 966.062 162.38 966.257 152.332C966.452 141.894 964.403 132.577 960.111 124.383C955.916 116.09 951.331 108.189 946.356 100.677C941.186 93.4579 932.259 92.9213 919.577 99.0673C918.602 99.555 918.114 100.287 918.114 101.262C918.211 102.433 918.26 104.189 918.26 106.53L920.163 164.477C920.26 167.306 920.309 171.404 920.309 176.769Z" fill="#DEFF9C"/>
<path d="M798.562 220.082C797.098 222.521 795.294 222.521 793.147 220.082C782.416 206.717 766.125 196.669 744.273 189.938C742.517 189.45 741.687 188.67 741.785 187.597C741.785 186.524 742.322 185.743 743.395 185.255C749.638 183.109 752.76 176.622 752.76 165.793L752.321 91.1644C752.321 90.0913 752.223 89.262 752.028 88.6767C751.833 87.9938 751.882 87.4085 752.175 86.9207C752.565 86.3354 753.248 85.994 754.223 85.8964C780.173 83.7502 803.244 76.6775 823.438 64.6784C824.316 64.1906 825.096 64.0443 825.779 64.2394C826.56 64.4345 826.999 65.1174 827.096 66.288C828.755 76.8239 833.925 87.1646 842.607 97.3103C847.388 103.164 851.338 111.163 854.46 121.309C857.68 131.454 858.948 139.893 858.265 146.624C857.289 154.526 854.704 161.647 850.509 167.988C846.314 174.232 841.534 179.988 836.169 185.255C829.828 191.499 822.999 196.767 815.682 201.059C808.366 205.352 802.659 211.693 798.562 220.082ZM782.612 89.262L783.197 173.549C783.197 175.012 783.782 176.037 784.953 176.622L810.853 192.718C813.39 194.377 815.731 193.889 817.877 191.255C827.145 181.305 831.34 169.354 830.462 155.404C830.267 146.722 828.56 138.966 825.34 132.137C822.219 125.308 818.316 119.26 813.634 113.992C806.025 106.285 800.22 96.7249 796.22 85.3111C796.025 84.8233 795.586 84.4331 794.903 84.1404C794.22 83.7502 793.586 83.7015 793.001 83.9941C790.074 85.0672 787.148 85.994 784.221 86.7744C783.148 87.1646 782.612 87.9938 782.612 89.262Z" fill="#DEFF9C"/>
<path d="M705.055 98.1887L704.909 180.134C704.909 183.158 705.641 185.158 707.104 186.134L717.64 192.133C719.688 193.889 723.103 191.548 727.883 185.11C728.761 183.841 729.932 183.646 731.395 184.524C732.956 185.402 733.053 186.573 731.688 188.036C721.249 199.45 713.396 210.669 708.128 221.692C706.47 223.741 704.665 223.741 702.714 221.692C697.251 215.254 692.178 210.425 687.495 207.206C682.813 203.986 675.838 201.255 666.57 199.011C665.009 198.718 664.18 197.987 664.082 196.816C663.985 195.645 664.57 194.816 665.838 194.328C672.375 192.768 675.594 187.158 675.496 177.5L675.35 98.335C675.448 96.5791 674.716 95.7011 673.155 95.7011H655.888C654.522 95.7011 653.644 95.1645 653.254 94.0914C652.864 93.0183 653.303 92.0916 654.571 91.3111C666.277 83.019 678.179 73.0197 690.276 61.3132C702.47 49.6067 713.542 38.4855 723.493 27.9496C724.761 26.5839 725.981 26.34 727.151 27.218C728.42 27.9984 728.468 29.1691 727.298 30.7299C722.81 36.2905 718.274 43.5095 713.689 52.387C709.201 61.2644 706.47 69.3614 705.494 76.678C705.299 77.6535 705.348 78.3852 705.641 78.873C706.226 79.4583 706.909 79.7509 707.689 79.7509H733.005C733.687 79.7509 734.273 79.9948 734.761 80.4826C735.248 81.1655 735.492 81.7996 735.492 82.3849L734.907 93.3598C734.712 94.9206 733.883 95.7011 732.419 95.7011H707.104C705.738 95.7011 705.055 96.5303 705.055 98.1887Z" fill="#DEFF9C"/>
<path d="M580.527 36.1443C594.185 32.5348 606.721 33.364 618.134 38.6319C625.841 42.339 631.841 47.4606 636.133 53.9967C640.426 60.5328 642.133 67.8494 641.255 75.9464C640.377 84.0434 637.694 90.043 633.206 93.9452C628.817 97.8474 625.207 100.872 622.378 103.018C619.549 105.164 616.866 107.408 614.33 109.749C609.354 114.432 608.964 118.626 613.159 122.333C626.329 133.747 633.889 143.356 635.84 151.161C637.889 158.965 636.523 165.843 631.743 171.793C625.109 179.988 618.037 187.792 610.525 195.207C603.111 202.523 595.746 209.937 588.429 217.449C584.82 220.961 582.625 220.766 581.844 216.864C580.576 211.498 574.82 206.815 564.577 202.816C554.431 198.718 543.7 194.816 532.384 191.109C530.336 190.329 530.189 188.865 531.945 186.719C534.579 183.988 537.311 181.256 540.14 178.525C542.969 175.793 545.798 173.11 548.627 170.477C553.017 166.379 554.48 162.77 553.017 159.648C551.651 156.429 549.066 152.819 545.261 148.819C535.701 138.869 531.067 129.552 531.36 120.87C531.75 112.188 534.921 104.53 540.871 97.8961C546.432 91.7502 552.675 86.1408 559.602 81.068C566.626 75.8976 573.259 70.1419 579.503 63.8009C580.283 63.118 581.308 63.3619 582.576 64.5326C595.648 76.1415 606.525 81.9948 615.208 82.0923C623.988 82.1899 629.695 79.6047 632.329 74.3368C634.962 68.9713 634.719 63.4107 631.597 57.655C628.475 51.8017 623.402 46.9728 616.378 43.1682C605.745 37.9003 594.087 37.4125 581.405 41.7049C578.869 42.6804 577.357 42.1439 576.869 40.0952C576.381 38.0466 577.601 36.7296 580.527 36.1443ZM557.114 167.55C556.139 169.208 556.431 170.477 557.992 171.354C564.919 174.574 571.845 177.744 578.771 180.866C585.698 183.988 592.673 187.012 599.697 189.939C604.574 192.085 609.452 189.304 614.33 181.598C620.378 171.94 612.379 159.258 590.331 143.552C586.917 141.503 582.722 142.478 577.747 146.478L557.114 167.55ZM577.308 137.113C578.479 137.991 579.552 137.942 580.527 136.967L607.745 110.334C608.623 109.359 608.867 108.481 608.476 107.7C608.184 106.822 607.452 106.335 606.282 106.237C600.721 105.652 594.575 103.506 587.844 99.7984C577.015 93.6525 569.943 89.5065 566.626 87.3603C563.309 85.2141 559.065 87.1652 553.895 93.2135C547.359 100.92 547.31 108.286 553.749 115.31C560.285 122.333 568.138 129.601 577.308 137.113Z" fill="#DEFF9C"/>
<path d="M465.95 183.06L464.926 102.871C464.926 101.017 464.633 99.5049 464.048 98.3342C461.706 94.5296 459.707 93.6029 458.048 95.5539L452.195 101.554C450.634 103.31 449.122 103.505 447.659 102.139C446.293 100.773 446.537 98.8708 448.39 96.4319C452.683 91.0664 456.536 85.701 459.951 80.3355C463.365 74.97 466.877 69.6533 470.486 64.3854C472.047 62.5318 473.852 62.5806 475.901 64.5317C479.998 69.507 483.998 73.8969 487.9 77.7015C491.802 81.4086 497.363 85.3595 504.582 89.5544C506.63 90.3348 507.508 91.2616 507.216 92.3347C507.02 93.4078 506.386 93.9931 505.313 94.0906C502.777 95.0662 500.533 96.7734 498.582 99.2122C496.631 101.554 495.655 105.504 495.655 111.065V172.963C495.655 182.914 497.509 189.011 501.216 191.255C505.508 193.791 509.02 192.718 511.752 188.035C512.727 186.182 513.898 185.792 515.264 186.865C516.727 187.84 516.727 189.499 515.264 191.84C512.337 196.425 509.606 201.059 507.069 205.741C504.533 210.327 501.948 214.912 499.314 219.497C497.46 222.228 495.168 222.813 492.436 221.253C483.656 217.058 477.023 211.936 472.535 205.888C468.145 199.839 465.95 192.23 465.95 183.06ZM487.168 9.36475C497.997 9.36475 502.923 14.5839 501.948 25.0222C501.362 30.2901 498.045 35.6068 491.997 40.9723C486.046 46.2403 481.315 48.8254 477.803 48.7279C474.291 48.7279 471.608 45.9476 469.755 40.387C467.901 34.8264 467.17 29.7048 467.56 25.0222C467.852 20.5347 469.999 16.8276 473.998 13.901C478.096 10.8768 482.486 9.36475 487.168 9.36475Z" fill="#DEFF9C"/>
<path d="M390.297 107.699L390.15 178.67C390.15 181.792 390.931 183.792 392.492 184.67L403.028 190.816C405.271 192.181 408.686 189.791 413.271 183.645C414.246 182.377 415.466 182.133 416.929 182.914C418.392 183.597 418.392 184.816 416.929 186.572C406.686 197.986 398.833 209.205 393.37 220.228C391.711 222.472 389.907 222.472 387.956 220.228C382.492 213.887 377.371 209.058 372.591 205.741C367.908 202.425 360.982 199.693 351.812 197.547C350.056 197.059 349.178 196.279 349.178 195.206C349.178 194.132 349.812 193.352 351.08 192.864C357.616 191.791 360.835 186.182 360.738 176.036V114.138C360.738 104.187 358.884 98.0903 355.177 95.8465C350.885 93.0174 347.373 94.0418 344.641 98.9195C343.568 100.968 342.349 101.456 340.983 100.383C339.617 99.3097 339.666 97.6025 341.129 95.2612C343.959 90.7737 346.641 86.1886 349.178 81.506C351.812 76.8234 354.494 72.1408 357.226 67.4582C358.884 64.5316 361.079 63.9951 363.811 65.8486C378.151 72.7749 386.736 81.5548 389.565 92.1882C389.858 93.1638 390.443 93.7979 391.321 94.0905C392.199 94.2857 392.98 93.9442 393.662 93.0662L416.197 67.1656C416.783 66.5802 417.466 66.3364 418.246 66.4339C419.027 66.4339 419.661 66.8241 420.148 67.6046L435.513 97.0172C435.903 97.8952 435.806 98.7244 435.221 99.5048L417.661 120.577C416.978 121.259 416.197 121.552 415.319 121.455C414.539 121.357 414.003 120.918 413.71 120.138L401.857 98.1878C401.467 97.6025 400.833 97.2611 399.955 97.1635C399.174 96.9684 398.443 97.2123 397.76 97.8952L390.882 106.236C390.492 106.626 390.297 107.114 390.297 107.699Z" fill="#DEFF9C"/>
<path d="M208.114 25.0227C206.845 23.1691 206.943 21.7546 208.406 20.7791C209.87 19.706 211.333 20.0474 212.796 21.8034C217.089 27.1689 220.552 32.9246 223.186 39.0705C223.478 40.046 224.161 40.5338 225.234 40.5338C226.112 40.7289 226.893 40.3387 227.576 39.3632C233.234 29.2175 242.111 21.4132 254.208 15.9501C266.402 10.3895 278.743 8.14578 291.23 9.21888C293.766 9.31643 295.035 10.3408 295.035 12.2918C295.035 14.2429 293.815 15.1209 291.376 14.9258C281.133 14.2429 272.207 16.5842 264.598 21.9497C256.988 27.3152 253.233 37.656 253.33 52.972L253.623 85.7502C253.623 86.7258 254.013 87.4574 254.793 87.9452C255.574 88.3354 256.354 88.2866 257.135 87.7989C262.5 84.8722 267.866 81.6529 273.231 78.141C278.694 74.629 283.718 70.6781 288.303 66.2881C291.913 62.6786 293.961 63.3127 294.449 68.1904C294.839 71.7999 296.352 75.0192 298.985 77.8483C301.619 80.6774 304.058 83.4577 306.302 86.1892C319.472 102.969 326.252 121.114 326.642 140.624C327.325 169.305 317.228 194.67 296.352 216.717C275.475 238.667 256.501 255.446 239.429 267.055C237.087 268.713 235.331 268.957 234.161 267.786C233.088 266.713 233.429 265.445 235.185 263.982C248.94 251.788 262.793 238.471 276.743 224.033C290.791 209.595 297.181 186.719 295.913 155.404C295.327 143.112 293.425 131.552 290.206 120.723C287.084 109.797 281.328 100.725 272.938 93.5058C268.646 89.8963 262.695 89.945 255.086 93.6521C254.208 93.9448 253.769 94.6764 253.769 95.8471L254.354 184.231C254.354 192.133 257.525 195.401 263.866 194.035C265.232 193.645 266.451 192.914 267.524 191.84C268.597 190.767 269.768 189.841 271.036 189.06C272.402 188.182 273.621 188.231 274.694 189.207C275.768 190.182 275.768 191.206 274.694 192.279C269.914 197.547 265.085 202.425 260.208 206.913C255.33 211.4 251.574 216.327 248.94 221.692C247.769 224.033 246.014 224.033 243.672 221.692C234.99 212.327 225.527 205.303 215.284 200.62C211.967 198.864 211.723 197.255 214.552 195.791C220.796 193.645 223.869 187.207 223.771 176.476L223.478 78.7263C223.381 65.5565 221.869 54.7767 218.942 46.3871C216.113 37.9974 212.504 30.8759 208.114 25.0227Z" fill="#DEFF9C"/>
<path d="M105.828 182.183C103.389 183.256 101.633 183.061 100.56 181.597C99.4872 180.134 99.9262 178.622 101.877 177.061C113.194 168.671 118.998 161.501 119.291 155.55C119.583 151.551 117.73 146.819 113.73 141.356C109.828 135.893 102.902 128.625 92.9511 119.553C72.7573 101.213 62.758 85.9941 62.9531 73.8974C62.9531 62.7762 71.3428 51.9964 88.1221 41.5581C88.7075 41.2655 91.0975 39.8997 95.2924 37.4608C99.4872 34.9244 102.511 32.9733 104.365 31.6076C105.243 30.8272 105.584 29.9492 105.389 28.9736C102.365 15.6087 93.9754 8.92622 80.2202 8.92622C66.27 8.92622 55.8317 17.6085 48.9053 34.9732C41.979 52.2403 39.5401 71.1171 41.5887 91.6035C45.1007 127.308 56.6121 154.136 76.123 172.086C95.6338 189.938 117.925 198.864 142.996 198.864C156.849 198.864 171.385 195.157 186.603 187.743C188.847 186.67 190.505 186.963 191.578 188.621C192.652 190.182 192.164 191.84 190.115 193.596C166.8 212.034 140.167 221.253 110.218 221.253C80.269 221.253 55.539 209.498 36.0282 185.987C16.5173 162.379 6.03022 139.307 4.56691 116.772C2.51827 84.1893 8.71296 56.5815 23.151 33.9489C37.589 11.3163 55.8317 0 77.8789 0C86.8539 0 94.0242 2.29253 99.3897 6.87758C104.853 11.3651 108.609 16.7793 110.657 23.1204C111.34 25.0714 112.559 25.5104 114.315 24.4373C122.9 18.0963 130.851 11.1212 138.167 3.51195C141.387 1.0731 145.045 0.975543 149.142 3.21929C153.337 5.36548 157.191 7.31657 160.703 9.07255C163.922 10.9261 167.873 13.121 172.555 15.6575C177.238 18.1939 182.213 18.3402 187.481 16.0965C189.627 15.0234 191.237 15.0721 192.31 16.2428C193.481 17.3159 193.432 18.5841 192.164 20.0474C187.188 24.9251 182.555 29.3151 178.262 33.2172C173.97 37.0218 169.775 40.7777 165.678 44.4847C164.702 45.4603 164.068 45.9968 163.775 46.0944C163.385 46.2895 162.897 46.3871 162.312 46.3871C161.532 46.3871 160.605 46.0456 159.532 45.3627C158.556 44.6799 157.727 44.1433 157.044 43.7531C140.167 35.5585 128.51 31.4613 122.071 31.4613C117.388 31.6564 112.657 33.6562 107.877 37.4608C99.8774 43.7043 95.8289 49.8502 95.7314 55.8986C95.4387 63.5078 101.438 72.6292 113.73 83.2626C139.289 105.407 152.752 123.065 154.118 136.235C155.093 148.721 138.997 164.038 105.828 182.183Z" fill="#DEFF9C"/>
</mask>
<g mask="url(#mask0_70_1377)">
<rect y="-8" width="1252" height="892" fill="url(#paint0_radial_70_1377)"/>
</g>
<defs>
<radialGradient id="paint0_radial_70_1377" cx="0" cy="0" r="1" gradientUnits="userSpaceOnUse" gradientTransform="translate(626 438) scale(758 1772.89)">
<stop offset="0.19" stop-color="#212121" stop-opacity="0.79"/>
<stop offset="1" stop-color="#DEFF9C"/>
</radialGradient>
</defs>
</svg>
