<svg width="1252" height="810" viewBox="0 0 1252 810" fill="none" xmlns="http://www.w3.org/2000/svg">
<mask id="mask0_44_424" style="mask-type:alpha" maskUnits="userSpaceOnUse" x="0" y="0" width="1252" height="810">
<path d="M1140.61 674.789C1140.49 695.455 1144.34 707.393 1152.17 710.602C1153.07 711.243 1153.52 712.142 1153.52 713.297C1153.52 714.324 1153.07 715.094 1152.17 715.608C1140.61 724.336 1131.24 735.953 1124.06 750.458C1123.29 751.485 1122.32 751.998 1121.17 751.998C1120.01 751.998 1119.05 751.485 1118.28 750.458C1111.09 735.953 1101.34 724.4 1089.01 715.8C1088.24 715.287 1087.86 714.452 1087.86 713.297C1087.86 712.142 1088.31 711.243 1089.21 710.602C1097.55 707.393 1101.72 695.455 1101.72 674.789V610.865C1101.72 597.772 1099.28 589.75 1094.41 586.798C1088.76 583.075 1084.14 584.423 1080.54 590.841C1079.13 593.536 1077.53 594.178 1075.73 592.766C1073.93 591.354 1074 589.108 1075.92 586.027C1079.64 580.123 1083.17 574.09 1086.51 567.928C1089.98 561.767 1093.51 555.606 1097.1 549.445C1099.15 545.722 1102.04 544.952 1105.77 547.134L1105.96 547.327C1124.83 556.825 1136.12 568.442 1139.84 582.177C1140.1 583.589 1140.74 584.423 1141.77 584.68C1142.8 584.936 1143.82 584.68 1144.85 583.909C1151.91 578.005 1159.16 571.779 1166.61 565.233C1174.05 558.687 1179.12 552.654 1181.82 547.134C1183.23 543.797 1185.54 543.861 1188.75 547.327C1196.45 555.413 1203 561.831 1208.39 566.581C1213.91 571.33 1223.22 574.86 1236.31 577.17C1238.62 577.684 1239.77 578.711 1239.77 580.251C1239.9 581.663 1239.13 582.626 1237.46 583.139C1234.13 584.423 1231.17 586.669 1228.61 589.878C1226.04 592.959 1224.76 598.157 1224.76 605.474V686.919C1224.76 700.012 1227.19 708.034 1232.07 710.987C1237.72 714.452 1242.28 713.04 1245.74 706.751C1247.15 704.312 1248.76 703.798 1250.56 705.21C1252.48 706.494 1252.48 708.676 1250.56 711.757C1246.71 717.79 1243.05 723.887 1239.58 730.048C1236.24 736.081 1232.84 742.114 1229.38 748.147C1227.07 751.741 1224.18 752.576 1220.71 750.65C1197.35 739.354 1185.67 722.603 1185.67 700.397L1185.86 601.816C1185.86 597.965 1184.9 595.462 1182.97 594.307H1182.78V593.922L1166.42 580.444C1165 579.417 1163.53 579.353 1161.99 580.251L1141.96 595.847C1141.06 596.489 1140.61 597.259 1140.61 598.157V674.789Z" fill="#DEFF9C"/>
<path d="M987.737 699.049L986.389 593.537C986.389 591.098 986.004 589.108 985.234 587.568C982.153 582.562 979.522 581.343 977.339 583.91L969.638 591.804C967.584 594.114 965.594 594.371 963.669 592.574C961.872 590.777 962.193 588.274 964.632 585.065C970.28 578.005 975.35 570.945 979.842 563.885C984.335 556.826 988.956 549.83 993.705 542.898C995.759 540.46 998.134 540.524 1000.83 543.091C1006.22 549.637 1011.48 555.414 1016.62 560.42C1021.75 565.297 1029.07 570.496 1038.57 576.016C1041.26 577.042 1042.42 578.262 1042.03 579.674C1041.78 581.086 1040.94 581.856 1039.53 581.984C1036.19 583.268 1033.24 585.514 1030.67 588.723C1028.11 591.804 1026.82 597.003 1026.82 604.319V685.764C1026.82 698.857 1029.26 706.88 1034.14 709.832C1039.79 713.169 1044.41 711.757 1048 705.596C1049.29 703.157 1050.83 702.644 1052.62 704.056C1054.55 705.339 1054.55 707.521 1052.62 710.602C1048.77 716.635 1045.18 722.732 1041.84 728.893C1038.5 734.926 1035.1 740.959 1031.64 746.992C1029.2 750.586 1026.18 751.357 1022.59 749.303C1011.03 743.783 1002.31 737.044 996.401 729.086C990.625 721.128 987.737 711.115 987.737 699.049ZM1015.66 470.503C1029.9 470.503 1036.39 477.37 1035.1 491.105C1034.33 498.036 1029.97 505.032 1022.01 512.092C1014.18 519.023 1007.95 522.425 1003.33 522.297C998.711 522.297 995.182 518.638 992.743 511.322C990.304 504.005 989.341 497.266 989.855 491.105C990.24 485.2 993.064 480.323 998.326 476.472C1003.72 472.493 1009.49 470.503 1015.66 470.503Z" fill="#DEFF9C"/>
<path d="M907.64 587.376L907.447 695.199C907.447 699.178 908.41 701.81 910.335 703.093L924.198 710.988C926.894 713.298 931.386 710.217 937.676 701.746C938.831 700.077 940.372 699.82 942.297 700.975C944.351 702.131 944.479 703.671 942.682 705.596C928.948 720.615 918.615 735.376 911.683 749.881C909.501 752.577 907.126 752.577 904.559 749.881C897.371 741.409 890.696 735.055 884.535 730.819C878.373 726.583 869.196 722.989 857.001 720.037C854.948 719.652 853.856 718.689 853.728 717.149C853.6 715.609 854.37 714.518 856.039 713.876C864.639 711.822 868.875 704.441 868.746 691.733L868.554 587.569C868.682 585.258 867.719 584.103 865.666 584.103H842.946C841.149 584.103 839.993 583.397 839.48 581.985C838.967 580.573 839.544 579.354 841.213 578.327C856.616 567.416 872.276 554.259 888.193 538.856C904.238 523.452 918.807 508.819 931.9 494.956C933.569 493.159 935.173 492.838 936.713 493.994C938.382 495.02 938.446 496.561 936.906 498.615C931.001 505.931 925.033 515.43 919 527.111C913.095 538.791 909.501 549.445 908.217 559.072C907.961 560.356 908.025 561.319 908.41 561.961C909.18 562.731 910.079 563.116 911.105 563.116H944.415C945.314 563.116 946.084 563.437 946.726 564.079C947.367 564.977 947.688 565.811 947.688 566.582L946.918 581.022C946.661 583.076 945.57 584.103 943.645 584.103H910.335C908.538 584.103 907.64 585.194 907.64 587.376Z" fill="#DEFF9C"/>
<path d="M712.018 674.789C711.889 695.455 715.74 707.393 723.57 710.602C724.469 711.243 724.918 712.142 724.918 713.297C724.918 714.324 724.469 715.094 723.57 715.608C712.018 724.336 702.647 735.953 695.459 750.458C694.689 751.485 693.726 751.998 692.571 751.998C691.416 751.998 690.453 751.485 689.683 750.458C682.495 735.953 672.739 724.4 660.417 715.8C659.647 715.287 659.261 714.452 659.261 713.297C659.261 712.142 659.711 711.243 660.609 710.602C668.953 707.393 673.124 695.455 673.124 674.789V610.865C673.124 597.772 670.686 589.75 665.808 586.798C660.16 583.075 655.539 584.423 651.945 590.841C650.533 593.536 648.928 594.178 647.131 592.766C645.334 591.354 645.399 589.108 647.324 586.027C651.046 580.123 654.576 574.09 657.914 567.928C661.379 561.767 664.909 555.606 668.503 549.445C670.557 545.722 673.445 544.952 677.168 547.134L677.36 547.327C696.229 556.825 707.525 568.442 711.248 582.177C711.504 583.589 712.146 584.423 713.173 584.68C714.2 584.936 715.227 584.68 716.254 583.909C723.314 578.005 730.566 571.779 738.011 565.233C745.456 558.687 750.526 552.654 753.222 547.134C754.634 543.797 756.944 543.861 760.153 547.327C767.855 555.413 774.401 561.831 779.792 566.581C785.312 571.33 794.618 574.86 807.711 577.17C810.021 577.684 811.177 578.711 811.177 580.251C811.305 581.663 810.535 582.626 808.866 583.139C805.529 584.423 802.576 586.669 800.009 589.878C797.442 592.959 796.158 598.157 796.158 605.474V686.919C796.158 700.012 798.597 708.034 803.475 710.987C809.123 714.452 813.68 713.04 817.145 706.751C818.557 704.312 820.162 703.798 821.959 705.21C823.884 706.494 823.884 708.676 821.959 711.757C818.108 717.79 814.45 723.887 810.984 730.048C807.647 736.081 804.245 742.114 800.779 748.147C798.469 751.741 795.581 752.576 792.115 750.65C768.753 739.354 757.072 722.603 757.072 700.397L757.265 601.816C757.265 597.965 756.302 595.462 754.377 594.307H754.184V593.922L737.818 580.444C736.406 579.417 734.93 579.353 733.39 580.251L713.366 595.847C712.467 596.489 712.018 597.259 712.018 598.157V674.789Z" fill="#DEFF9C"/>
<path d="M556.252 717.149C549.706 722.155 542.517 727.674 534.687 733.707C526.857 739.612 519.605 745.067 512.93 750.073C510.62 751.87 508.758 752.64 507.347 752.384C506.063 752.127 505.549 750.972 505.806 748.918C505.806 746.222 501.827 741.088 493.869 733.515C472.946 713.875 462.869 688.332 463.64 656.883C464.41 629.927 476.925 607.143 501.185 588.531C508.63 582.883 515.562 576.914 521.98 570.625C528.526 564.335 534.302 556.698 539.308 547.712C541.362 543.733 544.186 543.605 547.78 547.327C567.291 569.405 586.802 582.434 606.313 586.413C612.474 587.568 613.116 590.007 608.238 593.73C602.205 598.094 598.932 603.485 598.419 609.903V610.288L598.996 698.28C598.996 704.184 601.114 708.228 605.35 710.41C609.714 712.592 614.4 710.923 619.406 705.404C621.331 703.221 623.128 702.708 624.797 703.863C626.594 704.89 626.658 706.816 624.989 709.64C620.368 716.571 615.876 723.374 611.511 730.049C607.275 736.724 603.681 743.655 600.729 750.843L600.537 751.036C598.739 753.988 596.557 753.988 593.99 751.036C592.578 749.496 590.909 748.469 588.984 747.955C574.351 744.746 565.109 735.055 561.258 718.882C561.001 718.111 560.36 717.341 559.333 716.571C558.177 716.443 557.151 716.635 556.252 717.149ZM558.37 603.742C550.412 601.56 541.105 595.398 530.451 585.258C525.317 579.097 521.21 578.519 518.129 583.525C504.523 603.806 499.196 626.205 502.148 650.722C506.255 685.764 518.578 707.393 539.116 715.608C539.244 715.608 539.373 715.673 539.501 715.801C544.764 717.47 551.118 714.325 558.563 706.366C559.076 705.596 559.333 704.89 559.333 704.248C559.204 702.323 559.14 699.306 559.14 695.199L560.873 606.822C560.873 605.282 560.039 604.255 558.37 603.742Z" fill="#DEFF9C"/>
<path d="M355.624 491.297C353.955 489.5 353.891 487.767 355.431 486.098C357.1 484.43 359.154 484.751 361.593 487.061C364.545 490.655 367.561 494.506 370.642 498.614C373.851 502.721 376.547 506.957 378.729 511.321C379.371 512.605 380.269 513.247 381.424 513.247C382.708 513.247 383.671 512.733 384.313 511.706C391.886 498.87 402.411 488.537 415.889 480.707C429.367 472.749 443.936 469.026 459.596 469.54C462.548 469.668 464.089 470.952 464.217 473.391C464.346 475.701 462.805 476.856 459.596 476.856C446.888 476.856 436.684 480.515 428.982 487.831C421.409 495.148 417.622 508.497 417.622 527.88L417.43 694.621C417.43 698.728 418.392 701.36 420.318 702.515L434.181 710.409C437.39 711.564 441.818 708.484 447.466 701.167C448.878 699.242 450.611 698.857 452.665 700.012C454.718 701.039 454.654 702.707 452.472 705.018C438.994 720.036 428.661 734.798 421.473 749.302C419.933 751.998 417.622 751.998 414.541 749.302C408.252 741.216 401.77 734.862 395.095 730.241C388.42 725.491 379.05 721.897 366.984 719.458C364.93 719.202 363.839 718.303 363.711 716.763C363.711 715.094 364.417 713.939 365.829 713.297C369.038 712.142 371.926 710.024 374.493 706.943C377.188 703.734 378.536 698.471 378.536 691.155L378.344 561.767C378.344 543.283 376.354 528.714 372.375 518.06C368.396 507.406 362.812 498.485 355.624 491.297Z" fill="#DEFF9C"/>
<path d="M104.742 599.698C107.438 597.516 109.749 597.388 111.674 599.313C113.599 601.239 112.893 603.934 109.556 607.4C104.422 612.021 98.517 615.102 91.8422 616.642C85.1674 618.054 78.4285 618.824 71.6254 618.952C51.0876 619.466 34.0156 613.369 20.4094 600.661C6.80313 587.825 0 570.432 0 548.482C0 526.404 8.536 507.471 25.608 491.683C42.68 475.894 65.8491 468 95.1154 468C112.829 468.385 127.719 472.814 139.785 481.285C151.851 489.757 161.285 499.769 168.089 511.322C168.987 513.119 170.335 513.504 172.132 512.477L255.502 469.155C259.225 467.487 261.92 467.743 263.589 469.925C265.258 471.979 264.808 474.033 262.241 476.087C253.128 482.633 251.908 491.747 258.583 503.428C265.386 514.98 276.425 526.918 291.7 539.24C322.122 564.399 336.498 590.007 334.829 616.064C333.289 642.122 323.854 667.088 306.526 690.963C286.758 717.79 267.247 735.568 247.993 744.297C228.739 753.154 205.827 750.201 179.256 735.44C178.229 734.798 177.202 734.734 176.175 735.247C175.277 735.761 174.763 736.531 174.635 737.558C172.71 753.731 169.372 767.273 164.623 778.184C160.002 789.095 152.878 799.107 143.251 808.221C141.454 809.889 139.785 810.146 138.245 808.991C136.704 807.835 136.576 806.167 137.86 803.985C147.743 783.319 151.017 755.657 147.679 720.999C147.679 719.844 147.037 719.01 145.754 718.496C120.082 708.484 100.892 709.639 88.1839 721.962C86.0018 724.144 83.8838 724.529 81.8301 723.117C79.9046 721.577 79.8405 719.587 81.6375 717.148C101.662 691.091 121.173 677.292 140.17 675.752C141.197 675.624 141.903 675.303 142.288 674.789C142.801 674.276 143.058 673.442 143.058 672.286C141.518 655.728 139.913 639.233 138.245 622.803C136.704 606.245 135.164 589.686 133.624 573.128C131.698 554.387 125.344 538.213 114.562 524.607C103.78 510.873 90.3661 503.877 74.3209 503.62C57.1206 502.722 42.6158 506.958 30.8066 516.328C18.9974 525.57 13.0928 538.598 13.0928 555.414C13.0928 572.229 18.484 585.514 29.2663 595.27C40.177 605.025 54.6817 609.903 72.7806 609.903C85.7451 610.16 96.399 606.758 104.742 599.698ZM174.635 525.377C176.817 531.282 178.293 537.187 179.063 543.091C179.962 548.996 180.54 554.579 180.796 559.842C181.566 587.183 181.374 610.352 180.219 629.35C179.192 648.347 178.486 665.74 178.101 681.528C178.101 683.069 178.678 684.031 179.834 684.416C186.123 687.24 192.991 690.834 200.436 695.199C226.493 710.217 247.159 716.186 262.434 713.105C277.837 710.024 290.16 701.168 299.402 686.534C319.683 654.444 307.039 619.979 261.471 583.14C245.939 570.817 232.847 558.944 222.193 547.52C211.667 536.095 206.019 524.094 205.249 511.514C205.249 509.974 204.736 509.011 203.709 508.626C202.682 508.241 201.655 508.305 200.628 508.819L176.175 521.526C174.378 522.425 173.865 523.709 174.635 525.377Z" fill="#DEFF9C"/>
<path d="M1179.52 221.546C1179.33 219.204 1178.06 217.448 1175.72 216.278C1173.47 215.107 1171.57 213.937 1170.01 212.766C1158.79 205.157 1150.84 195.889 1146.16 184.963C1141.57 173.939 1138.99 162.282 1138.4 149.99C1137.23 122.187 1144.74 101.017 1160.94 86.4819C1166.69 81.3115 1173.33 77.1167 1180.84 73.8974C1188.35 70.5805 1196.06 67.8978 1203.96 65.8492C1206.4 65.3614 1208.2 66.5808 1209.37 69.5074L1230.44 118.967C1231.42 121.601 1231.08 123.26 1229.42 123.943H1229.13L1169.13 147.209C1167.96 147.795 1167.47 148.722 1167.67 149.99C1172.45 171.647 1180.45 185.548 1191.67 191.694C1202.88 197.743 1214.05 198.621 1225.18 194.328C1227.13 193.45 1228.35 193.596 1228.83 194.767C1229.42 195.938 1229.08 196.816 1227.81 197.401C1219.91 201.401 1212.35 205.498 1205.13 209.693C1198.01 213.888 1191.62 218.278 1185.96 222.863C1185.08 223.448 1183.76 223.643 1182.01 223.448C1180.35 223.253 1179.52 222.619 1179.52 221.546ZM1165.91 138.869C1166.01 139.649 1166.35 140.283 1166.94 140.771C1167.52 141.161 1168.25 141.161 1169.13 140.771L1200.3 129.064C1201.76 128.479 1202.2 127.455 1201.62 125.991L1183.76 82.2383C1182.89 80.0921 1181.13 79.7994 1178.5 81.3603C1172.84 84.6771 1168.98 92.2376 1166.94 104.042C1164.89 115.846 1164.55 127.455 1165.91 138.869Z" fill="#DEFF9C"/>
<path d="M1004.95 25.0227C1003.68 23.1691 1003.78 21.7546 1005.24 20.7791C1006.7 19.706 1008.17 20.0474 1009.63 21.8034C1013.92 27.1689 1017.38 32.9246 1020.02 39.0705C1020.31 40.046 1020.99 40.5338 1022.07 40.5338C1022.95 40.7289 1023.73 40.3387 1024.41 39.3632C1030.07 29.2175 1038.94 21.4132 1051.04 15.9501C1063.24 10.3895 1075.58 8.14578 1088.06 9.21888C1090.6 9.31643 1091.87 10.3408 1091.87 12.2918C1091.87 14.2429 1090.65 15.1209 1088.21 14.9258C1077.97 14.2429 1069.04 16.5842 1061.43 21.9497C1053.82 27.3152 1050.07 37.656 1050.16 52.972L1050.46 85.7502C1050.46 86.7258 1050.85 87.4574 1051.63 87.9452C1052.41 88.3354 1053.19 88.2866 1053.97 87.7989C1059.33 84.8722 1064.7 81.6529 1070.06 78.141C1075.53 74.629 1080.55 70.6781 1085.14 66.2881C1088.75 62.6786 1090.79 63.3127 1091.28 68.1904C1091.67 71.7999 1093.18 75.0192 1095.82 77.8483C1098.45 80.6774 1100.89 83.4577 1103.14 86.1892C1116.3 102.969 1123.08 121.114 1123.48 140.624C1124.16 169.305 1114.06 194.67 1093.18 216.717C1072.31 238.667 1053.33 255.446 1036.26 267.055C1033.92 268.713 1032.16 268.957 1030.99 267.786C1029.92 266.713 1030.26 265.445 1032.02 263.982C1045.77 251.788 1059.63 238.471 1073.58 224.033C1087.62 209.595 1094.01 186.719 1092.75 155.404C1092.16 143.112 1090.26 131.552 1087.04 120.723C1083.92 109.797 1078.16 100.725 1069.77 93.5058C1065.48 89.8963 1059.53 89.945 1051.92 93.6521C1051.04 93.9448 1050.6 94.6764 1050.6 95.8471L1051.19 184.231C1051.19 192.133 1054.36 195.401 1060.7 194.035C1062.06 193.645 1063.28 192.914 1064.36 191.84C1065.43 190.767 1066.6 189.841 1067.87 189.06C1069.23 188.182 1070.45 188.231 1071.53 189.207C1072.6 190.182 1072.6 191.206 1071.53 192.279C1066.75 197.547 1061.92 202.425 1057.04 206.913C1052.16 211.4 1048.41 216.327 1045.77 221.692C1044.6 224.033 1042.85 224.033 1040.51 221.692C1031.82 212.327 1022.36 205.303 1012.12 200.62C1008.8 198.864 1008.56 197.255 1011.39 195.791C1017.63 193.645 1020.7 187.207 1020.6 176.476L1020.31 78.7263C1020.21 65.5565 1018.7 54.7767 1015.78 46.3871C1012.95 37.9974 1009.34 30.8759 1004.95 25.0227Z" fill="#DEFF9C"/>
<path d="M887.15 44.193C882.858 48.6805 880.956 53.0704 881.443 57.3628C881.931 61.5576 885.443 64.6306 891.979 66.5817C900.369 69.1181 905.929 72.4349 908.661 76.5322C911.392 80.5319 913.051 85.2146 913.636 90.58C913.734 91.5556 914.124 92.1897 914.807 92.4823C915.587 92.775 916.368 92.775 917.148 92.4823C929.538 85.2633 942.268 76.6298 955.341 66.5817C956.121 65.9964 956.902 65.8988 957.682 66.289C958.462 66.6792 958.95 67.2646 959.145 68.045C960.121 73.3129 962.072 77.8004 964.999 81.5075C968.023 85.2145 971.144 88.8728 974.364 92.4823C986.363 106.042 991.68 121.212 990.314 137.991C988.948 158.575 981.778 174.33 968.803 185.256C954.463 197.353 943.439 208.718 935.732 219.352C934.757 220.62 933.635 220.815 932.367 219.937C929.928 218.474 927.489 217.059 925.05 215.693C922.611 214.328 920.172 212.913 917.733 211.45C916.953 211.06 916.173 211.06 915.392 211.45C914.709 211.742 914.368 212.377 914.368 213.352C913.197 223.888 911.685 234.229 909.832 244.374C908.076 254.52 906.173 264.714 904.125 274.958C903.734 276.323 902.905 276.957 901.637 276.86C900.369 276.86 899.588 276.226 899.296 274.958C897.247 263.154 895.296 250.52 893.442 237.058C891.687 223.693 890.321 210.816 889.345 198.426C889.15 197.353 888.614 196.67 887.736 196.378C877.883 192.768 870.907 193.207 866.81 197.695C865.932 198.573 865.005 198.865 864.03 198.573C863.152 198.182 862.713 197.304 862.713 195.939C862.81 180.037 870.42 171.599 885.541 170.623C887.004 170.623 887.736 169.843 887.736 168.282V163.746C887.736 149.21 887.492 138.772 887.004 132.431C886.614 126.09 886.272 118.383 885.98 109.31C885.784 104.921 884.663 101.555 882.614 99.2136C880.565 96.8723 878.517 94.8236 876.468 93.0677C867.591 85.7511 863.884 77.7029 865.347 68.923C866.908 60.0455 872.712 51.0218 882.76 41.8517C884.516 39.9981 886.028 39.6079 887.297 40.681C888.565 41.6566 888.516 42.8272 887.15 44.193ZM916.124 176.769C916.124 177.94 916.563 178.672 917.441 178.964C922.416 181.501 927.245 184.183 931.928 187.012C936.708 189.841 941.537 192.622 946.414 195.353C947.878 196.036 949 195.744 949.78 194.475C952.707 189.89 955.438 184.232 957.975 177.501C960.511 170.77 961.877 162.38 962.072 152.332C962.267 141.894 960.218 132.577 955.926 124.383C951.731 116.09 947.146 108.189 942.171 100.677C937 93.4579 928.074 92.9213 915.392 99.0673C914.417 99.555 913.929 100.287 913.929 101.262C914.026 102.433 914.075 104.189 914.075 106.53L915.978 164.477C916.075 167.306 916.124 171.404 916.124 176.769Z" fill="#DEFF9C"/>
<path d="M794.376 220.082C792.913 222.521 791.108 222.521 788.962 220.082C778.231 206.717 761.939 196.669 740.087 189.938C738.331 189.45 737.502 188.67 737.599 187.597C737.599 186.524 738.136 185.743 739.209 185.255C745.453 183.109 748.574 176.622 748.574 165.793L748.135 91.1644C748.135 90.0913 748.038 89.262 747.843 88.6767C747.648 87.9938 747.696 87.4085 747.989 86.9207C748.379 86.3354 749.062 85.994 750.038 85.8964C775.987 83.7502 799.059 76.6775 819.252 64.6784C820.13 64.1906 820.911 64.0443 821.594 64.2394C822.374 64.4345 822.813 65.1174 822.911 66.288C824.569 76.8239 829.74 87.1646 838.422 97.3103C843.202 103.164 847.153 111.163 850.275 121.309C853.494 131.454 854.762 139.893 854.079 146.624C853.104 154.526 850.519 161.647 846.324 167.988C842.129 174.232 837.349 179.988 831.983 185.255C825.642 191.499 818.813 196.767 811.497 201.059C804.18 205.352 798.473 211.693 794.376 220.082ZM778.426 89.262L779.011 173.549C779.011 175.012 779.597 176.037 780.767 176.622L806.668 192.718C809.204 194.377 811.546 193.889 813.692 191.255C822.959 181.305 827.154 169.354 826.276 155.404C826.081 146.722 824.374 138.966 821.155 132.137C818.033 125.308 814.131 119.26 809.448 113.992C801.839 106.285 796.035 96.7249 792.035 85.3111C791.84 84.8233 791.401 84.4331 790.718 84.1404C790.035 83.7502 789.401 83.7015 788.815 83.9941C785.889 85.0672 782.962 85.994 780.036 86.7744C778.963 87.1646 778.426 87.9938 778.426 89.262Z" fill="#DEFF9C"/>
<path d="M700.87 98.1887L700.724 180.134C700.724 183.158 701.456 185.158 702.919 186.134L713.455 192.133C715.503 193.889 718.918 191.548 723.698 185.11C724.576 183.841 725.747 183.646 727.21 184.524C728.771 185.402 728.868 186.573 727.503 188.036C717.064 199.45 709.211 210.669 703.943 221.692C702.285 223.741 700.48 223.741 698.529 221.692C693.066 215.254 687.993 210.425 683.31 207.206C678.628 203.986 671.653 201.255 662.385 199.011C660.824 198.718 659.995 197.987 659.897 196.816C659.8 195.645 660.385 194.816 661.653 194.328C668.19 192.768 671.409 187.158 671.311 177.5L671.165 98.335C671.262 96.5791 670.531 95.7011 668.97 95.7011H651.703C650.337 95.7011 649.459 95.1645 649.069 94.0914C648.679 93.0183 649.118 92.0916 650.386 91.3111C662.092 83.019 673.994 73.0197 686.091 61.3132C698.285 49.6067 709.357 38.4855 719.308 27.9496C720.576 26.5839 721.796 26.34 722.966 27.218C724.234 27.9984 724.283 29.1691 723.113 30.7299C718.625 36.2905 714.089 43.5095 709.504 52.387C705.016 61.2644 702.285 69.3614 701.309 76.678C701.114 77.6535 701.163 78.3852 701.456 78.873C702.041 79.4583 702.724 79.7509 703.504 79.7509H728.819C729.502 79.7509 730.088 79.9948 730.575 80.4826C731.063 81.1655 731.307 81.7996 731.307 82.3849L730.722 93.3598C730.527 94.9206 729.697 95.7011 728.234 95.7011H702.919C701.553 95.7011 700.87 96.5303 700.87 98.1887Z" fill="#DEFF9C"/>
<path d="M576.343 36.1443C590 32.5348 602.536 33.364 613.95 38.6319C621.657 42.339 627.656 47.4606 631.949 53.9967C636.241 60.5328 637.948 67.8494 637.07 75.9464C636.192 84.0434 633.509 90.043 629.022 93.9452C624.632 97.8474 621.022 100.872 618.193 103.018C615.364 105.164 612.682 107.408 610.145 109.749C605.17 114.432 604.78 118.626 608.975 122.333C622.144 133.747 629.705 143.356 631.656 151.161C633.705 158.965 632.339 165.843 627.559 171.793C620.925 179.988 613.852 187.792 606.341 195.207C598.926 202.523 591.561 209.937 584.245 217.449C580.635 220.961 578.44 220.766 577.66 216.864C576.391 211.498 570.636 206.815 560.392 202.816C550.247 198.718 539.516 194.816 528.2 191.109C526.151 190.329 526.005 188.865 527.761 186.719C530.395 183.988 533.126 181.256 535.955 178.525C538.784 175.793 541.613 173.11 544.442 170.477C548.832 166.379 550.296 162.77 548.832 159.648C547.467 156.429 544.881 152.819 541.077 148.819C531.516 138.869 526.883 129.552 527.175 120.87C527.565 112.188 530.736 104.53 536.687 97.8961C542.247 91.7502 548.491 86.1408 555.417 81.068C562.441 75.8976 569.075 70.1419 575.318 63.8009C576.099 63.118 577.123 63.3619 578.391 64.5326C591.464 76.1415 602.341 81.9948 611.023 82.0923C619.803 82.1899 625.51 79.6047 628.144 74.3368C630.778 68.9713 630.534 63.4107 627.412 57.655C624.291 51.8017 619.218 46.9728 612.194 43.1682C601.56 37.9003 589.903 37.4125 577.221 41.7049C574.684 42.6804 573.172 42.1439 572.684 40.0952C572.197 38.0466 573.416 36.7296 576.343 36.1443ZM552.93 167.55C551.954 169.208 552.247 170.477 553.808 171.354C560.734 174.574 567.66 177.744 574.587 180.866C581.513 183.988 588.488 187.012 595.512 189.939C600.39 192.085 605.267 189.304 610.145 181.598C616.194 171.94 608.194 159.258 586.147 143.552C582.732 141.503 578.538 142.478 573.562 146.478L552.93 167.55ZM573.123 137.113C574.294 137.991 575.367 137.942 576.343 136.967L603.56 110.334C604.438 109.359 604.682 108.481 604.292 107.7C603.999 106.822 603.268 106.335 602.097 106.237C596.536 105.652 590.39 103.506 583.659 99.7984C572.831 93.6525 565.758 89.5065 562.441 87.3603C559.124 85.2141 554.881 87.1652 549.71 93.2135C543.174 100.92 543.125 108.286 549.564 115.31C556.1 122.333 563.953 129.601 573.123 137.113Z" fill="#DEFF9C"/>
<path d="M461.765 183.06L460.741 102.871C460.741 101.017 460.448 99.5049 459.863 98.3342C457.521 94.5296 455.522 93.6029 453.863 95.5539L448.01 101.554C446.449 103.31 444.937 103.505 443.474 102.139C442.108 100.773 442.352 98.8708 444.205 96.4319C448.498 91.0664 452.351 85.701 455.765 80.3355C459.18 74.97 462.692 69.6533 466.301 64.3854C467.862 62.5318 469.667 62.5806 471.716 64.5317C475.813 69.507 479.813 73.8969 483.715 77.7015C487.617 81.4086 493.178 85.3595 500.397 89.5544C502.445 90.3348 503.323 91.2616 503.03 92.3347C502.835 93.4078 502.201 93.9931 501.128 94.0906C498.592 95.0662 496.348 96.7734 494.397 99.2122C492.446 101.554 491.47 105.504 491.47 111.065V172.963C491.47 182.914 493.324 189.011 497.031 191.255C501.323 193.791 504.835 192.718 507.567 188.035C508.542 186.182 509.713 185.792 511.079 186.865C512.542 187.84 512.542 189.499 511.079 191.84C508.152 196.425 505.421 201.059 502.884 205.741C500.348 210.327 497.763 214.912 495.129 219.497C493.275 222.228 490.983 222.813 488.251 221.253C479.471 217.058 472.837 211.936 468.35 205.888C463.96 199.839 461.765 192.23 461.765 183.06ZM482.983 9.36475C493.812 9.36475 498.738 14.5839 497.763 25.0222C497.177 30.2901 493.86 35.6068 487.812 40.9723C481.861 46.2403 477.13 48.8254 473.618 48.7279C470.106 48.7279 467.423 45.9476 465.57 40.387C463.716 34.8264 462.984 29.7048 463.375 25.0222C463.667 20.5347 465.814 16.8276 469.813 13.901C473.911 10.8768 478.3 9.36475 482.983 9.36475Z" fill="#DEFF9C"/>
<path d="M386.112 107.699L385.965 178.67C385.965 181.792 386.746 183.792 388.307 184.67L398.843 190.816C401.086 192.181 404.501 189.791 409.086 183.645C410.061 182.377 411.281 182.133 412.744 182.914C414.207 183.597 414.207 184.816 412.744 186.572C402.501 197.986 394.648 209.205 389.185 220.228C387.526 222.472 385.722 222.472 383.77 220.228C378.307 213.887 373.186 209.058 368.406 205.741C363.723 202.425 356.797 199.693 347.627 197.547C345.871 197.059 344.993 196.279 344.993 195.206C344.993 194.132 345.627 193.352 346.895 192.864C353.431 191.791 356.65 186.182 356.553 176.036V114.138C356.553 104.187 354.699 98.0903 350.992 95.8465C346.7 93.0174 343.188 94.0418 340.456 98.9195C339.383 100.968 338.164 101.456 336.798 100.383C335.432 99.3097 335.481 97.6025 336.944 95.2612C339.773 90.7737 342.456 86.1886 344.993 81.506C347.627 76.8234 350.309 72.1408 353.041 67.4582C354.699 64.5316 356.894 63.9951 359.626 65.8486C373.966 72.7749 382.551 81.5548 385.38 92.1882C385.673 93.1638 386.258 93.7979 387.136 94.0905C388.014 94.2857 388.795 93.9442 389.477 93.0662L412.012 67.1656C412.598 66.5802 413.281 66.3364 414.061 66.4339C414.841 66.4339 415.476 66.8241 415.963 67.6046L431.328 97.0172C431.718 97.8952 431.621 98.7244 431.035 99.5048L413.476 120.577C412.793 121.259 412.012 121.552 411.134 121.455C410.354 121.357 409.817 120.918 409.525 120.138L397.672 98.1878C397.282 97.6025 396.648 97.2611 395.77 97.1635C394.989 96.9684 394.258 97.2123 393.575 97.8952L386.697 106.236C386.307 106.626 386.112 107.114 386.112 107.699Z" fill="#DEFF9C"/>
<path d="M203.929 25.0227C202.661 23.1691 202.758 21.7546 204.222 20.7791C205.685 19.706 207.148 20.0474 208.612 21.8034C212.904 27.1689 216.367 32.9246 219.001 39.0705C219.294 40.046 219.977 40.5338 221.05 40.5338C221.928 40.7289 222.708 40.3387 223.391 39.3632C229.049 29.2175 237.927 21.4132 250.024 15.9501C262.218 10.3895 274.558 8.14578 287.045 9.21888C289.582 9.31643 290.85 10.3408 290.85 12.2918C290.85 14.2429 289.631 15.1209 287.192 14.9258C276.948 14.2429 268.022 16.5842 260.413 21.9497C252.804 27.3152 249.048 37.656 249.146 52.972L249.438 85.7502C249.438 86.7258 249.828 87.4574 250.609 87.9452C251.389 88.3354 252.17 88.2866 252.95 87.7989C258.316 84.8722 263.681 81.6529 269.047 78.141C274.51 74.629 279.534 70.6781 284.119 66.2881C287.728 62.6786 289.777 63.3127 290.265 68.1904C290.655 71.7999 292.167 75.0192 294.801 77.8483C297.435 80.6774 299.874 83.4577 302.117 86.1892C315.287 102.969 322.067 121.114 322.458 140.624C323.14 169.305 313.044 194.67 292.167 216.717C271.29 238.667 252.316 255.446 235.244 267.055C232.903 268.713 231.147 268.957 229.976 267.786C228.903 266.713 229.244 265.445 231 263.982C244.756 251.788 258.608 238.471 272.559 224.033C286.606 209.595 292.996 186.719 291.728 155.404C291.143 143.112 289.24 131.552 286.021 120.723C282.899 109.797 277.144 100.725 268.754 93.5058C264.462 89.8963 258.511 89.945 250.901 93.6521C250.024 93.9448 249.585 94.6764 249.585 95.8471L250.17 184.231C250.17 192.133 253.34 195.401 259.681 194.035C261.047 193.645 262.267 192.914 263.34 191.84C264.413 190.767 265.583 189.841 266.852 189.06C268.217 188.182 269.437 188.231 270.51 189.207C271.583 190.182 271.583 191.206 270.51 192.279C265.73 197.547 260.901 202.425 256.023 206.913C251.145 211.4 247.39 216.327 244.756 221.692C243.585 224.033 241.829 224.033 239.488 221.692C230.805 212.327 221.343 205.303 211.099 200.62C207.783 198.864 207.539 197.255 210.368 195.791C216.611 193.645 219.684 187.207 219.587 176.476L219.294 78.7263C219.196 65.5565 217.684 54.7767 214.758 46.3871C211.929 37.9974 208.319 30.8759 203.929 25.0227Z" fill="#DEFF9C"/>
<path d="M101.643 182.183C99.2043 183.256 97.4483 183.061 96.3752 181.597C95.3022 180.134 95.7411 178.622 97.6922 177.061C109.009 168.671 114.813 161.501 115.106 155.55C115.398 151.551 113.545 146.819 109.545 141.356C105.643 135.893 98.7166 128.625 88.766 119.553C68.5723 101.213 58.573 85.9941 58.7681 73.8974C58.7681 62.7762 67.1577 51.9964 83.9371 41.5581C84.5224 41.2655 86.9125 39.8997 91.1073 37.4608C95.3021 34.9244 98.3263 32.9733 100.18 31.6076C101.058 30.8272 101.399 29.9492 101.204 28.9736C98.18 15.6087 89.7903 8.92622 76.0352 8.92622C62.0849 8.92622 51.6466 17.6085 44.7203 34.9732C37.7939 52.2403 35.3551 71.1171 37.4037 91.6035C40.9156 127.308 52.427 154.136 71.9379 172.086C91.4488 189.938 113.74 198.864 138.811 198.864C152.664 198.864 167.2 195.157 182.418 187.743C184.662 186.67 186.32 186.963 187.393 188.621C188.466 190.182 187.979 191.84 185.93 193.596C162.615 212.034 135.982 221.253 106.033 221.253C76.084 221.253 51.354 209.498 31.8431 185.987C12.3322 162.379 1.84516 139.307 0.381847 116.772C-1.66679 84.1893 4.5279 56.5815 18.9659 33.9489C33.404 11.3163 51.6466 0 73.6939 0C82.6689 0 89.8391 2.29253 95.2046 6.87758C100.668 11.3651 104.423 16.7793 106.472 23.1204C107.155 25.0714 108.374 25.5104 110.13 24.4373C118.715 18.0963 126.666 11.1212 133.982 3.51195C137.202 1.0731 140.86 0.975543 144.957 3.21929C149.152 5.36548 153.006 7.31657 156.517 9.07255C159.737 10.9261 163.688 13.121 168.37 15.6575C173.053 18.1939 178.028 18.3402 183.296 16.0965C185.442 15.0234 187.052 15.0721 188.125 16.2428C189.296 17.3159 189.247 18.5841 187.979 20.0474C183.003 24.9251 178.37 29.3151 174.077 33.2172C169.785 37.0218 165.59 40.7777 161.493 44.4847C160.517 45.4603 159.883 45.9968 159.59 46.0944C159.2 46.2895 158.712 46.3871 158.127 46.3871C157.347 46.3871 156.42 46.0456 155.347 45.3627C154.371 44.6799 153.542 44.1433 152.859 43.7531C135.982 35.5585 124.325 31.4613 117.886 31.4613C113.203 31.6564 108.472 33.6562 103.692 37.4608C95.6924 43.7043 91.6439 49.8502 91.5463 55.8986C91.2536 63.5078 97.2532 72.6292 109.545 83.2626C135.104 105.407 148.567 123.065 149.933 136.235C150.908 148.721 134.812 164.038 101.643 182.183Z" fill="#DEFF9C"/>
</mask>
<g mask="url(#mask0_44_424)">
<rect y="-19" width="1252" height="934" fill="url(#paint0_linear_44_424)"/>
</g>
<defs>
<linearGradient id="paint0_linear_44_424" x1="8.01301e-07" y1="448.587" x2="1886" y2="451.246" gradientUnits="userSpaceOnUse">
<stop stop-color="#DEFF9C"/>
<stop offset="1" stop-color="#15121C" stop-opacity="0"/>
</linearGradient>
</defs>
</svg>
