<svg width="83" height="34" viewBox="0 0 83 34" fill="none" xmlns="http://www.w3.org/2000/svg">
<g clip-path="url(#clip0_261_165)">
<path d="M19.1844 26.2324C19.2409 26.2326 19.2974 26.2329 19.3556 26.2331C20.4464 26.2477 21.4687 26.6268 22.262 27.3918C22.705 27.8838 23.0554 28.5236 23.1781 29.1782C23.184 29.2096 23.1899 29.241 23.196 29.2733C23.3542 30.3664 23.1228 31.3881 22.491 32.293C22.362 32.455 22.225 32.6046 22.0787 32.7511C22.0473 32.783 22.0159 32.815 21.9835 32.8479C21.1282 33.6636 20.017 33.8885 18.8754 33.8631C17.9554 33.8287 17.1727 33.5446 16.4446 32.9801C16.4133 32.9566 16.3819 32.9331 16.3496 32.9089C15.6667 32.3656 15.24 31.4634 15.1277 30.6075C15.0387 29.4674 15.2964 28.4423 16.047 27.5489C16.8611 26.6188 17.9687 26.2265 19.1844 26.2324Z" fill="#DEFF9C"/>
<path d="M0.504473 26.1551C0.570015 26.1592 0.570015 26.1592 0.63688 26.1635C1.43174 26.2108 2.22788 26.2266 3.02379 26.2467C3.37957 26.9577 3.37957 26.9577 3.51011 27.2209C3.70815 27.6198 3.90995 28.0162 4.11845 28.4097C4.29789 28.7487 4.474 29.0894 4.64989 29.4302C4.86172 29.8406 5.07403 30.2508 5.29135 30.6583C5.47335 31.0014 5.64493 31.3499 5.81794 31.6976C6.24395 30.8289 6.66968 29.9605 7.07402 29.0814C7.2648 28.6672 7.46224 28.2564 7.66119 27.8461C7.85675 27.4415 8.04524 27.034 8.23018 26.6244C8.25944 26.5598 8.25944 26.5598 8.2893 26.494C8.30638 26.456 8.32345 26.4181 8.34105 26.379C8.38305 26.2925 8.38305 26.2925 8.42886 26.2467C8.53716 26.2399 8.6443 26.2359 8.75272 26.2338C8.78545 26.2329 8.81817 26.2321 8.85189 26.2312C8.95708 26.2285 9.06228 26.2261 9.16748 26.2238C9.2717 26.2214 9.37591 26.219 9.48012 26.2163C9.54502 26.2146 9.60992 26.2132 9.67483 26.2119C9.87341 26.2068 10.0649 26.1849 10.2611 26.1551C10.4446 26.1496 10.6271 26.153 10.8108 26.1551C10.8108 26.3365 10.8108 26.5178 10.8108 26.7047C10.7539 26.7186 10.697 26.7325 10.6384 26.7468C10.5632 26.7661 10.488 26.7855 10.4128 26.8049C10.3754 26.8139 10.338 26.8229 10.2995 26.8322C10.0617 26.8948 9.90679 26.956 9.75723 27.1628C9.67054 27.4405 9.65223 27.693 9.65303 27.9826C9.6528 28.0264 9.65257 28.0703 9.65232 28.1155C9.65169 28.2595 9.65173 28.4036 9.65184 28.5477C9.65166 28.6486 9.65146 28.7494 9.65124 28.8503C9.6509 29.0614 9.65091 29.2726 9.65116 29.4837C9.65142 29.7531 9.65065 30.0225 9.64958 30.292C9.6489 30.5002 9.64887 30.7085 9.64901 30.9168C9.64899 31.0161 9.64875 31.1153 9.64828 31.2146C9.62626 32.0899 9.62626 32.0899 9.94045 32.8885C10.1974 33.0624 10.5105 33.1126 10.8108 33.1633C10.8108 33.3598 10.8108 33.5564 10.8108 33.7588C10.7254 33.7522 10.64 33.7456 10.552 33.7388C9.37705 33.6515 8.22971 33.6511 7.05469 33.7588C7.05469 33.5472 7.05469 33.3356 7.05469 33.1175C7.19038 33.0862 7.32606 33.0549 7.46175 33.0236C7.69143 32.9536 7.8428 32.8641 7.9708 32.6595C8.08524 32.2049 8.07477 31.7297 8.07136 31.2642C8.07119 31.1942 8.07106 31.1243 8.07097 31.0544C8.07062 30.8726 8.06973 30.6908 8.06871 30.509C8.06776 30.3226 8.06735 30.1362 8.06689 29.9498C8.06591 29.5857 8.06436 29.2217 8.06242 28.8576C8.04094 28.9026 8.04094 28.9026 8.01902 28.9486C7.9533 29.0863 7.88753 29.2241 7.82176 29.3618C7.79924 29.409 7.77671 29.4563 7.75351 29.5049C7.63079 29.7618 7.5065 30.0177 7.37819 30.2719C7.14747 30.7296 6.92709 31.1924 6.70643 31.6551C6.65017 31.773 6.59365 31.8907 6.53705 32.0084C6.27074 32.5645 6.00066 33.1298 5.8412 33.7273C5.81794 33.8046 5.81794 33.8046 5.77213 33.8504C5.67962 33.8537 5.587 33.8543 5.49443 33.8533C5.44383 33.8529 5.39323 33.8525 5.34109 33.852C5.28237 33.8512 5.28237 33.8512 5.22246 33.8504C5.18913 33.7838 5.15581 33.7171 5.12248 33.6504C5.09093 33.5873 5.05935 33.5243 5.02774 33.4612C4.92405 33.2541 4.82097 33.0468 4.71842 32.8391C4.46024 32.3177 4.1965 31.8009 3.91512 31.2915C3.72431 30.9458 3.54111 30.5964 3.36088 30.245C3.23589 30.0028 3.10517 29.7648 2.96944 29.5286C2.95258 29.4992 2.93572 29.4697 2.91834 29.4394C2.87719 29.3676 2.83598 29.2958 2.79476 29.224C2.79156 29.6087 2.78912 29.9934 2.78764 30.3781C2.78693 30.5568 2.78596 30.7354 2.78439 30.9141C2.78288 31.087 2.78207 31.2598 2.78172 31.4327C2.78147 31.4982 2.78098 31.5637 2.78023 31.6292C2.77585 32.0286 2.78564 32.4195 2.93218 32.7969C3.12157 32.9846 3.33286 33.0196 3.58777 33.0574C3.93553 33.1132 3.93553 33.1132 3.98571 33.1633C3.9923 33.3618 3.98763 33.5603 3.98571 33.7588C3.93795 33.7556 3.89018 33.7523 3.84098 33.749C3.31955 33.7157 2.80002 33.7059 2.27761 33.707C2.14629 33.7073 2.01498 33.707 1.88365 33.7067C1.79884 33.7068 1.71403 33.7068 1.62922 33.7069C1.59061 33.7068 1.55201 33.7067 1.51223 33.7066C1.33353 33.7073 1.16099 33.7146 0.983845 33.7392C0.931464 33.7456 0.879082 33.7521 0.825113 33.7588C0.779307 33.713 0.779307 33.713 0.774834 33.5883C0.775366 33.5378 0.775897 33.4873 0.776445 33.4353C0.776858 33.3847 0.777271 33.3341 0.777697 33.282C0.778229 33.2428 0.77876 33.2037 0.779307 33.1633C1.01421 33.0629 1.25724 33.0032 1.50397 32.9388C1.68439 32.8765 1.74659 32.8262 1.83534 32.6613C1.8987 32.4576 1.89292 32.2614 1.89341 32.0492C1.89386 32.0017 1.89432 31.9541 1.89478 31.9051C1.89612 31.748 1.89675 31.5908 1.89725 31.4336C1.89778 31.3241 1.89831 31.2147 1.89884 31.1052C1.8998 30.8756 1.90033 30.646 1.90065 30.4163C1.90115 30.1228 1.90335 29.8293 1.90596 29.5358C1.90767 29.3096 1.90815 29.0834 1.90829 28.8571C1.90856 28.749 1.9093 28.6408 1.9105 28.5326C1.91207 28.3809 1.91189 28.2293 1.9113 28.0775C1.91214 28.0333 1.91299 27.989 1.91386 27.9434C1.90918 27.5592 1.75774 27.2885 1.50361 27.0053C1.21115 26.8429 0.878416 26.7933 0.550279 26.7505C0.504473 26.7047 0.504473 26.7047 0.5 26.58C0.500531 26.5295 0.501063 26.4791 0.50161 26.427C0.502024 26.3764 0.502437 26.3258 0.502863 26.2737C0.503394 26.2345 0.503926 26.1954 0.504473 26.1551Z" fill="#DEFF9C"/>
<path d="M27.7992 26.1538C27.8372 26.1558 27.8753 26.1579 27.9146 26.16C27.9582 26.1621 28.0019 26.1643 28.0469 26.1664C28.0953 26.169 28.1437 26.1715 28.1935 26.174C28.6614 26.1956 29.1288 26.2064 29.597 26.2105C29.6611 26.2112 29.7252 26.2118 29.7893 26.2125C30.051 26.2152 30.3127 26.2177 30.5744 26.2193C30.7376 26.2202 30.9008 26.2218 31.064 26.2239C31.1537 26.2248 31.2433 26.2251 31.333 26.2253C31.8733 26.2326 32.4273 26.2939 32.909 26.5559C32.9396 26.5719 32.9702 26.588 33.0017 26.6045C33.4562 26.8508 33.7823 27.1841 33.9826 27.6666C34.122 28.1463 34.0809 28.6599 33.8731 29.1088C33.5948 29.5805 33.167 29.7963 32.6599 29.9569C32.8243 30.3036 33.0136 30.6289 33.2182 30.9532C33.2486 31.0016 33.279 31.0499 33.3104 31.0997C34.0836 32.3926 34.0836 32.3926 35.3024 33.187C35.4594 33.2198 35.6162 33.2349 35.7762 33.2453C35.8663 33.2549 35.8663 33.2549 35.9121 33.3008C35.9155 33.3856 35.916 33.4706 35.915 33.5555C35.9146 33.6019 35.9142 33.6483 35.9138 33.696C35.913 33.7498 35.913 33.7498 35.9121 33.8046C35.2136 34.0142 34.1504 33.9322 33.4916 33.6019C33.2972 33.4798 33.135 33.3332 32.9806 33.1633C32.9511 33.133 32.9216 33.1026 32.8913 33.0714C32.5054 32.6632 32.2193 32.1976 31.9279 31.7205C31.9119 31.6942 31.8958 31.6679 31.8793 31.6408C31.7987 31.5089 31.7185 31.3767 31.6389 31.2441C31.3803 30.7675 31.3803 30.7675 30.9651 30.4608C30.8785 30.4506 30.7916 30.4422 30.7046 30.435C30.6363 30.4293 30.6363 30.4293 30.5667 30.4234C30.5319 30.4206 30.4971 30.4179 30.4613 30.415C30.4656 30.6185 30.4705 30.8221 30.4758 31.0256C30.4775 31.0945 30.4791 31.1634 30.4806 31.2324C30.4565 32.1196 30.4565 32.1196 30.779 32.8942C31.0819 33.0797 31.4404 33.1304 31.7896 33.1633C31.7896 33.3447 31.7896 33.5261 31.7896 33.713C31.7513 33.7129 31.713 33.7128 31.6735 33.7127C31.3084 33.7118 30.9433 33.7111 30.5782 33.7106C30.3906 33.7104 30.203 33.7101 30.0154 33.7095C29.8336 33.709 29.6518 33.7088 29.4701 33.7087C29.4014 33.7086 29.3328 33.7084 29.2642 33.7082C28.8468 33.7067 28.4326 33.7172 28.0161 33.7468C27.9304 33.7525 27.8446 33.7559 27.7587 33.7588C27.679 33.6791 27.7032 33.5722 27.7015 33.4639C27.7003 33.4186 27.6991 33.3734 27.6979 33.3267C27.7029 33.2879 27.7078 33.2491 27.7129 33.2091C27.8618 33.1099 27.9655 33.0872 28.1395 33.0517C28.4502 32.9922 28.4502 32.9922 28.7206 32.8427C28.7859 32.6936 28.8245 32.5435 28.8581 32.3846C28.866 32.3517 28.8739 32.3187 28.8821 32.2847C28.9092 32.1241 28.9106 31.9666 28.9105 31.8043C28.9107 31.7696 28.9108 31.7349 28.911 31.6992C28.9114 31.5846 28.9115 31.47 28.9116 31.3554C28.9117 31.2749 28.9119 31.1943 28.912 31.1138C28.9123 30.9445 28.9124 30.7752 28.9124 30.606C28.9124 30.4342 28.9127 30.2623 28.9133 30.0905C28.9248 28.9783 28.9248 28.9783 28.8661 27.8685C28.8629 27.833 28.8598 27.7974 28.8565 27.7608C28.8234 27.4679 28.7569 27.205 28.5528 26.9862C28.3751 26.8719 28.221 26.8248 28.0164 26.782C27.9827 26.7743 27.949 26.7666 27.9142 26.7587C27.832 26.74 27.7496 26.7223 27.6671 26.7047C27.6659 26.6217 27.665 26.5387 27.6643 26.4557C27.6637 26.4094 27.6632 26.3632 27.6626 26.3156C27.6689 26.1557 27.6689 26.1557 27.7992 26.1538Z" fill="#DEFF9C"/>
<path d="M73.0151 12.4134C73.3775 12.3998 73.7396 12.3889 74.1022 12.3825C74.2706 12.3794 74.4388 12.3752 74.6071 12.3684C75.7872 12.3221 75.7872 12.3221 76.0373 12.5363C76.1616 12.6792 76.2351 12.8373 76.3131 13.0088C76.3905 13.1132 76.3905 13.1132 76.472 13.1996C76.5066 13.2393 76.5066 13.2393 76.5418 13.2799C76.5646 13.3057 76.5874 13.3315 76.6108 13.3581C76.6358 13.3867 76.6607 13.4152 76.6865 13.4446C76.8771 13.662 77.0709 13.8764 77.2663 14.0896C77.3535 14.1854 77.4392 14.2822 77.5241 14.3801C77.6793 14.5587 77.8392 14.7329 77.9994 14.907C78.132 15.0512 78.2637 15.1961 78.3944 15.3421C78.5488 15.5139 78.7044 15.6847 78.861 15.8545C78.8838 15.8792 78.9066 15.9039 78.9301 15.9294C79.0608 16.0707 79.1924 16.2113 79.3248 16.351C79.3543 16.3822 79.3838 16.4134 79.4142 16.4456C79.4705 16.5051 79.5269 16.5644 79.5835 16.6237C79.7563 16.8064 79.9198 16.9956 80.0802 17.1892C80.1012 17.2146 80.1223 17.2399 80.144 17.266C80.1954 17.328 80.2468 17.39 80.2982 17.452C80.3014 16.9753 80.3038 16.4987 80.3053 16.0221C80.306 15.8007 80.307 15.5794 80.3086 15.358C80.3101 15.1442 80.3109 14.9303 80.3112 14.7165C80.3115 14.6351 80.312 14.5538 80.3127 14.4724C80.3268 13.8852 80.3268 13.8852 80.1608 13.3295C80.0601 13.2448 79.9626 13.1934 79.8401 13.1462C79.7967 13.1292 79.7532 13.1122 79.7085 13.0947C79.5527 13.0511 79.3965 13.0164 79.238 12.9843C79.1531 12.963 79.1531 12.963 79.1073 12.9172C79.1028 12.841 79.1013 12.7646 79.1015 12.6882C79.1014 12.6466 79.1013 12.6051 79.1012 12.5622C79.1073 12.4592 79.1073 12.4592 79.1531 12.4134C79.2554 12.4088 79.3579 12.4075 79.4603 12.4074C79.4924 12.4073 79.5245 12.4073 79.5576 12.4072C79.6642 12.407 79.7708 12.4071 79.8774 12.4073C79.9511 12.4072 80.0249 12.4072 80.0987 12.4071C80.2535 12.4071 80.4083 12.4072 80.5631 12.4074C80.7619 12.4076 80.9608 12.4075 81.1597 12.4072C81.312 12.4071 81.4644 12.4071 81.6168 12.4072C81.6902 12.4073 81.7635 12.4072 81.8368 12.4071C81.9392 12.407 82.0415 12.4072 82.1438 12.4074C82.2314 12.4075 82.2314 12.4075 82.3207 12.4075C82.4511 12.4134 82.4511 12.4134 82.4969 12.4592C82.5002 12.544 82.5007 12.629 82.4997 12.714C82.4993 12.7603 82.4989 12.8067 82.4985 12.8544C82.4977 12.9082 82.4977 12.9082 82.4969 12.963C82.4581 12.9713 82.4194 12.9797 82.3795 12.9883C81.7556 13.1022 81.7556 13.1022 81.3059 13.5127C81.2218 13.7863 81.1995 14.0371 81.1962 14.3222C81.1954 14.365 81.1946 14.4078 81.1937 14.4519C81.1911 14.5931 81.189 14.7342 81.1869 14.8754C81.1852 14.9751 81.1834 15.0748 81.1815 15.1745C81.1767 15.4375 81.1724 15.7005 81.1682 15.9635C81.164 16.2257 81.1594 16.4879 81.1548 16.75C81.1539 16.8011 81.1531 16.8522 81.1521 16.9048C81.1477 17.158 81.1431 17.4112 81.1381 17.6644C81.1362 17.7621 81.1343 17.8598 81.1323 17.9575C81.1314 18.0045 81.1305 18.0516 81.1295 18.1001C81.1247 18.3548 81.1218 18.6095 81.1214 18.8643C81.121 19.0034 81.1196 19.1424 81.1179 19.2814C81.1172 19.3727 81.1182 19.464 81.1192 19.5553C81.1135 19.9288 81.1135 19.9288 81.0093 20.0498C80.8939 20.1231 80.7898 20.1554 80.653 20.1517C80.56 20.1017 80.507 20.0512 80.4394 19.97C80.4152 19.9415 80.391 19.913 80.3661 19.8836C80.3283 19.8377 80.3283 19.8377 80.2896 19.7909C80.2364 19.7279 80.1831 19.6649 80.1298 19.602C80.1039 19.5711 80.0779 19.5402 80.0512 19.5084C79.9544 19.3944 79.8548 19.2833 79.7543 19.1726C79.6367 19.0428 79.52 18.9124 79.405 18.7803C79.2167 18.5643 79.0245 18.3518 78.8324 18.1391C78.7637 18.0627 78.695 17.9864 78.6263 17.91C78.5923 17.8723 78.5583 17.8345 78.5232 17.7955C78.4202 17.681 78.3171 17.5665 78.214 17.452C78.1799 17.4141 78.1458 17.3762 78.1106 17.3371C78.0431 17.262 77.9755 17.1869 77.9081 17.1117C77.6593 16.8346 77.4082 16.5596 77.1563 16.2854C77.0507 16.1705 76.9453 16.0554 76.8399 15.9404C76.7979 15.8946 76.7559 15.8488 76.7139 15.803C76.6299 15.7114 76.5459 15.6198 76.462 15.5281C76.4412 15.5054 76.4204 15.4827 76.3989 15.4594C76.3572 15.4138 76.3154 15.3683 76.2737 15.3227C76.165 15.204 76.0561 15.0855 75.9468 14.9672C75.9243 14.9427 75.9017 14.9183 75.8785 14.893C75.8159 14.8251 75.7533 14.7573 75.6906 14.6895C75.5882 14.5751 75.4924 14.4575 75.397 14.3372C75.3907 15.2891 75.3962 16.241 75.4091 17.1928C75.4106 17.3099 75.4118 17.4269 75.4128 17.544C75.4144 17.7106 75.4168 17.8771 75.4194 18.0437C75.4196 18.0935 75.4199 18.1432 75.4202 18.1945C75.4267 18.5269 75.4474 18.8609 75.6775 19.1182C76.0349 19.3202 76.4142 19.3665 76.817 19.4216C76.817 19.603 76.817 19.7844 76.817 19.9713C75.6379 19.9713 74.4589 19.9713 73.2441 19.9713C73.2441 19.4216 73.2441 19.4216 73.2899 19.3758C73.3719 19.3615 73.4538 19.3475 73.536 19.3346C74.0017 19.2634 74.0017 19.2634 74.3893 19.0094C74.5678 18.7379 74.5333 18.3735 74.5326 18.0608C74.5327 18.0174 74.5328 17.9739 74.5329 17.9291C74.5331 17.7861 74.5329 17.643 74.5328 17.4999C74.5328 17.3999 74.5328 17.2999 74.5329 17.1999C74.533 16.9905 74.5329 16.781 74.5327 16.5715C74.5324 16.3041 74.5325 16.0367 74.5328 15.7693C74.533 15.5628 74.5329 15.3562 74.5328 15.1497C74.5328 15.0511 74.5328 14.9526 74.5329 14.854C74.533 14.7157 74.5329 14.5774 74.5326 14.4391C74.5327 14.3991 74.5328 14.359 74.5329 14.3177C74.5617 13.8062 74.5617 13.8062 74.3875 13.3624C74.3484 13.344 74.3093 13.3255 74.269 13.3066C74.227 13.286 74.1851 13.2655 74.1418 13.2443C74.1025 13.2271 74.0633 13.2098 74.0228 13.1921C73.9746 13.1656 73.9265 13.1391 73.8768 13.1119C73.6042 13.0105 73.3028 12.9945 73.0151 12.963C73.0151 12.7816 73.0151 12.6002 73.0151 12.4134Z" fill="#DEFF9C"/>
<path d="M36.187 12.4132C36.5486 12.3987 36.91 12.3869 37.2718 12.38C37.4398 12.3767 37.6077 12.3722 37.7756 12.3649C38.9522 12.3149 38.9522 12.3149 39.2196 12.5465C39.355 12.7006 39.441 12.871 39.5309 13.0545C39.6116 13.162 39.6116 13.162 39.6942 13.2497C39.7171 13.2761 39.74 13.3024 39.7636 13.3296C39.786 13.355 39.8084 13.3805 39.8315 13.4066C39.8562 13.435 39.8809 13.4633 39.9064 13.4925C40.0963 13.7093 40.2894 13.9228 40.484 14.1352C40.5713 14.2311 40.657 14.3279 40.7418 14.4258C40.9378 14.6512 41.1407 14.8702 41.3429 15.0899C41.4491 15.2053 41.5549 15.3208 41.6608 15.4364C41.703 15.4824 41.7452 15.5284 41.7873 15.5744C41.8696 15.6641 41.9518 15.754 42.0339 15.8438C42.0742 15.8879 42.1145 15.9321 42.1561 15.9775C42.1765 15.9998 42.1968 16.0221 42.2178 16.045C42.3364 16.1745 42.4559 16.3029 42.5764 16.4305C42.6179 16.4746 42.6179 16.4746 42.6602 16.5195C42.7131 16.5756 42.7661 16.6316 42.8193 16.6874C43.0493 16.9315 43.2598 17.1907 43.4701 17.4519C43.515 15.9418 43.515 15.9418 43.5095 14.4315C43.5074 14.3396 43.5061 14.2477 43.5049 14.1557C43.495 13.8363 43.4712 13.5536 43.2869 13.2835C43.1135 13.1338 42.8964 13.0963 42.6771 13.0459C42.6262 13.0338 42.6262 13.0338 42.5743 13.0213C42.4913 13.0015 42.4082 12.9822 42.325 12.9629C42.325 12.7815 42.325 12.6001 42.325 12.4132C42.7542 12.4122 43.1834 12.4114 43.6126 12.4109C43.8119 12.4106 44.0112 12.4103 44.2105 12.4098C44.4027 12.4093 44.5948 12.409 44.787 12.4089C44.8604 12.4088 44.9339 12.4086 45.0074 12.4084C45.1099 12.4081 45.2125 12.408 45.3151 12.408C45.3736 12.4079 45.432 12.4078 45.4923 12.4077C45.623 12.4132 45.623 12.4132 45.6688 12.459C45.6721 12.5439 45.6727 12.6289 45.6717 12.7138C45.6713 12.7602 45.6709 12.8065 45.6704 12.8543C45.6696 12.9081 45.6696 12.9081 45.6688 12.9629C45.6158 12.974 45.5628 12.9851 45.5081 12.9965C45.4376 13.012 45.3671 13.0275 45.2966 13.0431C45.2618 13.0503 45.227 13.0575 45.1911 13.0649C44.8867 13.1331 44.6527 13.2431 44.4779 13.5126C44.3186 14.0097 44.3663 14.5899 44.3589 15.1061C44.3571 15.2083 44.3553 15.3104 44.3534 15.4125C44.3487 15.6809 44.3444 15.9493 44.3402 16.2176C44.3334 16.6447 44.326 17.0718 44.3185 17.4988C44.316 17.6459 44.3137 17.793 44.3115 17.9401C44.3086 18.1251 44.3048 18.3101 44.3004 18.4951C44.2956 18.6998 44.2944 18.9042 44.2944 19.109C44.2931 19.2176 44.2918 19.3262 44.2905 19.4348C44.291 19.4857 44.2916 19.5366 44.2922 19.5891C44.2855 19.9327 44.2855 19.9327 44.1784 20.0452C44.0615 20.115 43.9614 20.1555 43.8243 20.151C43.6796 20.0737 43.5863 19.9391 43.4845 19.8137C43.4355 19.7549 43.3864 19.6962 43.3374 19.6375C43.3133 19.6085 43.2892 19.5795 43.2644 19.5496C43.1705 19.4377 43.0731 19.3293 42.9749 19.2211C42.8563 19.0904 42.7386 18.9591 42.6227 18.826C42.4344 18.61 42.2422 18.3975 42.0502 18.1848C41.9814 18.1084 41.9127 18.0321 41.844 17.9557C41.81 17.9179 41.776 17.8801 41.741 17.8412C41.6379 17.7267 41.5349 17.6122 41.4318 17.4977C41.3977 17.4598 41.3635 17.4219 41.3284 17.3828C41.2608 17.3077 41.1933 17.2325 41.1258 17.1573C40.9175 16.9253 40.7076 16.6948 40.4966 16.4652C40.3656 16.3225 40.2356 16.179 40.1063 16.0348C39.9492 15.8598 39.7906 15.6864 39.6311 15.5137C39.6081 15.4889 39.5851 15.464 39.5614 15.4384C39.4406 15.3077 39.3196 15.1771 39.1984 15.0467C39.174 15.0204 39.1496 14.9941 39.1245 14.967C39.0782 14.9171 39.032 14.8673 38.9856 14.8175C38.9537 14.7832 38.9537 14.7832 38.9212 14.7481C38.9029 14.7284 38.8846 14.7086 38.8657 14.6883C38.764 14.5736 38.6668 14.4552 38.5689 14.3371C38.5656 14.9936 38.5658 15.6502 38.5689 16.3067C38.5692 16.3577 38.5694 16.4087 38.5696 16.4612C38.5713 16.7725 38.5742 17.0838 38.5785 17.3951C38.5797 17.4953 38.5807 17.5956 38.5813 17.6958C38.5823 17.8374 38.5844 17.979 38.5868 18.1205C38.5869 18.162 38.5869 18.2035 38.587 18.2462C38.5936 18.5367 38.6464 18.8031 38.798 19.0551C39.0954 19.2933 39.4743 19.3371 39.8402 19.395C39.9889 19.4215 39.9889 19.4215 40.0347 19.4673C40.0392 19.5436 40.0407 19.62 40.0404 19.6963C40.0406 19.7587 40.0406 19.7587 40.0408 19.8223C40.0347 19.9254 40.0347 19.9254 39.9889 19.9712C39.8774 19.9755 39.7672 19.9769 39.6557 19.9764C39.6034 19.9764 39.6034 19.9764 39.5501 19.9764C39.4344 19.9764 39.3186 19.976 39.2029 19.9757C39.1228 19.9756 39.0428 19.9755 38.9628 19.9755C38.7517 19.9753 38.5406 19.9748 38.3295 19.9743C38.1143 19.9739 37.8991 19.9736 37.6839 19.9734C37.2613 19.9729 36.8387 19.9721 36.4161 19.9712C36.4148 19.8805 36.4139 19.7899 36.4132 19.6992C36.4127 19.6487 36.4121 19.5982 36.4116 19.5462C36.4161 19.4215 36.4161 19.4215 36.4619 19.3757C36.5438 19.3614 36.6258 19.3473 36.708 19.3345C37.1787 19.2685 37.1787 19.2685 37.5612 19.0093C37.713 18.7291 37.7175 18.4876 37.7142 18.1729C37.7142 18.1219 37.7143 18.0709 37.7143 18.0184C37.7142 17.8506 37.7131 17.6828 37.712 17.515C37.7118 17.3984 37.7116 17.2818 37.7115 17.1652C37.711 16.89 37.7099 16.6149 37.7085 16.3398C37.707 16.0264 37.7062 15.713 37.7055 15.3996C37.7041 14.7554 37.7017 14.1111 37.6986 13.4668C37.5833 13.4073 37.4678 13.3482 37.3522 13.2893C37.3038 13.2642 37.3038 13.2642 37.2544 13.2386C36.9746 13.0968 36.7114 13.006 36.396 12.9801C36.3271 12.9744 36.2581 12.9687 36.187 12.9629C36.187 12.7815 36.187 12.6001 36.187 12.4132Z" fill="#DEFF9C"/>
<path d="M20.2925 27.1628C21.0235 27.7203 21.3244 28.525 21.5104 29.3963C21.6475 30.4783 21.4784 31.6141 20.8035 32.4949C20.4264 32.9437 19.969 33.2151 19.3792 33.2725C18.7557 33.2999 18.2879 33.1186 17.819 32.7053C17.0309 31.8973 16.7915 30.7857 16.7945 29.6916C16.8113 28.8303 17.0457 27.9819 17.6624 27.3514C18.425 26.6836 19.4515 26.5668 20.2925 27.1628Z" fill="#15121C"/>
<path d="M27.7589 11.8636C27.8433 11.867 27.8433 11.867 27.9421 11.9094C27.9904 12.0156 28.0247 12.1103 28.0566 12.2214C28.0762 12.2845 28.0957 12.3476 28.1153 12.4107C28.1295 12.458 28.1295 12.458 28.1439 12.5062C28.2361 12.8121 28.3377 13.1127 28.4631 13.4067C28.5514 13.6141 28.63 13.8235 28.7036 14.0365C28.8304 14.4026 28.9666 14.7651 29.1044 15.1272C29.1154 15.156 29.1263 15.1848 29.1376 15.2144C29.2123 15.4106 29.2872 15.6067 29.3621 15.8029C29.4112 15.9318 29.4603 16.0608 29.5093 16.1898C29.5534 16.3055 29.5976 16.4213 29.6417 16.537C29.7012 16.6931 29.7605 16.8492 29.8196 17.0054C29.9107 17.2461 30.0027 17.4865 30.095 17.7267C30.1106 17.7676 30.1262 17.8085 30.1422 17.8506C30.401 18.6615 30.401 18.6615 30.9653 19.2383C31.0607 19.2674 31.1572 19.2932 31.2544 19.3156C31.3404 19.3354 31.4264 19.3553 31.5149 19.3757C31.5149 19.5571 31.5149 19.7385 31.5149 19.9254C30.2452 19.9254 28.9755 19.9254 27.6673 19.9254C27.6673 19.4215 27.6673 19.4215 27.7131 19.3757C27.8629 19.3486 28.0128 19.3234 28.1635 19.301C28.3872 19.2632 28.5392 19.1993 28.7208 19.0551C28.8201 18.8564 28.7821 18.6195 28.7145 18.415C28.6914 18.3524 28.6677 18.2899 28.6435 18.2277C28.6183 18.1599 28.5932 18.092 28.5682 18.0241C28.5554 17.9901 28.5427 17.956 28.5296 17.921C28.4699 17.759 28.4147 17.5956 28.3601 17.4318C28.3413 17.3762 28.3225 17.3205 28.3032 17.2631C28.2627 17.1312 28.2627 17.1312 28.2627 17.0396C27.522 17.0396 26.7814 17.0396 26.0182 17.0396C25.9729 17.1757 25.9275 17.3117 25.8808 17.4519C25.846 17.5518 25.8109 17.6516 25.7756 17.7514C25.7381 17.8596 25.7007 17.9678 25.6633 18.076C25.6438 18.1304 25.6244 18.1849 25.6044 18.2409C25.4648 18.6215 25.4648 18.6215 25.5144 19.0093C25.6879 19.2421 25.9297 19.2747 26.2015 19.3299C26.3388 19.3489 26.4757 19.3624 26.6137 19.3757C26.6595 19.4215 26.6595 19.4215 26.6656 19.5346C26.6655 19.5804 26.6654 19.6262 26.6653 19.6735C26.6654 19.7422 26.6654 19.7422 26.6656 19.8123C26.6595 19.9254 26.6595 19.9254 26.6137 19.9712C26.5154 19.9755 26.4168 19.9766 26.3184 19.9764C26.2721 19.9764 26.2721 19.9764 26.225 19.9764C26.1226 19.9764 26.0202 19.976 25.9179 19.9757C25.8471 19.9756 25.7763 19.9755 25.7055 19.9755C25.5188 19.9753 25.3321 19.9748 25.1454 19.9743C24.9551 19.9739 24.7647 19.9737 24.5744 19.9734C24.2006 19.9729 23.8269 19.9721 23.4531 19.9712C23.4531 19.7747 23.4531 19.5782 23.4531 19.3757C23.5211 19.3644 23.5892 19.353 23.6593 19.3414C24.0101 19.269 24.2737 19.1644 24.4809 18.8615C24.7463 18.3903 24.9323 17.8793 25.1204 17.3738C25.2297 17.0799 25.3418 16.787 25.4538 16.4941C25.4915 16.3954 25.5292 16.2966 25.5668 16.1979C25.6865 15.8844 25.8079 15.5718 25.9336 15.2607C26.0475 14.9774 26.1519 14.692 26.2501 14.4029C26.4262 13.8863 26.4262 13.8863 26.5064 13.6835C26.629 13.3691 26.6883 13.1582 26.6137 12.8255C26.6403 12.821 26.6669 12.8165 26.6942 12.8119C27.0537 12.7431 27.2547 12.6266 27.4697 12.3245C27.5711 12.1737 27.6663 12.0199 27.7589 11.8636Z" fill="#DEFF9C"/>
<path d="M63.121 26.1552C63.2155 26.1595 63.3097 26.1667 63.4039 26.1748C63.952 26.2154 64.5015 26.2079 65.0507 26.2069C65.2059 26.2067 65.3611 26.2068 65.5163 26.2071C65.6671 26.2073 65.8179 26.2072 65.9687 26.207C66.0234 26.2071 66.0782 26.2072 66.1346 26.2073C66.4537 26.2065 66.7676 26.1911 67.0853 26.1605C67.141 26.1579 67.141 26.1579 67.1977 26.1552C67.2436 26.201 67.2436 26.201 67.248 26.3257C67.2475 26.3762 67.247 26.4266 67.2464 26.4787C67.246 26.5293 67.2456 26.5799 67.2452 26.632C67.2446 26.6712 67.2441 26.7103 67.2436 26.7506C67.1839 26.759 67.1243 26.7673 67.0628 26.7759C66.9837 26.7875 66.9047 26.7991 66.8256 26.8108C66.7864 26.8162 66.7472 26.8216 66.7068 26.8271C66.4167 26.8706 66.1843 26.9187 65.9925 27.1572C65.8683 27.3871 65.8635 27.5911 65.8627 27.8499C65.8626 27.8813 65.8624 27.9127 65.8623 27.9451C65.8618 28.0486 65.8617 28.1522 65.8617 28.2558C65.8615 28.3286 65.8614 28.4013 65.8612 28.4741C65.8609 28.6269 65.8609 28.7797 65.8609 28.9325C65.8609 29.126 65.8603 29.3196 65.8595 29.5131C65.859 29.6637 65.8589 29.8143 65.8589 29.9649C65.8588 30.0361 65.8587 30.1073 65.8583 30.1786C65.8368 31.3909 65.8368 31.3909 66.3732 32.4305C66.9266 32.9412 67.4635 33.0077 68.1863 32.9862C68.7026 32.958 69.1947 32.751 69.551 32.3733C70.0495 31.7604 70.0522 31.0689 70.0515 30.3118C70.0517 30.237 70.0519 30.1621 70.0521 30.0873C70.0524 29.9314 70.0524 29.7755 70.0522 29.6197C70.0519 29.4214 70.0527 29.2231 70.0537 29.0248C70.0544 28.8706 70.0544 28.7163 70.0543 28.5621C70.0543 28.489 70.0546 28.4159 70.055 28.3429C70.0574 27.9257 70.0554 27.5117 69.9003 27.1171C69.7022 26.919 69.4326 26.867 69.1674 26.7964C69.1044 26.7784 69.0414 26.7603 68.9784 26.742C68.935 26.7298 68.8915 26.7175 68.8468 26.7048C68.8468 26.5386 68.8468 26.3723 68.8468 26.201C68.9253 26.2012 69.0038 26.2014 69.0847 26.2017C69.3466 26.2024 69.6086 26.203 69.8706 26.2033C70.0292 26.2036 70.1877 26.2039 70.3463 26.2044C70.5293 26.205 70.7124 26.2052 70.8955 26.2054C70.9513 26.2057 71.0071 26.2059 71.0646 26.2062C71.4422 26.2062 71.8143 26.1868 72.1906 26.1552C72.1906 26.3366 72.1906 26.5179 72.1906 26.7048C72.1342 26.7192 72.0779 26.7336 72.0199 26.7485C71.9451 26.7683 71.8703 26.7881 71.7955 26.8079C71.7585 26.8173 71.7214 26.8267 71.6833 26.8363C71.4578 26.8969 71.2666 26.9559 71.0912 27.1171C70.9279 27.4743 70.931 27.8339 70.9265 28.2193C70.9252 28.3361 70.923 28.453 70.9206 28.5698C70.9157 28.8185 70.9118 29.0671 70.908 29.3158C70.9036 29.603 70.8988 29.8903 70.893 30.1776C70.8909 30.2913 70.8895 30.4049 70.8882 30.5186C70.8823 30.8749 70.8601 31.2209 70.7992 31.5724C70.7938 31.6038 70.7884 31.6352 70.7828 31.6676C70.6492 32.3687 70.1869 32.9032 69.6186 33.3068C69.0233 33.6974 68.3667 33.8226 67.6615 33.8162C67.6134 33.8159 67.5653 33.8157 67.5157 33.8154C67.1717 33.8112 66.8477 33.7844 66.5107 33.7131C66.4772 33.7086 66.4438 33.7041 66.4094 33.6995C65.8356 33.6099 65.2999 33.2534 64.9075 32.8428C64.8775 32.8137 64.8475 32.7846 64.8166 32.7546C64.4221 32.3475 64.3085 31.8386 64.304 31.2864C64.3037 31.2561 64.3034 31.2259 64.3031 31.1948C64.3025 31.1296 64.3019 31.0644 64.3015 30.9992C64.3007 30.895 64.2996 30.7909 64.2985 30.6867C64.2953 30.3905 64.2925 30.0944 64.2901 29.7983C64.286 28.7909 64.286 28.7909 64.2245 27.7859C64.221 27.7487 64.2175 27.7115 64.2139 27.6732C64.1872 27.4295 64.1605 27.2019 63.9913 27.0169C63.8024 26.9027 63.6082 26.8522 63.3959 26.7964C63.3328 26.7784 63.2699 26.7603 63.2069 26.742C63.1635 26.7298 63.12 26.7175 63.0752 26.7048C63.074 26.6218 63.0731 26.5388 63.0724 26.4558C63.0718 26.4095 63.0713 26.3633 63.0708 26.3157C63.0752 26.201 63.0752 26.201 63.121 26.1552Z" fill="#DEFF9C"/>
<path d="M40.2514 26.108C40.2859 26.1101 40.3204 26.1122 40.3559 26.1143C40.3951 26.1165 40.4343 26.1186 40.4747 26.1208C40.5178 26.1233 40.5609 26.1258 40.6054 26.1284C41.1905 26.1586 41.7749 26.1652 42.3607 26.1696C42.4702 26.1705 42.5797 26.1715 42.6892 26.1725C42.9736 26.175 43.2581 26.1772 43.5426 26.1795C43.8344 26.1818 44.1261 26.1843 44.4179 26.1868C44.9877 26.1917 45.5574 26.1964 46.1272 26.2009C46.1272 26.7904 46.1272 27.3799 46.1272 27.9873C45.976 27.9873 45.8249 27.9873 45.6691 27.9873C45.6475 27.9326 45.6475 27.9326 45.6255 27.8767C45.4252 27.3524 45.4252 27.3524 44.9999 27.0189C44.7035 26.9124 44.4299 26.8737 44.1175 26.869C44.068 26.8678 44.068 26.8678 44.0176 26.8666C43.8963 26.8637 43.775 26.8616 43.6537 26.8593C43.2456 26.8508 43.2456 26.8508 42.8292 26.8422C42.8292 27.7038 42.8292 28.5654 42.8292 29.4531C43.7203 29.4955 43.7203 29.4955 44.6557 29.2183C44.7753 29.0565 44.8289 28.9114 44.8904 28.7202C45.0718 28.7202 45.2532 28.7202 45.4401 28.7202C45.4396 28.7619 45.4391 28.8036 45.4387 28.8466C45.4202 29.9323 45.4202 29.9323 45.5317 31.0105C45.234 31.1479 45.234 31.1479 45.0279 31.1479C45.0129 31.1103 44.998 31.0728 44.9826 31.0341C44.9626 30.9847 44.9426 30.9354 44.9219 30.8845C44.9023 30.8356 44.8826 30.7867 44.8623 30.7364C44.8057 30.6132 44.7433 30.5216 44.6614 30.415C44.6614 30.3848 44.6614 30.3545 44.6614 30.3234C44.2826 30.1655 43.9168 30.1609 43.5134 30.1545C43.4469 30.153 43.3803 30.1514 43.3138 30.1497C43.1523 30.1459 42.9907 30.1428 42.8292 30.1402C42.8323 30.4409 42.8364 30.7416 42.8412 31.0424C42.8427 31.1446 42.844 31.2468 42.8451 31.3491C42.8466 31.4963 42.849 31.6435 42.8515 31.7908C42.8518 31.8362 42.8521 31.8817 42.8524 31.9285C42.8594 32.2584 42.9019 32.4862 43.1241 32.7425C43.5622 33.1165 44.3042 33.0067 44.8446 32.9801C45.1763 32.9385 45.5117 32.8482 45.7607 32.6137C45.8525 32.4828 45.9209 32.3453 45.9898 32.2014C46.0245 32.1391 46.0598 32.077 46.0957 32.0153C46.1212 31.9709 46.1467 31.9265 46.173 31.8808C46.3393 31.8808 46.5055 31.8808 46.6769 31.8808C46.6642 31.9501 46.6515 32.0194 46.6384 32.0909C46.6007 32.298 46.564 32.5054 46.5278 32.7128C46.518 32.7688 46.5082 32.8249 46.498 32.8826C46.4776 32.999 46.4573 33.1154 46.4372 33.2319C46.4274 33.2873 46.4176 33.3428 46.4076 33.3999C46.3988 33.4502 46.39 33.5005 46.381 33.5523C46.3562 33.6672 46.3562 33.6672 46.3104 33.713C46.2322 33.7174 46.1537 33.7186 46.0754 33.7185C46.0244 33.7186 45.9735 33.7187 45.921 33.7187C45.8646 33.7186 45.8083 33.7184 45.7502 33.7182C45.6912 33.7182 45.6322 33.7182 45.5715 33.7182C45.4092 33.7183 45.247 33.718 45.0848 33.7177C44.9155 33.7174 44.7462 33.7174 44.5768 33.7173C44.2559 33.7172 43.9351 33.7168 43.6142 33.7163C43.249 33.7158 42.8837 33.7156 42.5185 33.7153C41.767 33.7148 41.0155 33.714 40.2641 33.713C40.2641 33.5316 40.2641 33.3502 40.2641 33.1634C40.3148 33.1495 40.3656 33.1356 40.4179 33.1213C40.485 33.102 40.552 33.0826 40.6191 33.0632C40.6525 33.0541 40.6859 33.0451 40.7203 33.0359C40.9394 32.9711 41.0556 32.9075 41.1802 32.7053C41.224 32.5739 41.2319 32.4914 41.2324 32.355C41.2327 32.3112 41.2329 32.2675 41.2332 32.2224C41.2333 32.1745 41.2333 32.1266 41.2334 32.0773C41.2336 32.0268 41.2338 31.9763 41.2341 31.9242C41.2347 31.7568 41.235 31.5893 41.2353 31.4218C41.2355 31.3056 41.2358 31.1894 41.2361 31.0732C41.2365 30.8605 41.2368 30.6478 41.2369 30.4351C41.2371 30.1224 41.2379 29.8097 41.2393 29.4969C41.2404 29.2258 41.2407 28.9547 41.2408 28.6836C41.2409 28.5684 41.2413 28.4532 41.2419 28.338C41.2427 28.1768 41.2426 28.0156 41.2423 27.8544C41.2427 27.8068 41.2432 27.7591 41.2436 27.7101C41.2418 27.4055 41.2099 27.1944 40.9876 26.9687C40.8334 26.8715 40.6802 26.8279 40.5045 26.7878C40.1768 26.7091 40.1768 26.7091 40.1266 26.6589C40.1221 26.5751 40.1207 26.491 40.1209 26.407C40.1208 26.3612 40.1207 26.3154 40.1206 26.2682C40.1291 26.1099 40.1291 26.1099 40.2514 26.108Z" fill="#DEFF9C"/>
<path d="M0.687578 12.3676C0.781094 12.3664 0.874616 12.3655 0.968138 12.3648C1.02022 12.3642 1.0723 12.3637 1.12596 12.3632C1.28306 12.3676 1.28306 12.3676 1.40966 12.3904C1.57122 12.4155 1.72454 12.4198 1.88805 12.4207C1.93581 12.421 1.93581 12.421 1.98455 12.4214C2.0533 12.4219 2.12205 12.4223 2.19081 12.4226C2.30007 12.4231 2.40932 12.424 2.51858 12.425C2.82911 12.4278 3.13963 12.4303 3.45016 12.4318C3.64057 12.4328 3.83096 12.4344 4.02135 12.4364C4.09342 12.4371 4.1655 12.4375 4.23757 12.4376C4.64495 12.4386 5.01666 12.4607 5.40557 12.5967C5.48068 12.6217 5.48068 12.6217 5.5573 12.6473C6.15429 12.8877 6.62208 13.2383 6.88871 13.8381C7.08789 14.4086 7.06653 14.9743 6.82555 15.5282C6.51446 16.0964 6.01937 16.4795 5.40557 16.6734C4.92097 16.7915 4.39232 16.856 3.89398 16.8108C3.84817 16.765 3.84817 16.765 3.8437 16.6603C3.84423 16.6183 3.84476 16.5764 3.84531 16.5331C3.84573 16.491 3.84614 16.4489 3.84656 16.4055C3.8471 16.373 3.84763 16.3405 3.84817 16.3069C3.89789 16.2925 3.94761 16.2781 3.99883 16.2633C4.06504 16.2435 4.13125 16.2237 4.19744 16.2039C4.2301 16.1945 4.26275 16.1851 4.29639 16.1754C4.72743 16.0449 5.04537 15.7844 5.26815 15.3908C5.44991 14.9636 5.47677 14.5056 5.32541 14.0653C5.16615 13.6824 4.93811 13.3738 4.55244 13.2007C4.30658 13.1142 4.07007 13.0899 3.81096 13.0748C3.76335 13.0718 3.76335 13.0718 3.71478 13.0688C3.63711 13.064 3.55942 13.0593 3.48173 13.0547C3.48558 13.7321 3.48995 14.4094 3.4949 15.0867C3.49719 15.4012 3.49932 15.7158 3.50105 16.0303C3.50273 16.3342 3.50487 16.638 3.50729 16.9418C3.50814 17.0575 3.50883 17.1731 3.50937 17.2887C3.51014 17.4513 3.51148 17.6139 3.51293 17.7764C3.51303 17.8237 3.51313 17.871 3.51323 17.9197C3.51709 18.5422 3.51709 18.5422 3.75656 19.1011C3.95483 19.2266 4.15798 19.2734 4.38639 19.3129C4.70889 19.3711 4.70889 19.3711 4.81009 19.4217C4.81009 19.6031 4.81009 19.7845 4.81009 19.9714C4.75412 19.9681 4.69814 19.9648 4.64047 19.9614C3.99174 19.9271 3.34393 19.9205 2.69444 19.9199C2.65229 19.9197 2.61014 19.9196 2.56672 19.9195C2.05289 19.9184 1.54158 19.9281 1.02859 19.9594C0.93027 19.9651 0.831823 19.9685 0.733383 19.9714C0.687578 19.9256 0.687578 19.9256 0.683105 19.8109C0.683636 19.7647 0.684167 19.7184 0.684715 19.6708C0.685128 19.6244 0.685542 19.5781 0.685967 19.5303C0.686765 19.4766 0.686765 19.4766 0.687578 19.4217C0.838409 19.3566 0.974847 19.3167 1.13705 19.2929C1.37654 19.2454 1.56254 19.1799 1.74111 19.0095C1.96749 18.6075 1.89655 18.0598 1.89356 17.6158C1.89342 17.5244 1.89333 17.433 1.8933 17.3417C1.89309 17.1507 1.89243 16.9597 1.89141 16.7687C1.89012 16.5253 1.88962 16.282 1.88941 16.0387C1.88917 15.8048 1.88851 15.5709 1.88783 15.337C1.88775 15.2931 1.88766 15.2492 1.88757 15.204C1.93851 14.1676 1.93851 14.1676 1.61801 13.2179C1.33676 13.0279 1.01561 12.9765 0.687578 12.9173C0.687578 12.7359 0.687578 12.5545 0.687578 12.3676Z" fill="#DEFF9C"/>
<path d="M80.4011 26.3469C80.4392 26.3558 80.4772 26.3648 80.5165 26.3741C80.8111 26.4511 81.0224 26.5631 81.3057 26.7047C81.3208 27.2187 81.336 27.7326 81.3515 28.2621C81.1701 28.2621 80.9888 28.2621 80.8019 28.2621C80.7849 28.2054 80.7679 28.1487 80.7503 28.0903C80.5957 27.633 80.4237 27.2072 79.9779 26.9787C79.5995 26.8271 79.1266 26.8227 78.7465 26.9719C78.4632 27.1273 78.2093 27.357 78.0804 27.6573C77.9932 27.985 78.0268 28.2896 78.1909 28.5827C78.4422 28.9948 78.987 29.1615 79.4123 29.3383C81.1978 30.0834 81.1978 30.0834 81.5806 31.0104C81.7316 31.4523 81.6557 32.0159 81.4709 32.4306C81.0501 33.2158 80.4455 33.5601 79.6174 33.8139C78.5107 34.0947 77.3968 33.8039 76.4045 33.3007C76.3587 33.2549 76.3587 33.2549 76.3535 33.0899C76.3535 33.0165 76.3538 32.9431 76.3542 32.8697C76.3543 32.8311 76.3544 32.7926 76.3544 32.7528C76.3547 32.6291 76.3553 32.5054 76.3559 32.3818C76.3561 32.2981 76.3563 32.2145 76.3565 32.1308C76.357 31.9253 76.3578 31.7198 76.3587 31.5143C76.5855 31.5143 76.8122 31.5143 77.0458 31.5143C77.0609 31.5915 77.0609 31.5915 77.0762 31.6702C77.1891 32.2159 77.3396 32.6568 77.8245 32.9801C78.2559 33.2154 78.723 33.2841 79.2015 33.1576C79.6059 33.0209 79.8783 32.8134 80.069 32.4304C80.0888 32.3936 80.1087 32.3567 80.1291 32.3188C80.2169 31.9916 80.1616 31.7454 80.0174 31.4436C79.7673 31.1158 79.3833 30.9564 79.0183 30.7871C78.9679 30.7633 78.9175 30.7394 78.8655 30.7148C78.64 30.6083 78.4138 30.5034 78.1865 30.4008C77.5932 30.132 77.0097 29.7968 76.7509 29.1639C76.7254 29.0929 76.7014 29.0213 76.6794 28.9492C76.6706 28.9222 76.6619 28.8952 76.6529 28.8674C76.5389 28.269 76.6461 27.7706 76.9828 27.2716C77.7795 26.227 79.1931 26.0593 80.4011 26.3469Z" fill="#DEFF9C"/>
<path d="M51.4733 26.1506C51.549 26.1514 51.549 26.1514 51.6263 26.1522C51.7022 26.1528 51.7022 26.1528 51.7796 26.1535C51.8188 26.154 51.8579 26.1545 51.8983 26.1551C51.9115 26.1995 51.9247 26.2439 51.9383 26.2896C51.9735 26.4348 51.9735 26.4348 52.0815 26.4757C52.1523 26.48 52.2233 26.4815 52.2942 26.4815C52.3391 26.4817 52.3839 26.4818 52.4302 26.4819C52.4796 26.4818 52.529 26.4817 52.5799 26.4816C52.6318 26.4817 52.6838 26.4818 52.7373 26.4819C52.91 26.4821 53.0827 26.4819 53.2554 26.4818C53.3757 26.4818 53.4959 26.4819 53.6161 26.4819C53.8689 26.482 54.1217 26.4819 54.3745 26.4817C54.6649 26.4814 54.9552 26.4815 55.2456 26.4818C55.5262 26.482 55.8068 26.482 56.0874 26.4818C56.2061 26.4818 56.3247 26.4818 56.4434 26.482C57.2151 26.4833 57.2151 26.4833 57.9865 26.461C58.0447 26.4584 58.1029 26.4558 58.1628 26.4531C58.3222 26.4282 58.4119 26.3891 58.5401 26.2925C58.5703 26.2471 58.6006 26.2018 58.6317 26.1551C58.7709 26.1417 58.7709 26.1417 58.9352 26.1465C58.9896 26.1477 59.044 26.149 59.1001 26.1502C59.1421 26.1518 59.184 26.1534 59.2272 26.1551C59.1937 26.4284 59.1333 26.6918 59.0697 26.9595C58.9793 27.3474 58.9091 27.729 58.8607 28.1247C58.6642 28.1247 58.4677 28.1247 58.2653 28.1247C58.2635 28.0535 58.2635 28.0535 58.2617 27.9809C58.2591 27.9181 58.2565 27.8554 58.2538 27.7926C58.2532 27.7614 58.2525 27.7302 58.2518 27.698C58.2445 27.5458 58.2295 27.4516 58.14 27.3267C57.9168 27.1712 57.6365 27.1991 57.374 27.1941C57.3327 27.1932 57.2913 27.1922 57.2487 27.1912C57.1171 27.1882 56.9855 27.1855 56.8539 27.1828C56.7644 27.1809 56.675 27.1789 56.5856 27.1768C56.3668 27.1719 56.148 27.1673 55.9292 27.1628C55.933 27.7533 55.9374 28.3439 55.9423 28.9344C55.9446 29.2087 55.9467 29.483 55.9485 29.7573C55.9502 30.0225 55.9523 30.2877 55.9547 30.553C55.9556 30.6536 55.9563 30.7542 55.9568 30.8549C55.9129 31.88 55.9129 31.88 56.2264 32.8207C56.4042 32.9949 56.5942 33.051 56.8338 33.1004C57.116 33.1592 57.116 33.1592 57.1659 33.2092C57.1659 33.3754 57.1659 33.5417 57.1659 33.713C55.8811 33.713 54.5962 33.713 53.2724 33.713C53.2724 33.5316 53.2724 33.3502 53.2724 33.1633C53.326 33.1495 53.3795 33.1356 53.4347 33.1213C53.5056 33.102 53.5766 33.0826 53.6475 33.0631C53.6827 33.0541 53.7179 33.0451 53.7542 33.0359C53.9847 32.9716 54.1394 32.9096 54.2802 32.7053C54.3721 32.3689 54.3856 32.0283 54.3864 31.6817C54.3868 31.6325 54.3873 31.5833 54.3878 31.5325C54.3892 31.3717 54.39 31.2109 54.3907 31.05C54.3916 30.9378 54.3925 30.8255 54.3934 30.7133C54.3958 30.4192 54.3976 30.1252 54.3993 29.8311C54.4011 29.5305 54.4035 29.2299 54.4058 28.9293C54.4102 28.3404 54.4141 27.7516 54.4176 27.1628C54.2214 27.1683 54.0252 27.174 53.8291 27.1799C53.7627 27.1818 53.6963 27.1837 53.6299 27.1856C53.4359 27.191 53.242 27.1974 53.0482 27.205C52.9838 27.2074 52.9194 27.2095 52.8551 27.2113C52.7623 27.2139 52.6696 27.2178 52.5769 27.2217C52.5234 27.2236 52.4698 27.2255 52.4146 27.2274C52.2002 27.266 52.0468 27.3599 51.9178 27.536C51.9009 27.5697 51.8841 27.6034 51.8668 27.638C51.8393 27.6916 51.8393 27.6916 51.8113 27.7463C51.7863 27.7976 51.7863 27.7976 51.7608 27.8499C51.7334 27.9037 51.7061 27.9576 51.6778 28.0131C51.6599 28.0499 51.6419 28.0868 51.6234 28.1247C51.442 28.1247 51.2606 28.1247 51.0738 28.1247C51.0609 27.8304 51.1106 27.5549 51.1625 27.2659C51.2203 26.9425 51.2688 26.6237 51.2916 26.2958C51.3087 26.1506 51.3244 26.1559 51.4733 26.1506Z" fill="#DEFF9C"/>
<path d="M50.4785 12.4134C50.675 12.4134 50.8716 12.4134 51.074 12.4134C51.0939 12.4578 51.1137 12.5022 51.1341 12.5479C51.1978 12.7009 51.1978 12.7009 51.3488 12.734C51.414 12.7382 51.4793 12.74 51.5446 12.7401C51.5845 12.7403 51.6245 12.7405 51.6656 12.7407C51.7094 12.7407 51.7531 12.7407 51.7982 12.7406C51.8675 12.7409 51.8675 12.7409 51.9383 12.7411C52.0919 12.7416 52.2456 12.7416 52.3993 12.7417C52.507 12.7418 52.6146 12.742 52.7223 12.7422C52.949 12.7424 53.1757 12.7425 53.4024 12.7425C53.6326 12.7425 53.8628 12.7428 54.0931 12.7434C55.5881 12.7537 55.5881 12.7537 57.0819 12.702C57.1562 12.6984 57.1562 12.6984 57.2319 12.6947C57.4476 12.6782 57.5465 12.6698 57.7144 12.5255C57.7451 12.4885 57.7758 12.4515 57.8075 12.4134C57.9601 12.391 57.9601 12.391 58.1195 12.399C58.1727 12.4011 58.2259 12.4032 58.2807 12.4053C58.3412 12.4093 58.3412 12.4093 58.4029 12.4134C58.3609 12.6306 58.3173 12.8472 58.2677 13.0629C58.1792 13.4484 58.1027 13.8284 58.0546 14.2214C58.0365 14.3372 58.0365 14.3372 57.9907 14.383C57.9068 14.3875 57.8227 14.3889 57.7387 14.3887C57.6929 14.3888 57.6471 14.389 57.5999 14.3891C57.4868 14.383 57.4868 14.383 57.441 14.3372C57.4313 14.2333 57.4241 14.1293 57.4181 14.0251C57.4078 13.8477 57.3957 13.6841 57.3494 13.5127C56.8733 13.4112 56.4024 13.4014 55.918 13.3925C55.8388 13.3907 55.7597 13.3889 55.6805 13.3871C55.4887 13.3827 55.2968 13.3789 55.1049 13.3753C55.1137 14.0295 55.1232 14.6837 55.1336 15.338C55.1384 15.6418 55.143 15.9456 55.147 16.2494C55.1509 16.5428 55.1554 16.8363 55.1604 17.1297C55.1622 17.2414 55.1637 17.3531 55.165 17.4648C55.1669 17.6218 55.1696 17.7788 55.1725 17.9358C55.1731 18.0044 55.1731 18.0044 55.1736 18.0744C55.1815 18.4332 55.2166 18.8071 55.437 19.101C55.677 19.2756 55.9256 19.3465 56.2125 19.4019C56.2959 19.4216 56.2959 19.4216 56.3417 19.4674C56.3462 19.5437 56.3476 19.6201 56.3474 19.6965C56.3475 19.738 56.3476 19.7796 56.3478 19.8224C56.3417 19.9255 56.3417 19.9255 56.2959 19.9713C56.1524 19.9668 56.0097 19.9597 55.8664 19.9513C55.3939 19.9274 54.9223 19.9197 54.4493 19.9198C54.4153 19.9198 54.3812 19.9198 54.3462 19.9198C53.8282 19.9203 53.3116 19.9326 52.7942 19.959C52.7488 19.9612 52.7035 19.9635 52.6568 19.9658C52.6174 19.9679 52.5779 19.9701 52.5373 19.9723C52.4482 19.9713 52.4482 19.9713 52.4024 19.9255C52.3991 19.8406 52.3985 19.7556 52.3995 19.6707C52.3999 19.6243 52.4003 19.578 52.4008 19.5302C52.4013 19.4944 52.4018 19.4586 52.4024 19.4216C52.5434 19.3733 52.6839 19.3282 52.8279 19.289C52.8783 19.2752 52.9287 19.2613 52.9807 19.247C53.0567 19.2267 53.0567 19.2267 53.1342 19.206C53.3073 19.132 53.3628 19.0823 53.4559 18.9178C53.5428 18.5805 53.5614 18.245 53.5621 17.8984C53.5626 17.8496 53.563 17.8008 53.5635 17.7506C53.5649 17.5912 53.5657 17.4319 53.5665 17.2725C53.5673 17.1613 53.5682 17.0501 53.5692 16.9389C53.5715 16.6475 53.5733 16.3562 53.575 16.0648C53.5769 15.767 53.5792 15.4691 53.5815 15.1713C53.5859 14.5879 53.5898 14.0045 53.5933 13.4211C53.3065 13.423 53.0196 13.4263 52.7328 13.4306C52.6353 13.4319 52.5379 13.4328 52.4404 13.4335C52.2998 13.4345 52.1593 13.4366 52.0188 13.439C51.9756 13.439 51.9324 13.4391 51.8879 13.4391C51.61 13.4452 51.3984 13.4933 51.1656 13.6501C51.0839 13.7332 51.0839 13.7332 51.0397 13.8283C51.0222 13.8608 51.0048 13.8933 50.9869 13.9267C50.9703 13.9602 50.9537 13.9936 50.9366 14.028C50.9096 14.0792 50.9096 14.0792 50.882 14.1314C50.8382 14.2148 50.7957 14.2988 50.7534 14.383C50.5871 14.383 50.4208 14.383 50.2495 14.383C50.2724 13.994 50.3192 13.6179 50.3827 13.2339C50.4273 12.9608 50.4585 12.6895 50.4785 12.4134Z" fill="#DEFF9C"/>
<path d="M11.9561 12.3676C12.0865 12.372 12.216 12.3792 12.3462 12.3876C12.7781 12.4118 13.2091 12.4174 13.6416 12.4162C13.6888 12.4161 13.6888 12.4161 13.737 12.416C13.964 12.4155 14.1911 12.4144 14.4182 12.4134C14.6485 12.4123 14.8788 12.4113 15.1092 12.4108C15.2005 12.4105 15.2919 12.4099 15.3833 12.4093C15.4653 12.4091 15.4653 12.4091 15.549 12.4089C15.6214 12.4085 15.6214 12.4085 15.6952 12.4082C15.8038 12.4134 15.8038 12.4134 15.8496 12.4592C15.8529 12.5364 15.8534 12.6138 15.8525 12.6911C15.8521 12.7332 15.8516 12.7753 15.8512 12.8186C15.8507 12.8512 15.8502 12.8837 15.8496 12.9172C15.7066 12.9818 15.5706 13.0199 15.4173 13.0489C15.1813 13.0992 15.0139 13.195 14.8505 13.3753C14.7603 13.5272 14.7445 13.6702 14.7441 13.8447C14.7439 13.8832 14.7438 13.9217 14.7436 13.9614C14.7436 14.0033 14.7436 14.0452 14.7436 14.0883C14.7435 14.1327 14.7433 14.1772 14.7431 14.2229C14.7427 14.3699 14.7426 14.5169 14.7426 14.6639C14.7424 14.7663 14.7423 14.8687 14.7421 14.971C14.7418 15.1858 14.7418 15.4006 14.7418 15.6154C14.7418 15.8898 14.7412 16.1643 14.7404 16.4387C14.7399 16.6503 14.7398 16.8619 14.7398 17.0735C14.7397 17.1746 14.7395 17.2757 14.7392 17.3769C14.7387 17.5188 14.7389 17.6608 14.7391 17.8027C14.7389 17.844 14.7386 17.8854 14.7384 17.9279C14.7401 18.2737 14.7507 18.686 14.9793 18.9636C15.3087 19.2381 15.7087 19.2555 16.1216 19.2527C16.1619 19.2525 16.2022 19.2523 16.2437 19.252C16.5286 19.2469 16.7791 19.2217 17.0406 19.101C17.0744 19.0865 17.1082 19.0719 17.1431 19.057C17.6624 18.8041 17.9782 18.3383 18.2773 17.8642C18.3231 17.8184 18.3231 17.8184 18.4478 17.814C18.5236 17.8148 18.5236 17.8148 18.6008 17.8156C18.6514 17.816 18.702 17.8164 18.7542 17.8168C18.7933 17.8174 18.8324 17.8179 18.8728 17.8184C18.8728 17.9961 18.859 18.0523 18.7839 18.2042C18.7648 18.2433 18.7458 18.2824 18.7261 18.3226C18.7056 18.3641 18.685 18.4056 18.6638 18.4483C18.6217 18.5349 18.5796 18.6215 18.5376 18.7082C18.5168 18.7513 18.4959 18.7943 18.4745 18.8386C18.39 19.0153 18.3098 19.1936 18.2315 19.373C18.2188 19.4019 18.206 19.4307 18.1929 19.4605C18.1201 19.6283 18.0594 19.7975 18.0025 19.9713C17.6727 19.9725 17.3429 19.9733 17.0131 19.9738C16.9013 19.974 16.7895 19.9744 16.6777 19.9748C15.6148 19.9785 15.6148 19.9785 15.1439 19.9484C14.5525 19.9108 13.9599 19.9206 13.3675 19.9226C13.2479 19.9229 13.1283 19.9231 13.0087 19.9233C12.7189 19.9238 12.4291 19.9245 12.1393 19.9255C12.1393 19.7592 12.1393 19.5929 12.1393 19.4216C12.183 19.4105 12.2266 19.3994 12.2716 19.388C12.329 19.3726 12.3865 19.3573 12.4457 19.3415C12.5025 19.3266 12.5594 19.3117 12.618 19.2964C12.8115 19.2274 12.9518 19.1419 13.0669 18.9693C13.1501 18.7335 13.1537 18.4924 13.153 18.245C13.1531 18.2107 13.1532 18.1765 13.1532 18.1412C13.1534 18.0282 13.1533 17.9152 13.1532 17.8022C13.1532 17.7223 13.1532 17.6425 13.1533 17.5627C13.1534 17.3948 13.1533 17.227 13.153 17.0591C13.1528 16.8895 13.1528 16.7199 13.153 16.5503C13.1537 15.9958 13.1524 15.4413 13.1471 14.8869C13.1468 14.8535 13.1465 14.8201 13.1462 14.7857C13.1442 14.581 13.1403 14.3764 13.1353 14.1717C13.1346 14.1231 13.134 14.0746 13.1334 14.0246C13.123 13.7065 13.0669 13.4487 12.8492 13.2073C12.7621 13.1298 12.6896 13.1107 12.5768 13.0827C12.5186 13.0679 12.5186 13.0679 12.4592 13.0528C12.4188 13.043 12.3785 13.0332 12.3369 13.0231C12.296 13.0128 12.2551 13.0025 12.213 12.9919C12.1122 12.9666 12.0113 12.9417 11.9103 12.9172C11.9091 12.8342 11.9082 12.7512 11.9075 12.6682C11.9069 12.6219 11.9064 12.5757 11.9058 12.5281C11.9103 12.4134 11.9103 12.4134 11.9561 12.3676Z" fill="#DEFF9C"/>
<path d="M63.6249 12.3675C63.823 12.3644 64.0083 12.3636 64.205 12.3904C64.5325 12.4274 64.862 12.419 65.191 12.4178C65.2623 12.4177 65.3336 12.4177 65.4049 12.4176C65.5913 12.4175 65.7777 12.417 65.964 12.4165C66.1547 12.416 66.3454 12.4158 66.5361 12.4156C66.9093 12.4151 67.2825 12.4143 67.6558 12.4134C67.6558 12.5796 67.6558 12.7459 67.6558 12.9172C67.4803 12.9874 67.3365 13.0308 67.1548 13.0689C66.9072 13.1311 66.7642 13.1749 66.6022 13.3753C66.5097 13.6732 66.4971 13.9784 66.498 14.288C66.4978 14.3308 66.4976 14.3737 66.4973 14.4179C66.4967 14.5583 66.4967 14.6987 66.4968 14.8391C66.4967 14.9376 66.4965 15.0362 66.4962 15.1348C66.4959 15.3409 66.4959 15.547 66.4962 15.7531C66.4964 16.0158 66.4957 16.2785 66.4946 16.5413C66.4939 16.7447 66.4939 16.9481 66.494 17.1516C66.494 17.2484 66.4938 17.3452 66.4933 17.442C66.4597 18.2985 66.4597 18.2985 66.7454 19.0838C66.9166 19.2253 67.0762 19.2767 67.2893 19.33C67.3428 19.3441 67.3428 19.3441 67.3974 19.3585C67.4833 19.3805 67.5695 19.4012 67.6558 19.4216C67.6558 19.603 67.6558 19.7844 67.6558 19.9713C67.6169 19.9699 67.5781 19.9685 67.5381 19.9671C66.3931 19.927 65.2474 19.8902 64.1027 19.959C64.0046 19.9647 63.9063 19.9682 63.8081 19.9713C63.7623 19.9255 63.7623 19.9255 63.7578 19.8108C63.7583 19.7646 63.7589 19.7183 63.7594 19.6707C63.7598 19.6243 63.7602 19.578 63.7607 19.5302C63.7612 19.4944 63.7617 19.4586 63.7623 19.4216C63.826 19.4032 63.826 19.4032 63.8911 19.3844C63.92 19.3759 63.949 19.3674 63.9788 19.3586C64.0553 19.3376 64.1325 19.3188 64.21 19.3014C64.4807 19.2399 64.4807 19.2399 64.7042 19.0838C64.926 18.6787 64.9144 18.2592 64.9135 17.8057C64.9136 17.7566 64.9136 17.7075 64.9137 17.6569C64.9138 17.4979 64.9135 17.339 64.9131 17.18C64.9131 17.1259 64.913 17.0717 64.913 17.016C64.9122 16.3442 64.9077 15.6728 64.8874 15.0014C64.8856 14.9416 64.8838 14.8818 64.8819 14.8201C64.8928 14.0192 64.8928 14.0192 64.6326 13.2837C64.4349 13.122 64.2477 13.0625 63.9999 13.0231C63.6751 12.9674 63.6751 12.9674 63.6249 12.9172C63.6215 12.8247 63.621 12.7321 63.622 12.6395C63.6224 12.5889 63.6228 12.5383 63.6233 12.4862C63.6238 12.447 63.6243 12.4079 63.6249 12.3675Z" fill="#DEFF9C"/>
<path d="M55.5171 0C56.152 0.0226738 56.152 0.0226738 56.7996 0.0458057C56.9791 0.401626 57.1583 0.757561 57.3372 1.1137C57.4202 1.27906 57.5033 1.44437 57.5867 1.60956C57.6671 1.76893 57.7473 1.92843 57.8273 2.08803C57.8579 2.14895 57.8885 2.20982 57.9193 2.27064C57.9624 2.35572 58.0051 2.44096 58.0477 2.52626C58.0721 2.57478 58.0965 2.6233 58.1217 2.67329C58.1738 2.79415 58.1738 2.79415 58.1738 2.93157C58.2041 2.93157 58.2343 2.93157 58.2654 2.93157C58.2704 2.8993 58.2754 2.86704 58.2806 2.83379C58.3148 2.68744 58.3686 2.56945 58.4351 2.43468C58.4608 2.382 58.4866 2.32931 58.5131 2.27503C58.5269 2.24718 58.5406 2.21933 58.5548 2.19064C58.6278 2.04299 58.6999 1.89493 58.772 1.74688C58.7868 1.7164 58.8017 1.68591 58.817 1.65451C59.0054 1.26717 59.1851 0.875819 59.3647 0.484348C59.3882 0.433395 59.4116 0.382442 59.4358 0.329944C59.4564 0.284907 59.4771 0.239869 59.4983 0.193466C59.548 0.0916114 59.548 0.0916114 59.5938 0.0458057C59.6821 0.0417985 59.7704 0.0409057 59.8588 0.0413325C59.9124 0.0414801 59.966 0.0416277 60.0212 0.0417798C60.0776 0.0421636 60.134 0.0425474 60.1921 0.0429429C60.277 0.0432528 60.277 0.0432528 60.3636 0.0435691C60.504 0.0441111 60.6444 0.0448662 60.7847 0.0458057C60.7847 0.166733 60.7847 0.28766 60.7847 0.412251C60.7527 0.417802 60.7207 0.423352 60.6878 0.429071C60.6461 0.436747 60.6044 0.444423 60.5614 0.452331C60.4993 0.463491 60.4993 0.463491 60.4358 0.474876C60.3191 0.496096 60.3191 0.496096 60.2351 0.595474C60.22 0.720512 60.22 0.720512 60.221 0.868598C60.2203 0.925922 60.2196 0.983247 60.2188 1.04231C60.2185 1.10516 60.2183 1.168 60.2181 1.23085C60.2177 1.29509 60.2173 1.35933 60.2168 1.42357C60.2161 1.5583 60.2157 1.69303 60.2156 1.82777C60.2153 2.00051 60.2136 2.1732 60.2115 2.34593C60.2102 2.47863 60.2098 2.61132 60.2098 2.74403C60.2096 2.80771 60.209 2.8714 60.2081 2.93507C60.2068 3.0241 60.2072 3.11315 60.2076 3.20218C60.2074 3.25287 60.2072 3.30355 60.2069 3.35577C60.2231 3.48977 60.2231 3.48977 60.3404 3.56398C60.4856 3.62815 60.6311 3.67109 60.7847 3.71026C60.7847 3.84631 60.7847 3.98235 60.7847 4.12251C60.7281 4.11507 60.6715 4.10763 60.6132 4.09997C60.3486 4.07067 60.0859 4.06999 59.82 4.07098C59.7725 4.07081 59.725 4.07063 59.676 4.07045C59.4152 4.07078 59.1646 4.0835 58.9067 4.12251C58.9067 3.98647 58.9067 3.85043 58.9067 3.71026C58.9354 3.70194 58.9641 3.69361 58.9937 3.68503C59.0311 3.67352 59.0685 3.66201 59.1071 3.65014C59.1443 3.63898 59.1815 3.62782 59.2198 3.61633C59.3342 3.5768 59.3342 3.5768 59.4106 3.43543C59.4238 3.34579 59.4238 3.34579 59.421 3.24743C59.421 3.20984 59.421 3.17225 59.421 3.13352C59.4205 3.09315 59.42 3.05278 59.4195 3.01119C59.4194 2.9697 59.4193 2.92821 59.4191 2.88546C59.4186 2.75291 59.4175 2.62037 59.4163 2.48782C59.4158 2.39797 59.4154 2.30812 59.415 2.21827C59.414 1.99797 59.4125 1.77768 59.4106 1.55739C59.1111 2.19622 58.8138 2.8358 58.5288 3.48123C58.5075 3.52926 58.4862 3.5773 58.4643 3.62678C58.4349 3.69361 58.4349 3.69361 58.405 3.76179C58.3879 3.80065 58.3708 3.8395 58.3532 3.87953C58.3151 3.97544 58.2875 4.06765 58.2654 4.16832C58.1596 4.16832 58.0538 4.16832 57.9448 4.16832C57.5478 3.37435 57.1508 2.58039 56.7538 1.78642C56.7527 2.00403 56.7519 2.22163 56.7513 2.43923C56.7511 2.5132 56.7508 2.58718 56.7504 2.66115C56.7498 2.76769 56.7496 2.87423 56.7494 2.98077C56.7491 3.01365 56.7489 3.04654 56.7487 3.08042C56.7486 3.25051 56.7589 3.40748 56.7996 3.57285C56.8355 3.57893 56.8713 3.58501 56.9083 3.59128C56.9546 3.59936 57.001 3.60745 57.0487 3.61579C57.1181 3.62775 57.1181 3.62775 57.1888 3.63994C57.3035 3.66446 57.3035 3.66446 57.3493 3.71026C57.3526 3.77985 57.3532 3.84959 57.3522 3.91925C57.3518 3.9571 57.3514 3.99495 57.3509 4.03394C57.3504 4.06317 57.3499 4.0924 57.3493 4.12251C57.322 4.11921 57.2946 4.1159 57.2665 4.11249C56.733 4.05543 56.1861 4.04519 55.6545 4.12251C55.6545 3.97136 55.6545 3.8202 55.6545 3.66446C55.7708 3.64806 55.8871 3.63165 56.0034 3.61525C56.1213 3.58336 56.1213 3.58336 56.1644 3.4718C56.2065 3.33624 56.2164 3.22769 56.2175 3.08598C56.2181 3.03538 56.2187 2.98478 56.2193 2.93265C56.2194 2.87844 56.2195 2.82423 56.2196 2.76838C56.2199 2.71231 56.2202 2.65625 56.2205 2.59848C56.221 2.48005 56.2212 2.36161 56.2212 2.24318C56.2214 2.06192 56.223 1.88071 56.2248 1.69946C56.225 1.58435 56.2252 1.46924 56.2253 1.35413C56.2259 1.29992 56.2266 1.24571 56.2273 1.18986C56.2282 0.897457 56.2282 0.897457 56.1193 0.632121C56.0031 0.534732 55.9016 0.490043 55.7576 0.443743C55.7125 0.428804 55.6673 0.413865 55.6209 0.398474C55.5866 0.387905 55.5524 0.377335 55.5171 0.366446C55.5171 0.245519 55.5171 0.124592 55.5171 0Z" fill="#DEFF9C"/>
<path d="M22.1704 0C22.8053 0.0226738 22.8053 0.0226738 23.453 0.0458057C23.6325 0.401626 23.8117 0.757561 23.9905 1.1137C24.0735 1.27906 24.1567 1.44437 24.2401 1.60956C24.3205 1.76893 24.4006 1.92843 24.4806 2.08803C24.5112 2.14895 24.5419 2.20982 24.5727 2.27064C24.6157 2.35572 24.6584 2.44096 24.701 2.52626C24.7254 2.57478 24.7498 2.6233 24.775 2.67329C24.8272 2.79415 24.8272 2.79415 24.8272 2.93157C24.8574 2.93157 24.8876 2.93157 24.9188 2.93157C24.9238 2.8993 24.9288 2.86704 24.9339 2.83379C24.9681 2.68744 25.0219 2.56945 25.0884 2.43468C25.1142 2.382 25.1399 2.32931 25.1665 2.27503C25.1802 2.24718 25.194 2.21933 25.2082 2.19064C25.2811 2.04299 25.3532 1.89493 25.4253 1.74688C25.4402 1.7164 25.4551 1.68591 25.4704 1.65451C25.6588 1.26717 25.8385 0.875819 26.0181 0.484348C26.0415 0.433395 26.065 0.382442 26.0891 0.329944C26.1098 0.284907 26.1304 0.239869 26.1516 0.193466C26.2013 0.0916114 26.2013 0.0916114 26.2471 0.0458057C26.3354 0.0417985 26.4238 0.0409057 26.5121 0.0413325C26.5657 0.0414801 26.6193 0.0416277 26.6745 0.0417798C26.7309 0.0421636 26.7873 0.0425474 26.8455 0.0429429C26.9304 0.0432528 26.9304 0.0432528 27.017 0.0435691C27.1574 0.0441111 27.2977 0.0448662 27.4381 0.0458057C27.4381 0.166733 27.4381 0.28766 27.4381 0.412251C27.4022 0.42164 27.3664 0.431028 27.3295 0.440701C27.26 0.459212 27.26 0.459212 27.189 0.478097C27.1428 0.49032 27.0966 0.502542 27.0489 0.515135C26.938 0.538665 26.938 0.538665 26.8884 0.595474C26.8829 0.684661 26.8806 0.774047 26.8796 0.863397C26.8785 0.94939 26.8785 0.94939 26.8774 1.03712C26.8768 1.1002 26.8763 1.16329 26.8759 1.22638C26.8755 1.27381 26.8755 1.27381 26.8752 1.32221C26.8739 1.48957 26.873 1.65694 26.8724 1.82431C26.8716 1.99741 26.8696 2.17047 26.8672 2.34355C26.8657 2.47645 26.8652 2.60934 26.8649 2.74224C26.8646 2.80606 26.8639 2.86987 26.8628 2.93367C26.8614 3.02292 26.8615 3.1122 26.8617 3.20146C26.8613 3.25228 26.861 3.3031 26.8606 3.35546C26.8764 3.48975 26.8764 3.48975 26.9937 3.56403C27.1389 3.62813 27.2844 3.67109 27.4381 3.71026C27.4381 3.84631 27.4381 3.98235 27.4381 4.12251C27.3815 4.11507 27.3248 4.10763 27.2665 4.09997C27.0019 4.07067 26.7392 4.06999 26.4733 4.07098C26.4258 4.07081 26.3783 4.07063 26.3294 4.07045C26.0686 4.07078 25.818 4.0835 25.5601 4.12251C25.5601 3.98647 25.5601 3.85043 25.5601 3.71026C25.5888 3.70247 25.6174 3.69467 25.647 3.68664C25.7032 3.66999 25.7032 3.66999 25.7605 3.65301C25.7977 3.64238 25.8349 3.63175 25.8732 3.6208C25.9974 3.56072 26.0133 3.51577 26.0639 3.38962C26.077 3.29729 26.077 3.29729 26.0743 3.20063C26.0743 3.16396 26.0743 3.12729 26.0743 3.08951C26.0738 3.05038 26.0734 3.01125 26.0729 2.97093C26.0727 2.93052 26.0726 2.89011 26.0725 2.84848C26.072 2.71966 26.0708 2.59087 26.0696 2.46206C26.0692 2.37462 26.0688 2.28718 26.0684 2.19975C26.0674 1.98562 26.0658 1.77151 26.0639 1.55739C26.0517 1.58432 26.0395 1.61125 26.027 1.639C25.6203 2.53633 25.6203 2.53633 25.437 2.92584C25.3244 3.1661 25.2148 3.40742 25.1077 3.65014C25.0872 3.69632 25.0872 3.69632 25.0663 3.74343C25.0051 3.88325 24.9484 4.01817 24.9188 4.16832C24.813 4.16832 24.7072 4.16832 24.5981 4.16832C24.2012 3.37435 23.8042 2.58039 23.4072 1.78642C23.4061 2.00403 23.4052 2.22163 23.4047 2.43923C23.4044 2.5132 23.4041 2.58718 23.4037 2.66115C23.4032 2.76769 23.4029 2.87423 23.4027 2.98077C23.4025 3.01365 23.4022 3.04654 23.402 3.08042C23.402 3.25051 23.4123 3.40748 23.453 3.57285C23.4888 3.57893 23.5247 3.58501 23.5616 3.59128C23.608 3.59936 23.6543 3.60745 23.7021 3.61579C23.7714 3.62775 23.7714 3.62775 23.8422 3.63994C23.9569 3.66446 23.9569 3.66446 24.0027 3.71026C24.0059 3.77985 24.0065 3.84959 24.0055 3.91925C24.0051 3.9571 24.0047 3.99495 24.0043 4.03394C24.0037 4.06317 24.0032 4.0924 24.0027 4.12251C23.9753 4.11921 23.948 4.1159 23.9198 4.11249C23.3864 4.05543 22.8395 4.04519 22.3078 4.12251C22.3078 3.97136 22.3078 3.8202 22.3078 3.66446C22.4242 3.64806 22.5405 3.63165 22.6568 3.61525C22.7746 3.58336 22.7746 3.58336 22.8177 3.4718C22.8599 3.33624 22.8697 3.22769 22.8708 3.08598C22.8714 3.03538 22.872 2.98478 22.8726 2.93265C22.8727 2.87844 22.8728 2.82423 22.8729 2.76838C22.8732 2.71231 22.8735 2.65625 22.8738 2.59848C22.8743 2.48005 22.8745 2.36161 22.8745 2.24318C22.8747 2.06192 22.8764 1.88071 22.8781 1.69946C22.8784 1.58435 22.8785 1.46924 22.8786 1.35413C22.8793 1.29992 22.8799 1.24571 22.8806 1.18986C22.8815 0.897457 22.8815 0.897457 22.7726 0.632121C22.6565 0.534732 22.555 0.490043 22.4109 0.443743C22.3658 0.428804 22.3207 0.413865 22.2742 0.398474C22.24 0.387905 22.2057 0.377335 22.1704 0.366446C22.1704 0.245519 22.1704 0.124592 22.1704 0Z" fill="#DEFF9C"/>
<path d="M48.5088 0.0457764C49.189 0.0457764 49.8692 0.0457764 50.5701 0.0457764C50.5701 0.166703 50.5701 0.28763 50.5701 0.412222C50.5281 0.420547 50.4862 0.428873 50.443 0.437451C50.3614 0.454722 50.3614 0.454722 50.2781 0.472342C50.2239 0.483501 50.1696 0.494661 50.1138 0.506159C49.9618 0.537621 49.9618 0.537621 49.883 0.687056C49.8695 0.827653 49.8695 0.827653 49.8724 0.988551C49.8724 1.01835 49.8725 1.04816 49.8725 1.07886C49.8726 1.1422 49.873 1.20554 49.8736 1.26888C49.8744 1.36347 49.8745 1.45803 49.8745 1.55262C49.847 2.48009 49.847 2.48009 50.2208 3.29512C50.4532 3.47768 50.7366 3.53011 51.0281 3.52701C51.2848 3.49077 51.506 3.44345 51.7152 3.28653C51.9851 2.91538 52.043 2.6235 52.0435 2.17252C52.0437 2.13047 52.0439 2.08842 52.044 2.04509C52.0442 1.95647 52.0443 1.86784 52.0443 1.77921C52.0444 1.64341 52.0453 1.50762 52.0461 1.37182C52.0463 1.28563 52.0464 1.19945 52.0464 1.11326C52.0469 1.05228 52.0469 1.05228 52.0474 0.99007C52.0472 0.933419 52.0472 0.933419 52.047 0.875624C52.047 0.842443 52.0471 0.809264 52.0472 0.775077C52.0405 0.672063 52.0405 0.672062 51.9442 0.549639C51.8456 0.514905 51.8456 0.514905 51.7353 0.498107C51.5357 0.461703 51.5357 0.461703 51.4862 0.412222C51.4862 0.291295 51.4862 0.170367 51.4862 0.0457764C52.0304 0.0457764 52.5745 0.0457764 53.1352 0.0457764C53.1352 0.181819 53.1352 0.317862 53.1352 0.458027C52.9786 0.484867 52.9786 0.484867 52.8221 0.511706C52.7172 0.5404 52.7172 0.540401 52.6717 0.63192C52.6298 0.736706 52.6198 0.807951 52.6196 0.920088C52.6193 0.956521 52.619 0.992954 52.6187 1.03049C52.6187 1.08918 52.6187 1.08918 52.6188 1.14905C52.6179 1.23321 52.6169 1.31736 52.6159 1.40152C52.6149 1.53316 52.6142 1.66479 52.6139 1.79644C52.6093 3.11241 52.6093 3.11241 52.2053 3.58767C51.7713 4.01571 51.3307 4.13467 50.7313 4.13378C50.2313 4.12597 49.857 3.97209 49.482 3.63884C49.138 3.27933 49.0769 2.81302 49.0764 2.33553C49.0756 2.2854 49.0749 2.23528 49.0741 2.18364C49.0719 2.02546 49.0709 1.86729 49.0699 1.7091C49.0686 1.60105 49.0673 1.49301 49.0658 1.38497C49.0624 1.1218 49.0601 0.858631 49.0585 0.595445C48.875 0.514843 48.7077 0.44235 48.5088 0.412222C48.5088 0.291295 48.5088 0.170367 48.5088 0.0457764Z" fill="#DEFF9C"/>
<path d="M29.7285 0C30.4238 0 31.1192 0 31.8356 0C31.8356 0.136043 31.8356 0.272086 31.8356 0.412251C31.7937 0.421108 31.7517 0.429965 31.7085 0.439091C31.6269 0.456982 31.6269 0.456982 31.5436 0.475234C31.4894 0.486925 31.4352 0.498617 31.3793 0.510662C31.2363 0.538457 31.2363 0.538457 31.1485 0.64128C31.1339 0.730805 31.1339 0.730805 31.1352 0.834355C31.1346 0.874286 31.134 0.914216 31.1334 0.955356C31.1333 0.998678 31.1332 1.042 31.1331 1.08663C31.1328 1.13128 31.1325 1.17592 31.1322 1.22192C31.1317 1.31668 31.1315 1.41145 31.1315 1.50621C31.1313 1.65019 31.1297 1.7941 31.1279 1.93806C31.1276 2.03024 31.1275 2.12242 31.1274 2.2146C31.1267 2.25727 31.1261 2.29994 31.1254 2.34391C31.1278 2.69699 31.2152 2.9699 31.4376 3.24648C31.7215 3.4709 32.045 3.55334 32.4019 3.51559C32.6816 3.46293 32.8754 3.35456 33.0809 3.15487C33.352 2.72486 33.3199 2.24534 33.3142 1.7553C33.3128 1.62816 33.3124 1.50105 33.3121 1.3739C33.3117 1.29294 33.3112 1.21197 33.3107 1.13101C33.3105 1.09308 33.3103 1.05514 33.3101 1.01606C33.3082 0.864695 33.3037 0.740032 33.2556 0.595474C33.1386 0.53824 33.1386 0.53824 33.0008 0.495274C32.9544 0.479509 32.9081 0.463744 32.8603 0.4475C32.8245 0.435868 32.7886 0.424236 32.7517 0.412251C32.7517 0.291324 32.7517 0.170397 32.7517 0.0458057C33.2959 0.0306898 33.84 0.0155739 34.4007 0C34.4007 0.151159 34.4007 0.302318 34.4007 0.458057C34.2978 0.469986 34.1949 0.481914 34.092 0.493843C33.9526 0.568969 33.93 0.665088 33.8792 0.809861C33.8318 0.98854 33.8317 1.1627 33.8324 1.34662C33.8317 1.40674 33.8317 1.40674 33.8309 1.46807C33.8294 1.59519 33.8286 1.72228 33.8281 1.84941C33.8229 3.15675 33.8229 3.15675 33.393 3.66446C32.9817 4.06184 32.4624 4.13755 31.9105 4.13236C31.4936 4.10772 31.0497 3.97794 30.7477 3.67591C30.4332 3.28588 30.3429 2.88212 30.3483 2.39066C30.348 2.3408 30.3477 2.29094 30.3473 2.23957C30.3463 2.08183 30.3465 1.92413 30.3469 1.76638C30.3474 1.55743 30.3468 1.34854 30.3455 1.1396C30.346 1.09165 30.3465 1.04369 30.347 0.99429C30.3467 0.949926 30.3464 0.905561 30.3461 0.859852C30.3462 0.820853 30.3464 0.781853 30.3465 0.741671C30.3322 0.633805 30.3322 0.633805 30.2378 0.561002C30.1317 0.498545 30.0437 0.472511 29.9232 0.449469C29.8589 0.437187 29.7947 0.424905 29.7285 0.412251C29.7285 0.276208 29.7285 0.140165 29.7285 0Z" fill="#DEFF9C"/>
<path d="M42.646 0C44.1424 0.0226738 44.1424 0.0226738 45.6691 0.0458057C45.6691 0.408587 45.6691 0.771368 45.6691 1.14514C45.5482 1.14514 45.4273 1.14514 45.3027 1.14514C45.2916 1.11367 45.2805 1.0822 45.269 1.04977C45.2537 1.0085 45.2383 0.967227 45.2225 0.924703C45.2076 0.883784 45.1928 0.842865 45.1774 0.800705C45.1111 0.670654 45.0596 0.625784 44.9362 0.549669C44.8261 0.526876 44.8261 0.526876 44.7079 0.526229C44.6693 0.524712 44.6307 0.523195 44.591 0.521633C44.5424 0.520492 44.4938 0.519352 44.4438 0.518177C44.2889 0.513453 44.134 0.50873 43.9743 0.503863C43.9743 0.911992 43.9743 1.32012 43.9743 1.74062C44.1529 1.7307 44.1529 1.7307 44.335 1.72058C44.3725 1.7186 44.4099 1.71663 44.4485 1.71459C44.6296 1.70691 44.6296 1.70691 44.7988 1.64901C44.8471 1.54321 44.8931 1.43633 44.9362 1.32837C45.0572 1.32837 45.1781 1.32837 45.3027 1.32837C45.3038 1.35559 45.305 1.38281 45.3062 1.41085C45.3115 1.53605 45.3171 1.66124 45.3227 1.78642C45.3245 1.82923 45.3263 1.87204 45.3282 1.91615C45.3395 2.16532 45.3596 2.4097 45.3943 2.65673C45.1955 2.75063 45.1955 2.75063 45.0708 2.74119C44.982 2.70254 44.982 2.70254 44.9341 2.60788C44.9235 2.57015 44.9128 2.53242 44.9019 2.49355C44.8908 2.4557 44.8797 2.41785 44.8682 2.37886C44.8605 2.34963 44.8527 2.3204 44.8446 2.29029C44.7792 2.28612 44.7792 2.28612 44.7124 2.28188C44.6549 2.27804 44.5975 2.2742 44.5383 2.27025C44.4814 2.26653 44.4246 2.26281 44.366 2.25897C44.2314 2.24698 44.1062 2.22647 43.9743 2.19867C43.9807 2.38668 43.9875 2.57467 43.9944 2.76266C43.9962 2.81612 43.998 2.86959 43.9998 2.92468C44.0017 2.9759 44.0037 3.02712 44.0056 3.0799C44.0073 3.12715 44.009 3.17441 44.0107 3.2231C44.0156 3.34874 44.0156 3.34874 44.0659 3.48123C44.2449 3.60056 44.3968 3.5863 44.6041 3.5843C44.6402 3.58465 44.6762 3.58501 44.7133 3.58537C44.9378 3.58463 45.1396 3.572 45.3485 3.48123C45.4258 3.36368 45.4258 3.36368 45.4601 3.22358C45.4743 3.17764 45.4884 3.1317 45.5029 3.08437C45.5124 3.04906 45.5219 3.01375 45.5317 2.97737C45.6678 2.97737 45.8038 2.97737 45.944 2.97737C45.9217 3.3603 45.8484 3.69667 45.7607 4.07671C44.748 4.07671 43.7352 4.07671 42.6918 4.07671C42.6918 3.95578 42.6918 3.83485 42.6918 3.71026C42.7409 3.69704 42.79 3.68381 42.8406 3.67018C42.9721 3.63074 43.076 3.59005 43.1956 3.52704C43.1967 3.15913 43.1975 2.79122 43.198 2.42331C43.1982 2.25248 43.1986 2.08164 43.1991 1.91081C43.1996 1.74598 43.1998 1.58114 43.2 1.41631C43.2001 1.35339 43.2002 1.29048 43.2005 1.22756C43.2008 1.1395 43.2008 1.05144 43.2008 0.963385C43.2009 0.913239 43.201 0.863092 43.2011 0.811426C43.2011 0.682647 43.2011 0.682647 43.1498 0.549669C42.9962 0.443347 42.8281 0.433265 42.646 0.412251C42.646 0.276208 42.646 0.140165 42.646 0Z" fill="#DEFF9C"/>
<path d="M30.4614 26.7963C31.114 26.7963 31.5883 26.8122 32.0646 27.2544C32.09 27.2779 32.1154 27.3014 32.1416 27.3256C32.4164 27.6114 32.5312 27.9676 32.5427 28.3595C32.5331 28.607 32.4887 28.816 32.3853 29.0408C32.3635 29.0889 32.3635 29.0889 32.3412 29.138C32.1602 29.4777 31.8409 29.6389 31.4892 29.768C31.2401 29.8195 31.2401 29.8195 30.4614 29.8195C30.4614 28.8219 30.4614 27.8242 30.4614 26.7963Z" fill="#15121C"/>
<path d="M38.6321 0.0744864C38.6688 0.0739549 38.7054 0.0734235 38.7431 0.072876C39.0436 0.074335 39.3077 0.140315 39.5769 0.274887C39.6365 0.55815 39.6273 0.857172 39.6227 1.1452C39.5018 1.1452 39.3808 1.1452 39.2563 1.1452C39.2495 1.1181 39.2428 1.09099 39.2359 1.06307C39.1591 0.792536 39.0917 0.64614 38.844 0.503915C38.6232 0.459605 38.4735 0.481883 38.2743 0.586938C38.1509 0.692314 38.0738 0.766088 38.0499 0.930123C38.049 0.988402 38.049 0.988402 38.0481 1.04786C38.0462 1.10579 38.0462 1.10579 38.0442 1.16488C38.073 1.3257 38.1337 1.39642 38.2485 1.51164C38.3807 1.58942 38.3807 1.58942 38.5291 1.64906C38.5817 1.67215 38.6343 1.69524 38.6885 1.71902C38.7398 1.74128 38.7911 1.76354 38.844 1.78648C39.2595 1.9775 39.5678 2.15216 39.7637 2.58343C39.8857 2.92787 39.7984 3.21074 39.6503 3.53604C39.4696 3.85236 39.1982 4.02836 38.8551 4.13814C38.3193 4.24723 37.7944 4.18224 37.2866 3.98515C37.2413 3.95492 37.1959 3.92469 37.1492 3.89354C37.1336 3.79905 37.1336 3.79905 37.1358 3.6842C37.1362 3.64316 37.1367 3.60212 37.1371 3.55984C37.1383 3.51691 37.1394 3.47399 37.1406 3.42976C37.1412 3.38648 37.1418 3.3432 37.1425 3.2986C37.1441 3.19153 37.1466 3.08448 37.1492 2.97743C37.2852 2.97743 37.4213 2.97743 37.5614 2.97743C37.5704 3.01114 37.5794 3.04486 37.5886 3.0796C37.6854 3.3975 37.6854 3.3975 37.9136 3.6273C38.1813 3.76415 38.4166 3.74183 38.698 3.65879C38.8724 3.55621 38.9409 3.48097 39.0272 3.29807C39.0595 3.09001 39.0478 2.88416 38.9356 2.70259C38.8602 2.66976 38.7836 2.63985 38.7066 2.61098C37.5773 2.12238 37.5773 2.12238 37.3324 1.60326C37.2485 1.3354 37.2396 1.0327 37.3525 0.773024C37.6351 0.278934 38.0853 0.066624 38.6321 0.0744864Z" fill="#DEFF9C"/>
<path d="M27.0718 14.1541C27.102 14.1541 27.1322 14.1541 27.1634 14.1541C27.2596 14.4099 27.3558 14.6658 27.4519 14.9218C27.4846 15.0088 27.5173 15.0958 27.55 15.1827C27.5971 15.308 27.6442 15.4333 27.6912 15.5587C27.7058 15.5973 27.7203 15.636 27.7353 15.6758C27.7491 15.7125 27.7628 15.7491 27.777 15.7869C27.789 15.8188 27.801 15.8508 27.8134 15.8837C27.8586 16.0087 27.9 16.135 27.9421 16.2611C27.413 16.2611 26.884 16.2611 26.3389 16.2611C26.5187 15.5416 26.8123 14.8473 27.0718 14.1541Z" fill="#15121C"/>
</g>
<defs>
<clipPath id="clip0_261_165">
<rect width="83" height="34" fill="white"/>
</clipPath>
</defs>
</svg>
