<svg width="1237" height="428" viewBox="0 0 1237 428" fill="none" xmlns="http://www.w3.org/2000/svg">
<mask id="mask0_261_164" style="mask-type:alpha" maskUnits="userSpaceOnUse" x="0" y="0" width="1237" height="428">
<path d="M1196.93 17.0607C1205.01 14.9245 1212.43 15.4152 1219.18 18.5329C1223.75 20.7268 1227.3 23.7579 1229.84 27.6261C1232.38 31.4943 1233.39 35.8244 1232.87 40.6164C1232.35 45.4084 1230.76 48.9591 1228.1 51.2685C1225.51 53.5779 1223.37 55.3677 1221.7 56.6378C1220.02 57.908 1218.43 59.2359 1216.93 60.6215C1213.99 63.3928 1213.76 65.8754 1216.24 68.0693C1224.03 74.8243 1228.51 80.5112 1229.66 85.1299C1230.88 89.7487 1230.07 93.819 1227.24 97.3408C1223.31 102.191 1219.13 106.809 1214.68 111.197C1210.29 115.527 1205.93 119.915 1201.6 124.361C1199.47 126.439 1198.17 126.324 1197.71 124.014C1196.96 120.839 1193.55 118.068 1187.49 115.7C1181.48 113.276 1175.13 110.966 1168.44 108.772C1167.22 108.31 1167.14 107.444 1168.18 106.174C1169.73 104.558 1171.35 102.941 1173.03 101.325C1174.7 99.708 1176.37 98.1203 1178.05 96.5614C1180.65 94.1366 1181.51 92.0004 1180.65 90.1529C1179.84 88.2476 1178.31 86.1114 1176.06 83.7443C1170.4 77.8554 1167.66 72.3417 1167.83 67.2033C1168.06 62.0649 1169.94 57.5327 1173.46 53.6068C1176.75 49.9695 1180.44 46.6497 1184.54 43.6475C1188.7 40.5876 1192.63 37.1812 1196.32 33.4285C1196.78 33.0243 1197.39 33.1687 1198.14 33.8615C1205.88 40.7319 1212.31 44.196 1217.45 44.2537C1222.65 44.3115 1226.03 42.7815 1227.58 39.6638C1229.14 36.4884 1229 33.1975 1227.15 29.7912C1225.3 26.3271 1222.3 23.4692 1218.14 21.2176C1211.85 18.0999 1204.95 17.8112 1197.45 20.3515C1195.95 20.9289 1195.05 20.6113 1194.76 19.3989C1194.47 18.1865 1195.2 17.4071 1196.93 17.0607ZM1183.07 94.8294C1182.49 95.8109 1182.67 96.5614 1183.59 97.081C1187.69 98.9863 1191.79 100.863 1195.89 102.71C1199.99 104.558 1204.12 106.347 1208.27 108.08C1211.16 109.35 1214.05 107.704 1216.93 103.143C1220.51 97.4274 1215.78 89.9219 1202.73 80.6266C1200.71 79.4142 1198.23 79.9915 1195.28 82.3587L1183.07 94.8294ZM1195.02 76.8161C1195.71 77.3357 1196.35 77.3069 1196.93 76.7295L1213.04 60.9679C1213.56 60.3906 1213.7 59.871 1213.47 59.4091C1213.3 58.8895 1212.86 58.6008 1212.17 58.5431C1208.88 58.1967 1205.24 56.9265 1201.26 54.7326C1194.85 51.0953 1190.66 48.6416 1188.7 47.3714C1186.74 46.1012 1184.23 47.2559 1181.17 50.8355C1177.3 55.3965 1177.27 59.7555 1181.08 63.9124C1184.95 68.0693 1189.6 72.3706 1195.02 76.8161Z" fill="#FCFCFC"/>
<path d="M1128.69 102.97L1128.77 66.8569C1128.77 57.1574 1127.01 51.7881 1123.49 50.7489C1123.09 50.4602 1122.88 50.1138 1122.88 49.7096C1122.88 49.2478 1123.09 48.8436 1123.49 48.4972C1128.63 44.8022 1132.87 39.606 1136.22 32.9088C1136.45 32.3892 1136.86 32.1294 1137.43 32.1294C1138.01 32.1294 1138.44 32.3892 1138.73 32.9088C1141.79 39.5483 1146.18 44.7156 1151.9 48.4106C1152.3 48.757 1152.5 49.19 1152.5 49.7096C1152.5 50.1715 1152.27 50.5179 1151.81 50.7489C1148 51.8458 1146.15 57.2151 1146.27 66.8569V97.3408C1146.27 103.287 1147.36 106.925 1149.56 108.253C1151.98 109.869 1154.03 109.234 1155.71 106.347C1156.34 105.25 1157.06 105.02 1157.87 105.655C1158.74 106.232 1158.74 107.213 1157.87 108.599C1156.14 111.255 1154.49 113.968 1152.94 116.74C1151.43 119.511 1149.9 122.224 1148.35 124.88C1147.36 126.555 1146.01 126.872 1144.27 125.833C1135.67 121.734 1130.62 116.538 1129.12 110.245C1129 109.783 1128.66 109.465 1128.08 109.292C1127.5 109.119 1127.1 109.205 1126.87 109.552C1123.58 112.208 1120.29 115.008 1117 117.952C1113.7 120.839 1111.45 123.495 1110.24 125.92C1109.26 127.305 1108.19 127.276 1107.04 125.833C1103.86 122.138 1100.74 119.309 1097.68 117.346C1094.68 115.383 1090.67 113.795 1085.65 112.583C1084.55 112.179 1084.03 111.688 1084.09 111.111C1084.14 110.533 1084.52 110.1 1085.21 109.812C1086.66 109.292 1087.95 108.339 1089.11 106.954C1090.32 105.51 1090.93 103.143 1090.93 99.8523V63.2196C1090.93 57.3306 1089.83 53.7222 1087.64 52.3943C1085.04 50.8355 1082.96 51.4705 1081.4 54.2995C1080.77 55.3965 1080.04 55.6274 1079.24 54.9924C1078.43 54.3573 1078.46 53.3469 1079.32 51.9613C1081 49.3632 1082.59 46.6786 1084.09 43.9073C1085.65 41.136 1087.23 38.3647 1088.85 35.5935C1089.83 33.8614 1091.13 33.5439 1092.75 34.6409H1092.83C1103.28 40.1257 1108.51 47.6312 1108.51 57.1574L1108.33 101.498C1108.33 103.172 1108.77 104.298 1109.63 104.875L1117.08 111.024C1117.66 111.544 1118.32 111.601 1119.07 111.197C1123.75 107.502 1126.78 105.135 1128.17 104.096C1128.51 103.865 1128.69 103.49 1128.69 102.97Z" fill="#FCFCFC"/>
<path d="M1052.22 53.7782L1052.13 102.275C1052.13 104.065 1052.56 105.249 1053.43 105.826L1059.66 109.377C1060.88 110.416 1062.9 109.03 1065.73 105.22C1066.25 104.469 1066.94 104.354 1067.8 104.873C1068.73 105.393 1068.79 106.086 1067.98 106.952C1061.8 113.707 1057.15 120.346 1054.03 126.87C1053.05 128.083 1051.99 128.083 1050.83 126.87C1047.6 123.06 1044.6 120.202 1041.82 118.297C1039.05 116.392 1034.92 114.775 1029.44 113.447C1028.52 113.274 1028.03 112.841 1027.97 112.148C1027.91 111.455 1028.26 110.965 1029.01 110.676C1032.88 109.752 1034.78 106.432 1034.72 100.717L1034.64 53.8648C1034.69 52.8256 1034.26 52.306 1033.34 52.306H1023.12C1022.31 52.306 1021.79 51.9884 1021.56 51.3534C1021.33 50.7183 1021.59 50.1698 1022.34 49.7079C1029.27 44.8005 1036.31 38.8827 1043.47 31.9545C1050.69 25.0263 1057.24 18.4445 1063.13 12.2092C1063.88 11.4009 1064.6 11.2566 1065.29 11.7762C1066.04 12.2381 1066.07 12.9309 1065.38 13.8546C1062.72 17.1455 1060.04 21.4179 1057.33 26.6718C1054.67 31.9256 1053.05 36.7176 1052.48 41.0477C1052.36 41.6251 1052.39 42.0581 1052.56 42.3467C1052.91 42.6931 1053.31 42.8663 1053.78 42.8663H1068.76C1069.16 42.8663 1069.51 43.0107 1069.8 43.2994C1070.09 43.7035 1070.23 44.0788 1070.23 44.4252L1069.88 50.9203C1069.77 51.8441 1069.28 52.306 1068.41 52.306H1053.43C1052.62 52.306 1052.22 52.7967 1052.22 53.7782Z" fill="#FCFCFC"/>
<path d="M984.233 126.786C984.118 125.4 983.367 124.361 981.982 123.668C980.654 122.976 979.528 122.283 978.604 121.59C971.965 117.087 967.259 111.602 964.488 105.136C961.775 98.6116 960.245 91.7123 959.898 84.4377C959.205 67.9833 963.651 55.4548 973.235 46.8524C976.641 43.7924 980.567 41.3098 985.013 39.4046C989.458 37.4416 994.019 35.8539 998.696 34.6414C1000.14 34.3528 1001.21 35.0745 1001.9 36.8065L1014.37 66.078C1014.95 67.6369 1014.75 68.6184 1013.76 69.0225H1013.59L978.085 82.7922C977.392 83.1386 977.103 83.6871 977.219 84.4377C980.048 97.2548 984.782 105.482 991.421 109.119C998.061 112.699 1004.67 113.218 1011.25 110.678C1012.41 110.159 1013.13 110.245 1013.42 110.938C1013.76 111.631 1013.56 112.15 1012.81 112.497C1008.14 114.864 1003.66 117.289 999.389 119.771C995.174 122.254 991.392 124.852 988.044 127.566C987.524 127.912 986.745 128.027 985.706 127.912C984.724 127.796 984.233 127.421 984.233 126.786ZM976.179 77.8559C976.237 78.3178 976.439 78.6931 976.786 78.9817C977.132 79.2127 977.565 79.2127 978.085 78.9817L996.531 72.0536C997.397 71.7072 997.657 71.1009 997.31 70.2349L986.745 44.3409C986.225 43.0707 985.186 42.8975 983.627 43.8213C980.279 45.7843 977.998 50.2587 976.786 57.2446C975.573 64.2305 975.371 71.1009 976.179 77.8559Z" fill="#FCFCFC"/>
<path d="M924.305 59.4087L924.219 101.411C924.219 103.258 924.681 104.442 925.604 104.961L931.84 108.599C933.168 109.407 935.188 107.992 937.902 104.355C938.479 103.605 939.201 103.46 940.067 103.922C940.933 104.326 940.933 105.048 940.067 106.087C934.005 112.842 929.357 119.482 926.124 126.006C925.143 127.334 924.074 127.334 922.92 126.006C919.687 122.253 916.656 119.395 913.827 117.432C911.055 115.469 906.956 113.853 901.529 112.582C900.49 112.294 899.97 111.832 899.97 111.197C899.97 110.562 900.345 110.1 901.096 109.811C904.964 109.176 906.869 105.856 906.812 99.8519V63.2192C906.812 57.3302 905.715 53.7218 903.521 52.3939C900.981 50.7196 898.902 51.3258 897.286 54.2126C896.65 55.425 895.929 55.7137 895.12 55.0786C894.312 54.4435 894.341 53.4331 895.207 52.0475C896.881 49.3917 898.469 46.6782 899.97 43.9069C901.529 41.1356 903.117 38.3644 904.733 35.5931C905.715 33.8611 907.014 33.5435 908.63 34.6405C917.117 38.7396 922.198 43.9358 923.872 50.2289C924.046 50.8062 924.392 51.1815 924.912 51.3547C925.431 51.4702 925.893 51.2681 926.297 50.7485L939.634 35.4199C939.98 35.0735 940.385 34.9291 940.846 34.9869C941.308 34.9869 941.684 35.2178 941.972 35.6797L951.065 53.0867C951.296 53.6063 951.239 54.0971 950.892 54.559L940.5 67.0297C940.096 67.4338 939.634 67.607 939.114 67.5493C938.652 67.4915 938.335 67.2317 938.162 66.7699L931.147 53.7795C930.916 53.4331 930.541 53.2311 930.021 53.1733C929.559 53.0579 929.126 53.2022 928.722 53.6063L924.652 58.5427C924.421 58.7736 924.305 59.0623 924.305 59.4087Z" fill="#FCFCFC"/>
<path d="M850.521 125.919C849.655 127.362 848.587 127.362 847.316 125.919C840.966 118.009 831.324 112.063 818.391 108.079C817.352 107.79 816.861 107.328 816.919 106.693C816.919 106.058 817.237 105.596 817.872 105.308C821.567 104.037 823.414 100.198 823.414 93.7896L823.154 49.6225C823.154 48.9874 823.097 48.4966 822.981 48.1502C822.866 47.7461 822.895 47.3997 823.068 47.111C823.299 46.7646 823.703 46.5625 824.28 46.5048C839.638 45.2346 853.292 41.0489 865.243 33.9475C865.763 33.6588 866.225 33.5722 866.629 33.6877C867.091 33.8031 867.35 34.2073 867.408 34.9001C868.39 41.1355 871.45 47.2553 876.588 53.2598C879.417 56.7238 881.755 61.4581 883.603 67.4625C885.508 73.4669 886.259 78.461 885.854 82.4447C885.277 87.1212 883.747 91.3358 881.265 95.0886C878.782 98.7836 875.953 102.19 872.777 105.308C869.025 109.003 864.983 112.12 860.653 114.661C856.323 117.201 852.946 120.954 850.521 125.919ZM841.081 48.4966L841.428 98.3795C841.428 99.2455 841.774 99.8517 842.467 100.198L857.795 109.724C859.296 110.706 860.682 110.417 861.952 108.858C867.437 102.969 869.92 95.8969 869.4 87.6408C869.285 82.5024 868.274 77.9125 866.369 73.8711C864.521 69.8296 862.212 66.2501 859.441 63.1324C854.937 58.5714 851.502 52.9133 849.135 46.1584C849.02 45.8697 848.76 45.6388 848.356 45.4656C847.952 45.2346 847.576 45.2058 847.23 45.379C845.498 46.014 843.766 46.5625 842.034 47.0244C841.399 47.2553 841.081 47.7461 841.081 48.4966Z" fill="#FCFCFC"/>
<path d="M669.521 76.4697C669.637 73.2365 668.857 71.2447 667.183 70.4941C665.566 69.6859 662.102 69.8879 656.791 71.1004C648.592 73.0633 641.26 71.2447 634.794 65.6444C628.327 60.0442 625.094 51.7015 625.094 40.6164C625.152 29.5891 629.165 20.0628 637.132 12.0377C645.099 4.01257 654.626 0 665.711 0C670.734 0 676.189 1.2413 682.078 3.72389C687.967 6.20649 692.99 9.90151 697.147 14.809C697.494 15.2708 697.869 15.4729 698.273 15.4152C698.677 15.3574 699.024 15.0976 699.312 14.6358C701.853 10.4789 705.115 6.98591 709.098 4.1569C713.14 1.3279 718.48 0 725.12 0.173204C733.722 0.577348 741.43 5.88895 748.242 16.108C748.589 16.6276 749.022 16.8874 749.542 16.8874C750.061 16.8874 750.465 16.5987 750.754 16.0214C753.179 11.5181 756.239 7.82306 759.934 4.93632C763.629 2.04958 768.248 0.606215 773.79 0.606215C780.891 0.721685 786.752 2.88674 791.37 7.10138C795.989 11.316 799.338 18.3885 801.416 28.3189C802.686 35.1893 805.342 38.8266 809.384 39.2308C810.538 39.2885 811.144 39.7793 811.202 40.703C811.318 41.6268 810.625 42.3196 809.124 42.7815C797.923 46.592 790.216 52.7118 786.001 61.1411C781.786 69.5127 781.96 80.1936 786.521 93.1839C788.541 99.0729 791.428 103.23 795.181 105.655C798.991 108.022 803.148 107.82 807.652 105.048C809.326 104.067 810.567 104.096 811.375 105.135C812.241 106.116 812.097 107.098 810.942 108.079C807.016 111.197 803.119 114.315 799.251 117.433C795.441 120.492 791.601 123.552 787.733 126.612C787.098 127.074 786.492 127.074 785.914 126.612C773.617 116.74 766.198 105.77 763.658 93.7035C761.175 81.637 769.142 67.3476 787.56 50.8355C787.964 50.4313 788.137 50.0272 788.079 49.623C788.079 49.2189 787.82 48.8725 787.3 48.5838C783.259 45.8703 780.285 38.9132 778.38 27.7127C776.359 16.6276 771.856 11.0273 764.87 10.9119C759.905 10.7964 755.69 14.4337 752.226 21.8237C751.995 22.2279 751.995 22.632 752.226 23.0362C754.478 27.8282 756.094 33.1686 757.076 39.0576C758.115 44.9465 758.173 51.1819 757.249 57.7636C754.94 73.6984 751.504 85.7361 746.943 93.8767C742.44 101.96 737.071 110.042 730.835 118.125C722.579 128.46 714.785 129.586 707.453 121.503C705.374 119.193 703.18 117.692 700.871 116.999C698.619 116.307 696.021 117.115 693.077 119.424C691.98 120.348 691.027 120.464 690.219 119.771C689.468 119.02 689.526 118.096 690.392 116.999C697.782 106.723 703.642 100.863 707.972 99.4193C712.36 97.9759 716.633 99.1883 720.79 103.057C724.196 106.232 727.314 107.935 730.143 108.166C733.029 108.397 735.281 106.261 736.898 101.758C740.015 93.0973 741.112 81.0019 740.188 65.4712C739.322 49.8828 736.176 37.9317 730.749 29.6179C725.38 21.3041 720.241 16.4255 715.334 14.9822C710.484 13.4811 706.067 14.7512 702.084 18.7927C701.506 19.37 701.477 19.9762 701.997 20.6113C708.867 30.1375 712.562 41.1649 713.082 53.6933C713.428 63.9701 711.437 73.8428 707.106 83.3113C702.776 92.722 697.205 101.758 690.392 110.418C682.944 119.886 675.872 125.313 669.175 126.699C662.535 128.085 656.444 124.707 650.902 116.566C646.052 109.292 641.116 108.397 636.093 113.882C634.88 114.921 633.783 114.95 632.802 113.968C631.878 112.987 632.022 111.861 633.235 110.591C648.996 94.5407 661.381 92.4334 670.387 104.269C671.831 106.232 673.187 108.051 674.457 109.725C675.785 111.399 677.748 112.179 680.346 112.063C683.695 111.948 687.217 108.282 690.912 101.065C694.607 93.8479 696.454 84.7546 696.454 73.785C696.339 59.4091 692.586 46.8229 685.196 36.0265C677.806 25.1724 669.348 19.2257 659.822 18.1864C650.295 17.205 642.79 18.9947 637.305 23.5558C631.82 28.1168 629.165 33.515 629.338 39.7504C629.511 46.1012 631.185 51.1819 634.361 54.9924C637.594 58.8029 643.54 59.5823 652.201 57.3306C668.886 53.0582 676.132 59.207 673.938 75.7769C673.707 77.5089 672.899 78.4038 671.513 78.4615C670.185 78.4615 669.521 77.7976 669.521 76.4697Z" fill="#FCFCFC"/>
<path d="M586.383 57.9365L620.244 54.6456C620.706 54.5879 621.053 54.7611 621.284 55.1652C621.457 55.5116 621.457 55.858 621.284 56.2044L616.434 65.9039C616.088 66.4235 615.741 66.6833 615.395 66.6833L581.36 69.9742C580.84 69.9742 580.523 69.8298 580.407 69.5412C580.119 69.1948 580.119 68.7906 580.407 68.3287L585.257 58.7159C585.488 58.3117 585.863 58.0519 586.383 57.9365ZM578.849 77.0755L612.797 73.7847C613.201 73.7269 613.547 73.8713 613.836 74.2177C614.009 74.6218 614.009 74.9971 613.836 75.3435L608.9 85.0429C608.669 85.5048 608.322 85.7358 607.86 85.7358L573.912 89.1132C573.45 89.1132 573.133 88.94 572.96 88.5936C572.671 88.305 572.671 87.9297 572.96 87.4678L577.809 77.7684C578.04 77.3065 578.387 77.0755 578.849 77.0755Z" fill="#FCFCFC"/>
<path d="M513.031 93.0975C512.974 102.393 514.706 107.762 518.228 109.205C518.632 109.494 518.834 109.898 518.834 110.418C518.834 110.88 518.632 111.226 518.228 111.457C513.031 115.383 508.817 120.608 505.584 127.132C505.237 127.594 504.804 127.825 504.285 127.825C503.765 127.825 503.332 127.594 502.986 127.132C499.752 120.608 495.365 115.412 489.822 111.544C489.476 111.313 489.302 110.938 489.302 110.418C489.302 109.898 489.505 109.494 489.909 109.205C493.661 107.762 495.538 102.393 495.538 93.0975V64.3456C495.538 58.4566 494.441 54.8482 492.247 53.5203C489.707 51.846 487.628 52.4522 486.012 55.339C485.377 56.5514 484.655 56.8401 483.847 56.205C483.038 55.5699 483.067 54.5595 483.933 53.1739C485.607 50.5181 487.195 47.8046 488.696 45.0333C490.255 42.262 491.843 39.4908 493.459 36.7195C494.383 35.0452 495.682 34.6988 497.356 35.6803L497.443 35.7669C505.93 40.0392 511.011 45.2642 512.685 51.4419C512.801 52.0769 513.089 52.4522 513.551 52.5677C514.013 52.6832 514.475 52.5677 514.937 52.2213C518.112 49.5655 521.374 46.7653 524.723 43.8209C528.071 40.8764 530.352 38.1629 531.564 35.6803C532.199 34.1792 533.239 34.208 534.682 35.7669C538.146 39.4042 541.091 42.2909 543.515 44.4271C545.998 46.5633 550.184 48.151 556.073 49.1902C557.112 49.4211 557.632 49.883 557.632 50.5758C557.689 51.2109 557.343 51.6439 556.592 51.8749C555.091 52.4522 553.763 53.4626 552.609 54.9059C551.454 56.2916 550.877 58.6298 550.877 61.9207V98.5534C550.877 104.442 551.974 108.051 554.167 109.379C556.708 110.938 558.757 110.302 560.316 107.473C560.951 106.376 561.673 106.146 562.481 106.781C563.347 107.358 563.347 108.339 562.481 109.725C560.749 112.439 559.104 115.181 557.545 117.952C556.044 120.666 554.514 123.379 552.955 126.093C551.916 127.709 550.617 128.085 549.058 127.219C538.55 122.138 533.296 114.604 533.296 104.616L533.383 60.2753C533.383 58.5432 532.95 57.4174 532.084 56.8978H531.997V56.7246L524.636 50.6624C524.001 50.2006 523.337 50.1717 522.644 50.5758L513.638 57.5906C513.234 57.8793 513.031 58.2257 513.031 58.6298V93.0975Z" fill="#FCFCFC"/>
<path d="M444.269 104.009L443.663 56.5507C443.663 55.4537 443.489 54.5588 443.143 53.866C441.757 51.6144 440.574 51.0659 439.592 52.2206L436.128 55.7713C435.204 56.8105 434.31 56.926 433.444 56.1177C432.635 55.3094 432.78 54.1836 433.877 52.7402C436.417 49.5648 438.697 46.3894 440.718 43.214C442.739 40.0385 444.817 36.892 446.953 33.7743C447.877 32.6774 448.945 32.7062 450.158 33.8609C452.583 36.8054 454.95 39.4035 457.259 41.6551C459.569 43.849 462.859 46.1873 467.132 48.6699C468.344 49.1318 468.864 49.6802 468.691 50.3153C468.575 50.9504 468.2 51.2968 467.565 51.3546C466.064 51.9319 464.736 52.9423 463.581 54.3856C462.426 55.7713 461.849 58.1095 461.849 61.4004V98.0331C461.849 103.922 462.946 107.53 465.14 108.858C467.68 110.359 469.759 109.724 471.375 106.953C471.953 105.856 472.645 105.625 473.454 106.26C474.32 106.838 474.32 107.819 473.454 109.205C471.722 111.918 470.105 114.661 468.604 117.432C467.103 120.146 465.573 122.859 464.014 125.573C462.917 127.189 461.56 127.536 459.944 126.612C454.748 124.129 450.822 121.098 448.166 117.519C445.568 113.939 444.269 109.436 444.269 104.009ZM456.826 1.21191C463.235 1.21191 466.15 4.30072 465.573 10.4783C465.227 13.596 463.264 16.7426 459.684 19.918C456.162 23.0357 453.362 24.5656 451.284 24.5079C449.205 24.5079 447.617 22.8624 446.52 19.5716C445.424 16.2807 444.991 13.2496 445.221 10.4783C445.395 7.82254 446.665 5.62862 449.032 3.89658C451.457 2.1068 454.055 1.21191 456.826 1.21191Z" fill="#FCFCFC"/>
<path d="M408.243 53.7782L408.156 102.275C408.156 104.065 408.589 105.249 409.455 105.826L415.691 109.377C416.903 110.416 418.924 109.03 421.753 105.22C422.273 104.469 422.965 104.354 423.831 104.873C424.755 105.393 424.813 106.086 424.005 106.952C417.827 113.707 413.179 120.346 410.062 126.87C409.08 128.083 408.012 128.083 406.857 126.87C403.624 123.06 400.622 120.202 397.851 118.297C395.08 116.392 390.951 114.775 385.467 113.447C384.543 113.274 384.052 112.841 383.994 112.148C383.937 111.455 384.283 110.965 385.034 110.676C388.902 109.752 390.807 106.432 390.749 100.717L390.663 53.8648C390.721 52.8256 390.288 52.306 389.364 52.306H379.145C378.336 52.306 377.817 51.9884 377.586 51.3534C377.355 50.7183 377.615 50.1698 378.365 49.7079C385.293 44.8005 392.337 38.8827 399.496 31.9545C406.713 25.0263 413.266 18.4445 419.155 12.2092C419.905 11.4009 420.627 11.2566 421.32 11.7762C422.071 12.2381 422.099 12.9309 421.407 13.8546C418.751 17.1455 416.066 21.4179 413.353 26.6718C410.697 31.9256 409.08 36.7176 408.503 41.0477C408.387 41.6251 408.416 42.0581 408.589 42.3467C408.936 42.6931 409.34 42.8663 409.802 42.8663H424.784C425.188 42.8663 425.535 43.0107 425.823 43.2994C426.112 43.7035 426.256 44.0788 426.256 44.4252L425.91 50.9203C425.794 51.8441 425.304 52.306 424.438 52.306H409.455C408.647 52.306 408.243 52.7967 408.243 53.7782Z" fill="#FCFCFC"/>
<path d="M320.256 93.0975C320.198 102.393 321.93 107.762 325.452 109.205C325.856 109.494 326.058 109.898 326.058 110.418C326.058 110.88 325.856 111.226 325.452 111.457C320.256 115.383 316.041 120.608 312.808 127.132C312.461 127.594 312.028 127.825 311.509 127.825C310.989 127.825 310.556 127.594 310.21 127.132C306.977 120.608 302.589 115.412 297.046 111.544C296.7 111.313 296.527 110.938 296.527 110.418C296.527 109.898 296.729 109.494 297.133 109.205C300.886 107.762 302.762 102.393 302.762 93.0975V64.3456C302.762 58.4566 301.665 54.8482 299.471 53.5203C296.931 51.846 294.852 52.4522 293.236 55.339C292.601 56.5514 291.879 56.8401 291.071 56.205C290.262 55.5699 290.291 54.5595 291.157 53.1739C292.832 50.5181 294.419 47.8046 295.92 45.0333C297.479 42.262 299.067 39.4908 300.683 36.7195C301.607 35.0452 302.906 34.6988 304.581 35.6803L304.667 35.7669C313.154 40.0392 318.235 45.2642 319.909 51.4419C320.025 52.0769 320.313 52.4522 320.775 52.5677C321.237 52.6832 321.699 52.5677 322.161 52.2213C325.336 49.5655 328.598 46.7653 331.947 43.8209C335.295 40.8764 337.576 38.1629 338.788 35.6803C339.424 34.1792 340.463 34.208 341.906 35.7669C345.37 39.4042 348.315 42.2909 350.74 44.4271C353.222 46.5633 357.408 48.151 363.297 49.1902C364.336 49.4211 364.856 49.883 364.856 50.5758C364.913 51.2109 364.567 51.6439 363.816 51.8749C362.315 52.4522 360.987 53.4626 359.833 54.9059C358.678 56.2916 358.101 58.6298 358.101 61.9207V98.5534C358.101 104.442 359.198 108.051 361.392 109.379C363.932 110.938 365.982 110.302 367.54 107.473C368.175 106.376 368.897 106.146 369.705 106.781C370.571 107.358 370.571 108.339 369.705 109.725C367.973 112.439 366.328 115.181 364.769 117.952C363.268 120.666 361.738 123.379 360.179 126.093C359.14 127.709 357.841 128.085 356.282 127.219C345.774 122.138 340.52 114.604 340.52 104.616L340.607 60.2753C340.607 58.5432 340.174 57.4174 339.308 56.8978H339.221V56.7246L331.86 50.6624C331.225 50.2006 330.561 50.1717 329.868 50.5758L320.862 57.5906C320.458 57.8793 320.256 58.2257 320.256 58.6298V93.0975Z" fill="#FCFCFC"/>
<path d="M250.194 112.152C247.249 114.403 244.016 116.886 240.494 119.599C236.972 122.255 233.71 124.709 230.708 126.961C229.669 127.769 228.832 128.115 228.197 128C227.619 127.884 227.388 127.365 227.504 126.441C227.504 125.229 225.714 122.919 222.135 119.513C212.724 110.679 208.192 99.1902 208.538 85.0452C208.884 72.9209 214.514 62.673 225.425 54.3014C228.774 51.7611 231.892 49.0764 234.778 46.2474C237.723 43.4184 240.321 39.9832 242.573 35.9418C243.496 34.152 244.767 34.0943 246.383 35.7686C255.159 45.6989 263.934 51.559 272.71 53.3488C275.481 53.8684 275.77 54.9654 273.576 56.6397C270.863 58.6027 269.39 61.0275 269.159 63.9143V64.0875L269.419 103.665C269.419 106.32 270.372 108.139 272.277 109.121C274.24 110.102 276.347 109.352 278.599 106.869C279.465 105.887 280.273 105.656 281.024 106.176C281.832 106.638 281.861 107.504 281.111 108.774C279.032 111.892 277.011 114.952 275.048 117.954C273.143 120.956 271.527 124.074 270.199 127.307L270.112 127.394C269.304 128.722 268.322 128.722 267.168 127.394C266.533 126.701 265.782 126.239 264.916 126.008C258.334 124.565 254.177 120.206 252.445 112.931C252.33 112.585 252.041 112.238 251.579 111.892C251.06 111.834 250.598 111.921 250.194 112.152ZM251.146 61.143C247.567 60.1615 243.381 57.3902 238.589 52.8292C236.28 50.0579 234.432 49.7981 233.046 52.0498C226.926 61.1719 224.531 71.2466 225.858 82.2739C227.706 98.0355 233.248 107.764 242.486 111.459C242.544 111.459 242.601 111.488 242.659 111.545C245.026 112.296 247.884 110.881 251.233 107.302C251.464 106.956 251.579 106.638 251.579 106.349C251.522 105.483 251.493 104.127 251.493 102.279L252.272 62.5286C252.272 61.8358 251.897 61.3739 251.146 61.143Z" fill="#FCFCFC"/>
<path d="M159.955 10.5648C159.204 9.75656 159.175 8.97714 159.868 8.22659C160.619 7.47604 161.543 7.62038 162.639 8.6596C163.967 10.2762 165.324 12.0082 166.71 13.8557C168.153 15.7032 169.366 17.6085 170.347 19.5715C170.636 20.1488 171.04 20.4375 171.56 20.4375C172.137 20.4375 172.57 20.2066 172.859 19.7447C176.265 13.9712 180.999 9.32355 187.061 5.80173C193.123 2.22218 199.676 0.547868 206.72 0.778807C208.048 0.836542 208.741 1.41389 208.798 2.51085C208.856 3.55008 208.163 4.06969 206.72 4.06969C201.004 4.06969 196.414 5.71513 192.95 9.00601C189.544 12.2969 187.841 18.3013 187.841 27.0193L187.754 102.017C187.754 103.864 188.187 105.048 189.053 105.567L195.288 109.118C196.732 109.638 198.724 108.252 201.264 104.961C201.899 104.095 202.679 103.922 203.602 104.442C204.526 104.903 204.497 105.654 203.516 106.693C197.454 113.448 192.806 120.088 189.573 126.612C188.88 127.824 187.841 127.824 186.455 126.612C183.626 122.974 180.71 120.117 177.708 118.038C174.706 115.902 170.491 114.285 165.064 113.188C164.141 113.073 163.65 112.669 163.592 111.976C163.592 111.225 163.91 110.706 164.545 110.417C165.988 109.898 167.287 108.945 168.442 107.559C169.654 106.116 170.26 103.749 170.26 100.458L170.174 42.2612C170.174 33.9474 169.279 27.3945 167.489 22.6025C165.699 17.8106 163.188 13.798 159.955 10.5648Z" fill="#FCFCFC"/>
<path d="M47.1116 59.3228C48.324 58.3413 49.3632 58.2836 50.2292 59.1496C51.0953 60.0156 50.7777 61.228 49.2766 62.7869C46.9672 64.8653 44.3114 66.251 41.3092 66.9438C38.307 67.5789 35.2759 67.9253 32.216 67.983C22.9784 68.2139 15.2997 65.4715 9.17983 59.7558C3.05994 53.9823 0 46.1593 0 36.2866C0 26.3562 3.83936 17.8404 11.5181 10.739C19.1968 3.6376 29.6179 0.0869141 42.7815 0.0869141C50.7489 0.260118 57.4461 2.25197 62.8732 6.06246C68.3002 9.87296 72.5437 14.3763 75.6037 19.5724C76.0078 20.3807 76.614 20.5539 77.4223 20.092L114.921 0.606527C116.595 -0.144025 117.808 -0.0285555 118.558 0.952936C119.309 1.87669 119.107 2.80045 117.952 3.7242C113.853 6.66868 113.304 10.7678 116.307 16.0217C119.367 21.2178 124.332 26.5872 131.202 32.1297C144.885 43.4457 151.352 54.9638 150.601 66.684C149.908 78.4041 145.665 89.6335 137.871 100.372C128.979 112.439 120.204 120.435 111.544 124.361C102.883 128.345 92.5777 127.017 80.6266 120.377C80.1647 120.089 79.7028 120.06 79.241 120.291C78.8368 120.522 78.6059 120.868 78.5481 121.33C77.6821 128.605 76.181 134.696 74.0448 139.603C71.9664 144.51 68.7621 149.014 64.432 153.113C63.6237 153.863 62.8732 153.979 62.1803 153.459C61.4875 152.94 61.4298 152.189 62.0071 151.208C66.4527 141.912 67.9249 129.471 66.4238 113.882C66.4238 113.363 66.1352 112.987 65.5578 112.756C54.0109 108.253 45.3795 108.773 39.6638 114.315C38.6823 115.297 37.7297 115.47 36.8059 114.835C35.9399 114.142 35.911 113.247 36.7193 112.15C45.7259 100.43 54.5016 94.2234 63.0464 93.5306C63.5082 93.4729 63.8258 93.3286 63.999 93.0976C64.2299 92.8667 64.3454 92.4914 64.3454 91.9718C63.6526 84.524 62.9309 77.1051 62.1803 69.715C61.4875 62.2673 60.7947 54.8195 60.1019 47.3717C59.2359 38.9424 56.378 31.6678 51.5283 25.5479C46.6786 19.3703 40.6453 16.2238 33.4284 16.1083C25.692 15.7042 19.1679 17.6094 13.8563 21.8241C8.54474 25.981 5.88895 31.841 5.88895 39.4043C5.88895 46.9675 8.31381 52.9431 13.1635 57.3309C18.071 61.7188 24.595 63.9127 32.7356 63.9127C38.5668 64.0282 43.3588 62.4982 47.1116 59.3228ZM78.5481 25.8944C79.5296 28.5502 80.1936 31.206 80.54 33.8618C80.9441 36.5176 81.2039 39.029 81.3194 41.3961C81.6658 53.6936 81.5792 64.1148 81.0596 72.6595C80.5977 81.2043 80.2802 89.0273 80.107 96.1287C80.107 96.8215 80.3668 97.2545 80.8864 97.4277C83.7154 98.6979 86.8042 100.314 90.1528 102.277C101.873 109.032 111.168 111.717 118.039 110.331C124.967 108.946 130.509 104.962 134.666 98.3804C143.788 83.9467 138.102 68.4449 117.606 51.875C110.62 46.3325 104.731 40.992 99.9389 35.8536C95.2046 30.7152 92.6643 25.317 92.3179 19.659C92.3179 18.9662 92.0869 18.5332 91.6251 18.36C91.1632 18.1868 90.7013 18.2156 90.2394 18.4466L79.241 24.1623C78.4327 24.5665 78.2017 25.1438 78.5481 25.8944Z" fill="#FCFCFC"/>
<path d="M1065.32 287.008L1065.15 358.911C1065.04 377.339 1068.43 387.797 1075.33 390.284C1076.12 390.963 1076.52 391.754 1076.52 392.659C1076.52 393.563 1076.12 394.298 1075.33 394.863C1065.38 402.212 1057.13 412.33 1050.57 425.219C1049.89 426.236 1048.99 426.745 1047.86 426.745C1046.84 426.745 1046.05 426.236 1045.48 425.219C1038.92 412.443 1030.33 402.381 1019.7 395.033C1019.03 394.354 1018.69 393.563 1018.69 392.659C1018.69 391.754 1019.08 390.963 1019.87 390.284C1027.45 387.797 1031.12 377.339 1030.9 358.911V299.048C1030.9 287.517 1028.75 280.451 1024.45 277.851C1019.48 274.572 1015.41 275.759 1012.24 281.412C1011 283.786 1009.53 284.464 1007.83 283.447C1006.25 282.316 1006.36 280.225 1008.17 277.172C1011.45 271.972 1014.56 266.658 1017.5 261.231C1020.55 255.805 1023.66 250.378 1026.83 244.951C1028.64 241.673 1031.18 240.994 1034.46 242.916L1034.63 243.086C1050.91 251.113 1060.74 261.062 1064.14 272.933C1064.47 274.063 1065.1 274.685 1066 274.798C1066.91 275.137 1067.81 275.024 1068.71 274.459C1074.25 269.711 1080.08 264.623 1086.18 259.196C1092.4 253.657 1096.7 248.908 1099.07 244.951C1100.88 241.786 1103.37 241.108 1106.53 242.916C1122.81 250.943 1132.7 260.723 1136.21 272.254C1136.66 273.837 1137.34 274.628 1138.24 274.628C1139.15 274.628 1139.94 274.289 1140.62 273.611C1146.72 268.637 1152.71 263.493 1158.59 258.179C1164.59 252.752 1168.77 247.665 1171.14 242.916C1172.39 239.977 1174.42 240.033 1177.25 243.086C1184.03 250.208 1189.85 255.861 1194.71 260.044C1199.58 264.227 1207.77 267.336 1219.3 269.371C1221 269.711 1221.9 270.445 1222.02 271.576C1222.02 273.498 1221.4 274.515 1220.15 274.628C1217.21 275.759 1214.61 277.738 1212.35 280.564C1210.09 283.277 1208.96 287.856 1208.96 294.3V368.069C1208.96 379.601 1211.11 386.667 1215.4 389.267C1220.38 392.206 1224.45 390.963 1227.61 385.536C1228.74 383.388 1230.1 382.936 1231.68 384.179C1233.38 385.31 1233.44 387.232 1231.85 389.945C1228.46 395.259 1225.24 400.629 1222.19 406.056C1219.13 411.369 1216.08 416.683 1213.03 421.996C1210.99 425.162 1208.45 425.897 1205.4 424.201C1195.11 419.227 1187.37 413.122 1182.17 405.886C1177.08 398.65 1174.53 390.002 1174.53 379.94L1174.7 291.078C1174.7 287.686 1173.8 285.369 1171.99 284.125L1157.75 272.254C1156.39 271.35 1155.03 271.293 1153.68 272.085C1146.33 277.738 1141.8 281.299 1140.11 282.768C1138.41 284.125 1137.57 285.651 1137.57 287.347L1137.4 358.911C1137.4 377.453 1140.84 387.91 1147.74 390.284C1148.53 391.076 1148.93 391.867 1148.93 392.659C1148.93 393.337 1148.53 394.072 1147.74 394.863C1137.79 401.986 1129.48 412.104 1122.81 425.219C1122.13 426.236 1121.23 426.745 1120.1 426.745C1118.97 426.745 1118.23 426.236 1117.89 425.219C1111.45 412.669 1102.86 402.607 1092.12 395.033C1091.33 394.467 1090.93 393.733 1090.93 392.828C1090.93 391.924 1091.33 391.076 1092.12 390.284C1100.14 387.797 1103.87 377.339 1103.31 358.911L1103.14 299.048C1103.14 290.682 1100.99 283.616 1096.7 277.851C1091.38 270.841 1086.01 269.484 1080.59 273.781L1066.34 284.634L1065.66 285.651L1065.32 287.008Z" fill="#FCFCFC"/>
<path d="M928.808 378.413L928.977 307.696C928.977 288.703 925.529 278.189 918.633 276.154C917.841 275.589 917.446 274.91 917.446 274.119C917.446 273.214 917.841 272.423 918.633 271.745C928.695 264.509 937.004 254.334 943.562 241.22C944.014 240.202 944.805 239.693 945.936 239.693C947.066 239.693 947.914 240.202 948.479 241.22C954.471 254.221 963.064 264.339 974.256 271.575C975.048 272.253 975.443 273.101 975.443 274.119C975.443 275.023 974.991 275.702 974.087 276.154C966.625 278.302 963.007 288.816 963.233 307.696V367.39C963.233 379.034 965.381 386.157 969.677 388.757C974.426 391.923 978.439 390.679 981.718 385.026C982.961 382.878 984.375 382.426 985.957 383.67C987.653 384.8 987.653 386.722 985.957 389.435C982.566 394.636 979.344 399.95 976.291 405.376C973.352 410.803 970.356 416.117 967.303 421.317C965.381 424.596 962.725 425.218 959.333 423.183C942.488 415.156 932.595 404.981 929.656 392.658C929.43 391.753 928.751 391.131 927.621 390.792C926.49 390.453 925.699 390.623 925.247 391.301C918.802 396.501 912.358 401.985 905.914 407.75C899.47 413.403 895.061 418.604 892.687 423.352C890.765 426.065 888.673 426.009 886.412 423.183C880.194 415.947 874.089 410.407 868.097 406.563C862.218 402.719 854.361 399.61 844.525 397.236C842.377 396.445 841.359 395.484 841.472 394.353C841.585 393.223 842.32 392.375 843.677 391.81C846.503 390.792 849.047 388.927 851.308 386.213C853.682 383.387 854.869 378.752 854.869 372.308V300.574C854.869 289.042 852.721 281.976 848.425 279.376C843.338 276.323 839.268 277.567 836.215 283.107C834.972 285.255 833.559 285.707 831.976 284.463C830.393 283.22 830.449 281.241 832.145 278.528C835.424 273.44 838.533 268.183 841.472 262.757C844.525 257.33 847.634 251.903 850.799 246.477C852.721 243.085 855.265 242.463 858.431 244.611H858.6C879.063 255.352 889.295 270.049 889.295 288.703L888.956 375.53C888.956 378.808 889.804 381.013 891.499 382.143L906.084 394.184C907.214 395.201 908.514 395.314 909.984 394.523C919.142 387.287 925.077 382.652 927.79 380.617C928.469 380.165 928.808 379.43 928.808 378.413Z" fill="#FCFCFC"/>
<path d="M753.458 425.05C753.232 422.336 751.762 420.301 749.049 418.945C746.449 417.588 744.244 416.231 742.435 414.875C729.434 406.056 720.22 395.316 714.793 382.654C709.479 369.878 706.483 356.368 705.805 342.123C704.448 309.902 713.154 285.369 731.921 268.524C738.591 262.532 746.279 257.671 754.984 253.94C763.69 250.096 772.621 246.987 781.779 244.613C784.605 244.048 786.696 245.461 788.053 248.852L812.473 306.172C813.604 309.224 813.208 311.146 811.286 311.937H810.947L741.418 338.901C740.061 339.58 739.496 340.654 739.722 342.123C745.262 367.222 754.532 383.332 767.534 390.455C780.535 397.464 793.48 398.481 806.368 393.507C808.629 392.49 810.042 392.659 810.608 394.016C811.286 395.372 810.89 396.39 809.421 397.068C800.263 401.704 791.501 406.452 783.135 411.313C774.882 416.175 767.477 421.262 760.92 426.576C759.902 427.254 758.376 427.48 756.341 427.254C754.419 427.028 753.458 426.293 753.458 425.05ZM737.687 329.235C737.8 330.139 738.196 330.874 738.874 331.44C739.552 331.892 740.4 331.892 741.418 331.44L777.539 317.873C779.235 317.195 779.744 316.007 779.065 314.312L758.376 263.606C757.358 261.119 755.323 260.78 752.271 262.589C745.714 266.433 741.248 275.194 738.874 288.874C736.5 302.554 736.104 316.007 737.687 329.235Z" fill="#FCFCFC"/>
<path d="M616.435 210.186C632.262 206.003 646.79 206.964 660.018 213.069C668.949 217.365 675.902 223.301 680.876 230.876C685.851 238.45 687.829 246.93 686.812 256.313C685.794 265.697 682.685 272.65 677.485 277.172C672.397 281.694 668.214 285.199 664.935 287.686C661.657 290.173 658.548 292.774 655.608 295.487C649.843 300.914 649.39 305.775 654.252 310.071C669.514 323.299 678.276 334.435 680.537 343.479C682.911 352.523 681.329 360.494 675.789 367.39C668.101 376.887 659.905 385.931 651.199 394.524C642.607 403.003 634.071 411.595 625.592 420.3C621.409 424.37 618.865 424.144 617.961 419.622C616.491 413.404 609.821 407.977 597.95 403.342C586.192 398.594 573.756 394.071 560.642 389.775C558.268 388.871 558.098 387.175 560.133 384.688C563.185 381.522 566.351 378.357 569.63 375.191C572.908 372.026 576.187 368.916 579.465 365.864C584.553 361.116 586.249 356.933 584.553 353.315C582.97 349.584 579.974 345.401 575.565 340.766C564.486 329.234 559.115 318.437 559.455 308.375C559.907 298.313 563.581 289.438 570.478 281.751C576.922 274.628 584.157 268.127 592.184 262.249C600.324 256.257 608.012 249.586 615.248 242.238C616.152 241.446 617.339 241.729 618.809 243.086C633.958 256.539 646.564 263.323 656.626 263.436C666.801 263.549 673.415 260.553 676.467 254.448C679.52 248.23 679.237 241.785 675.619 235.115C672.001 228.332 666.123 222.736 657.983 218.326C645.66 212.221 632.149 211.656 617.452 216.631C614.513 217.761 612.76 217.139 612.195 214.765C611.63 212.391 613.043 210.865 616.435 210.186ZM589.301 362.472C588.171 364.394 588.51 365.864 590.319 366.881C598.346 370.612 606.373 374.287 614.4 377.904C622.427 381.522 630.51 385.027 638.65 388.419C644.303 390.906 649.956 387.684 655.608 378.752C662.618 367.56 653.347 352.863 627.797 334.661C623.84 332.286 618.978 333.417 613.213 338.052L589.301 362.472ZM612.704 327.199C614.06 328.216 615.304 328.16 616.435 327.029L647.977 296.165C648.995 295.035 649.277 294.017 648.825 293.113C648.486 292.095 647.638 291.53 646.281 291.417C639.837 290.739 632.715 288.251 624.914 283.955C612.365 276.833 604.168 272.028 600.324 269.541C596.48 267.053 591.562 269.315 585.57 276.324C577.996 285.255 577.939 293.791 585.401 301.931C592.976 310.071 602.077 318.494 612.704 327.199Z" fill="#FCFCFC"/>
<path d="M482.803 378.413L482.973 307.696C482.973 288.703 479.525 278.189 472.628 276.154C471.837 275.589 471.441 274.91 471.441 274.119C471.441 273.214 471.837 272.423 472.628 271.745C482.69 264.509 491 254.334 497.557 241.22C498.009 240.202 498.801 239.693 499.931 239.693C501.062 239.693 501.91 240.202 502.475 241.22C508.467 254.221 517.059 264.339 528.252 271.575C529.043 272.253 529.439 273.101 529.439 274.119C529.439 275.023 528.987 275.702 528.082 276.154C520.621 278.302 517.003 288.816 517.229 307.696V367.39C517.229 379.034 519.377 386.157 523.673 388.757C528.421 391.923 532.435 390.679 535.713 385.026C536.957 382.878 538.37 382.426 539.953 383.67C541.649 384.8 541.649 386.722 539.953 389.435C536.561 394.636 533.339 399.95 530.287 405.376C527.347 410.803 524.351 416.117 521.299 421.317C519.377 424.596 516.72 425.218 513.328 423.183C496.483 415.156 486.591 404.981 483.651 392.658C483.425 391.753 482.747 391.131 481.616 390.792C480.486 390.453 479.694 390.623 479.242 391.301C472.798 396.501 466.354 401.985 459.91 407.75C453.466 413.403 449.056 418.604 446.682 423.352C444.76 426.065 442.669 426.009 440.408 423.183C434.19 415.947 428.085 410.407 422.093 406.563C416.214 402.719 408.356 399.61 398.521 397.236C396.372 396.445 395.355 395.484 395.468 394.353C395.581 393.223 396.316 392.375 397.673 391.81C400.499 390.792 403.043 388.927 405.304 386.213C407.678 383.387 408.865 378.752 408.865 372.308V300.574C408.865 289.042 406.717 281.976 402.421 279.376C397.333 276.323 393.263 277.567 390.211 283.107C388.967 285.255 387.554 285.707 385.971 284.463C384.389 283.22 384.445 281.241 386.141 278.528C389.42 273.44 392.529 268.183 395.468 262.757C398.521 257.33 401.63 251.903 404.795 246.477C406.717 243.085 409.261 242.463 412.426 244.611H412.596C433.059 255.352 443.291 270.049 443.291 288.703L442.951 375.53C442.951 378.808 443.799 381.013 445.495 382.143L460.079 394.184C461.21 395.201 462.51 395.314 463.98 394.523C473.137 387.287 479.073 382.652 481.786 380.617C482.464 380.165 482.803 379.43 482.803 378.413Z" fill="#FCFCFC"/>
<path d="M86.9963 326.52C87.2224 320.189 85.6961 316.289 82.4175 314.819C79.252 313.236 72.4686 313.632 62.0675 316.006C46.0136 319.85 31.6556 316.289 18.9933 305.322C6.33111 294.356 0 278.02 0 256.313C0.113056 234.719 7.97042 216.065 23.5721 200.35C39.1738 184.636 57.8279 176.778 79.5346 176.778C89.3704 176.778 100.054 179.209 111.586 184.07C123.118 188.932 132.953 196.167 141.093 205.777C141.772 206.682 142.507 207.077 143.298 206.964C144.089 206.851 144.768 206.342 145.333 205.438C150.307 197.298 156.695 190.458 164.496 184.918C172.41 179.379 182.867 176.778 195.869 177.117C212.714 177.909 227.807 188.31 241.148 208.321C241.826 209.338 242.674 209.847 243.691 209.847C244.709 209.847 245.5 209.282 246.065 208.151C250.814 199.333 256.806 192.097 264.041 186.445C271.277 180.792 280.321 177.965 291.175 177.965C305.08 178.192 316.556 182.431 325.6 190.684C334.644 198.937 341.202 212.787 345.272 232.232C347.759 245.686 352.959 252.808 360.873 253.6C363.134 253.713 364.322 254.674 364.435 256.482C364.661 258.291 363.304 259.648 360.365 260.552C338.432 268.014 323.339 279.998 315.086 296.504C306.833 312.897 307.172 333.812 316.103 359.25C320.06 370.782 325.713 378.922 333.062 383.67C340.523 388.305 348.663 387.91 357.482 382.483C360.76 380.561 363.191 380.618 364.774 382.653C366.47 384.574 366.187 386.496 363.926 388.418C356.238 394.523 348.607 400.628 341.032 406.733C333.57 412.725 326.052 418.717 318.478 424.709C317.234 425.614 316.047 425.614 314.916 424.709C290.835 405.377 276.308 383.896 271.333 360.268C266.472 336.639 282.074 308.658 318.138 276.324C318.93 275.532 319.269 274.741 319.156 273.95C319.156 273.158 318.647 272.48 317.63 271.915C309.716 266.601 303.893 252.978 300.163 231.045C296.206 209.338 287.387 198.372 273.708 198.146C263.985 197.92 255.732 205.042 248.948 219.513C248.496 220.305 248.496 221.096 248.948 221.887C253.358 231.271 256.523 241.729 258.445 253.26C260.48 264.792 260.593 277.002 258.784 289.89C254.262 321.094 247.535 344.666 238.604 360.607C229.785 376.434 219.271 392.262 207.061 408.09C190.894 428.327 175.632 430.532 161.274 414.704C157.204 410.182 152.908 407.242 148.385 405.885C143.976 404.529 138.889 406.112 133.123 410.634C130.975 412.443 129.109 412.669 127.527 411.312C126.057 409.842 126.17 408.033 127.866 405.885C142.337 385.762 153.812 374.286 162.291 371.46C170.883 368.634 179.25 371.008 187.39 378.583C194.06 384.801 200.165 388.136 205.705 388.588C211.357 389.04 215.767 384.857 218.932 376.039C225.037 359.08 227.185 335.395 225.376 304.983C223.68 274.458 217.519 251.056 206.892 234.776C196.378 218.496 186.316 208.943 176.706 206.116C167.209 203.177 158.56 205.664 150.76 213.578C149.629 214.708 149.573 215.896 150.59 217.139C164.044 235.793 171.279 257.387 172.297 281.92C172.975 302.044 169.075 321.376 160.595 339.917C152.116 358.346 141.206 376.039 127.866 392.997C113.282 411.538 99.4324 422.165 86.3179 424.879C73.3165 427.592 61.3892 420.978 50.5358 405.038C41.0392 390.793 31.3729 389.04 21.5371 399.78C19.1629 401.815 17.0149 401.872 15.0929 399.95C13.284 398.028 13.5667 395.823 15.9408 393.336C46.805 361.907 71.0554 357.78 88.6921 380.957C91.5185 384.801 94.1753 388.362 96.6625 391.64C99.2628 394.919 103.107 396.445 108.194 396.219C114.751 395.993 121.648 388.814 128.883 374.682C136.119 360.55 139.737 342.744 139.737 321.263C139.511 293.112 132.162 268.466 117.691 247.325C103.22 226.071 86.6571 214.426 68.0029 212.391C49.3488 210.469 34.6515 213.974 23.9113 222.905C13.171 231.836 7.97042 242.407 8.30958 254.617C8.64875 267.053 11.9274 277.002 18.1454 284.464C24.4765 291.925 36.1213 293.452 53.0796 289.042C85.7526 280.676 99.9411 292.717 95.645 325.164C95.1928 328.555 93.61 330.308 90.8967 330.421C88.2964 330.421 86.9963 329.121 86.9963 326.52Z" fill="#FCFCFC"/>
</mask>
<g mask="url(#mask0_261_164)">
<rect x="-23" y="-246" width="1275" height="968" fill="url(#paint0_linear_261_164)"/>
</g>
<defs>
<linearGradient id="paint0_linear_261_164" x1="-637" y1="184.5" x2="1867" y2="184.5" gradientUnits="userSpaceOnUse">
<stop stop-color="#DEFF9C"/>
<stop offset="0.5" stop-color="#232818" stop-opacity="0.2"/>
<stop offset="1" stop-color="#DEFF9C"/>
</linearGradient>
</defs>
</svg>
