<svg width="121" height="82" viewBox="0 0 121 82" fill="none" xmlns="http://www.w3.org/2000/svg">
<g clip-path="url(#clip0_111_437)">
<path d="M59.9112 0.161779C60.0618 0.162853 60.2124 0.163929 60.3673 0.165271C61.4791 0.190771 62.3538 0.324442 63.3493 0.845447C63.4646 0.897521 63.5796 0.949596 63.6983 1.00301C65.8041 2.02543 67.2065 3.95592 68.0094 6.10275C68.5864 7.99351 68.4237 10.2482 67.5304 11.9959C67.4726 12.0952 67.4146 12.1946 67.3552 12.2968C67.157 13.1155 67.7724 14.0995 68.1052 14.8428C68.1501 14.9451 68.1953 15.0471 68.2418 15.1523C68.3392 15.3719 68.4366 15.5912 68.5342 15.8105C68.7426 16.2791 68.9498 16.7481 69.1574 17.217C69.2652 17.4604 69.373 17.7042 69.4808 17.9476C70.1302 19.4132 70.7727 20.8815 71.4135 22.3508C71.5023 22.5545 71.5911 22.7583 71.6802 22.962C71.7224 23.0594 71.765 23.1569 71.8088 23.257C72.0632 23.84 72.3208 24.4211 72.5807 25.0015C72.6396 25.1335 72.6982 25.2656 72.7586 25.4017C72.8621 25.6344 72.9667 25.8666 73.0726 26.098C73.3072 26.6284 73.4856 27.0562 73.3957 27.6492C73.1047 27.9412 73.1047 27.9412 72.7832 28.1409C72.7025 28.1409 72.6214 28.1409 72.5382 28.1409C73.1916 29.7646 73.8889 31.3668 74.598 32.9669C74.7558 33.3236 74.9136 33.6803 75.0712 34.0371C75.1683 34.2569 75.2656 34.4765 75.363 34.696C75.4068 34.7951 75.4504 34.8941 75.4956 34.9961C75.5363 35.0874 75.5772 35.1787 75.6189 35.2729C75.7048 35.4739 75.7783 35.6803 75.8482 35.8876C75.9455 36.1479 75.9455 36.1479 76.1801 36.24C76.2657 36.2542 76.351 36.2684 76.439 36.2832C76.5372 36.3009 76.6353 36.3186 76.7364 36.3369C76.8445 36.3533 76.9523 36.3696 77.0635 36.3866C77.1772 36.4056 77.2909 36.4249 77.4078 36.4448C77.7854 36.5076 78.1634 36.5661 78.5416 36.6246C78.8048 36.6681 79.0682 36.7119 79.3317 36.7559C88.3845 38.2226 99.511 37.6173 107.22 32.0902C108.116 31.4339 108.972 30.7446 109.783 29.9852C106.083 29.9168 102.802 30.7111 100.041 33.3284C99.8771 33.4873 99.7172 33.65 99.5572 33.8127C99.2467 34.0427 99.2467 34.0427 98.8712 34.1152C98.3878 34.0177 98.3012 33.8274 98.0217 33.428C97.901 33.1907 97.7895 32.9486 97.6857 32.7035C97.624 32.5599 97.5624 32.4161 97.499 32.2679C97.4332 32.1114 97.3674 31.9552 97.3019 31.7987C97.2329 31.6371 97.1639 31.4752 97.0949 31.3137C96.8716 30.7894 96.6501 30.2644 96.4289 29.7394C96.3489 29.5499 96.2692 29.3606 96.1892 29.1711C96.1494 29.0764 96.1093 28.9816 96.0681 28.8839C95.9881 28.6944 95.9081 28.5049 95.8282 28.3154C95.6361 27.8599 95.4443 27.4044 95.2536 26.9486C95.1841 26.783 95.1143 26.6174 95.0447 26.4517C94.9838 26.306 94.9228 26.16 94.8597 26.0099C94.7441 25.6977 94.7441 25.6978 94.5911 25.559C94.5641 24.0118 95.5751 22.5076 96.5514 21.3786C96.6423 21.257 96.7333 21.1351 96.8272 21.0098C98.639 18.8664 101.573 17.3364 104.27 16.7064C104.362 16.6836 104.454 16.6611 104.548 16.6375C105.394 16.445 106.215 16.4195 107.08 16.4222C107.215 16.42 107.35 16.4182 107.49 16.416C109.612 16.4149 111.635 17.2513 113.214 18.6737C113.787 19.265 114.2 19.916 114.599 20.6332C114.686 20.7865 114.686 20.7865 114.775 20.9427C114.95 21.2514 115.123 21.5608 115.296 21.8703C115.395 22.0453 115.495 22.2204 115.594 22.3954C115.823 22.7985 116.048 23.2033 116.272 23.6089C116.393 23.8258 116.515 24.0416 116.638 24.2574C117.46 25.7407 118.09 27.3083 118.727 28.8785C118.767 28.9765 118.807 29.0745 118.849 29.1754C120.282 32.6904 120.822 36.5366 119.355 40.1289C118.269 42.4929 116.613 44.5095 114.561 46.0918C114.447 46.1828 114.332 46.2738 114.214 46.3678C111.712 48.3128 108.765 49.7204 105.758 50.6792C105.512 50.7586 105.27 50.8429 105.026 50.9304C103.08 51.6189 101.083 52.0129 99.0477 52.3318C98.964 52.345 98.8805 52.3581 98.7941 52.3716C97.2971 52.6048 95.8327 52.75 94.3175 52.7565C94.1771 52.7573 94.0369 52.7581 93.8925 52.7589C93.4413 52.761 92.99 52.7618 92.5391 52.7621C92.3853 52.7624 92.2315 52.7626 92.0731 52.7626C89.8697 52.7629 87.7102 52.6982 85.5239 52.4105C85.0555 52.3493 84.5864 52.2988 84.1167 52.2486C83.7281 52.207 83.34 52.1619 82.9522 52.1166C82.984 52.1855 83.0158 52.2543 83.0484 52.3251C83.7503 53.8441 84.4369 55.3693 85.1037 56.9041C85.1387 56.9846 85.1738 57.0654 85.2099 57.1484C85.3581 57.4893 85.5062 57.8304 85.6541 58.1713C86.0957 59.1884 86.5389 60.2044 86.9829 61.2201C87.0776 61.4367 87.1723 61.6533 87.267 61.8702C87.8399 63.1814 88.4192 64.4894 89.0077 65.7939C89.5691 67.0397 90.1054 68.2822 90.548 69.5757C90.585 69.6828 90.6216 69.7899 90.6596 69.9C90.7179 70.0728 90.7751 70.2463 90.8305 70.4199C90.8845 70.5866 90.9404 70.7528 90.9985 70.9178C91.9814 73.7339 92.2754 76.6441 92.3016 79.6042C92.3029 79.6896 92.304 79.7752 92.3053 79.8632C92.308 80.1075 92.308 80.3518 92.3077 80.596C92.3083 80.8092 92.3083 80.8092 92.3088 81.0266C92.2633 81.3793 92.2633 81.3793 92.0972 81.6077C91.8958 81.7481 91.8958 81.7481 91.5666 81.8249C90.9353 81.7054 90.6229 81.3387 90.1805 80.8875C90.0944 80.8003 90.0944 80.8003 90.0067 80.7115C88.3815 79.0523 87.0102 77.1933 85.77 75.2316C85.7245 75.1605 85.6793 75.0894 85.6325 75.0161C84.366 73.0169 83.3828 70.873 82.4656 68.6948C81.9018 67.3556 81.3185 66.0253 80.7314 64.6961C80.5297 64.2387 80.3277 63.7813 80.1261 63.3239C80.0755 63.2099 80.0252 63.0955 79.9733 62.978C79.4502 61.7921 78.9305 60.6046 78.4113 59.4168C78.3212 59.2107 78.231 59.0045 78.1406 58.7981C77.7657 57.9399 77.3904 57.0815 77.0154 56.2234C76.7634 55.6466 76.5115 55.0697 76.2593 54.4929C76.1183 54.1705 75.9776 53.8479 75.8367 53.5255C75.7497 53.3263 75.6628 53.1274 75.5756 52.9283C75.5347 52.8346 75.494 52.7412 75.4518 52.6445C75.1747 52.0119 74.8904 51.383 74.5972 50.7575C74.4985 50.5184 74.4985 50.5184 74.4985 50.2722C74.353 50.2612 74.2075 50.25 74.0577 50.2382C73.3141 50.1549 72.6021 49.9622 71.8786 49.7759C70.1521 49.3336 68.4149 48.9634 66.6651 48.6279C66.5584 48.6072 66.4519 48.5863 66.342 48.5651C61.1007 47.5491 56.2619 48.1128 51.0978 49.2887C50.9077 49.3317 50.7175 49.3749 50.5273 49.4178C49.7741 49.5886 49.0212 49.7601 48.2688 49.9338C48.1418 49.963 48.1418 49.963 48.012 49.9928C47.8462 50.0315 47.6806 50.0712 47.5153 50.1114C47.1294 50.2051 46.7536 50.2792 46.3591 50.3273C45.5633 50.4354 45.5633 50.4354 44.9757 50.9444C44.7641 51.3639 44.5999 51.7899 44.4437 52.232C44.3795 52.3976 44.3145 52.5632 44.249 52.7283C44.1099 53.0802 43.9732 53.4329 43.8382 53.7861C43.5228 54.5987 43.1628 55.391 42.8052 56.1853C42.5958 56.6515 42.3887 57.1188 42.1817 57.5862C42.1397 57.6812 42.0975 57.7765 42.0539 57.8745C41.5138 59.0931 40.9808 60.3149 40.4472 61.5365C39.9109 62.7648 39.3733 63.9923 38.8317 65.2182C38.7798 65.3363 38.7276 65.4544 38.6739 65.576C38.4235 66.1429 38.1729 66.7101 37.9217 67.2767C37.4922 68.2489 37.0706 69.2228 36.6724 70.2084C36.3728 70.9482 36.0502 71.6638 35.6683 72.3654C35.6161 72.4626 35.564 72.5598 35.5105 72.6602C35.3575 72.9442 35.2029 73.2273 35.048 73.5103C35.0055 73.5892 34.9632 73.6678 34.9194 73.7489C33.6992 76.0079 32.169 78.0879 30.4275 79.9687C30.1715 80.2465 29.9249 80.5303 29.6805 80.8183C28.9024 81.7065 28.9024 81.7065 28.3019 81.8174C27.9422 81.7481 27.9422 81.7481 27.6784 81.5205C27.3441 80.9487 27.3791 80.4403 27.3909 79.7886C27.3922 79.6541 27.3938 79.5197 27.3952 79.3812C27.4974 74.9766 28.5948 70.7976 30.3804 66.804C30.6013 66.3085 30.8196 65.8119 31.0381 65.3154C31.1291 65.1087 31.2197 64.9023 31.3107 64.6958C31.5059 64.2524 31.7012 63.8087 31.8962 63.365C32.0002 63.1293 32.104 62.8934 32.2078 62.6575C32.2597 62.5394 32.3116 62.4212 32.3653 62.2994C32.6839 61.5755 33.0032 60.8515 33.3231 60.1281C33.5318 59.656 33.7401 59.1838 33.9485 58.7117C34.0469 58.4889 34.1453 58.2661 34.244 58.0436C34.7586 56.8813 35.2655 55.7174 35.7408 54.5385C36.0556 53.7596 36.4041 52.9986 36.7633 52.2395C36.6751 52.2502 36.5871 52.2607 36.4961 52.2714C36.0874 52.32 35.6787 52.3683 35.27 52.4164C35.1315 52.4328 34.9929 52.4494 34.8501 52.4666C34.6423 52.491 34.6423 52.491 34.4302 52.5157C34.3053 52.5305 34.1801 52.5455 34.0512 52.5605C32.8452 52.6824 31.6485 52.7517 30.4366 52.7565C30.2938 52.757 30.1509 52.7578 30.0038 52.7586C29.7032 52.7597 29.4025 52.7605 29.1019 52.761C28.6528 52.7621 28.2038 52.7659 27.7547 52.7699C25.2806 52.7809 22.8562 52.5667 20.4303 52.0707C20.2989 52.0444 20.1676 52.0181 20.0323 51.9909C14.9546 50.9578 9.87912 49.1419 5.88928 45.723C5.73869 45.5947 5.73869 45.5947 5.58516 45.4637C3.1568 43.3327 1.09086 40.4207 0.74342 37.1164C0.346228 30.8874 3.64948 23.7343 7.48179 18.9196C8.75227 17.5047 10.7409 16.565 12.622 16.4356C16.9251 16.2531 20.4632 17.7181 23.6359 20.5881C24.7959 21.7101 26.149 23.355 26.2563 25.0337C26.2485 25.559 26.0972 25.9887 25.8808 26.4625C25.8444 26.5462 25.808 26.6302 25.7703 26.7167C25.651 26.9897 25.5293 27.2618 25.4076 27.5338C25.2814 27.8204 25.1559 28.1074 25.0305 28.3943C24.9446 28.5903 24.8585 28.7859 24.7724 28.9819C24.4816 29.6441 24.2019 30.3098 23.9298 30.98C23.8937 31.068 23.8579 31.1561 23.8207 31.2466C23.6827 31.585 23.5447 31.9232 23.4094 32.2625C23.3168 32.4939 23.2227 32.7247 23.1282 32.9553C23.0756 33.0858 23.0231 33.216 22.9691 33.3504C22.7848 33.6956 22.642 33.8481 22.3063 34.0427C21.9447 34.1007 21.9447 34.1007 21.5713 34.0427C21.2747 33.8041 21.2747 33.8041 20.9893 33.4817C20.0553 32.4883 18.9814 31.8296 17.7732 31.2149C17.6662 31.1601 17.5592 31.1056 17.4488 31.0495C15.8073 30.2574 14.1862 29.9613 12.3826 29.9775C12.2642 29.978 12.1459 29.9788 12.024 29.9793C11.7351 29.9807 11.4462 29.9826 11.1574 29.9852C15.3711 34.7113 22.9119 36.5291 28.9222 37.1164C29.0647 37.1317 29.0647 37.1317 29.2097 37.1472C30.098 37.2369 30.9793 37.2629 31.8718 37.2688C32.0224 37.2699 32.1733 37.271 32.3287 37.2723C32.8139 37.2753 33.2993 37.2769 33.7848 37.278C33.9083 37.2782 33.9083 37.2782 34.0343 37.2785C36.4111 37.2833 38.7731 37.275 41.1148 36.8149C41.4521 36.7618 41.7532 36.7387 42.0919 36.7309C43.1058 36.6917 43.1058 36.6917 43.9406 36.1758C44.383 35.5193 44.6355 34.7755 44.903 34.0349C44.9934 33.8054 45.0843 33.5762 45.1763 33.3475C45.3577 32.8925 45.5345 32.4362 45.7072 31.978C46.0338 31.1156 46.3989 30.2708 46.7638 29.4242C46.9435 28.9969 47.1219 28.5691 47.2998 28.1409C47.2233 28.1235 47.1468 28.106 47.0681 28.088C46.7432 28 46.6297 27.9316 46.4423 27.6492C46.3909 26.9899 46.5006 26.5562 46.7785 25.9613C46.8135 25.8851 46.8485 25.8089 46.8847 25.7302C46.9598 25.5673 47.0355 25.4049 47.112 25.2428C47.2738 24.8992 47.4319 24.5543 47.5905 24.2091C47.6699 24.0365 47.7496 23.8636 47.8294 23.6913C48.13 23.0406 48.4164 22.3854 48.6933 21.7243C49.1504 20.6404 49.6254 19.5649 50.1026 18.4898C50.2315 18.1991 50.3602 17.9084 50.4888 17.6177C50.8627 16.7717 51.2383 15.9267 51.6231 15.0855C51.6815 14.9561 51.7398 14.827 51.7999 14.6938C51.9051 14.4606 52.0115 14.2284 52.1201 13.997C52.3991 13.3727 52.5125 12.9657 52.3228 12.2802C52.2472 12.1382 52.1712 11.9962 52.0931 11.8499C51.181 10.1121 51.2527 7.82869 51.7933 5.98786C52.5288 3.73313 54.124 2.12153 56.119 0.95121C57.3433 0.340016 58.5554 0.1446 59.9112 0.161779Z" fill="#DEFF9C"/>
<path d="M114.561 24.2067C114.899 24.6085 115.159 24.9942 115.387 25.4672C115.476 25.6535 115.476 25.6535 115.568 25.8435C115.63 25.9753 115.692 26.1071 115.756 26.2429C115.853 26.448 115.853 26.448 115.952 26.6571C116.813 28.4939 117.579 30.3618 118.115 32.3213C118.154 32.4612 118.193 32.601 118.233 32.7449C118.473 33.7426 118.519 34.71 118.528 35.7332C118.53 35.8612 118.531 35.9895 118.533 36.1213C118.528 36.9983 118.384 37.7595 118.115 38.5919C118.071 38.7309 118.028 38.87 117.983 39.013C116.5 43.089 112.752 45.8132 108.972 47.5961C107.675 48.185 106.357 48.7181 105.005 49.1658C104.829 49.2254 104.829 49.2254 104.65 49.2858C102.201 50.0792 99.7139 50.567 97.1641 50.8872C97.0566 50.9017 96.9494 50.9164 96.8386 50.9315C93.1323 51.4264 89.2189 51.2643 85.5249 50.7642C85.4358 50.7522 85.3465 50.7404 85.2548 50.728C81.3109 50.1968 77.4385 49.3894 73.5784 48.4284C71.9971 48.0349 70.4102 47.6774 68.8169 47.337C68.7091 47.314 68.6016 47.2909 68.4908 47.2673C63.7315 46.2513 59.4453 45.9316 54.6509 46.8297C54.5634 46.8461 54.4759 46.8625 54.3855 46.8794C52.662 47.2028 50.9453 47.5582 49.2338 47.941C49.1426 47.9614 49.0514 47.9818 48.9575 48.0027C48.5215 48.1002 48.0858 48.1987 47.6504 48.2996C47.4201 48.3519 47.4201 48.3519 47.185 48.4051C47.0499 48.4362 46.9148 48.4676 46.7757 48.4996C46.4422 48.5511 46.4422 48.5511 46.0747 48.4282C47.1023 45.9915 47.1023 45.9915 47.5907 44.9548C48.2169 43.6256 48.7951 42.2749 49.3828 40.928C49.5026 40.6531 49.623 40.378 49.7431 40.1028C49.8305 39.902 49.8305 39.902 49.9199 39.6972C50.0357 39.4337 50.1531 39.1709 50.2719 38.9086C50.6217 38.1391 50.6217 38.1391 50.8662 37.3322C51.0023 36.8396 51.0906 36.6064 51.4653 36.2558C52.4702 35.8135 53.5748 35.6827 54.6509 35.5182C54.8761 35.4769 55.101 35.4353 55.3262 35.3934C59.1224 34.7561 63.384 34.8614 67.1476 35.6411C67.3188 35.6715 67.4905 35.7013 67.6619 35.73C68.6294 35.9023 69.5639 36.168 70.5059 36.4434C72.9961 37.1701 75.4953 37.7805 78.0515 38.2231C78.1569 38.2413 78.2623 38.2599 78.3712 38.2786C78.9698 38.3806 79.5692 38.4695 80.1712 38.5481C80.3991 38.5785 80.6265 38.6101 80.8538 38.6429C90.0663 39.9549 101.301 38.6703 108.941 32.9365C110.185 31.9766 111.294 31.0133 112.234 29.7394C112.309 29.6427 112.384 29.5461 112.461 29.4465C113.629 27.8789 114.197 26.1074 114.561 24.2067Z" fill="#212121"/>
<path d="M6.13385 24.2067C6.2149 24.2067 6.29567 24.2067 6.37912 24.2067C6.38822 24.3006 6.39731 24.3946 6.40667 24.4915C6.79397 27.658 8.80347 30.4466 11.2399 32.4008C13.692 34.32 16.4376 35.7217 19.3659 36.7476C19.5124 36.8004 19.6587 36.8533 19.8099 36.9075C22.3524 37.7958 25.01 38.3184 27.674 38.6764C27.7818 38.6912 27.8899 38.706 28.0011 38.721C29.9868 38.9736 31.9773 38.99 33.9759 38.9916C34.1109 38.9918 34.2463 38.9918 34.3854 38.9921C36.4703 38.9924 38.4972 38.9041 40.561 38.5919C40.7493 38.5653 40.9373 38.539 41.1253 38.5127C41.4046 38.473 41.6835 38.4316 41.962 38.3868C42.2747 38.3463 42.574 38.3385 42.889 38.346C42.644 39.1424 42.337 39.8894 41.9852 40.6437C41.5249 41.6457 41.0785 42.6528 40.6436 43.6664C40.5452 43.8953 40.4465 44.1243 40.3478 44.353C40.3141 44.4303 40.2807 44.5079 40.2462 44.5879C40.1766 44.7484 40.1073 44.9092 40.0378 45.0697C39.8409 45.5257 39.6454 45.9823 39.451 46.4394C39.233 46.9519 39.0129 47.4632 38.7917 47.974C38.7055 48.1734 38.6205 48.3729 38.5362 48.5731C38.418 48.8528 38.2974 49.1314 38.1759 49.4098C38.1412 49.4935 38.1067 49.5776 38.0708 49.664C37.909 50.0282 37.7972 50.2411 37.4479 50.4432C37.1384 50.5165 36.8381 50.5758 36.5224 50.6145C36.4058 50.629 36.2892 50.6437 36.1688 50.6588C36.0442 50.6733 35.9193 50.6877 35.7906 50.7028C35.6585 50.7183 35.5267 50.7339 35.3905 50.75C35.1185 50.7817 34.8465 50.8126 34.5745 50.8432C34.2407 50.8815 33.9074 50.9229 33.5739 50.9656C24.8257 52.0003 14.5043 50.3925 7.42814 44.8472C7.24038 44.6901 7.05395 44.5312 6.86913 44.3707C6.76615 44.2824 6.66344 44.1941 6.55753 44.1031C4.29821 42.1171 2.5091 39.3759 2.28041 36.2953C2.15256 33.0385 3.4177 29.9208 4.78634 27.0345C4.87568 26.845 4.87568 26.845 4.96688 26.6517C5.35311 25.8352 5.74201 25.0202 6.13385 24.2067Z" fill="#212121"/>
<path d="M48.7696 29.0015C49.2807 29.0704 49.699 29.1878 50.1661 29.4054C50.2853 29.4605 50.4046 29.5158 50.5274 29.5724C50.6499 29.6301 50.7721 29.6875 50.8984 29.7469C51.0236 29.8051 51.1487 29.8631 51.2779 29.923C51.5858 30.066 51.8931 30.2096 52.2002 30.354C51.9097 31.2994 51.5221 32.1831 51.1129 33.082C50.9685 33.4014 50.8248 33.7208 50.6812 34.0403C50.6443 34.1219 50.6076 34.2035 50.5699 34.2875C50.185 35.1445 49.8138 36.0073 49.4436 36.8705C48.9226 38.0843 48.3919 39.2927 47.8508 40.4977C47.3282 41.6615 46.8149 42.8292 46.3115 44.0016C45.6439 45.5566 44.9614 47.1043 44.2748 48.651C43.4135 50.5914 42.5576 52.5342 41.7081 54.4797C41.1534 55.7507 40.596 57.0203 40.0327 58.2873C39.5456 59.3832 39.0669 60.4822 38.5932 61.584C37.9173 63.1551 37.2307 64.7216 36.5409 66.2868C36.4922 66.3976 36.4432 66.5085 36.3932 66.6225C36.1579 67.1567 35.9222 67.6906 35.6863 68.2245C35.5068 68.6303 35.3282 69.0367 35.1503 69.4434C34.7173 70.4309 34.2794 71.4112 33.7766 72.3654C33.7199 72.4733 33.6632 72.5812 33.6046 72.6924C32.4408 74.8695 30.928 76.9538 29.2895 78.7973C29.2491 78.7973 29.2087 78.7973 29.167 78.7973C29.2352 76.2841 29.6824 73.828 30.3923 71.42C30.4343 71.2729 30.4765 71.1256 30.5199 70.9739C30.9537 69.5671 31.5761 68.2377 32.1766 66.8964C32.4424 66.3002 32.7037 65.7016 32.9651 65.1036C33.3839 64.1472 33.8041 63.1916 34.2251 62.236C34.2722 62.1297 34.319 62.0232 34.3674 61.9134C34.4153 61.8047 34.4632 61.696 34.5126 61.5838C35.3902 59.5921 36.2662 57.5996 37.1381 55.6055C37.1836 55.5019 37.2288 55.3985 37.2753 55.292C37.5947 54.5613 37.9141 53.831 38.2332 53.1003C38.5982 52.2653 38.9631 51.4302 39.3282 50.5951C39.3736 50.4915 39.4188 50.3879 39.4654 50.2811C40.2239 48.5471 40.986 46.815 41.749 45.0831C42.6895 42.9492 43.6248 40.8131 44.5585 38.6762C44.8867 37.9254 45.2152 37.1749 45.5439 36.4244C46.6264 33.9533 47.7037 31.4801 48.7696 29.0015Z" fill="#212121"/>
<path d="M107.072 18.0206C107.168 18.0198 107.264 18.0193 107.364 18.0185C108.927 18.0378 110.372 18.613 111.621 19.5343C111.734 19.6054 111.848 19.6763 111.965 19.7495C112.804 20.6149 113.016 22.0864 113.007 23.2538C113.006 23.3901 113.006 23.3901 113.005 23.5294C112.977 24.8643 112.576 26.0878 111.988 27.2803C111.961 27.3665 111.933 27.4529 111.905 27.5418C111.767 27.8754 111.663 28.0419 111.376 28.2638C110.677 28.3857 109.991 28.3452 109.285 28.31C108.906 28.2961 108.527 28.2848 108.148 28.2746C108.056 28.2719 107.964 28.2692 107.869 28.2663C104.66 28.1984 101.738 29.8451 99.2465 31.7066C98.8836 31.2755 98.6782 30.7926 98.4628 30.2773C98.4238 30.186 98.385 30.0947 98.3452 30.0005C98.2213 29.7088 98.0983 29.4167 97.9755 29.1247C97.8939 28.9319 97.8124 28.7395 97.7305 28.5468C97.535 28.0859 97.3408 27.6247 97.1472 27.1631C97.0485 26.9282 96.949 26.6938 96.8497 26.4592C96.7944 26.3283 96.7393 26.1973 96.6823 26.0623C96.6114 25.8945 96.6114 25.8945 96.5389 25.723C96.3715 25.2871 96.33 25.0374 96.4287 24.5755C97.7428 21.7133 100.607 19.7616 103.458 18.6506C104.655 18.2415 105.809 18.0268 107.072 18.0206Z" fill="#DEFF9C"/>
<path d="M21.0129 20.6093C21.2875 20.8173 21.5526 21.0337 21.8163 21.2556C21.9156 21.3359 22.0151 21.4164 22.1172 21.4991C22.9662 22.2177 23.5659 23.0149 24.1441 23.9605C24.2177 24.0781 24.291 24.1954 24.3667 24.3164C24.7307 25.2747 24.1992 26.2193 23.8143 27.0959C23.7574 27.2283 23.7004 27.3606 23.6418 27.497C23.4607 27.917 23.2781 28.3363 23.0951 28.7559C22.9715 29.0415 22.8482 29.3273 22.7249 29.6129C22.4235 30.3114 22.1204 31.0093 21.8163 31.7066C21.436 31.5246 21.115 31.308 20.7791 31.0517C19.8314 30.3339 18.8429 29.8169 17.7551 29.3458C17.5649 29.2634 17.3766 29.1775 17.1886 29.0906C15.7742 28.4657 14.0931 28.211 12.5576 28.2952C12.3856 28.3014 12.2134 28.3076 12.0414 28.3132C11.7742 28.3224 11.508 28.3331 11.2414 28.35C10.6679 28.3846 10.1287 28.3964 9.56461 28.2638C9.17758 27.9063 9.00934 27.5243 8.8296 27.0345C8.76461 26.9011 8.69934 26.7679 8.63248 26.6305C8.5862 26.5178 8.5402 26.405 8.49259 26.2891C8.42171 26.1194 8.42171 26.1194 8.34896 25.9466C7.75598 24.2061 7.7204 22.248 8.38988 20.5271C9.04438 19.257 10.627 18.6144 11.9306 18.1895C15.1347 17.4317 18.4417 18.7679 21.0129 20.6093Z" fill="#DEFF9C"/>
<path d="M64.1653 3.30471C65.6693 4.57945 66.4783 6.27183 66.6974 8.2093C66.7854 9.80828 66.1991 11.5345 65.187 12.7719C65.1319 12.8465 65.0771 12.9212 65.0204 12.9982C64.0404 14.2608 62.3542 15.1466 60.7764 15.3539C58.6618 15.4929 56.8636 14.8965 55.2441 13.5332C53.9091 12.2941 53.1921 10.6036 53.1164 8.7966C53.0864 6.8782 53.654 5.39088 54.9493 3.95778C55.0528 3.8641 55.1564 3.77015 55.2631 3.67352C55.3291 3.60695 55.3949 3.54038 55.4626 3.47167C57.887 1.1356 61.5997 1.36913 64.1653 3.30471Z" fill="#212121"/>
<path d="M76.5811 50.7643C77.089 50.8614 77.5969 50.9589 78.1048 51.0563C78.2477 51.0834 78.3902 51.1108 78.5373 51.139C78.8184 51.1929 79.0993 51.249 79.3799 51.3067C79.7543 51.3843 79.7543 51.3843 80.0905 51.4023C80.4005 51.4324 80.5987 51.4686 80.8691 51.6248C81.1987 52.0817 81.3958 52.579 81.6044 53.1003C81.7253 53.3779 81.8462 53.6554 81.9676 53.9327C82.0893 54.2212 82.2108 54.5098 82.3317 54.7986C82.7409 55.7738 83.1619 56.7406 83.6112 57.6978C83.9533 58.4279 84.2767 59.1656 84.5969 59.9059C84.779 60.327 84.9619 60.7479 85.1449 61.1685C85.1842 61.259 85.2235 61.3494 85.2639 61.4429C85.5876 62.1864 85.9141 62.9288 86.2418 63.6707C86.2926 63.7864 86.3437 63.9018 86.3961 64.0208C86.5986 64.4798 86.8013 64.9388 87.0044 65.3975C88.9874 69.8796 88.9874 69.8796 89.407 71.3049C89.4415 71.4198 89.4758 71.5349 89.5111 71.6533C90.0984 73.6922 90.5804 75.881 90.5556 78.0136C90.5545 78.1394 90.5534 78.2653 90.5523 78.395C90.5507 78.487 90.5494 78.5794 90.5481 78.6744C87.0423 75.212 85.0692 70.5122 83.1637 66.0522C82.7085 64.9879 82.2445 63.9276 81.7804 62.8674C81.7344 62.7624 81.6887 62.6575 81.6413 62.5493C80.9384 60.9425 80.2293 59.3384 79.5181 57.7354C78.0337 54.3893 78.0337 54.3893 77.3289 52.7648C77.2599 52.6059 77.1906 52.447 77.1213 52.2881C77.0283 52.0744 76.9357 51.8605 76.8434 51.6465C76.7667 51.4694 76.7667 51.4694 76.6883 51.2887C76.5811 51.0101 76.5811 51.0101 76.5811 50.7643Z" fill="#212121"/>
<path d="M59.7961 20.0263C59.8769 20.0263 59.9579 20.0263 60.0411 20.0263C60.1471 20.2738 60.2527 20.5215 60.3586 20.7693C60.4549 20.995 60.5515 21.221 60.648 21.4468C60.9377 22.1245 61.2266 22.8026 61.5144 23.4814C62.3513 25.454 62.3513 25.454 63.2433 27.4019C63.6391 28.2453 64.0029 29.104 64.3731 29.9592C64.4571 30.1522 64.4571 30.1522 64.5426 30.3492C64.5929 30.4657 64.6435 30.5822 64.6954 30.7019C64.797 30.9604 64.797 30.9604 64.9417 31.0919C65.1279 31.1008 65.3146 31.1021 65.5007 31.0995C65.6021 31.0984 65.7032 31.0973 65.8075 31.0962C65.8859 31.0946 65.964 31.0933 66.0445 31.0919C67.2698 33.5139 67.2698 33.5139 67.2698 34.0427C67.1871 34.0322 67.1047 34.0217 67.0197 34.0107C66.6335 33.9619 66.247 33.9138 65.8607 33.8661C65.6663 33.8411 65.6663 33.8411 65.4678 33.8159C63.6456 33.5912 61.8292 33.5219 59.9951 33.5201C59.8946 33.5201 59.7937 33.5198 59.6899 33.5195C57.4296 33.5203 55.1879 33.6696 52.9893 34.233C52.6903 34.2886 52.6903 34.2886 52.3228 34.1656C52.7673 33.1513 53.2121 32.1369 53.6703 31.0919C54.0747 31.0919 54.4788 31.0919 54.8955 31.0919C55.5196 29.7608 56.1275 28.4233 56.7256 27.0807C56.7697 26.9819 56.8136 26.8831 56.859 26.7814C57.8586 24.5387 58.8306 22.284 59.7961 20.0263Z" fill="#212121"/>
<path d="M53.6707 14.4933C54.0615 14.6799 54.3929 14.9051 54.7387 15.1668C56.1681 16.2407 57.5621 16.6791 59.3063 16.9523C59.0613 17.9122 58.6831 18.7958 58.2693 19.6924C58.0751 20.113 57.8839 20.5349 57.6921 20.9569C57.6528 21.0433 57.6135 21.1298 57.5731 21.2189C57.177 22.0918 56.7972 22.9717 56.4195 23.8529C55.6449 25.6599 54.8449 27.4548 54.0382 29.2476C53.3452 29.1762 52.784 28.9172 52.1592 28.6284C51.9977 28.5551 51.9977 28.5551 51.8329 28.4802C51.4906 28.3242 51.1487 28.1672 50.8069 28.0102C50.5742 27.9042 50.3415 27.7981 50.1085 27.6921C49.5394 27.4328 48.9707 27.1725 48.4023 26.9115C48.4858 26.3081 48.7268 25.793 48.9721 25.242C49.0397 25.0879 49.0397 25.0879 49.1087 24.9309C49.2556 24.597 49.4032 24.2633 49.5511 23.9299C49.6528 23.6988 49.7547 23.4677 49.8563 23.2366C50.0569 22.7808 50.2578 22.3253 50.4589 21.8698C50.7879 21.1252 51.1156 20.3798 51.4424 19.6341C51.493 19.519 51.5435 19.4038 51.5957 19.2852C52.2946 17.691 52.9822 16.092 53.6707 14.4933Z" fill="#212121"/>
<path d="M65.9223 14.3704C66.3107 14.8272 66.5214 15.3442 66.7574 15.8894C66.825 16.044 66.825 16.044 66.8943 16.2018C67.043 16.5414 67.1909 16.8814 67.3388 17.2213C67.4423 17.4577 67.5456 17.6942 67.6491 17.9307C67.9187 18.5465 68.1875 19.1625 68.4561 19.7788C68.7671 20.492 69.079 21.2049 69.3909 21.9178C69.6284 22.4606 69.8659 23.0036 70.1029 23.5466C70.1895 23.745 70.2759 23.9431 70.3626 24.1412C70.403 24.2343 70.4436 24.3272 70.4854 24.423C70.7592 25.0503 71.0425 25.6725 71.3364 26.2907C71.4354 26.5427 71.4354 26.5427 71.4354 26.9115C70.6951 27.2484 69.9536 27.5831 69.2117 27.9162C68.9592 28.03 68.7069 28.1441 68.455 28.2587C68.0931 28.4233 67.7304 28.5862 67.3675 28.7486C67.1984 28.8262 67.1984 28.8262 67.0259 28.9054C66.9205 28.9521 66.8151 28.9988 66.7065 29.0471C66.614 29.089 66.5215 29.1306 66.4262 29.1738C66.1178 29.2616 65.9697 29.2548 65.677 29.1247C65.4917 28.7891 65.3406 28.4705 65.1943 28.1178C65.1496 28.0145 65.1049 27.9111 65.0592 27.8046C64.9137 27.4666 64.7709 27.1276 64.628 26.7886C64.5285 26.5559 64.4288 26.3232 64.3287 26.0904C64.1313 25.6306 63.9348 25.1703 63.739 24.7094C63.411 23.9396 63.0746 23.1738 62.7367 22.4082C62.634 22.1726 62.5313 21.9366 62.4286 21.7009C62.213 21.2081 61.9913 20.7188 61.7661 20.2303C61.7081 20.102 61.65 19.9737 61.5901 19.8413C61.4804 19.5989 61.3689 19.3574 61.255 19.1169C60.9367 18.4072 60.8302 17.9605 61.0215 17.1982C61.3341 16.7276 61.5096 16.737 62.0477 16.6066C63.5648 16.194 64.8078 15.4889 65.9223 14.3704Z" fill="#212121"/>
<path d="M70.8155 28.9974C71.232 29.2071 71.3416 29.6199 71.5147 30.0314C71.5553 30.1245 71.5963 30.2177 71.6382 30.3135C71.769 30.6133 71.8972 30.914 72.0253 31.2149C72.1101 31.4097 72.1948 31.6049 72.2802 31.7997C72.8336 33.0726 73.3637 34.3551 73.8861 35.6411C73.299 35.5762 72.7552 35.494 72.1884 35.3222C72.0616 35.2841 71.9349 35.2463 71.8043 35.2074C71.6104 35.148 71.6104 35.148 71.4128 35.0876C71.1531 35.0093 70.8936 34.9311 70.6339 34.8533C70.5202 34.8187 70.4065 34.7841 70.2894 34.7484C69.969 34.6477 69.969 34.6477 69.6405 34.6286C69.3527 34.5344 69.3527 34.5344 69.1521 34.2236C69.0671 34.0207 69.0671 34.0207 68.9801 33.8134C68.9167 33.6663 68.8536 33.5193 68.7883 33.3676C68.7236 33.2111 68.6592 33.0543 68.5947 32.8976C68.5289 32.7424 68.4631 32.587 68.3968 32.4321C68.2753 32.1463 68.155 31.8601 68.0357 31.5735C67.8929 31.2253 67.8929 31.2253 67.7399 30.9438C67.6377 30.7228 67.6377 30.7228 67.6377 30.354C67.7006 30.3261 67.7634 30.2985 67.8284 30.2697C68.117 30.1417 68.4056 30.0134 68.6942 29.8854C68.7934 29.8416 68.8924 29.7976 68.9943 29.7525C69.0914 29.7093 69.1887 29.6661 69.2888 29.6218C69.384 29.5794 69.4792 29.5372 69.5774 29.4935C69.8066 29.3872 70.0299 29.2677 70.2517 29.1461C70.578 29.0017 70.578 29.0017 70.8155 28.9974Z" fill="#212121"/>
<g filter="url(#filter0_d_111_437)">
<path d="M23.5159 42.7261C24.4673 43.4519 24.4673 43.4519 24.566 44.1329C24.5871 44.7575 24.5732 45.2232 24.3046 45.7923C23.8553 46.2676 23.4693 46.6636 22.7942 46.7317C21.8519 46.7516 21.1728 46.4926 20.4683 45.8462C20.0529 45.2211 20.1549 44.4856 20.2233 43.756C20.3985 43.2573 20.7537 42.9172 21.2033 42.6493C21.9303 42.4236 22.8298 42.3616 23.5159 42.7261Z" fill="#DEFF9C"/>
</g>
<g filter="url(#filter1_d_111_437)">
<path d="M15.813 40.805C18.4716 41.3644 18.4716 41.3644 18.9985 42.1576C19.0598 42.5111 19.0598 42.5111 18.9985 42.8952C18.7736 43.1473 18.5414 43.3123 18.2633 43.5099C18.3443 43.6318 18.4251 43.7534 18.5085 43.879C18.588 44.7173 18.588 44.7173 18.34 45.1698C17.8142 45.4713 17.3844 45.4538 16.7932 45.3542C16.0842 45.1513 15.3968 44.885 14.7104 44.6166C14.7104 44.4542 14.7104 44.2921 14.7104 44.1249C14.9127 44.1249 15.1146 44.1249 15.323 44.1249C15.3532 43.9778 15.3837 43.8307 15.415 43.679C15.5918 42.8748 15.8274 42.087 16.058 41.2968C15.9772 41.2968 15.8964 41.2968 15.813 41.2968C15.813 41.1346 15.813 40.9722 15.813 40.805Z" fill="#DEFF9C"/>
</g>
<g filter="url(#filter2_d_111_437)">
<path d="M25.8593 43.1411C26.2474 43.1304 26.6352 43.1239 27.0233 43.118C27.1319 43.115 27.2405 43.1118 27.3526 43.1086C28.086 43.1006 28.626 43.1881 29.2899 43.5099C29.5993 43.9756 29.6109 44.3157 29.5349 44.8625C29.3664 45.1083 29.3664 45.1083 29.1674 45.2313C29.0866 45.2313 29.0056 45.2313 28.9224 45.2313C29.0567 45.4522 29.1923 45.6723 29.3281 45.8921C29.4413 46.0763 29.4413 46.0763 29.5566 46.2639C29.7681 46.6083 29.7681 46.6083 30.1474 46.8297C30.1474 46.9921 30.1474 47.1542 30.1474 47.3215C29.7029 47.3215 29.2581 47.3215 28.7999 47.3215C28.7063 47.1516 28.6129 46.9817 28.5166 46.8066C28.4605 46.706 28.4043 46.6053 28.3465 46.5017C28.2256 46.284 28.1063 46.0653 27.9881 45.846C27.83 45.5625 27.83 45.5625 27.4521 45.4772C27.4925 45.8425 27.5331 46.2075 27.5746 46.5839C27.696 46.6244 27.8172 46.6649 27.9421 46.7068C27.9421 46.8689 27.9421 47.0313 27.9421 47.1985C27.6436 47.2018 27.3448 47.2044 27.0463 47.2063C26.9618 47.2074 26.877 47.2082 26.7901 47.2093C26.405 47.2112 26.1051 47.1988 25.7368 47.0756C25.7368 46.9132 25.7368 46.7511 25.7368 46.5839C25.8986 46.5433 26.0605 46.5025 26.2271 46.4609C26.2675 45.5276 26.3079 44.5943 26.3496 43.6328C26.1878 43.6328 26.0259 43.6328 25.8593 43.6328C25.8593 43.4707 25.8593 43.3083 25.8593 43.1411Z" fill="#DEFF9C"/>
</g>
<g filter="url(#filter3_d_111_437)">
<path d="M77.0713 41.9117C77.2858 41.9157 77.5 41.9243 77.7143 41.9348C77.8338 41.9388 77.9531 41.9431 78.0761 41.9477C78.5418 42.0658 78.6445 42.2513 78.9091 42.6493C78.9556 42.7191 79.0021 42.7892 79.05 42.8611C79.1998 43.0885 79.3458 43.318 79.4908 43.5485C79.5413 43.6277 79.5916 43.7072 79.6435 43.7888C79.7666 43.9826 79.8891 44.1766 80.0116 44.3707C80.1239 44.0325 80.1474 43.8347 80.1418 43.4871C80.1391 43.3322 80.1367 43.1776 80.1341 43.0181C80.0533 42.9776 79.9722 42.9371 79.8891 42.8952C79.8891 42.7328 79.8891 42.5707 79.8891 42.4035C80.9392 42.3857 80.9391 42.3857 81.3593 42.5264C81.3593 42.6888 81.3593 42.8509 81.3593 43.0181C81.2815 43.0745 81.2039 43.1309 81.124 43.1891C80.7746 43.4605 80.7755 43.6624 80.7142 44.0956C80.6834 44.3017 80.6834 44.3017 80.6519 44.5122C80.6326 44.6555 80.6134 44.7991 80.5936 44.947C80.5724 45.092 80.5513 45.2369 80.5294 45.3862C80.4775 45.7442 80.4275 46.1023 80.3791 46.4609C80.0961 46.4921 80.0961 46.4921 79.7666 46.4609C79.566 46.2524 79.566 46.2524 79.3937 45.9627C79.3306 45.8591 79.2672 45.7552 79.2019 45.6484C79.1062 45.4839 79.1062 45.4839 79.0086 45.3158C78.9433 45.2077 78.8778 45.0992 78.8106 44.9876C78.6892 44.786 78.5686 44.5838 78.4493 44.3812C78.3228 44.1689 78.1879 43.9616 78.0513 43.756C77.8876 44.3514 77.7752 44.8544 77.8063 45.4772C77.9277 45.5177 78.0489 45.5585 78.1738 45.6001C78.1334 45.7625 78.093 45.9249 78.0513 46.0921C77.5661 46.0513 77.0809 46.0108 76.581 45.9692C76.5406 45.8068 76.5002 45.6444 76.4585 45.4772C76.5564 45.4321 76.654 45.387 76.7548 45.3402C77.1004 45.1344 77.1004 45.1344 77.1847 44.7572C77.2079 44.5546 77.2079 44.5546 77.232 44.3476C77.2489 44.2059 77.2657 44.0642 77.2831 43.9182C77.3211 43.4495 77.3345 42.9961 77.3163 42.5264C77.2352 42.4859 77.1545 42.4453 77.0713 42.4035C77.0713 42.2411 77.0713 42.0789 77.0713 41.9117Z" fill="#DEFF9C"/>
</g>
<g filter="url(#filter4_d_111_437)">
<path d="M100.104 42.0347C100.165 42.2781 100.165 42.2781 100.227 42.5264C100.146 42.5669 100.065 42.6075 99.9815 42.6493C99.9614 43.2952 100.033 43.8706 100.165 44.5014C100.286 45.0783 100.371 45.6226 100.349 46.215C99.6811 46.1705 99.2553 45.7676 98.7487 45.3698C98.6621 45.3029 98.5754 45.2364 98.4863 45.1674C98.3245 45.0428 98.1632 44.9178 98.0022 44.7919C97.7655 44.608 97.5259 44.4279 97.2862 44.2478C97.367 44.8158 97.448 45.3837 97.5312 45.9692C97.7334 46.0097 97.9356 46.0502 98.144 46.0921C98.144 46.2542 98.144 46.4166 98.144 46.5839C97.6181 46.6649 97.0926 46.7462 96.5512 46.8297C96.5916 46.6268 96.632 46.4241 96.6737 46.215C96.7545 46.215 96.8352 46.215 96.9187 46.215C96.7569 45.2817 96.5953 44.3487 96.4287 43.3872C96.2265 43.3464 96.0243 43.3059 95.8159 43.264C95.8159 43.1424 95.8159 43.0206 95.8159 42.8952C96.4504 42.7087 96.8796 42.5836 97.5312 42.7723C97.8939 42.9951 98.2242 43.2533 98.5572 43.5177C98.6476 43.5875 98.7378 43.6573 98.8306 43.7292C99.0518 43.901 99.2719 44.0741 99.4915 44.2478C99.3703 43.8014 99.2489 43.355 99.124 42.8952C98.9622 42.8547 98.8006 42.8141 98.634 42.7723C98.634 42.6101 98.634 42.4478 98.634 42.2805C98.81 42.2389 98.986 42.1981 99.1622 42.1576C99.3093 42.1232 99.3093 42.1232 99.4594 42.0883C99.7365 42.0347 99.7365 42.0347 100.104 42.0347Z" fill="#DEFF9C"/>
</g>
<g filter="url(#filter5_d_111_437)">
<path d="M56.3659 39.3295C56.4062 39.6948 56.4469 40.0599 56.4884 40.4362C55.9066 40.3439 55.9066 40.3439 55.6308 40.0674C55.3013 40.0341 54.9825 40.0567 54.6506 40.0674C54.6912 40.1485 54.7316 40.2295 54.7731 40.3133C54.7781 40.6002 54.7784 40.8872 54.7731 41.1738C54.9349 41.1333 55.0967 41.0928 55.2633 41.0509C55.3037 40.8888 55.3441 40.7264 55.3858 40.5591C55.5474 40.5591 55.7092 40.5591 55.8758 40.5591C55.9962 41.0573 56.0082 41.523 55.9983 42.0347C55.8365 42.0347 55.675 42.0347 55.5083 42.0347C55.4679 41.9533 55.4276 41.8723 55.3858 41.7888C55.224 41.748 55.0622 41.7075 54.8958 41.6658C54.9362 42.0714 54.9766 42.4773 55.0183 42.8952C55.5838 42.8171 55.5838 42.8171 56.1208 42.6493C56.2904 42.2824 56.2904 42.2824 56.3659 41.9117C56.6186 41.7963 56.6186 41.7963 56.8558 41.7888C56.9786 41.9117 56.9786 41.9117 56.9904 42.2196C56.9891 42.3436 56.9877 42.4676 56.9861 42.5957C56.985 42.7199 56.984 42.8445 56.9829 42.9725C56.9813 43.0689 56.98 43.165 56.9786 43.264C56.4782 43.3467 55.978 43.4283 55.4776 43.5099C55.2647 43.5451 55.2647 43.5451 55.0475 43.581C54.9108 43.6033 54.7741 43.6256 54.6334 43.6484C54.5077 43.6688 54.382 43.6895 54.2523 43.7107C53.9156 43.7558 53.9156 43.7558 53.4256 43.7558C53.4659 43.5531 53.5063 43.3502 53.5481 43.1411C53.6288 43.1411 53.7099 43.1411 53.7931 43.1411C53.6719 42.2081 53.5505 41.2748 53.4256 40.3133C53.2637 40.2727 53.1022 40.2322 52.9355 40.1903C52.9355 40.0279 52.9355 39.8658 52.9355 39.6986C53.3921 39.6363 53.8492 39.5751 54.3061 39.5142C54.5 39.4876 54.5 39.4876 54.6979 39.4608C54.8857 39.4358 54.8857 39.4358 55.0772 39.4103C55.1919 39.3947 55.3067 39.3794 55.4252 39.3636C55.7416 39.3309 56.0481 39.3236 56.3659 39.3295Z" fill="#DEFF9C"/>
</g>
<g filter="url(#filter6_d_111_437)">
<path d="M33.394 43.1336C33.5066 43.1341 33.6189 43.1346 33.7347 43.1352C34.0092 43.1365 34.2836 43.1387 34.558 43.1411C34.5984 43.5064 34.6388 43.8715 34.6805 44.2478C34.3895 44.2094 34.3895 44.2094 34.068 44.1249C33.987 44.003 33.9062 43.8814 33.8227 43.756C33.5823 43.6849 33.5823 43.6849 33.3175 43.6715C33.0824 43.6524 33.0824 43.6524 32.8427 43.6328C32.8831 44.0387 32.9235 44.4445 32.9652 44.8625C33.0867 44.8219 33.2078 44.7814 33.3327 44.7395C33.3731 44.6179 33.4138 44.4961 33.4552 44.3707C33.6574 44.3707 33.8596 44.3707 34.068 44.3707C34.068 44.8171 34.068 45.2632 34.068 45.723C33.9062 45.723 33.7444 45.723 33.5777 45.723C33.5373 45.642 33.497 45.5609 33.4552 45.4772C33.2937 45.4366 33.1319 45.3961 32.9652 45.3542C33.0056 45.7195 33.046 46.0846 33.0877 46.4609C33.4111 46.4609 33.7347 46.4609 34.068 46.4609C34.2296 46.1769 34.3914 45.8929 34.558 45.6001C34.7196 45.6409 34.8814 45.6814 35.048 45.723C35.048 46.1694 35.048 46.6158 35.048 47.0756C33.8177 47.1892 32.6071 47.212 31.3724 47.1985C31.3724 47.077 31.3724 46.9551 31.3724 46.8297C31.5343 46.7892 31.6961 46.7487 31.8627 46.7068C31.7817 45.7735 31.7009 44.8405 31.6174 43.879C31.4559 43.8382 31.2941 43.7976 31.1274 43.756C31.1274 43.5936 31.1274 43.4313 31.1274 43.264C31.8887 43.1508 32.6253 43.1261 33.394 43.1336Z" fill="#DEFF9C"/>
</g>
<g filter="url(#filter7_d_111_437)">
<path d="M68.4949 39.9445C68.9084 40.1289 68.9084 40.1289 69.2299 40.3133C69.3513 40.3133 69.4725 40.3133 69.5974 40.3133C69.7188 40.3133 69.84 40.3133 69.9649 40.3133C69.9684 40.5106 69.9708 40.7076 69.9726 40.9049C69.974 41.0147 69.9756 41.1247 69.9769 41.2377C69.9649 41.5426 69.9649 41.5426 69.8424 41.9117C69.6808 41.9117 69.519 41.9117 69.3524 41.9117C69.3302 41.8435 69.308 41.7754 69.285 41.705C69.2542 41.6159 69.2234 41.5271 69.1916 41.4353C69.1617 41.3467 69.132 41.2584 69.1012 41.1671C68.9894 40.8861 68.9894 40.8861 68.6174 40.6821C68.2498 40.6104 68.2499 40.6104 67.8821 40.6821C67.4389 41.2345 67.3739 41.7896 67.3691 42.4802C67.3667 42.6577 67.3667 42.6577 67.364 42.8386C67.3619 43.1631 67.3619 43.1631 67.6371 43.387C68.1351 43.4538 68.1351 43.4538 68.6174 43.387C68.8629 43.1658 69.0303 42.9164 69.2299 42.6493C69.3917 42.6493 69.5532 42.6493 69.7199 42.6493C69.7027 42.8697 69.6846 43.0898 69.6664 43.3102C69.6565 43.4329 69.6466 43.5555 69.6361 43.682C69.5974 44.0019 69.5974 44.0019 69.4749 44.2478C69.3133 44.2478 69.1515 44.2478 68.9849 44.2478C68.9849 44.1259 68.9849 44.0043 68.9849 43.879C68.9148 43.9184 68.8447 43.9579 68.7725 43.9984C68.3116 44.2081 67.8877 44.2024 67.3921 44.1249C66.8111 43.9045 66.411 43.5861 66.1058 43.0412C65.8953 42.5366 65.8012 42.0822 65.9221 41.5426C66.4412 40.3721 67.2289 39.8162 68.4949 39.9445Z" fill="#DEFF9C"/>
</g>
<g filter="url(#filter8_d_111_437)">
<path d="M92.8755 43.0181C93.0373 43.0181 93.1989 43.0181 93.3655 43.0181C93.4112 43.1137 93.457 43.2093 93.504 43.3078C93.6744 43.6626 93.8464 44.0167 94.0192 44.3704C94.0936 44.5234 94.1674 44.677 94.2409 44.8305C94.3466 45.0517 94.4541 45.2715 94.5619 45.4916C94.6261 45.6242 94.6903 45.7568 94.7563 45.8935C94.965 46.2258 95.0851 46.3326 95.4483 46.4609C95.4483 46.623 95.4483 46.7854 95.4483 46.9527C94.7491 47.0748 94.0743 47.0885 93.3655 47.0756C93.3655 46.9132 93.3655 46.7511 93.3655 46.5838C93.4463 46.5838 93.5273 46.5838 93.6105 46.5838C93.5701 46.462 93.5297 46.3404 93.488 46.215C93.1646 46.215 92.8413 46.215 92.508 46.215C92.4676 46.3772 92.427 46.5396 92.3855 46.7068C92.5067 46.7068 92.6281 46.7068 92.753 46.7068C92.753 46.8689 92.753 47.0313 92.753 47.1985C92.2678 47.1985 91.7826 47.1985 91.2827 47.1985C91.4052 46.7068 91.4052 46.7068 91.5812 46.5371C91.8503 46.2574 91.9102 45.9783 92.0188 45.6068C92.0613 45.4645 92.1038 45.322 92.1474 45.1752C92.1908 45.0262 92.2338 44.8775 92.2782 44.7242C92.3649 44.4292 92.4521 44.1342 92.5396 43.8395C92.5775 43.7085 92.6158 43.5775 92.6548 43.4428C92.753 43.1411 92.753 43.1411 92.8755 43.0181Z" fill="#DEFF9C"/>
</g>
<g filter="url(#filter9_d_111_437)">
<path d="M58.2036 39.0836C59.4974 39.0836 60.7911 39.0836 62.1239 39.0836C62.1239 39.53 62.1239 39.9764 62.1239 40.4362C61.9624 40.4362 61.8005 40.4362 61.6339 40.4362C61.5922 40.2878 61.5922 40.2878 61.5497 40.1364C61.4967 40.0325 61.4437 39.9286 61.3889 39.8215C61.0856 39.7606 61.0856 39.7606 60.7764 39.6986C60.7764 40.6721 60.7764 41.646 60.7764 42.6493C60.9382 42.6493 61.0998 42.6493 61.2664 42.6493C61.2664 42.8117 61.2664 42.9739 61.2664 43.1411C60.5386 43.1411 59.8108 43.1411 59.0611 43.1411C59.0611 42.9787 59.0611 42.8166 59.0611 42.6493C59.1825 42.6088 59.3037 42.5683 59.4286 42.5264C59.469 41.5931 59.5097 40.6601 59.5511 39.6986C59.3085 39.7796 59.0659 39.8607 58.8161 39.9445C58.6974 40.1944 58.6974 40.1944 58.6936 40.4362C58.5318 40.4362 58.3702 40.4362 58.2036 40.4362C58.2036 39.9898 58.2036 39.5434 58.2036 39.0836Z" fill="#DEFF9C"/>
</g>
<path d="M109.783 37.4852C110.25 37.541 110.575 37.6887 110.97 37.9388C111.076 38.0043 111.181 38.0698 111.291 38.1374C111.621 38.346 111.621 38.346 111.951 38.5543C112.057 38.6201 112.163 38.6856 112.272 38.7532C112.367 38.8136 112.463 38.874 112.561 38.9363C112.936 39.1303 113.283 39.2066 113.704 39.2066C113.764 39.45 113.764 39.45 113.826 39.6986C113.59 39.887 113.353 40.0736 113.114 40.2593C113.013 40.3401 113.013 40.3401 112.911 40.4225C112.733 40.5599 112.545 40.6834 112.356 40.805C112.235 40.7645 112.113 40.724 111.988 40.6821C111.988 40.4792 111.988 40.2762 111.988 40.0674C111.625 40.1426 111.452 40.2215 111.131 40.4362C111.042 40.6893 111.042 40.6893 111.008 40.928C111.17 40.8874 111.332 40.8469 111.498 40.805C111.579 40.9674 111.66 41.1295 111.743 41.2968C111.589 41.424 111.433 41.5491 111.276 41.6734C111.19 41.7432 111.103 41.8132 111.014 41.8851C110.931 41.9345 110.848 41.9837 110.763 42.0347C110.642 41.9939 110.521 41.9533 110.396 41.9117C110.415 41.672 110.415 41.672 110.434 41.4275C110.438 40.6928 110.237 40.0508 110.012 39.3593C109.824 38.7731 109.709 38.2239 109.661 37.6084C109.701 37.5676 109.741 37.5271 109.783 37.4852Z" fill="#DEFF9C"/>
<g filter="url(#filter10_d_111_437)">
<path d="M13.1177 39.4527C13.3702 39.5064 13.3702 39.5064 13.6077 39.5756C13.6224 40.615 13.5989 41.6409 13.5178 42.677C13.4849 43.143 13.4889 43.5488 13.6077 44.0019C13.4863 44.0626 13.4863 44.0626 13.3627 44.1249C13.0631 43.9925 12.7785 43.8545 12.4897 43.7021C12.4089 43.6605 12.3284 43.6189 12.2452 43.5759C12.0454 43.4729 11.8464 43.3687 11.6474 43.264C11.6878 43.1424 11.7282 43.0206 11.7699 42.8952C11.9317 42.8952 12.0933 42.8952 12.2599 42.8952C12.2361 42.6555 12.2361 42.6555 12.1374 42.4035C11.7771 42.1541 11.6134 42.1576 11.1574 42.1576C11.1168 42.2387 11.0764 42.3197 11.0349 42.4035C11.1157 42.4035 11.1965 42.4035 11.2799 42.4035C11.2395 42.5659 11.1989 42.728 11.1574 42.8952C10.6725 42.8257 10.3406 42.673 9.93213 42.4035C9.93989 42.1807 9.93989 42.1807 10.0546 41.9117C10.1761 41.8658 10.2975 41.8199 10.4227 41.7729C11.0667 41.5123 11.5107 41.0251 11.9997 40.5438C12.1412 40.4072 12.1412 40.4072 12.2859 40.2676C12.5648 39.9979 12.8435 39.7276 13.1177 39.4527Z" fill="#DEFF9C"/>
</g>
<g filter="url(#filter11_d_111_437)">
<path d="M84.5136 42.9567C84.6503 42.9873 84.6503 42.9873 84.7894 43.0181C84.9512 43.0181 85.1128 43.0181 85.2794 43.0181C85.239 43.424 85.1986 43.8296 85.1569 44.2478C84.9953 44.2478 84.8335 44.2478 84.6669 44.2478C84.5035 44.0019 84.3403 43.756 84.1769 43.5099C84.0151 43.5099 83.8532 43.5099 83.6869 43.5099C83.7262 43.8784 83.7896 43.9855 84.0806 44.2252C84.2456 44.3315 84.2456 44.3315 84.4141 44.4397C84.806 44.6939 85.0175 44.837 85.2794 45.2313C85.3618 46.0854 85.3618 46.0854 85.0496 46.5761C84.6136 47.001 84.3007 46.9779 83.7174 46.9733C83.3854 46.9484 83.1303 46.845 82.8291 46.7068C82.6673 46.7068 82.5057 46.7068 82.3391 46.7068C82.3214 45.653 82.3214 45.653 82.4616 45.2313C82.6234 45.2313 82.785 45.2313 82.9516 45.2313C83.0072 45.3682 83.0629 45.5053 83.1201 45.6463C83.2854 46.0873 83.2854 46.0873 83.5641 46.338C83.7259 46.338 83.8877 46.338 84.0544 46.338C84.0948 46.135 84.1352 45.9321 84.1769 45.723C84.0517 45.6852 84.0517 45.6852 83.9241 45.6463C83.4015 45.4007 82.8478 45.0227 82.5841 44.4937C82.5001 43.6366 82.5001 43.6366 82.8291 43.1411C83.3967 42.7615 83.8642 42.8383 84.5136 42.9567Z" fill="#DEFF9C"/>
</g>
<g filter="url(#filter12_d_111_437)">
<path d="M104.882 40.5591C104.972 40.8133 104.972 40.8133 105.028 41.1201C105.047 41.2216 105.067 41.3233 105.087 41.428C105.1 41.5064 105.114 41.5848 105.128 41.6658C104.966 41.7064 104.804 41.7469 104.637 41.7888C104.557 41.6669 104.476 41.5453 104.392 41.4197C104.017 41.3295 104.017 41.3295 103.657 41.2968C103.699 41.4288 103.74 41.5609 103.783 41.697C103.838 41.8736 103.893 42.0502 103.948 42.2266C103.975 42.3133 104.003 42.4 104.031 42.4891C104.2 43.0324 104.361 43.577 104.515 44.1248C104.717 44.1248 104.919 44.1248 105.128 44.1248C105.128 44.287 105.128 44.4494 105.128 44.6166C104.849 44.7197 104.571 44.8222 104.293 44.9239C104.214 44.9532 104.135 44.9827 104.054 45.0128C103.7 45.1416 103.424 45.2313 103.045 45.2313C103.045 45.0691 103.045 44.9068 103.045 44.7395C103.166 44.6786 103.166 44.6786 103.29 44.6166C103.199 44.0773 103.031 43.5719 102.853 43.0565C102.554 42.1906 102.554 42.1906 102.554 41.9117C102.244 41.9788 102.244 41.9788 101.942 42.1576C101.832 42.5328 101.832 42.5328 101.819 42.8952C101.658 42.8952 101.496 42.8952 101.329 42.8952C101.168 42.4502 101.084 42.1458 101.084 41.6658C101.566 41.4868 102.048 41.3096 102.53 41.1336C102.694 41.0737 102.858 41.013 103.021 40.9521C103.257 40.8649 103.492 40.7787 103.729 40.6931C103.87 40.641 104.012 40.5889 104.158 40.535C104.515 40.4362 104.515 40.4362 104.882 40.5591Z" fill="#DEFF9C"/>
</g>
<g filter="url(#filter13_d_111_437)">
<path d="M86.6274 43.264C87.9616 43.264 89.296 43.264 90.6705 43.264C90.6705 43.6699 90.6705 44.0757 90.6705 44.4937C90.4683 44.4937 90.2661 44.4937 90.058 44.4937C90.0163 44.3452 90.0163 44.3452 89.9738 44.1938C89.9205 44.09 89.8676 43.9861 89.813 43.879C89.5097 43.818 89.5097 43.818 89.2002 43.756C89.2002 44.7296 89.2002 45.7034 89.2002 46.7068C89.3621 46.7068 89.5239 46.7068 89.6905 46.7068C89.6905 46.8692 89.6905 47.0313 89.6905 47.1985C88.9223 47.1985 88.1542 47.1985 87.3627 47.1985C87.3627 47.0364 87.3627 46.874 87.3627 46.7068C87.5243 46.6663 87.6861 46.6257 87.8527 46.5839C87.8931 45.6506 87.9335 44.7175 87.9752 43.756C87.7326 43.8371 87.49 43.9182 87.2399 44.0019C87.1215 44.2518 87.1215 44.2518 87.1174 44.4937C86.9559 44.4937 86.7941 44.4937 86.6274 44.4937C86.6274 44.0878 86.6274 43.6822 86.6274 43.264Z" fill="#DEFF9C"/>
</g>
<g filter="url(#filter14_d_111_437)">
<path d="M8.21695 36.2558C8.80832 36.6437 9.39007 37.0291 9.93223 37.4854C9.89184 37.6476 9.85146 37.81 9.80973 37.9772C9.44571 37.9163 9.44571 37.9163 9.07473 37.8543C9.04584 37.92 9.01722 37.9858 8.98753 38.0534C8.74493 38.5028 8.4229 38.8893 8.10702 39.2887C7.7898 39.6903 7.7898 39.6903 7.72694 40.1903C8.22979 40.5267 8.59863 40.4765 9.18171 40.3747C9.26784 40.3543 9.3537 40.3342 9.44223 40.3133C9.44223 40.8504 9.41415 40.8968 9.07473 41.2662C9.00625 41.3416 8.93805 41.417 8.86797 41.4949C8.78826 41.5794 8.78826 41.5794 8.70695 41.6658C8.48763 41.5016 8.2683 41.3373 8.05005 41.1719C7.87646 41.041 7.7026 40.91 7.52821 40.7803C7.3129 40.6203 7.09866 40.4593 6.88468 40.298C6.81461 40.2464 6.74453 40.1946 6.67258 40.1417C6.30855 39.8655 6.0475 39.643 5.88916 39.2066C6.25666 39.0836 6.25666 39.0836 6.50354 39.0377C6.80043 38.9438 6.89511 38.834 7.08502 38.5895C7.14386 38.5146 7.20244 38.4394 7.26288 38.3621C7.32253 38.2832 7.38218 38.2046 7.44369 38.1232C7.50468 38.0456 7.56566 37.9683 7.62851 37.8886C7.92166 37.5083 8.1228 37.2264 8.21695 36.7476C8.13617 36.7476 8.0554 36.7476 7.97195 36.7476C8.05272 36.5854 8.13376 36.423 8.21695 36.2558Z" fill="#DEFF9C"/>
</g>
<g filter="url(#filter15_d_111_437)">
<path d="M107.823 39.2066C107.823 39.3284 107.823 39.45 107.823 39.5754C107.702 39.6363 107.702 39.6363 107.578 39.6983C107.754 40.265 107.973 40.801 108.229 41.3351C108.264 41.413 108.298 41.4908 108.334 41.5708C108.45 41.8256 108.45 41.8256 108.681 42.1576C109 42.2829 109 42.2829 109.293 42.2805C109.334 42.4021 109.374 42.524 109.416 42.6493C109.138 42.7937 108.86 42.9368 108.581 43.0796C108.502 43.1207 108.423 43.1618 108.342 43.2039C107.983 43.3872 107.742 43.5099 107.333 43.5099C107.272 43.3274 107.272 43.3274 107.21 43.1411C107.392 43.0802 107.392 43.0802 107.578 43.0182C107.39 42.5887 107.197 42.1616 107.003 41.7348C106.924 41.5518 106.924 41.5518 106.842 41.3647C106.762 41.1907 106.762 41.1907 106.681 41.013C106.633 40.9054 106.584 40.798 106.535 40.6872C106.369 40.4048 106.369 40.4048 106.026 40.3385C105.932 40.3302 105.837 40.3219 105.74 40.3133C105.753 40.0926 105.753 40.0926 105.863 39.8213C106.21 39.6076 106.21 39.6076 106.644 39.4141C106.786 39.3486 106.929 39.2831 107.075 39.2157C107.456 39.0836 107.456 39.0836 107.823 39.2066Z" fill="#DEFF9C"/>
</g>
<path d="M22.4899 43.0874C22.9187 43.1411 22.9187 43.1411 23.1268 43.2968C23.4622 43.7458 23.3223 44.3621 23.2474 44.8904C23.1669 45.2791 23.0519 45.5837 22.8344 45.9152C22.5512 46.0921 22.5512 46.0921 22.1069 46.0843C21.6934 45.9692 21.6934 45.9692 21.4484 45.6001C21.3933 44.7849 21.4853 44.0725 21.8389 43.3255C22.0609 43.1411 22.0609 43.1411 22.4899 43.0874Z" fill="#212121"/>
<g filter="url(#filter16_d_111_437)">
<path d="M74.3557 41.2598C75.3071 41.9856 75.3071 41.9856 75.4058 42.6666C75.4269 43.2912 75.413 43.7569 75.1445 44.3259C74.6951 44.8013 74.3092 45.1972 73.6341 45.2654C72.6918 45.2853 72.0127 45.0263 71.3082 44.3799C70.8928 43.7547 70.9947 43.0193 71.0632 42.2897C71.2384 41.791 71.5936 41.4509 72.0432 41.183C72.7702 40.9573 73.6697 40.8952 74.3557 41.2598Z" fill="#DEFF9C"/>
</g>
<path d="M73.3298 41.6211C73.7585 41.6748 73.7585 41.6748 73.9666 41.8304C74.302 42.2795 74.1621 42.8958 74.0872 43.4241C74.0067 43.8127 73.8917 44.1174 73.6743 44.4489C73.391 44.6258 73.391 44.6258 72.9467 44.618C72.5332 44.5028 72.5332 44.5028 72.2882 44.1338C72.2331 43.3186 72.3251 42.6062 72.6787 41.8592C72.9007 41.6748 72.9007 41.6748 73.3298 41.6211Z" fill="#212121"/>
<path d="M32.8427 43.6328C33.5009 43.5789 33.5009 43.5789 33.8227 43.6328C34.068 43.9405 34.0679 43.9404 34.1904 44.2478C34.0679 44.3707 34.068 44.3707 33.7539 44.3782C33.606 44.3745 33.606 44.3745 33.4552 44.3707C33.4148 44.5329 33.3744 44.6953 33.3327 44.8625C33.2115 44.8625 33.0901 44.8625 32.9652 44.8625C32.8234 44.4354 32.8344 44.0803 32.8427 43.6328Z" fill="#212121"/>
<path d="M16.7928 43.387C17.2676 43.4946 17.2676 43.4946 17.4056 43.6328C17.4473 44.0223 17.4369 44.1992 17.2218 44.5321C17.1306 44.6349 17.1306 44.6349 17.0378 44.7395C16.8359 44.699 16.6337 44.6585 16.4253 44.6166C16.4873 44.1592 16.562 43.7885 16.7928 43.387Z" fill="#212121"/>
<path d="M27.5747 43.7558C27.9385 43.8167 27.9385 43.8167 28.3097 43.8787C28.325 44.2937 28.325 44.2937 28.3097 44.7395C28.2289 44.8206 28.1479 44.9017 28.0647 44.9854C27.9029 44.9854 27.7411 44.9854 27.5747 44.9854C27.5747 44.5796 27.5747 44.174 27.5747 43.7558Z" fill="#212121"/>
<path d="M17.2834 41.7888C17.5359 41.8425 17.5358 41.8425 17.7734 41.9117C17.7886 42.2652 17.7886 42.2652 17.7734 42.6493C17.6923 42.7304 17.6115 42.8117 17.5284 42.8952C17.3665 42.8952 17.2047 42.8952 17.0381 42.8952C17.1453 41.927 17.1453 41.927 17.2834 41.7888Z" fill="#212121"/>
<path d="M12.382 41.0509C12.382 41.2943 12.382 41.5378 12.382 41.7888C12.1801 41.7483 11.9779 41.7077 11.7695 41.6658C11.7695 41.42 11.7695 41.42 11.938 41.22C12.137 41.0509 12.137 41.0509 12.382 41.0509Z" fill="#212121"/>
<path d="M92.5824 45.1655C92.6758 45.1655 92.7691 45.1655 92.8654 45.1655C92.9587 45.3998 93.0524 45.6342 93.1484 45.8758C92.9149 45.8758 92.6814 45.8758 92.4409 45.8758C92.4875 45.6414 92.5343 45.4071 92.5824 45.1655Z" fill="#212121"/>
<path d="M110.955 39.0933C111.032 39.0407 111.11 38.9881 111.189 38.9339C111.398 39.0753 111.606 39.2168 111.821 39.3623C111.627 39.4938 111.434 39.6253 111.235 39.7609C111.143 39.5405 111.05 39.3204 110.955 39.0933Z" fill="#212121"/>
</g>
<defs>
<filter id="filter0_d_111_437" x="16.1602" y="42.4663" width="12.4126" height="12.2665" filterUnits="userSpaceOnUse" color-interpolation-filters="sRGB">
<feFlood flood-opacity="0" result="BackgroundImageFix"/>
<feColorMatrix in="SourceAlpha" type="matrix" values="0 0 0 0 0 0 0 0 0 0 0 0 0 0 0 0 0 0 127 0" result="hardAlpha"/>
<feOffset dy="4"/>
<feGaussianBlur stdDeviation="2"/>
<feComposite in2="hardAlpha" operator="out"/>
<feColorMatrix type="matrix" values="0 0 0 0 0 0 0 0 0 0 0 0 0 0 0 0 0 0 0.25 0"/>
<feBlend mode="normal" in2="BackgroundImageFix" result="effect1_dropShadow_111_437"/>
<feBlend mode="normal" in="SourceGraphic" in2="effect1_dropShadow_111_437" result="shape"/>
</filter>
<filter id="filter1_d_111_437" x="10.7104" y="40.805" width="12.334" height="12.6142" filterUnits="userSpaceOnUse" color-interpolation-filters="sRGB">
<feFlood flood-opacity="0" result="BackgroundImageFix"/>
<feColorMatrix in="SourceAlpha" type="matrix" values="0 0 0 0 0 0 0 0 0 0 0 0 0 0 0 0 0 0 127 0" result="hardAlpha"/>
<feOffset dy="4"/>
<feGaussianBlur stdDeviation="2"/>
<feComposite in2="hardAlpha" operator="out"/>
<feColorMatrix type="matrix" values="0 0 0 0 0 0 0 0 0 0 0 0 0 0 0 0 0 0 0.25 0"/>
<feBlend mode="normal" in2="BackgroundImageFix" result="effect1_dropShadow_111_437"/>
<feBlend mode="normal" in="SourceGraphic" in2="effect1_dropShadow_111_437" result="shape"/>
</filter>
<filter id="filter2_d_111_437" x="21.7368" y="43.1081" width="12.4106" height="12.2134" filterUnits="userSpaceOnUse" color-interpolation-filters="sRGB">
<feFlood flood-opacity="0" result="BackgroundImageFix"/>
<feColorMatrix in="SourceAlpha" type="matrix" values="0 0 0 0 0 0 0 0 0 0 0 0 0 0 0 0 0 0 127 0" result="hardAlpha"/>
<feOffset dy="4"/>
<feGaussianBlur stdDeviation="2"/>
<feComposite in2="hardAlpha" operator="out"/>
<feColorMatrix type="matrix" values="0 0 0 0 0 0 0 0 0 0 0 0 0 0 0 0 0 0 0.25 0"/>
<feBlend mode="normal" in2="BackgroundImageFix" result="effect1_dropShadow_111_437"/>
<feBlend mode="normal" in="SourceGraphic" in2="effect1_dropShadow_111_437" result="shape"/>
</filter>
<filter id="filter3_d_111_437" x="72.4585" y="41.9117" width="12.9009" height="12.5726" filterUnits="userSpaceOnUse" color-interpolation-filters="sRGB">
<feFlood flood-opacity="0" result="BackgroundImageFix"/>
<feColorMatrix in="SourceAlpha" type="matrix" values="0 0 0 0 0 0 0 0 0 0 0 0 0 0 0 0 0 0 127 0" result="hardAlpha"/>
<feOffset dy="4"/>
<feGaussianBlur stdDeviation="2"/>
<feComposite in2="hardAlpha" operator="out"/>
<feColorMatrix type="matrix" values="0 0 0 0 0 0 0 0 0 0 0 0 0 0 0 0 0 0 0.25 0"/>
<feBlend mode="normal" in2="BackgroundImageFix" result="effect1_dropShadow_111_437"/>
<feBlend mode="normal" in="SourceGraphic" in2="effect1_dropShadow_111_437" result="shape"/>
</filter>
<filter id="filter4_d_111_437" x="91.8159" y="42.0347" width="12.5366" height="12.7951" filterUnits="userSpaceOnUse" color-interpolation-filters="sRGB">
<feFlood flood-opacity="0" result="BackgroundImageFix"/>
<feColorMatrix in="SourceAlpha" type="matrix" values="0 0 0 0 0 0 0 0 0 0 0 0 0 0 0 0 0 0 127 0" result="hardAlpha"/>
<feOffset dy="4"/>
<feGaussianBlur stdDeviation="2"/>
<feComposite in2="hardAlpha" operator="out"/>
<feColorMatrix type="matrix" values="0 0 0 0 0 0 0 0 0 0 0 0 0 0 0 0 0 0 0.25 0"/>
<feBlend mode="normal" in2="BackgroundImageFix" result="effect1_dropShadow_111_437"/>
<feBlend mode="normal" in="SourceGraphic" in2="effect1_dropShadow_111_437" result="shape"/>
</filter>
<filter id="filter5_d_111_437" x="48.9355" y="39.3276" width="12.0547" height="12.4281" filterUnits="userSpaceOnUse" color-interpolation-filters="sRGB">
<feFlood flood-opacity="0" result="BackgroundImageFix"/>
<feColorMatrix in="SourceAlpha" type="matrix" values="0 0 0 0 0 0 0 0 0 0 0 0 0 0 0 0 0 0 127 0" result="hardAlpha"/>
<feOffset dy="4"/>
<feGaussianBlur stdDeviation="2"/>
<feComposite in2="hardAlpha" operator="out"/>
<feColorMatrix type="matrix" values="0 0 0 0 0 0 0 0 0 0 0 0 0 0 0 0 0 0 0.25 0"/>
<feBlend mode="normal" in2="BackgroundImageFix" result="effect1_dropShadow_111_437"/>
<feBlend mode="normal" in="SourceGraphic" in2="effect1_dropShadow_111_437" result="shape"/>
</filter>
<filter id="filter6_d_111_437" x="27.1274" y="43.1323" width="11.9204" height="12.0696" filterUnits="userSpaceOnUse" color-interpolation-filters="sRGB">
<feFlood flood-opacity="0" result="BackgroundImageFix"/>
<feColorMatrix in="SourceAlpha" type="matrix" values="0 0 0 0 0 0 0 0 0 0 0 0 0 0 0 0 0 0 127 0" result="hardAlpha"/>
<feOffset dy="4"/>
<feGaussianBlur stdDeviation="2"/>
<feComposite in2="hardAlpha" operator="out"/>
<feColorMatrix type="matrix" values="0 0 0 0 0 0 0 0 0 0 0 0 0 0 0 0 0 0 0.25 0"/>
<feBlend mode="normal" in2="BackgroundImageFix" result="effect1_dropShadow_111_437"/>
<feBlend mode="normal" in="SourceGraphic" in2="effect1_dropShadow_111_437" result="shape"/>
</filter>
<filter id="filter7_d_111_437" x="61.8687" y="39.9264" width="12.1084" height="12.3214" filterUnits="userSpaceOnUse" color-interpolation-filters="sRGB">
<feFlood flood-opacity="0" result="BackgroundImageFix"/>
<feColorMatrix in="SourceAlpha" type="matrix" values="0 0 0 0 0 0 0 0 0 0 0 0 0 0 0 0 0 0 127 0" result="hardAlpha"/>
<feOffset dy="4"/>
<feGaussianBlur stdDeviation="2"/>
<feComposite in2="hardAlpha" operator="out"/>
<feColorMatrix type="matrix" values="0 0 0 0 0 0 0 0 0 0 0 0 0 0 0 0 0 0 0.25 0"/>
<feBlend mode="normal" in2="BackgroundImageFix" result="effect1_dropShadow_111_437"/>
<feBlend mode="normal" in="SourceGraphic" in2="effect1_dropShadow_111_437" result="shape"/>
</filter>
<filter id="filter8_d_111_437" x="87.2827" y="43.0181" width="12.1655" height="12.1804" filterUnits="userSpaceOnUse" color-interpolation-filters="sRGB">
<feFlood flood-opacity="0" result="BackgroundImageFix"/>
<feColorMatrix in="SourceAlpha" type="matrix" values="0 0 0 0 0 0 0 0 0 0 0 0 0 0 0 0 0 0 127 0" result="hardAlpha"/>
<feOffset dy="4"/>
<feGaussianBlur stdDeviation="2"/>
<feComposite in2="hardAlpha" operator="out"/>
<feColorMatrix type="matrix" values="0 0 0 0 0 0 0 0 0 0 0 0 0 0 0 0 0 0 0.25 0"/>
<feBlend mode="normal" in2="BackgroundImageFix" result="effect1_dropShadow_111_437"/>
<feBlend mode="normal" in="SourceGraphic" in2="effect1_dropShadow_111_437" result="shape"/>
</filter>
<filter id="filter9_d_111_437" x="54.2036" y="39.0836" width="11.9204" height="12.0575" filterUnits="userSpaceOnUse" color-interpolation-filters="sRGB">
<feFlood flood-opacity="0" result="BackgroundImageFix"/>
<feColorMatrix in="SourceAlpha" type="matrix" values="0 0 0 0 0 0 0 0 0 0 0 0 0 0 0 0 0 0 127 0" result="hardAlpha"/>
<feOffset dy="4"/>
<feGaussianBlur stdDeviation="2"/>
<feComposite in2="hardAlpha" operator="out"/>
<feColorMatrix type="matrix" values="0 0 0 0 0 0 0 0 0 0 0 0 0 0 0 0 0 0 0.25 0"/>
<feBlend mode="normal" in2="BackgroundImageFix" result="effect1_dropShadow_111_437"/>
<feBlend mode="normal" in="SourceGraphic" in2="effect1_dropShadow_111_437" result="shape"/>
</filter>
<filter id="filter10_d_111_437" x="5.93213" y="39.4527" width="11.6797" height="12.6721" filterUnits="userSpaceOnUse" color-interpolation-filters="sRGB">
<feFlood flood-opacity="0" result="BackgroundImageFix"/>
<feColorMatrix in="SourceAlpha" type="matrix" values="0 0 0 0 0 0 0 0 0 0 0 0 0 0 0 0 0 0 127 0" result="hardAlpha"/>
<feOffset dy="4"/>
<feGaussianBlur stdDeviation="2"/>
<feComposite in2="hardAlpha" operator="out"/>
<feColorMatrix type="matrix" values="0 0 0 0 0 0 0 0 0 0 0 0 0 0 0 0 0 0 0.25 0"/>
<feBlend mode="normal" in2="BackgroundImageFix" result="effect1_dropShadow_111_437"/>
<feBlend mode="normal" in="SourceGraphic" in2="effect1_dropShadow_111_437" result="shape"/>
</filter>
<filter id="filter11_d_111_437" x="78.3311" y="42.8599" width="10.9946" height="12.1152" filterUnits="userSpaceOnUse" color-interpolation-filters="sRGB">
<feFlood flood-opacity="0" result="BackgroundImageFix"/>
<feColorMatrix in="SourceAlpha" type="matrix" values="0 0 0 0 0 0 0 0 0 0 0 0 0 0 0 0 0 0 127 0" result="hardAlpha"/>
<feOffset dy="4"/>
<feGaussianBlur stdDeviation="2"/>
<feComposite in2="hardAlpha" operator="out"/>
<feColorMatrix type="matrix" values="0 0 0 0 0 0 0 0 0 0 0 0 0 0 0 0 0 0 0.25 0"/>
<feBlend mode="normal" in2="BackgroundImageFix" result="effect1_dropShadow_111_437"/>
<feBlend mode="normal" in="SourceGraphic" in2="effect1_dropShadow_111_437" result="shape"/>
</filter>
<filter id="filter12_d_111_437" x="97.0845" y="40.4637" width="12.043" height="12.7676" filterUnits="userSpaceOnUse" color-interpolation-filters="sRGB">
<feFlood flood-opacity="0" result="BackgroundImageFix"/>
<feColorMatrix in="SourceAlpha" type="matrix" values="0 0 0 0 0 0 0 0 0 0 0 0 0 0 0 0 0 0 127 0" result="hardAlpha"/>
<feOffset dy="4"/>
<feGaussianBlur stdDeviation="2"/>
<feComposite in2="hardAlpha" operator="out"/>
<feColorMatrix type="matrix" values="0 0 0 0 0 0 0 0 0 0 0 0 0 0 0 0 0 0 0.25 0"/>
<feBlend mode="normal" in2="BackgroundImageFix" result="effect1_dropShadow_111_437"/>
<feBlend mode="normal" in="SourceGraphic" in2="effect1_dropShadow_111_437" result="shape"/>
</filter>
<filter id="filter13_d_111_437" x="82.6274" y="43.264" width="12.043" height="11.9345" filterUnits="userSpaceOnUse" color-interpolation-filters="sRGB">
<feFlood flood-opacity="0" result="BackgroundImageFix"/>
<feColorMatrix in="SourceAlpha" type="matrix" values="0 0 0 0 0 0 0 0 0 0 0 0 0 0 0 0 0 0 127 0" result="hardAlpha"/>
<feOffset dy="4"/>
<feGaussianBlur stdDeviation="2"/>
<feComposite in2="hardAlpha" operator="out"/>
<feColorMatrix type="matrix" values="0 0 0 0 0 0 0 0 0 0 0 0 0 0 0 0 0 0 0.25 0"/>
<feBlend mode="normal" in2="BackgroundImageFix" result="effect1_dropShadow_111_437"/>
<feBlend mode="normal" in="SourceGraphic" in2="effect1_dropShadow_111_437" result="shape"/>
</filter>
<filter id="filter14_d_111_437" x="1.88916" y="36.2558" width="12.043" height="13.41" filterUnits="userSpaceOnUse" color-interpolation-filters="sRGB">
<feFlood flood-opacity="0" result="BackgroundImageFix"/>
<feColorMatrix in="SourceAlpha" type="matrix" values="0 0 0 0 0 0 0 0 0 0 0 0 0 0 0 0 0 0 127 0" result="hardAlpha"/>
<feOffset dy="4"/>
<feGaussianBlur stdDeviation="2"/>
<feComposite in2="hardAlpha" operator="out"/>
<feColorMatrix type="matrix" values="0 0 0 0 0 0 0 0 0 0 0 0 0 0 0 0 0 0 0.25 0"/>
<feBlend mode="normal" in2="BackgroundImageFix" result="effect1_dropShadow_111_437"/>
<feBlend mode="normal" in="SourceGraphic" in2="effect1_dropShadow_111_437" result="shape"/>
</filter>
<filter id="filter15_d_111_437" x="101.74" y="39.1155" width="11.6753" height="12.3944" filterUnits="userSpaceOnUse" color-interpolation-filters="sRGB">
<feFlood flood-opacity="0" result="BackgroundImageFix"/>
<feColorMatrix in="SourceAlpha" type="matrix" values="0 0 0 0 0 0 0 0 0 0 0 0 0 0 0 0 0 0 127 0" result="hardAlpha"/>
<feOffset dy="4"/>
<feGaussianBlur stdDeviation="2"/>
<feComposite in2="hardAlpha" operator="out"/>
<feColorMatrix type="matrix" values="0 0 0 0 0 0 0 0 0 0 0 0 0 0 0 0 0 0 0.25 0"/>
<feBlend mode="normal" in2="BackgroundImageFix" result="effect1_dropShadow_111_437"/>
<feBlend mode="normal" in="SourceGraphic" in2="effect1_dropShadow_111_437" result="shape"/>
</filter>
<filter id="filter16_d_111_437" x="67" y="41" width="12.4126" height="12.2665" filterUnits="userSpaceOnUse" color-interpolation-filters="sRGB">
<feFlood flood-opacity="0" result="BackgroundImageFix"/>
<feColorMatrix in="SourceAlpha" type="matrix" values="0 0 0 0 0 0 0 0 0 0 0 0 0 0 0 0 0 0 127 0" result="hardAlpha"/>
<feOffset dy="4"/>
<feGaussianBlur stdDeviation="2"/>
<feComposite in2="hardAlpha" operator="out"/>
<feColorMatrix type="matrix" values="0 0 0 0 0 0 0 0 0 0 0 0 0 0 0 0 0 0 0.25 0"/>
<feBlend mode="normal" in2="BackgroundImageFix" result="effect1_dropShadow_111_437"/>
<feBlend mode="normal" in="SourceGraphic" in2="effect1_dropShadow_111_437" result="shape"/>
</filter>
<clipPath id="clip0_111_437">
<rect width="121" height="82" fill="white"/>
</clipPath>
</defs>
</svg>
