<svg width="1254" height="273" viewBox="0 0 1254 273" fill="none" xmlns="http://www.w3.org/2000/svg">
<mask id="mask0_91_348" style="mask-type:alpha" maskUnits="userSpaceOnUse" x="0" y="0" width="1254" height="273">
<path d="M1188.95 84.8398C1194.17 81.6438 1199.44 78.2058 1204.75 74.5256C1210.15 70.7486 1215.11 66.4389 1219.64 61.5965C1222.68 58.0132 1224.51 58.6427 1225.12 63.485C1225.38 67.0684 1226.73 70.2643 1229.17 73.0729C1231.61 75.8814 1233.83 78.6416 1235.83 81.3533C1247.49 97.8173 1253.54 115.831 1253.98 135.394C1254.5 163.867 1245.45 189.047 1226.82 210.934C1208.27 232.725 1191.34 249.383 1176.02 260.907C1173.93 262.457 1172.41 262.651 1171.45 261.489C1170.58 260.326 1170.84 259.116 1172.23 257.857C1184.51 245.751 1196.91 232.531 1209.45 218.198C1221.99 203.865 1227.64 181.154 1226.43 150.066C1225.9 137.863 1224.21 126.387 1221.33 115.637C1218.46 104.79 1213.32 95.7835 1205.92 88.6168C1201.75 84.8398 1195.7 85.4693 1187.77 90.5053C1187.16 90.9896 1186.86 91.7159 1186.86 92.6844C1186.95 111.376 1187.03 127.162 1187.12 140.043C1187.29 152.826 1187.43 165.707 1187.51 178.684C1187.77 187.594 1190.65 190.839 1196.13 188.418L1202.01 183.333C1203.49 182.074 1204.79 181.977 1205.92 183.043C1207.06 184.108 1206.97 185.318 1205.66 186.674C1201.22 191.613 1196.91 196.456 1192.74 201.201C1188.64 205.85 1185.34 210.741 1182.81 215.874C1181.85 218.101 1180.24 218.101 1177.98 215.874C1173.8 210.547 1170.62 206.818 1168.45 204.688C1166.36 202.557 1161.13 199.313 1152.78 194.955C1151.04 194.277 1150.17 193.405 1150.17 192.34C1150.25 191.275 1150.86 190.548 1151.99 190.161C1157.57 188.03 1160.31 181.638 1160.22 170.985C1160.22 159.945 1160.31 148.807 1160.48 137.573C1160.74 126.242 1160.74 115.201 1160.48 104.451C1160.31 99.9963 1159.26 96.6067 1157.35 94.2824C1155.52 91.958 1153.73 89.9242 1151.99 88.181C1144.16 80.9175 1141.02 72.8792 1142.59 64.0661C1144.25 55.2531 1149.51 46.2947 1158.39 37.1911C1159.96 35.2542 1161.31 34.8184 1162.44 35.8837C1163.66 36.949 1163.7 38.1596 1162.57 39.5154C1158.65 43.9704 1156.91 48.3285 1157.35 52.5898C1157.78 56.7542 1160.92 59.8049 1166.75 61.7418C1173.54 64.0661 1178.24 67.02 1180.85 70.6033C1183.46 74.1866 1185.12 78.3026 1185.81 82.9513C1185.9 83.726 1186.25 84.3555 1186.86 84.8398C1187.56 85.2272 1188.25 85.2272 1188.95 84.8398Z" fill="white"/>
<path d="M1023.24 21.3564C1022.11 19.5163 1022.2 18.112 1023.5 17.1435C1024.81 16.0782 1026.11 16.4172 1027.42 18.1604C1031.25 23.487 1034.34 29.201 1036.69 35.3023C1036.95 36.2708 1037.56 36.755 1038.52 36.755C1039.3 36.9487 1040 36.5613 1040.61 35.5929C1045.66 25.5208 1053.58 17.773 1064.37 12.3496C1075.25 6.82935 1086.27 4.60187 1097.41 5.66719C1099.67 5.76403 1100.81 6.78093 1100.81 8.71786C1100.81 10.6548 1099.72 11.5264 1097.54 11.3327C1088.4 10.6548 1080.43 12.9791 1073.64 18.3057C1066.85 23.6323 1063.5 33.8981 1063.59 49.103L1063.85 81.6436C1063.85 82.612 1064.2 83.3384 1064.9 83.8226C1065.59 84.21 1066.29 84.1616 1066.98 83.6774C1071.77 80.772 1076.56 77.576 1081.35 74.0895C1086.22 70.603 1090.71 66.6807 1094.8 62.3226C1098.02 58.7393 1099.85 59.3688 1100.28 64.2111C1100.63 67.7945 1101.98 70.9904 1104.33 73.799C1106.68 76.6075 1108.86 79.3677 1110.86 82.0794C1122.61 98.7371 1128.66 116.751 1129.01 136.12C1129.62 164.593 1120.61 189.773 1101.98 211.661C1083.35 233.451 1066.42 250.109 1051.18 261.634C1049.1 263.28 1047.53 263.522 1046.48 262.36C1045.53 261.295 1045.83 260.036 1047.4 258.583C1059.67 246.477 1072.03 233.257 1084.48 218.924C1097.02 204.591 1102.72 181.88 1101.59 150.792C1101.07 138.59 1099.37 127.113 1096.5 116.363C1093.71 105.516 1088.57 96.5096 1081.09 89.3429C1077.26 85.7596 1071.95 85.808 1065.16 89.4882C1064.37 89.7787 1063.98 90.5051 1063.98 91.6672L1064.5 179.411C1064.5 187.255 1067.33 190.499 1072.99 189.144C1074.21 188.756 1075.3 188.03 1076.26 186.965C1077.21 185.899 1078.26 184.979 1079.39 184.204C1080.61 183.333 1081.7 183.381 1082.65 184.35C1083.61 185.318 1083.61 186.335 1082.65 187.4C1078.39 192.63 1074.08 197.472 1069.73 201.927C1065.37 206.382 1062.02 211.273 1059.67 216.6C1058.63 218.924 1057.06 218.924 1054.97 216.6C1047.22 207.302 1038.78 200.329 1029.64 195.681C1026.68 193.938 1026.46 192.34 1028.99 190.887C1034.56 188.756 1037.3 182.364 1037.21 171.711L1036.95 74.6706C1036.86 61.5963 1035.51 50.8947 1032.9 42.5659C1030.38 34.237 1027.16 27.1672 1023.24 21.3564Z" fill="white"/>
<path d="M918.122 40.3866C914.292 44.8416 912.594 49.1997 913.029 53.461C913.465 57.6254 916.599 60.676 922.431 62.613C929.918 65.131 934.88 68.4238 937.318 72.4914C939.755 76.4621 941.235 81.1107 941.757 86.4373C941.845 87.4058 942.193 88.0353 942.802 88.3258C943.499 88.6164 944.195 88.6164 944.891 88.3258C955.947 81.1592 967.308 72.5882 978.973 62.613C979.67 62.0319 980.366 61.9351 981.063 62.3224C981.759 62.7098 982.194 63.2909 982.368 64.0657C983.239 69.2954 984.98 73.7504 987.592 77.4306C990.29 81.1107 993.076 84.7425 995.949 88.3258C1006.66 101.788 1011.4 116.847 1010.18 133.505C1008.96 153.94 1002.57 169.58 990.987 180.427C978.19 192.436 968.353 203.719 961.475 214.275C960.605 215.534 959.604 215.728 958.472 214.856C956.296 213.404 954.119 211.999 951.943 210.643C949.767 209.288 947.59 207.883 945.414 206.431C944.717 206.043 944.021 206.043 943.324 206.431C942.715 206.721 942.41 207.351 942.41 208.319C941.366 218.779 940.016 229.044 938.362 239.116C936.795 249.189 935.098 259.309 933.27 269.478C932.921 270.834 932.181 271.463 931.05 271.366C929.918 271.366 929.222 270.737 928.96 269.478C927.132 257.759 925.391 245.218 923.737 231.853C922.17 218.585 920.951 205.801 920.081 193.502C919.907 192.436 919.428 191.758 918.644 191.468C909.852 187.884 903.628 188.32 899.971 192.775C899.188 193.647 898.361 193.937 897.49 193.647C896.707 193.259 896.315 192.388 896.315 191.032C896.402 175.246 903.192 166.869 916.686 165.9C917.992 165.9 918.644 165.125 918.644 163.576V159.072C918.644 144.642 918.427 134.28 917.992 127.985C917.643 121.69 917.339 114.039 917.077 105.032C916.903 100.674 915.902 97.3326 914.074 95.0083C912.246 92.6839 910.418 90.6502 908.59 88.9069C900.668 81.6434 897.36 73.6535 898.665 64.9373C900.058 56.1242 905.238 47.1659 914.205 38.0623C915.772 36.2222 917.121 35.8348 918.253 36.9001C919.384 37.8686 919.341 39.0308 918.122 40.3866ZM943.977 172.002C943.977 173.164 944.369 173.89 945.153 174.181C949.592 176.699 953.902 179.362 958.08 182.17C962.346 184.979 966.655 187.739 971.008 190.451C972.314 191.129 973.315 190.838 974.011 189.579C976.623 185.027 979.06 179.41 981.324 172.728C983.587 166.045 984.806 157.717 984.98 147.741C985.154 137.379 983.326 128.13 979.496 119.995C975.752 111.763 971.661 103.918 967.221 96.461C962.607 89.2943 954.642 88.7616 943.324 94.863C942.454 95.3472 942.019 96.0736 942.019 97.0421C942.106 98.2042 942.149 99.9475 942.149 102.272L943.847 159.799C943.934 162.607 943.977 166.675 943.977 172.002Z" fill="white"/>
<path d="M841.862 191.903C837.422 195.68 832.547 199.845 827.237 204.397C821.927 208.852 817.008 212.968 812.481 216.745C810.914 218.101 809.652 218.682 808.694 218.488C807.824 218.294 807.476 217.423 807.65 215.873C807.65 213.839 804.951 209.965 799.554 204.251C785.364 189.434 778.53 170.161 779.052 146.434C779.575 126.096 788.062 108.906 804.516 94.8628C809.565 90.6016 814.266 86.0982 818.619 81.3527C823.058 76.6072 826.976 70.8448 830.371 64.0655C831.764 61.0633 833.679 60.9664 836.117 63.775C849.349 80.4326 862.581 90.2626 875.813 93.2649C879.992 94.1365 880.427 95.9766 877.119 98.7851C873.028 102.078 870.808 106.145 870.46 110.988V111.278L870.851 177.667C870.851 182.122 872.288 185.173 875.161 186.819C878.12 188.465 881.298 187.206 884.693 183.042C885.999 181.396 887.218 181.008 888.349 181.88C889.568 182.655 889.612 184.107 888.48 186.238C885.346 191.468 882.299 196.6 879.339 201.637C876.466 206.673 874.029 211.902 872.027 217.326L871.896 217.471C870.677 219.698 869.197 219.698 867.456 217.471C866.499 216.309 865.367 215.534 864.061 215.147C854.137 212.726 847.869 205.414 845.257 193.211C845.083 192.63 844.648 192.049 843.951 191.468C843.168 191.371 842.472 191.516 841.862 191.903ZM843.299 106.339C837.901 104.693 831.59 100.044 824.364 92.3932C820.882 87.7446 818.096 87.3088 816.007 91.0858C806.779 106.388 803.166 123.287 805.169 141.785C807.954 168.224 816.312 184.543 830.24 190.741C830.327 190.741 830.414 190.79 830.502 190.887C834.071 192.146 838.38 189.773 843.429 183.768C843.777 183.187 843.951 182.655 843.951 182.17C843.864 180.718 843.821 178.442 843.821 175.343L844.996 108.664C844.996 107.501 844.43 106.727 843.299 106.339Z" fill="white"/>
<path d="M726.167 103.434L726.036 173.89C726.036 176.989 726.732 178.974 728.125 179.846L737.527 185.947C739.529 187.303 742.576 184.93 746.668 178.829C747.538 177.57 748.627 177.328 749.932 178.103C751.238 178.781 751.238 179.991 749.932 181.734C740.792 193.066 733.784 204.203 728.909 215.147C727.429 217.374 725.818 217.374 724.077 215.147C719.202 208.852 714.632 204.058 710.366 200.765C706.187 197.472 700.007 194.76 691.823 192.63C690.256 192.146 689.473 191.371 689.473 190.305C689.473 189.24 690.039 188.465 691.171 187.981C697.003 186.916 699.876 181.347 699.789 171.275V109.826C699.789 99.9472 698.135 93.8943 694.827 91.6668C690.996 88.8583 687.862 89.8752 685.425 94.7175C684.467 96.7513 683.379 97.2355 682.16 96.1702C680.942 95.1049 680.985 93.4101 682.291 91.0858C684.816 86.6308 687.21 82.079 689.473 77.4303C691.823 72.7817 694.217 68.133 696.655 63.4844C698.135 60.579 700.094 60.0463 702.531 61.8864C715.328 68.7625 722.989 77.4788 725.514 88.0351C725.775 89.0035 726.297 89.6331 727.081 89.9236C727.864 90.1173 728.561 89.7783 729.17 88.9067L749.28 63.1939C749.802 62.6128 750.411 62.3707 751.108 62.4675C751.804 62.4675 752.37 62.8549 752.805 63.6297L766.516 92.829C766.865 93.7006 766.778 94.5238 766.255 95.2986L750.585 116.218C749.976 116.895 749.28 117.186 748.496 117.089C747.8 116.992 747.321 116.556 747.06 115.782L736.482 93.9912C736.134 93.4101 735.568 93.0711 734.785 92.9743C734.088 92.7806 733.436 93.0227 732.826 93.7006L726.689 101.981C726.341 102.368 726.167 102.853 726.167 103.434Z" fill="white"/>
<path d="M628.361 194.518C622.093 197.714 614.563 201.298 605.77 205.268C596.978 209.142 590.1 213.113 585.138 217.181C583.31 218.536 582.004 219.069 581.221 218.779C580.437 218.488 580.133 217.665 580.307 216.309C580.394 214.566 579.697 211.612 578.217 207.447C576.824 203.283 575.127 199.554 573.125 196.262C567.553 187.255 563.94 179.023 562.286 171.566C560.632 164.108 559.283 155.247 558.238 144.981C557.281 135.103 559.239 125.757 564.114 116.944C569.077 108.131 575.562 100.286 583.571 93.4102C588.62 89.1489 593.365 84.6456 597.805 79.9001C602.244 75.1546 606.118 69.3922 609.426 62.6129C610.906 59.6106 612.865 59.5138 615.303 62.3223C628.361 78.7863 642.29 88.7131 657.089 92.1028C660.919 93.1681 661.746 94.7176 659.57 96.7514C651.561 109.826 647.992 123.191 648.862 136.846C649.733 150.405 652.562 164.157 657.35 178.103V178.248L657.481 178.393C665.316 210.256 662.66 233.354 649.515 247.687C636.457 262.118 623.486 270.059 610.602 271.512C588.316 273.933 573.56 267.541 566.334 252.336C564.68 248.849 564.637 245.557 566.204 242.458C567.858 239.358 570.252 237.518 573.386 236.937C579.567 235.775 585.008 240.23 589.709 250.302C596.151 264.732 605.552 269.139 617.914 263.522C628.535 258.583 634.629 250.06 636.196 237.954C637.763 225.848 636.196 211.951 631.495 196.262C631.495 196.068 631.451 195.923 631.364 195.826L631.234 195.681C630.711 194.228 629.754 193.84 628.361 194.518ZM635.935 113.458C631.059 111.23 625.27 107.792 618.567 103.143C611.864 98.4947 606.945 94.5724 603.811 91.3764L603.55 91.2311C603.55 91.1343 603.55 91.0374 603.55 90.9406C600.416 85.8077 597.631 85.3719 595.193 89.6332C585.965 104.935 582.309 121.835 584.224 140.333C585.53 152.632 587.924 163.963 591.406 174.326C594.888 184.688 600.286 191.468 607.598 194.664L607.729 194.809H607.859C612.734 196.262 619.046 194.228 626.794 188.708C627.664 188.223 627.969 187.303 627.708 185.947C624.052 174.81 622.659 163.527 623.529 152.099C624.487 140.575 628.927 128.856 636.849 116.944C637.632 115.394 637.327 114.232 635.935 113.458Z" fill="white"/>
<path d="M490.597 215.001C489.291 217.422 487.68 217.422 485.765 215.001C476.189 201.733 461.651 191.758 442.151 185.076C440.584 184.591 439.844 183.817 439.931 182.751C439.931 181.686 440.41 180.911 441.367 180.427C446.939 178.296 449.724 171.856 449.724 161.106L449.333 87.0181C449.333 85.9528 449.246 85.1296 449.071 84.5485C448.897 83.8706 448.941 83.2895 449.202 82.8052C449.55 82.2242 450.16 81.8852 451.03 81.7883C474.187 79.6577 494.775 72.6363 512.795 60.7241C513.579 60.2399 514.275 60.0946 514.885 60.2883C515.581 60.482 515.973 61.16 516.06 62.3221C517.54 72.7816 522.154 83.0474 529.902 93.1194C534.167 98.9302 537.693 106.872 540.479 116.944C543.352 127.016 544.483 135.393 543.874 142.076C543.003 149.92 540.696 156.99 536.953 163.285C533.21 169.483 528.944 175.197 524.156 180.427C518.498 186.625 512.404 191.855 505.875 196.116C499.346 200.377 494.253 206.672 490.597 215.001ZM476.363 85.1296L476.885 168.805C476.885 170.258 477.408 171.275 478.452 171.856L501.565 187.836C503.829 189.482 505.918 188.998 507.833 186.383C516.104 176.505 519.847 164.641 519.063 150.792C518.889 142.172 517.366 134.473 514.493 127.694C511.707 120.914 508.225 114.91 504.046 109.68C497.256 102.029 492.076 92.5384 488.507 81.2073C488.333 80.723 487.941 80.3356 487.332 80.0451C486.723 79.6577 486.157 79.6093 485.634 79.8998C483.023 80.9651 480.411 81.8852 477.799 82.66C476.842 83.0474 476.363 83.8706 476.363 85.1296Z" fill="white"/>
<path d="M341.994 40.3866C338.164 44.8416 336.466 49.1997 336.902 53.461C337.337 57.6254 340.471 60.676 346.303 62.613C353.79 65.131 358.752 68.4238 361.19 72.4914C363.627 76.4621 365.107 81.1107 365.63 86.4373C365.717 87.4058 366.065 88.0353 366.674 88.3258C367.371 88.6164 368.067 88.6164 368.764 88.3258C379.819 81.1592 391.18 72.5882 402.845 62.613C403.542 62.0319 404.238 61.9351 404.935 62.3224C405.631 62.7098 406.066 63.2909 406.241 64.0657C407.111 69.2954 408.852 73.7504 411.464 77.4306C414.163 81.1107 416.948 84.7425 419.821 88.3258C430.529 101.788 435.273 116.847 434.055 133.505C432.836 153.94 426.437 169.58 414.859 180.427C402.062 192.436 392.225 203.719 385.347 214.275C384.477 215.534 383.476 215.728 382.344 214.856C380.168 213.404 377.991 211.999 375.815 210.643C373.639 209.288 371.462 207.883 369.286 206.431C368.589 206.043 367.893 206.043 367.197 206.431C366.587 206.721 366.282 207.351 366.282 208.319C365.238 218.779 363.888 229.044 362.234 239.116C360.667 249.189 358.97 259.309 357.142 269.478C356.793 270.834 356.054 271.463 354.922 271.366C353.79 271.366 353.094 270.737 352.833 269.478C351.004 257.759 349.263 245.218 347.609 231.853C346.042 218.585 344.823 205.801 343.953 193.502C343.779 192.436 343.3 191.758 342.517 191.468C333.724 187.884 327.5 188.32 323.843 192.775C323.06 193.647 322.233 193.937 321.362 193.647C320.579 193.259 320.187 192.388 320.187 191.032C320.274 175.246 327.064 166.869 340.558 165.9C341.864 165.9 342.517 165.125 342.517 163.576V159.072C342.517 144.642 342.299 134.28 341.864 127.985C341.515 121.69 341.211 114.039 340.95 105.032C340.775 100.674 339.774 97.3326 337.946 95.0083C336.118 92.6839 334.29 90.6502 332.462 88.9069C324.54 81.6434 321.232 73.6535 322.537 64.9373C323.93 56.1242 329.11 47.1659 338.077 38.0623C339.644 36.2222 340.993 35.8348 342.125 36.9001C343.256 37.8686 343.213 39.0308 341.994 40.3866ZM367.849 172.002C367.849 173.164 368.241 173.89 369.025 174.181C373.464 176.699 377.774 179.362 381.952 182.17C386.218 184.979 390.527 187.739 394.88 190.451C396.186 191.129 397.187 190.838 397.883 189.579C400.495 185.027 402.932 179.41 405.196 172.728C407.459 166.045 408.678 157.717 408.852 147.741C409.026 137.379 407.198 128.13 403.368 119.995C399.624 111.763 395.533 103.918 391.093 96.461C386.479 89.2943 378.514 88.7616 367.197 94.863C366.326 95.3472 365.891 96.0736 365.891 97.0421C365.978 98.2042 366.021 99.9475 366.021 102.272L367.719 159.799C367.806 162.607 367.849 166.675 367.849 172.002Z" fill="white"/>
<path d="M248.237 84.8398C253.46 81.6438 258.727 78.2058 264.037 74.5256C269.434 70.7486 274.397 66.4389 278.923 61.5965C281.97 58.0132 283.798 58.6427 284.408 63.485C284.669 67.0684 286.018 70.2643 288.456 73.0729C290.893 75.8814 293.113 78.6416 295.116 81.3533C306.781 97.8173 312.831 115.831 313.266 135.394C313.789 163.867 304.735 189.047 286.105 210.934C267.563 232.725 250.631 249.383 235.309 260.907C233.22 262.457 231.696 262.651 230.739 261.489C229.868 260.326 230.129 259.116 231.522 257.857C243.797 245.751 256.202 232.531 268.738 218.198C281.274 203.865 286.932 181.154 285.714 150.066C285.191 137.863 283.494 126.387 280.621 115.637C277.748 104.79 272.612 95.7835 265.212 88.6168C261.034 84.8398 254.983 85.4693 247.061 90.5053C246.452 90.9896 246.147 91.7159 246.147 92.6844C246.234 111.376 246.321 127.162 246.408 140.043C246.583 152.826 246.713 165.707 246.8 178.684C247.061 187.594 249.934 190.839 255.419 188.418L261.295 183.333C262.775 182.074 264.081 181.977 265.212 183.043C266.344 184.108 266.257 185.318 264.951 186.674C260.511 191.613 256.202 196.456 252.024 201.201C247.932 205.85 244.624 210.741 242.099 215.874C241.142 218.101 239.531 218.101 237.268 215.874C233.089 210.547 229.912 206.818 227.735 204.688C225.646 202.557 220.423 199.313 212.065 194.955C210.324 194.277 209.454 193.405 209.454 192.34C209.541 191.275 210.15 190.548 211.282 190.161C216.853 188.03 219.596 181.638 219.509 170.985C219.509 159.945 219.596 148.807 219.77 137.573C220.031 126.242 220.031 115.201 219.77 104.451C219.596 99.9963 218.551 96.6067 216.636 94.2824C214.808 91.958 213.023 89.9242 211.282 88.181C203.447 80.9175 200.313 72.8792 201.88 64.0661C203.534 55.2531 208.801 46.2947 217.68 37.1911C219.247 35.2542 220.597 34.8184 221.728 35.8837C222.947 36.949 222.991 38.1596 221.859 39.5154C217.942 43.9704 216.201 48.3285 216.636 52.5898C217.071 56.7542 220.205 59.8049 226.038 61.7418C232.828 64.0661 237.529 67.02 240.141 70.6033C242.752 74.1866 244.406 78.3026 245.103 82.9513C245.19 83.726 245.538 84.3555 246.147 84.8398C246.844 85.2272 247.54 85.2272 248.237 84.8398Z" fill="white"/>
<path d="M63.9852 109.1C59.3713 112.683 52.6681 114.475 43.8755 114.475C31.5138 114.184 21.1108 109.632 12.6665 100.819C4.22215 92.0061 0 81.1108 0 68.1333C0 49.345 6.65968 33.3169 19.979 20.0488C33.2984 6.78081 50.1 0.0983761 70.3837 0.00152916C87.6205 -0.0953177 103.856 4.40806 119.091 13.5117C134.412 22.6153 147.819 31.7673 159.31 40.9678C167.319 47.6502 174.719 47.6502 181.509 40.9678C183.424 39.0308 185.078 38.8371 186.471 40.3867C187.864 41.8394 187.733 43.4374 186.079 45.1806L163.619 66.0995C153.608 74.2347 142.16 73.5567 129.276 64.0657C116.827 54.4779 103.726 45.6164 89.971 37.4813C76.3034 29.3461 63.7675 25.2786 52.3634 25.2786C38.957 25.2786 28.2492 29.4914 20.2402 37.9171C12.3182 46.3428 8.31372 55.9306 8.22667 66.6806C7.79139 92.1513 19.3261 106.194 42.8309 108.809C49.5341 109.681 55.5409 107.986 60.8512 103.725C62.8535 102.369 64.3334 102.562 65.291 104.306C66.2486 106.049 65.8133 107.647 63.9852 109.1ZM7.05143 155.441C17.498 146.047 26.4211 139.655 33.8207 136.265C44.4414 131.229 52.6681 132.101 58.5007 138.88C74.6929 157.475 88.2299 171.033 99.1117 179.556C109.994 187.981 119.395 193.114 127.317 194.954C135.326 196.794 142.378 196.165 148.472 193.066C154.566 189.967 160.964 186.141 167.667 181.589C170.279 179.653 172.151 179.556 173.282 181.299C174.414 182.945 173.979 184.689 171.976 186.529C163.619 194.18 154.827 200.814 145.599 206.431C136.371 211.951 126.229 214.76 115.173 214.856C104.204 215.05 92.0603 211.709 78.7409 204.833C65.4216 197.957 50.4917 185.802 33.9513 168.37C28.4669 162.462 23.0695 159.557 17.7592 159.654C14.8863 159.654 11.8394 160.525 8.61841 162.268C6.5291 163.334 5.0927 162.995 4.30921 161.252C3.61277 159.508 4.52684 157.571 7.05143 155.441ZM95.9778 50.7009C89.6228 56.2211 87.9252 62.0804 90.8851 68.2786C93.8449 74.3799 100.2 81.595 109.95 89.9239C126.839 104.451 134.587 118.252 133.194 131.326C131.888 144.4 120.005 155.586 97.5447 164.883C95.7166 165.755 94.3673 165.464 93.4967 164.012C92.7132 162.559 93.1485 161.252 94.8025 160.089C103.334 153.988 106.424 147.402 104.074 140.333C101.81 133.263 95.2813 125.128 84.4865 115.927C71.7766 105.371 64.8122 94.1851 63.5934 82.3698C62.4617 70.4576 72.1248 58.4002 92.5826 46.1975C94.6719 44.9385 96.2389 44.9869 97.2836 46.3428C98.3282 47.6018 97.893 49.0545 95.9778 50.7009Z" fill="white"/>
</mask>
<g mask="url(#mask0_91_348)">
<rect x="-12" y="-27.3313" width="1280" height="315" fill="url(#paint0_radial_91_348)"/>
</g>
<defs>
<radialGradient id="paint0_radial_91_348" cx="0" cy="0" r="1" gradientUnits="userSpaceOnUse" gradientTransform="translate(628 130.169) rotate(-0.0143756) scale(672.5 535.386)">
<stop stop-color="#D9D9D9" stop-opacity="0.69"/>
<stop offset="1" stop-color="#B5897C"/>
</radialGradient>
</defs>
</svg>
