<svg width="1240" height="193" viewBox="0 0 1240 193" fill="none" xmlns="http://www.w3.org/2000/svg">
<mask id="mask0_247_883" style="mask-type:alpha" maskUnits="userSpaceOnUse" x="0" y="0" width="1240" height="193">
<path d="M1186.74 27.8487C1198.68 24.695 1209.63 25.4195 1219.6 30.0222C1226.34 33.2612 1231.58 37.7361 1235.33 43.4469C1239.08 49.1577 1240.57 55.5504 1239.8 62.6249C1239.04 69.6995 1236.69 74.9415 1232.77 78.3509C1228.94 81.7604 1225.78 84.4027 1223.31 86.2779C1220.84 88.153 1218.5 90.1135 1216.28 92.1591C1211.93 96.2504 1211.59 99.9156 1215.26 103.155C1226.76 113.127 1233.37 121.523 1235.07 128.342C1236.86 135.161 1235.67 141.17 1231.49 146.369C1225.7 153.529 1219.52 160.348 1212.95 166.826C1206.48 173.218 1200.04 179.696 1193.65 186.259C1190.5 189.328 1188.58 189.157 1187.9 185.748C1186.79 181.06 1181.76 176.969 1172.81 173.474C1163.94 169.894 1154.57 166.485 1144.68 163.246C1142.89 162.564 1142.76 161.285 1144.3 159.41C1146.6 157.024 1148.99 154.637 1151.46 152.25C1153.93 149.864 1156.4 147.52 1158.87 145.218C1162.71 141.639 1163.99 138.485 1162.71 135.757C1161.52 132.944 1159.26 129.791 1155.93 126.296C1147.58 117.602 1143.53 109.462 1143.79 101.876C1144.13 94.29 1146.9 87.599 1152.1 81.803C1156.96 76.4331 1162.41 71.5321 1168.46 67.0998C1174.6 62.5823 1180.39 57.5534 1185.85 52.0131C1186.53 51.4164 1187.43 51.6295 1188.53 52.6523C1199.96 62.7954 1209.46 67.9095 1217.05 67.9948C1224.72 68.08 1229.7 65.8213 1232.01 61.2185C1234.31 56.5306 1234.09 51.6721 1231.37 46.6432C1228.64 41.5291 1224.21 37.3099 1218.07 33.9857C1208.78 29.383 1198.59 28.9568 1187.51 32.7072C1185.3 33.5595 1183.97 33.0907 1183.55 31.3008C1183.12 29.5108 1184.19 28.3601 1186.74 27.8487ZM1166.29 142.661C1165.44 144.11 1165.69 145.218 1167.06 145.986C1173.11 148.798 1179.16 151.568 1185.21 154.296C1191.26 157.024 1197.36 159.666 1203.49 162.223C1207.76 164.098 1212.02 161.669 1216.28 154.935C1221.56 146.497 1214.57 135.416 1195.31 121.693C1192.33 119.903 1188.66 120.756 1184.32 124.25L1166.29 142.661ZM1183.93 116.068C1184.95 116.835 1185.89 116.792 1186.74 115.94L1210.53 92.6705C1211.29 91.8182 1211.51 91.0511 1211.16 90.3692C1210.91 89.602 1210.27 89.1759 1209.25 89.0906C1204.39 88.5792 1199.02 86.704 1193.14 83.4651C1183.68 78.0952 1177.5 74.4727 1174.6 72.5975C1171.7 70.7223 1167.99 72.427 1163.48 77.7117C1157.76 84.4453 1157.72 90.8806 1163.35 97.0176C1169.06 103.155 1175.92 109.505 1183.93 116.068Z" fill="black"/>
<path d="M1092.59 79.374L1092.46 149.566C1092.46 152.293 1093.1 154.041 1094.38 154.808L1103.58 160.05C1105.03 160.817 1107.97 158.771 1112.41 153.913C1113.34 152.89 1114.37 152.805 1115.47 153.657C1116.67 154.509 1116.75 155.447 1115.73 156.47C1106.78 166.442 1099.92 176.244 1095.15 185.876C1093.87 187.666 1092.33 187.666 1090.54 185.876C1082.02 176.671 1071.49 170.065 1058.96 166.059C1057.6 165.888 1056.87 165.292 1056.79 164.269C1056.79 163.161 1057.26 162.394 1058.2 161.967C1063.82 158.388 1066.63 153.487 1066.63 147.264L1066.51 78.6069C1066.51 76.3908 1065.44 75.2827 1063.31 75.2827C1059.3 75.6236 1056.49 76.8169 1054.87 78.8626C1050.27 84.1472 1046.56 89.6449 1043.75 95.3557C1042.73 97.1457 1041.19 97.1457 1039.15 95.3557C1030.37 89.1335 1020.73 78.1807 1010.25 62.4973C1009.4 60.7074 1007.86 60.4517 1005.65 61.7302C1000.02 65.0544 996.443 72.9813 994.908 85.511C993.374 98.0407 993.715 109.547 995.931 120.031C999.937 139.721 1006.88 152.336 1016.77 157.876C1026.66 163.417 1036.55 164.269 1046.43 160.433C1048.39 159.496 1049.63 159.751 1050.14 161.2C1050.74 162.649 1050.1 163.672 1048.22 164.269C1041.66 166.996 1035.22 170.193 1028.92 173.858C1022.7 177.523 1017.11 181.359 1012.17 185.365C1009.27 187.155 1007.4 186.771 1006.54 184.214C1006.37 182.168 1005.26 180.634 1003.22 179.611C1001.26 178.588 999.596 177.566 998.233 176.543C988.43 169.894 981.484 161.797 977.392 152.251C973.386 142.619 971.128 132.433 970.616 121.694C969.593 97.4014 976.156 78.9052 990.306 66.2051C995.335 61.6876 1001.13 58.0224 1007.69 55.2097C1014.26 52.3117 1020.99 49.9677 1027.89 48.1777C1029.77 47.8368 1031.39 48.9448 1032.75 51.5019C1042.81 67.6115 1050.61 73.578 1056.15 69.4014C1059.82 67.0148 1062.46 64.4578 1064.08 61.7302C1065.78 59.0027 1066.38 54.4852 1065.87 48.1777C1064.93 39.9951 1063.22 33.3041 1060.75 28.1047C1058.37 22.9053 1055.3 18.3878 1051.55 14.5522C1050.35 13.3589 1050.48 12.1656 1051.93 10.9723C1053.21 10.2052 1054.36 10.4609 1055.38 11.7394C1057.34 14.126 1059.35 16.6831 1061.39 19.4106C1063.52 22.1382 1065.31 24.951 1066.76 27.849C1067.19 28.7013 1067.78 29.1275 1068.55 29.1275C1069.4 29.1275 1070.04 28.7866 1070.47 28.1047C1075.58 19.5811 1082.57 12.7196 1091.44 7.52024C1100.39 2.23562 1110.06 -0.236218 1120.46 0.104725C1121.82 0.104725 1122.68 0.658758 1123.02 1.76682C1123.44 3.89772 1122.59 4.96317 1120.46 4.96317C1112.02 4.96317 1105.25 7.39239 1100.13 12.2508C1095.1 17.1093 1092.59 25.9738 1092.59 38.8444V40.2508C1092.59 41.3589 1093.14 42.0407 1094.25 42.2964C1095.27 42.6374 1096.08 42.2538 1096.68 41.1458C1101.88 29.8094 1109.76 22.6496 1120.33 19.6663C1120.76 19.4959 1121.36 19.5811 1122.12 19.922C1122.72 20.4335 1123.02 21.0301 1123.02 21.712V44.3421C1123.02 45.024 1122.76 45.5354 1122.25 45.8763C1121.99 46.2173 1121.48 46.3878 1120.72 46.3878C1111.43 45.1945 1103.37 47.8794 1096.55 54.4425C1095.27 56.2325 1094.72 58.0651 1094.89 59.9403C1095.06 61.8154 1096.17 62.753 1098.21 62.753H1120.2C1121.57 62.753 1122.25 63.4349 1122.25 64.7987V72.9813C1122.25 74.4303 1121.57 75.1548 1120.2 75.1548H1096.42C1095.23 75.1548 1094.29 75.5384 1093.61 76.3055C1092.93 77.0726 1092.59 78.0955 1092.59 79.374Z" fill="black"/>
<path d="M896.405 188.561C895.126 190.692 893.55 190.692 891.674 188.561C882.298 176.884 868.064 168.104 848.971 162.223C847.437 161.797 846.713 161.115 846.798 160.177C846.798 159.24 847.267 158.558 848.204 158.132C853.659 156.257 856.387 150.588 856.387 141.127L856.003 75.9219C856.003 74.9843 855.918 74.2598 855.748 73.7484C855.577 73.1517 855.62 72.6403 855.875 72.2141C856.216 71.7027 856.813 71.4044 857.665 71.3191C880.338 69.4439 900.496 63.2644 918.14 52.7804C918.907 52.3542 919.589 52.2263 920.186 52.3968C920.868 52.5673 921.251 53.1639 921.336 54.1867C922.785 63.3922 927.303 72.4272 934.889 81.2917C939.065 86.4059 942.518 93.3952 945.245 102.26C948.058 111.124 949.166 118.497 948.569 124.378C947.717 131.283 945.458 137.505 941.793 143.045C938.128 148.5 933.951 153.529 929.263 158.132C923.723 163.587 917.757 168.19 911.364 171.94C904.971 175.69 899.985 181.231 896.405 188.561ZM882.469 74.2598L882.98 147.903C882.98 149.182 883.492 150.077 884.515 150.588L907.145 164.652C909.361 166.101 911.406 165.675 913.282 163.374C921.379 154.68 925.044 144.238 924.277 132.05C924.107 124.464 922.615 117.687 919.802 111.721C917.075 105.754 913.665 100.47 909.574 95.867C902.926 89.1334 897.854 80.7803 894.359 70.8077C894.189 70.3815 893.805 70.0406 893.209 69.7849C892.612 69.4439 892.058 69.4013 891.547 69.657C888.989 70.5946 886.432 71.4044 883.875 72.0863C882.938 72.4272 882.469 73.1517 882.469 74.2598Z" fill="black"/>
<path d="M773.992 18.2602C772.884 17.0669 772.842 15.9162 773.864 14.8082C774.972 13.7001 776.336 13.9132 777.956 15.4474C779.916 17.834 781.919 20.3911 783.965 23.1186C786.096 25.8462 787.886 28.659 789.335 31.557C789.761 32.4093 790.357 32.8355 791.125 32.8355C791.977 32.8355 792.616 32.4946 793.042 31.8127C798.071 23.2891 805.061 16.4276 814.01 11.2282C822.96 5.94363 832.634 3.47179 843.033 3.81273C844.994 3.89797 846.016 4.75033 846.102 6.36981C846.187 7.90405 845.164 8.67117 843.033 8.67117C834.595 8.67117 827.819 11.1004 822.704 15.9588C817.676 20.8173 815.161 29.6818 815.161 42.5524L815.033 153.274C815.033 156.001 815.673 157.749 816.951 158.516L826.157 163.758C828.287 164.525 831.228 162.479 834.978 157.621C835.916 156.342 837.067 156.086 838.43 156.854C839.794 157.535 839.752 158.644 838.303 160.178C829.353 170.15 822.491 179.953 817.718 189.584C816.695 191.374 815.161 191.374 813.115 189.584C808.939 184.214 804.634 179.995 800.202 176.927C795.77 173.773 789.548 171.386 781.536 169.767C780.172 169.596 779.447 169 779.362 167.977C779.362 166.869 779.831 166.102 780.768 165.676C782.899 164.908 784.817 163.502 786.522 161.456C788.312 159.325 789.207 155.831 789.207 150.972L789.079 65.0547C789.079 52.7807 787.758 43.1064 785.115 36.0319C782.473 28.9573 778.765 23.0334 773.992 18.2602Z" fill="black"/>
<path d="M650.302 18.8995C649.279 17.1948 649.364 15.9163 650.558 15.0639C651.836 14.2116 653.115 14.5099 654.393 15.9589C658.399 21.1583 661.51 26.3577 663.727 31.557C664.067 32.4946 664.621 33.0487 665.389 33.2191C666.156 33.3896 666.838 32.9634 667.434 31.9406C676.725 16.7686 692.025 8.07457 713.334 5.85844C715.209 5.77321 716.232 6.54033 716.402 8.15981C716.573 9.77929 715.592 10.6743 713.462 10.8447C704.768 11.2709 698.631 13.6149 695.051 17.8767C691.471 22.1385 689.723 30.5768 689.809 43.1917L690.192 76.3058C690.192 77.3287 690.491 78.0105 691.087 78.3515C691.684 78.6072 692.408 78.522 693.261 78.0958C698.545 75.283 703.873 72.1719 709.242 68.7625C714.698 65.353 719.726 61.4748 724.329 57.1278C727.398 53.8888 729.23 54.4428 729.827 58.7899C730.083 61.9436 731.404 64.7564 733.79 67.2282C736.177 69.7001 738.308 72.1293 740.183 74.5159C749.985 87.216 754.545 100.811 753.863 115.301C753.011 130.047 748.153 141.937 739.288 150.972C735.623 154.808 731.532 158.516 727.014 162.096C722.582 165.59 718.789 169.255 715.635 173.091L715.507 172.835C710.393 179.484 706.557 185.45 704 190.735C702.807 193.207 701.273 193.207 699.398 190.735C690.022 179.143 675.745 170.364 656.567 164.397C654.692 163.8 653.797 163.076 653.882 162.224C653.967 161.286 654.649 160.647 655.927 160.306C661.383 158.431 664.067 152.762 663.982 143.301L663.727 65.8218C663.641 54.2298 662.32 44.8112 659.763 37.5662C657.291 30.2359 654.137 24.0137 650.302 18.8995ZM690.192 84.9999L690.704 150.077C690.704 151.271 691.172 152.166 692.11 152.762L711.799 164.525C713.93 165.633 715.72 165.462 717.169 164.013L719.343 161.584C719.513 161.584 719.599 161.499 719.599 161.329C726.503 151.356 729.955 138.912 729.955 123.995C729.869 115.557 728.08 107.886 724.585 100.982C721.175 93.9923 716.658 87.3012 711.032 80.9086C707.367 76.9025 700.761 77.6696 691.215 83.2099C690.533 83.6361 690.192 84.2328 690.192 84.9999Z" fill="black"/>
<path d="M549.369 8.15888C542.635 10.0341 539.354 13.9975 539.524 20.0493C539.609 23.8849 541.783 27.4648 546.045 30.789C550.392 34.0279 555.463 36.2015 561.259 37.3095C561.345 37.3095 561.43 37.3521 561.515 37.4374C579.415 44.0858 594.97 52.7798 608.182 63.5195C621.478 74.2592 629.022 89.8574 630.812 110.314V110.698C629.022 126.04 625.314 138.825 619.688 149.054C614.063 159.282 607.415 167.081 599.743 172.451L599.615 172.707C596.036 175.775 591.816 178.503 586.958 180.889C582.1 183.276 577.795 185.748 574.045 188.305C571.658 189.924 570.124 189.924 569.442 188.305C564.669 176.968 551.5 168.317 529.935 162.35C528.657 162.095 527.975 161.455 527.89 160.433C527.804 159.41 528.273 158.685 529.296 158.259C534.666 156.213 537.351 150.545 537.351 141.255L537.095 88.0674C537.095 85.0842 538.459 83.6778 541.186 83.8483C549.71 84.9563 558.233 82.0583 566.757 75.1542C567.268 74.8133 567.524 74.174 567.524 73.2364C567.354 72.5545 566.928 72.0431 566.246 71.7022C563.007 70.3384 559.768 69.0172 556.529 67.7387C553.29 66.3749 550.136 64.9259 547.068 63.3917C539.141 59.8118 533.259 55.1664 529.424 49.4556C525.673 43.7448 523.457 38.0766 522.775 32.4511V31.8118C524.906 15.5318 533.089 6.45417 547.323 4.57898C549.539 4.23804 550.733 4.66422 550.903 5.85752C551.159 7.05082 550.647 7.81794 549.369 8.15888ZM574.3 75.2821C573.533 74.9411 572.809 75.0264 572.127 75.5378L566.118 80.2684C564.413 81.5469 563.561 83.0811 563.561 84.8711L564.072 148.031C564.072 149.309 564.584 150.204 565.606 150.716L593.223 166.953C595.439 168.317 597.485 167.806 599.36 165.419C607.031 154.594 609.972 140.232 608.182 122.332C606.477 104.347 599.104 90.7524 586.063 81.5469C583.676 79.9274 579.756 77.8391 574.3 75.2821Z" fill="black"/>
<path d="M449.715 188.561C448.437 190.692 446.86 190.692 444.984 188.561C435.609 176.884 421.374 168.104 402.281 162.223C400.747 161.797 400.023 161.115 400.108 160.177C400.108 159.24 400.577 158.558 401.514 158.132C406.969 156.257 409.697 150.588 409.697 141.127L409.313 75.9219C409.313 74.9843 409.228 74.2598 409.058 73.7484C408.887 73.1517 408.93 72.6403 409.185 72.2141C409.526 71.7027 410.123 71.4044 410.975 71.3191C433.648 69.4439 453.806 63.2644 471.45 52.7804C472.217 52.3542 472.899 52.2263 473.496 52.3968C474.178 52.5673 474.561 53.1639 474.647 54.1867C476.096 63.3922 480.613 72.4272 488.199 81.2917C492.376 86.4059 495.828 93.3952 498.555 102.26C501.368 111.124 502.476 118.497 501.879 124.378C501.027 131.283 498.768 137.505 495.103 143.045C491.438 148.5 487.261 153.529 482.573 158.132C477.033 163.587 471.067 168.19 464.674 171.94C458.281 175.69 453.295 181.231 449.715 188.561ZM435.779 74.2598L436.29 147.903C436.29 149.182 436.802 150.077 437.825 150.588L460.455 164.652C462.671 166.101 464.717 165.675 466.592 163.374C474.689 154.68 478.354 144.238 477.587 132.05C477.417 124.464 475.925 117.687 473.112 111.721C470.385 105.754 466.975 100.47 462.884 95.867C456.236 89.1334 451.164 80.7803 447.669 70.8077C447.499 70.3815 447.115 70.0406 446.519 69.7849C445.922 69.4439 445.368 69.4013 444.857 69.657C442.3 70.5946 439.742 71.4044 437.185 72.0863C436.248 72.4272 435.779 73.1517 435.779 74.2598Z" fill="black"/>
<path d="M333.44 188.561C332.161 190.692 330.584 190.692 328.709 188.561C319.333 176.884 305.099 168.104 286.006 162.223C284.472 161.797 283.747 161.115 283.832 160.177C283.832 159.24 284.301 158.558 285.239 158.132C290.694 156.257 293.421 150.588 293.421 141.127L293.038 75.9219C293.038 74.9843 292.953 74.2598 292.782 73.7484C292.612 73.1517 292.654 72.6403 292.91 72.2141C293.251 71.7027 293.848 71.4044 294.7 71.3191C317.373 69.4439 337.531 63.2644 355.175 52.7804C355.942 52.3542 356.624 52.2263 357.22 52.3968C357.902 52.5673 358.286 53.1639 358.371 54.1867C359.82 63.3922 364.338 72.4272 371.924 81.2917C376.1 86.4059 379.552 93.3952 382.28 102.26C385.093 111.124 386.201 118.497 385.604 124.378C384.752 131.283 382.493 137.505 378.828 143.045C375.163 148.5 370.986 153.529 366.298 158.132C360.758 163.587 354.791 168.19 348.399 171.94C342.006 175.69 337.02 181.231 333.44 188.561ZM319.504 74.2598L320.015 147.903C320.015 149.182 320.526 150.077 321.549 150.588L344.179 164.652C346.395 166.101 348.441 165.675 350.316 163.374C358.414 154.68 362.079 144.238 361.312 132.05C361.141 124.464 359.65 117.687 356.837 111.721C354.109 105.754 350.7 100.47 346.609 95.867C339.96 89.1334 334.889 80.7803 331.394 70.8077C331.224 70.3815 330.84 70.0406 330.243 69.7849C329.647 69.4439 329.093 69.4013 328.581 69.657C326.024 70.5946 323.467 71.4044 320.91 72.0863C319.972 72.4272 319.504 73.1517 319.504 74.2598Z" fill="black"/>
<path d="M42.8996 97.9126C54.4064 98.424 63.9102 95.4408 71.4109 88.9629C72.9452 87.5139 74.2663 87.2582 75.3744 88.1958C76.5677 89.0481 76.6103 90.0709 75.5023 91.2642C65.9559 100.555 55.9406 104.987 45.4566 104.561C32.1599 104.305 21.2923 99.8304 12.854 91.1364C4.41561 82.3571 0.15382 70.8076 0.0685838 56.488C-0.698538 41.7422 4.96964 28.829 17.0731 17.7484C29.1766 6.66771 44.0076 1.12738 61.5662 1.12738C81 1.12738 96.8112 7.6053 109 20.5611C110.193 21.6692 111.259 21.584 112.196 20.3054C120.549 7.17913 127.411 0.530733 132.781 0.360262C138.236 0.104554 145.481 6.19891 154.516 18.6433C155.453 19.9219 156.519 20.0497 157.712 19.0269C159.417 17.3222 160.738 16.0436 161.676 15.1913C174.035 3.94017 188.653 -0.875657 205.529 0.743823C222.491 2.27807 234.808 10.5459 242.479 25.5474C244.781 30.3206 246.528 34.9234 247.721 39.3556C249 43.7027 251.77 47.1547 256.032 49.7118C258.418 51.0756 259.612 52.3541 259.612 53.5474C259.612 54.7407 258.844 55.5078 257.31 55.8488C251.599 57.1273 246.016 59.5565 240.561 63.1364C234.765 69.2734 232.933 75.0694 235.064 80.5245C237.195 85.8944 242.778 91.7757 251.812 98.1683C263.319 106.607 268.433 116.878 267.155 128.981C265.962 141.085 258.972 153.273 246.187 165.547C229.992 181.231 214.863 189.115 200.799 189.2C186.735 189.285 174.077 183.447 162.826 171.684C157.201 165.888 151.021 165.292 144.288 169.894C125.877 184.299 110.577 190.266 98.3881 187.794C86.2846 185.407 76.1841 178.588 68.0867 167.337C54.9604 149.267 40.8965 144.878 25.895 154.168C23.9346 155.532 22.443 155.66 21.4202 154.552C20.4826 153.359 20.7383 152.123 22.1873 150.844C34.1203 140.445 44.3486 133.967 52.8722 131.41C61.481 128.853 69.1096 128.768 75.758 131.155C76.7808 131.496 77.5479 131.325 78.0593 130.643C84.6225 123.228 89.8645 114.789 93.7853 105.328C97.7914 95.867 99.5388 85.8944 99.0273 75.4104C98.4307 64.415 93.5296 53.2491 84.3242 41.9127C75.1187 30.4911 62.8021 25.4196 47.3745 26.6981C38.169 27.5505 29.688 31.0451 21.9316 37.1821C14.2603 43.3191 10.169 51.3739 9.65761 61.3465C9.57237 71.3191 12.4704 79.8 18.3517 86.7894C24.2329 93.7787 32.4156 97.4865 42.8996 97.9126ZM228.415 63.3921C222.96 59.386 218.869 54.8259 216.141 49.7118C213.499 44.5976 210.899 39.3983 208.342 34.1136C202.887 23.2887 195.898 16.3846 187.374 13.4013C178.851 10.4181 171.776 11.9949 166.151 18.1319C160.44 24.3541 157.67 31.4713 157.84 39.4835C158.096 47.4104 162.443 57.1273 170.881 68.6341C180.342 81.9309 185.542 93.9918 186.479 104.817C187.417 115.556 183.922 126.552 175.995 137.803C175.399 138.57 175.186 139.252 175.356 139.849C175.526 140.445 176.166 140.829 177.274 140.999C180.939 141.937 185.243 144.537 190.187 148.798C203.313 163.203 213.968 170.704 222.15 171.301C230.418 171.812 236.981 168.999 241.84 162.862C245.42 158.345 246.826 153.06 246.059 147.008C245.377 140.957 238.132 132.348 224.324 121.182C205.402 106.181 202.802 91.6904 216.525 77.7117C220.701 73.5352 224.708 69.9127 228.543 66.8442C229.055 66.3328 229.31 65.7787 229.31 65.1821C229.31 64.5002 229.012 63.9035 228.415 63.3921ZM115.265 28.6159C123.618 41.9979 126.09 57.5109 122.68 75.1547C120.635 85.7239 115.606 95.9096 107.594 105.712C99.5814 115.514 91.3561 124.208 82.9178 131.794C81.8097 133.072 81.8949 134.18 83.1735 135.118C87.0943 137.76 91.6118 141.894 96.726 147.52C105.164 157.237 113.432 163.629 121.53 166.698C129.712 169.766 139.301 166.57 150.297 157.109C160.781 148.159 164.702 138.272 162.059 127.447C159.417 116.622 154.175 105.541 146.333 94.2049C137.554 81.5047 133.974 69.5717 135.593 58.4058C137.213 47.2399 142.157 36.6707 150.425 26.6981C151.192 25.931 151.192 25.036 150.425 24.0132C143.776 16.7682 137.767 13.2735 132.397 13.5292C127.113 13.7849 121.402 18.0467 115.265 26.3146C114.753 27.0817 114.753 27.8488 115.265 28.6159Z" fill="black"/>
</mask>
<g mask="url(#mask0_247_883)">
<rect y="-247" width="1240" height="698" fill="url(#paint0_radial_247_883)"/>
</g>
<defs>
<radialGradient id="paint0_radial_247_883" cx="0" cy="0" r="1" gradientUnits="userSpaceOnUse" gradientTransform="translate(620 102) scale(620 1197.6)">
<stop stop-color="#D9D9D9"/>
<stop offset="1" stop-color="#B5897C"/>
</radialGradient>
</defs>
</svg>
